<svg width="80" height="80" viewBox="0 0 80 80" fill="none" xmlns="http://www.w3.org/2000/svg">
<path d="M17.04 64.72C16.24 64.72 15.44 64 15.44 63.12V33.44H7.68003C7.28003 33.44 6.56003 33.12 6.40003 32.64C6.24003 32.4 6.16003 32.16 6.16003 31.92C6.16003 31.6 6.24003 31.28 6.48003 31.04L22.88 4.88C22.96 4.32 23.76 4 24.16 4C24.56 4 25.28 4.32 25.44 4.88L41.36 31.28C41.52 31.52 41.68 31.84 41.68 32.16C41.68 32.48 41.52 32.88 41.36 33.04C41.04 33.36 40.72 33.68 40.24 33.68H31.6V63.36C31.6 64.16 30.96 64.72 30 64.72H17.04ZM28.72 61.76V31.92C28.72 31.12 29.44 30.32 30.32 30.32H37.36L24.16 8.4L10.48 30.56H17.04C17.84 30.56 18.64 31.28 18.64 32.16V61.84H28.72V61.76Z" fill="#ED6B33"/>
<path d="M49.4401 64.72C48.6401 64.72 47.8401 64 47.8401 63.12V33.44H40.0801C39.6801 33.44 38.9601 33.12 38.8001 32.64C38.6401 32.4 38.5601 32.16 38.5601 31.92C38.5601 31.6 38.6401 31.28 38.8801 31.04L55.3601 4.48L55.4401 4.4C55.5201 4.32 55.9201 4 56.5601 4C56.9601 4 57.6801 4.32 57.8401 4.88L73.5201 31.28C73.6801 31.52 73.8401 31.84 73.8401 32.16C73.8401 32.48 73.6801 32.88 73.5201 33.04C73.2001 33.36 72.8801 33.68 72.4001 33.68H64.0801V63.36C64.0801 64.16 63.4401 64.72 62.4801 64.72H49.4401ZM60.9601 61.76V31.92C60.9601 31.12 61.6801 30.32 62.5601 30.32H69.6001L56.3201 8.16L42.6401 30.32H49.2001C50.0001 30.32 50.8001 31.04 50.8001 31.92V61.84H60.9601V61.76Z" fill="#ED6B33"/>
<path d="M7.67996 76C6.87996 76 6.07996 75.28 6.07996 74.4V63.36C6.07996 62.56 6.79996 61.76 7.67996 61.76H72.32C73.12 61.76 73.92 62.48 73.92 63.36V74.4C73.92 75.2 73.2 76 72.32 76H7.67996ZM71.04 72.88V64.72H9.19996V72.88H71.04Z" fill="#ED6B33"/>
</svg>
