<svg width="70" height="72" viewBox="0 0 70 72" fill="none" xmlns="http://www.w3.org/2000/svg">
<path d="M12.68 72C10.28 72 8.12002 71.12 6.04002 69.36C2.28002 65.36 2.28002 59.28 6.04002 55.6L19 42.08C19.24 41.84 19.48 41.6 19.88 41.6C20.04 41.6 20.28 41.68 20.44 41.76C21 42 21.64 42.16 22.28 42.16C23.64 42.16 25.08 41.52 26.12 40.56C26.52 40.16 26.76 39.76 26.92 39.36L21.64 33.44C20.04 33.92 18.44 34.24 16.76 34.24C12.44 34.24 8.12002 32.4 4.92002 29.2C0.440016 24.48 -0.999984 17.12 1.24002 10.96V10.88L1.40002 10.8C1.64002 10.56 1.96002 10.24 2.36002 10.16C2.52002 10.08 2.68002 10.08 2.84002 10.08C3.24002 10.08 3.56002 10.32 3.72002 10.56L11.88 18.96C12.12 19.2 12.52 19.36 12.6 19.36C12.92 19.36 13.08 19.2 13.32 18.96L18.6 13.68C18.6 13.52 18.68 13.36 18.76 13.2C18.76 13.12 18.84 12.88 18.84 12.8C18.84 12.32 18.84 12.16 18.68 12.08L10.36 3.52C9.96002 3.12 9.96002 2.56 9.96002 2.24V2L10.92 1.04H11C12.84 0.32 14.84 0 16.84 0C21.32 0 25.64 1.84 29 5.2C33.4 9.84 34.92 16.56 33 22.64L39.64 28.8L45.96 22.24C46.28 21.92 46.68 21.76 47 21.76C47.4 21.76 47.72 21.92 48.04 22.24C48.36 22.56 48.52 22.96 48.52 23.28C48.52 23.68 48.36 24 48.04 24.32L39.08 33.52L40.36 34.96L60.68 13.92L59.16 12.24L51.32 20.32C51 20.64 50.6 20.8 50.28 20.8C49.88 20.8 49.56 20.64 49.24 20.32C48.92 20 48.76 19.6 48.76 19.28C48.76 18.88 48.92 18.56 49.24 18.24L58.2 8.96H58.28L60.36 4.64C60.68 4 61.56 3.44 62.2 3.36C62.36 3.28 62.6 3.2 62.76 3.2C63.48 3.2 63.88 3.6 64.28 3.92L68.84 8.72C69.48 9.36 69.48 10 69.48 10.8C69.48 11.6 69 12.32 68.28 12.64L64.36 14.8C64.28 14.96 64.12 15.12 63.96 15.2L45.48 34.24L66.52 53.76C68.68 56.24 69.72 58.56 69.72 60.88C69.72 63.76 68.68 66.4 66.84 68.24C64.92 70.16 62.52 71.12 59.96 71.12H59.72C56.84 71.12 54.44 70.08 52.52 67.92L36.52 50.16C35.88 49.52 35.88 48.72 36.52 48.08C36.84 47.76 37.24 47.6 37.56 47.6C37.96 47.6 38.28 47.76 38.6 48.08L54.6 66.16C56.2 67.76 57.88 68.56 59.64 68.56C61.08 68.56 63.24 68.16 64.92 66.16C66.12 64.72 66.84 62.72 66.84 60.8C66.6 58.8 65.8 57.12 64.44 55.76L43.4 36.32L42.68 37.04L43.4 37.76C44.2 38.88 44.52 39.92 44.52 40.8C44.52 42.08 44.12 43.12 43.4 43.84L40.84 46.4C40.6 46.64 40.36 46.88 39.96 46.88C39.8 46.88 39.56 46.8 39.4 46.72C38.84 46.48 38.2 46.4 37.56 46.4C36.2 46.4 34.76 47.04 33.72 48C32.28 49.68 31.88 51.84 32.52 53.92C32.84 54.48 32.6 55.2 32.2 55.6L19.32 69.12C17.4 70.96 15 72 12.68 72ZM8.12002 57.68C6.84002 58.8 6.20002 60.4 6.12002 62.08C6.04002 63.92 6.76002 65.68 8.12002 67.04C9.32001 68.24 11 68.96 12.68 68.96C14.36 68.96 16.04 68.24 17.24 67.04L29.56 54.24C28.84 51.36 29.64 48.24 31.72 46.16C33.32 44.56 35.32 43.76 37.48 43.76C38.12 43.76 38.84 43.84 39.48 44L41.32 42.16C41.96 41.52 41.96 40.8 41.32 40.16L39.56 38.4L35.96 34.56L34.2 32.72C33.88 32.4 33.56 32.24 33.24 32.24C32.92 32.24 32.52 32.4 32.28 32.72L30.44 34.56C31.16 37.44 30.36 40.56 28.28 42.64C26.68 44.24 24.68 45.04 22.52 45.04C21.88 45.04 21.16 44.96 20.52 44.8L8.12002 57.68ZM22.2 30.4C22.6 30.4 23 30.56 23.32 30.88L27.48 35.68C27.4 35.44 27.32 35.12 27.24 34.8C26.92 34.24 27.16 33.52 27.56 33.12L30.12 30.56C31 29.68 32.12 29.2 33.16 29.2C34.2 29.2 35.32 29.68 36.2 30.56L36.76 31.28L37.16 30.88L29.8 24.08C29.4 23.68 29.16 22.96 29.48 22.32C31.64 17.04 30.52 10.96 26.52 7.04C23.88 4.4 20.36 2.88 16.76 2.88C15.88 2.88 15 2.96 14.12 3.12L21 9.76C21.8 10.56 22.12 11.44 22.12 12.56C22.12 13.68 21.8 14.56 21 15.36L15.64 20.96C14.84 21.76 13.96 22.08 12.84 22.08C11.64 22.08 10.84 21.76 10.04 20.96L3.48002 14.4C2.60002 18.8 3.96002 23.68 7.08002 27.36C9.72002 30 13.16 31.52 16.84 31.52C18.52 31.52 20.12 31.2 21.64 30.56C21.8 30.48 22.04 30.4 22.2 30.4ZM63.32 12.4L66.44 10.72L62.84 6.96L61.16 10.24L63.32 12.4ZM59.64 65.36C57.4 65.36 55.72 63.68 55.72 61.44C55.72 59.2 57.4 57.52 59.64 57.52C61.88 57.52 63.56 59.2 63.56 61.44C63.64 63.68 61.96 65.36 59.64 65.36ZM59.64 60.32C59.08 60.32 58.52 60.88 58.52 61.44C58.52 62 59.08 62.56 59.64 62.56C60.2 62.56 60.76 62 60.76 61.44C60.84 60.88 60.2 60.32 59.64 60.32ZM15.48 64.88C15.16 64.88 14.84 64.88 14.44 64.48C14.12 64.16 13.96 63.76 13.96 63.44C13.96 63.04 14.12 62.72 14.44 62.4L24.36 52H24.44C24.76 51.84 25.08 51.76 25.4 51.76C25.72 51.76 26.04 51.84 26.36 52H26.44L26.52 52.08C26.84 52.4 27 52.8 27 53.12C27 53.44 26.84 53.84 26.52 54.16L16.6 64.56C16.12 64.88 15.72 64.88 15.48 64.88ZM11.64 61.04C11.32 61.04 11 61.04 10.6 60.64C9.96002 60 9.96002 59.2 10.6 58.56L20.52 48.16C20.84 47.84 21.24 47.68 21.56 47.68C21.96 47.68 22.28 47.84 22.6 48.16C23 48.56 23.16 49.04 23.08 49.52C23 49.84 22.84 50.16 22.6 50.32L12.76 60.72C12.28 61.04 11.88 61.04 11.64 61.04Z" fill="#00A6DF"/>
</svg>
