<svg width="56" height="72" viewBox="0 0 56 72" fill="none" xmlns="http://www.w3.org/2000/svg">
<path d="M47.0751 15.975C47.0751 11.85 43.7001 8.55 39.6501 8.55C35.6001 8.55 32.2251 11.925 32.2251 15.975C32.2251 20.025 35.6001 23.4 39.6501 23.4C43.7001 23.4 47.0751 20.1 47.0751 15.975ZM35.9751 15.975C35.9751 13.95 37.6251 12.225 39.7251 12.225C41.8251 12.225 43.4751 13.875 43.4751 15.975C43.4751 18.075 41.8251 19.725 39.7251 19.725C37.5501 19.725 35.9751 18 35.9751 15.975Z" fill="#ED6B33"/>
<path d="M39.65 45.375C41.525 45.375 43.25 44.4 44.15 42.825C49.4 33.75 55.7001 21.675 55.7001 15.975C55.625 7.2 48.5 0 39.65 0C30.8 0 23.675 7.2 23.675 15.975C23.675 21.675 29.975 33.75 35.225 42.825C36.125 44.4 37.775 45.375 39.65 45.375ZM39.65 3.675C46.4 3.675 51.95 9.225 51.95 15.975C51.95 19.725 47.9001 28.8 40.8501 41.025C40.4751 41.7 39.875 41.7 39.65 41.7C39.425 41.7 38.825 41.625 38.45 41.025C31.4 28.875 27.35 19.725 27.35 15.975C27.35 9.225 32.9 3.675 39.65 3.675Z" fill="#ED6B33"/>
<path d="M43.2501 51H11.3001C7.55005 51 4.55005 48 4.55005 44.25C4.55005 40.5 7.55005 37.5 11.3001 37.5H21.3501C22.4001 37.5 23.2251 36.675 23.2251 35.625C23.2251 34.575 22.4001 33.75 21.3501 33.75H11.3001C5.52505 33.75 0.800049 38.475 0.800049 44.25C0.800049 50.025 5.52505 54.75 11.3001 54.75H43.2501C47.0001 54.75 50.0001 57.75 50.0001 61.5C50.0001 65.25 47.0001 68.25 43.2501 68.25H17.0751C16.0251 68.25 15.2001 69.075 15.2001 70.125C15.2001 71.175 16.0251 72 17.0751 72H43.2501C49.0251 72 53.7501 67.275 53.7501 61.5C53.7501 55.725 49.0251 51 43.2501 51Z" fill="#ED6B33"/>
</svg>
