<svg width="16" height="16" viewBox="0 0 16 16" fill="none" xmlns="http://www.w3.org/2000/svg">
<path d="M12.4511 1.44727H5.95519C5.01088 1.44727 4.24172 2.13265 4.24172 2.97797V3.16835H3.10702C2.16271 3.16835 1.39355 3.85374 1.39355 4.69905V13.769C1.39355 14.6143 2.16271 15.2997 3.10702 15.2997H9.60298C10.5473 15.2997 11.3164 14.6143 11.3164 13.769V13.5786H12.4511C13.3955 13.5786 14.1646 12.8932 14.1646 12.0479V2.97797C14.1646 2.13265 13.3955 1.44727 12.4511 1.44727ZM10.2122 13.7766C10.2122 14.0736 9.93806 14.3173 9.60298 14.3173H3.10702C2.77195 14.3173 2.49779 14.0736 2.49779 13.7766V4.70667C2.49779 4.40966 2.77195 4.16597 3.10702 4.16597H9.60298C9.93806 4.16597 10.2122 4.40966 10.2122 4.70667V13.7766ZM13.0604 12.0479C13.0604 12.3449 12.7862 12.5886 12.4511 12.5886H11.3164V4.70667C11.3164 3.86135 10.5473 3.17597 9.60298 3.17597H5.33834V2.98558C5.33834 2.68858 5.6125 2.44489 5.94758 2.44489H12.4435C12.7786 2.44489 13.0528 2.68858 13.0528 2.98558L13.0604 12.0479Z" fill="#808080"/>
</svg>
