<svg width="28" height="28" viewBox="0 0 28 28" fill="none" xmlns="http://www.w3.org/2000/svg">
<g clip-path="url(#clip0)">
<path d="M23.625 23.625H4.375C3.85 23.625 3.5 23.975 3.5 24.5V27.125H24.5V24.5C24.5 23.975 24.15 23.625 23.625 23.625Z" fill="#ED6B33"/>
<path d="M21 7C20.3 7 19.6875 7.0875 19.075 7.2625C20.125 10.325 20.475 14.525 19.6875 18.375H17.9375C18.8125 14.175 18.375 7.0875 15.6625 4.9C16.275 4.4625 16.625 3.85 16.625 3.0625C16.625 1.8375 15.6625 0.875 14.4375 0.875C13.2125 0.875 12.25 1.8375 12.25 3.0625C12.25 3.85 12.6 4.4625 13.2125 4.9C10.4125 7.175 10.0625 14.4375 10.9375 18.375H9.1875C8.4875 14.7875 8.6625 10.675 9.7125 7.525C8.8375 7.175 7.9625 7 7 7C3.15 7 0 10.15 0 14C0 16.625 1.4 18.8125 3.5 20.0375V21C3.5 21.4375 3.9375 21.875 4.375 21.875H23.625C24.15 21.875 24.5 21.4375 24.5 21V20.0375C26.6 18.8125 28 16.5375 28 14C28 10.15 24.85 7 21 7Z" fill="#ED6B33"/>
</g>
<defs>
<clipPath id="clip0">
<rect width="28" height="28" fill="white"/>
</clipPath>
</defs>
</svg>
