<svg width="20" height="20" viewBox="0 0 20 20" fill="none" xmlns="http://www.w3.org/2000/svg">
<path d="M18.2543 4.43884C18.0892 4.43884 17.9551 4.57271 17.9551 4.73809V10.0249H10.374V5.03735H12.6683C12.8335 5.03735 12.9676 4.90348 12.9676 4.73809C12.9676 4.57271 12.8335 4.43884 12.6683 4.43884H1.69574C1.53035 4.43884 1.39648 4.57271 1.39648 4.73809V17.3067C1.39648 17.4719 1.53035 17.6059 1.69574 17.6059H18.2543C18.4195 17.6059 18.5536 17.4719 18.5536 17.3067V4.73809C18.5536 4.57271 18.4195 4.43884 18.2543 4.43884ZM9.77554 5.03735V10.0249H1.99499V5.03735H9.77554ZM1.99499 10.6234H9.77554V17.0074H1.99499V10.6234ZM10.374 17.0074V10.6234H17.9551V17.0074H10.374Z" fill="#00A6DF"/>
<path d="M12.4688 6.2344C11.6437 6.2344 10.9725 6.90553 10.9725 7.73066C10.9725 8.5558 11.6437 9.22692 12.4688 9.22692H15.4613C16.2865 9.22692 16.9576 8.5558 16.9576 7.73066C16.9576 6.90553 16.2865 6.2344 15.4613 6.2344H14.5636V4.06882C14.5636 3.48787 15.0468 3.01525 15.6405 3.01525C16.2342 3.01525 16.7174 3.48787 16.7174 4.06882C16.7174 4.2342 16.8514 4.36807 17.0166 4.36807C17.1818 4.36807 17.3159 4.2342 17.3159 4.06882C17.3159 3.1579 16.5642 2.41675 15.6405 2.41675C14.7168 2.41675 13.9651 3.1577 13.9651 4.06882V6.2344H12.4688ZM16.3591 7.73066C16.3591 8.22563 15.9563 8.62842 15.4613 8.62842H12.4688C11.9738 8.62842 11.571 8.22563 11.571 7.73066C11.571 7.2357 11.9738 6.83291 12.4688 6.83291H15.4613C15.9563 6.83291 16.3591 7.2357 16.3591 7.73066Z" fill="#00A6DF"/>
<path d="M3.29174 6.83288H4.68825C4.85364 6.83288 4.98751 6.69901 4.98751 6.53363C4.98751 6.36824 4.85364 6.23438 4.68825 6.23438H3.29174C3.12636 6.23438 2.99249 6.36824 2.99249 6.53363C2.99249 6.69901 3.12636 6.83288 3.29174 6.83288Z" fill="#00A6DF"/>
<path d="M3.29174 9.02746H4.68825C4.85364 9.02746 4.98751 8.89359 4.98751 8.72821C4.98751 8.56282 4.85364 8.42896 4.68825 8.42896H3.29174C3.12636 8.42896 2.99249 8.56282 2.99249 8.72821C2.99249 8.89359 3.12636 9.02746 3.29174 9.02746Z" fill="#00A6DF"/>
<path d="M6.88275 6.83288H8.27926C8.44464 6.83288 8.57851 6.69901 8.57851 6.53363C8.57851 6.36824 8.44464 6.23438 8.27926 6.23438H6.88275C6.71736 6.23438 6.5835 6.36824 6.5835 6.53363C6.5835 6.69901 6.71736 6.83288 6.88275 6.83288Z" fill="#00A6DF"/>
<path d="M6.88275 9.02746H8.27926C8.44464 9.02746 8.57851 8.89359 8.57851 8.72821C8.57851 8.56282 8.44464 8.42896 8.27926 8.42896H6.88275C6.71736 8.42896 6.5835 8.56282 6.5835 8.72821C6.5835 8.89359 6.71736 9.02746 6.88275 9.02746Z" fill="#00A6DF"/>
</svg>
