<svg width="20" height="20" viewBox="0 0 20 20" fill="none" xmlns="http://www.w3.org/2000/svg">
<path d="M10 0.400391C7.46002 0.400391 5.02002 1.42039 3.22002 3.22039C1.42002 5.02039 0.400024 7.46039 0.400024 10.0004C0.400024 11.9204 0.980024 13.7804 2.06002 15.3604L0.460024 18.7404C0.320024 19.0404 0.440024 19.4004 0.740024 19.5404C0.900024 19.6204 1.08002 19.6204 1.24002 19.5404L4.62002 17.9404C6.22002 19.0204 8.08002 19.6004 10 19.6004C12.54 19.6004 14.98 18.5804 16.78 16.7804C18.58 14.9804 19.6 12.5404 19.6 10.0004C19.6 7.46039 18.58 5.02039 16.78 3.22039C14.98 1.42039 12.54 0.400391 10 0.400391ZM5.88002 6.56039H9.92002C10.26 6.56039 10.52 6.82039 10.54 7.14039C10.54 7.48039 10.28 7.74039 9.96002 7.76039H9.94002H5.88002C5.54002 7.76039 5.28002 7.50039 5.26002 7.18039C5.26002 6.84039 5.52002 6.58039 5.84002 6.56039C5.86002 6.56039 5.86002 6.56039 5.88002 6.56039ZM5.88002 9.40039H14.12C14.46 9.40039 14.72 9.68039 14.7 10.0204C14.7 10.3404 14.44 10.6004 14.12 10.6004H5.88002C5.54002 10.6004 5.28002 10.3204 5.30002 9.98039C5.30002 9.66039 5.56002 9.40039 5.88002 9.40039ZM5.84002 12.2404H5.86002H14.1C14.44 12.2404 14.7 12.5004 14.7 12.8404C14.7 13.1804 14.44 13.4404 14.1 13.4404H5.88002C5.54002 13.4404 5.28002 13.1804 5.26002 12.8604C5.26002 12.5204 5.52002 12.2404 5.84002 12.2404Z" fill="#333333"/>
</svg>
