<svg width="18" height="18" viewBox="0 0 18 18" fill="none" xmlns="http://www.w3.org/2000/svg">
<g clip-path="url(#clip0)">
<path d="M9.44044 0.328522C14.1641 0.328522 18.0004 4.16489 18.0004 8.8885C18.0004 13.6121 14.1641 17.4485 9.44044 17.4485C7.87452 17.4485 6.33955 17.0199 5.00085 16.2077L0 17.6719L1.84273 12.83C1.21195 11.6159 0.880458 10.2569 0.880458 8.8885C0.880458 4.16489 4.71683 0.328522 9.44044 0.328522V0.328522ZM9.44044 1.29758C5.24544 1.29758 1.84951 4.69351 1.84951 8.8885C1.84951 10.1835 2.16702 11.4294 2.79483 12.5629L2.90504 12.7609L1.59602 16.1992L5.15218 15.1577L5.33574 15.2764C6.56804 16.0695 7.97541 16.4794 9.44044 16.4794C13.6354 16.4794 17.0314 13.0835 17.0314 8.8885C17.0314 4.69351 13.6354 1.29758 9.44044 1.29758Z" fill="#ED6B33"/>
<path fill-rule="evenodd" clip-rule="evenodd" d="M9.08178 4.06018H9.79734C10.1526 4.06018 10.4294 4.35607 10.4061 4.71046L10.0051 10.7918C9.98471 11.1005 9.73842 11.2946 9.43829 11.2946C9.13944 11.2946 8.89442 11.0988 8.87407 10.7918L8.47305 4.71046C8.44974 4.35607 8.72655 4.06018 9.08178 4.06018Z" fill="#ED6B33"/>
<path fill-rule="evenodd" clip-rule="evenodd" d="M9.43955 12.0971C9.88677 12.0971 10.2492 12.4595 10.2492 12.9067C10.2492 13.354 9.88677 13.7164 9.43955 13.7164C8.99232 13.7164 8.62988 13.354 8.62988 12.9067C8.62988 12.4595 8.99232 12.0971 9.43955 12.0971Z" fill="#ED6B33"/>
</g>
<defs>
<clipPath id="clip0">
<rect width="18" height="18" fill="white"/>
</clipPath>
</defs>
</svg>
