<svg width="28" height="16" viewBox="0 0 28 16" fill="none" xmlns="http://www.w3.org/2000/svg">
<path d="M13.8522 4.28411C13.8522 3.90012 13.5271 3.5752 13.1429 3.5752H4.27623C3.89201 3.5752 3.56689 3.90012 3.56689 4.28411C3.56689 4.66811 3.89201 4.99303 4.27623 4.99303H13.1429C13.5567 4.99303 13.8522 4.66811 13.8522 4.28411Z" fill="#ED6B33"/>
<path d="M12.6995 7.68255C12.6995 7.29855 12.3744 6.97363 11.9902 6.97363H7.32042C6.93619 6.97363 6.61108 7.29855 6.61108 7.68255C6.61108 8.06655 6.93619 8.39147 7.32042 8.39147H11.9902C12.404 8.39147 12.6995 8.06655 12.6995 7.68255Z" fill="#ED6B33"/>
<path d="M19.6451 0.176758H1.40928C1.02506 0.176758 0.699951 0.501869 0.699951 0.886091C0.699951 1.27031 1.02506 1.59542 1.40928 1.59542H19.6746C23.1326 1.59542 25.9108 4.4032 25.9108 7.83165C25.9108 11.2601 23.1031 14.0679 19.6746 14.0679C17.3397 14.0679 15.2117 12.7674 14.1182 10.6985C14 10.4621 13.7635 10.3143 13.4975 10.3143H9.86217C9.47795 10.3143 9.15284 10.6394 9.15284 11.0236C9.15284 11.4079 9.47795 11.733 9.86217 11.733H13.0542C14.4137 14.0679 16.926 15.5161 19.6451 15.5161C23.8715 15.4865 27.3 12.0581 27.3 7.83165C27.3 3.6052 23.8715 0.176758 19.6451 0.176758Z" fill="#ED6B33"/>
<path d="M19.645 2.83691C19.2313 2.83691 18.8766 3.19158 18.8766 3.60536V7.97958C18.8766 8.03869 18.8766 8.06825 18.8766 8.12736C18.8766 8.18647 18.9061 8.21602 18.9061 8.27513C18.9357 8.30469 18.9357 8.3638 18.9653 8.39336C18.9948 8.42291 19.0244 8.48202 19.0539 8.51158L21.0046 10.4622C21.1524 10.61 21.3593 10.6987 21.5366 10.6987C21.7435 10.6987 21.9208 10.61 22.0686 10.4622C22.3641 10.1667 22.3641 9.66425 22.0686 9.36869L20.3248 7.62491V3.60536C20.4135 3.19158 20.0884 2.83691 19.645 2.83691Z" fill="#ED6B33"/>
</svg>
