<svg width="32" height="22" viewBox="0 0 32 22" fill="none" xmlns="http://www.w3.org/2000/svg">
<path d="M32 10.8934C32 10.6465 31.8507 10.3188 31.6993 10.1598L23.1661 1.09292C22.7677 0.681021 22.1222 0.633286 21.6577 1.05131C21.2425 1.42502 21.2321 2.15387 21.6161 2.55969L28.466 9.82651H1.06667C0.477548 9.82651 0 10.3041 0 10.8932C0 11.4823 0.477548 11.9599 1.06667 11.9599H28.466L21.6161 19.2267C21.2322 19.6325 21.2594 20.3434 21.6577 20.735C22.0783 21.1484 22.7737 21.1116 23.1661 20.6934L31.6993 11.6266C31.95 11.3807 31.9958 11.1438 32 10.8934Z" fill="#7C7C7C"/>
</svg>
