<svg width="20" height="20" viewBox="0 0 20 20" fill="none" xmlns="http://www.w3.org/2000/svg">
<g clip-path="url(#clip0)">
<path d="M11.292 14.084V16.776H13.148C13.2858 16.7727 13.4229 16.7975 13.5508 16.8488C13.6788 16.9002 13.7949 16.977 13.8922 17.0747C13.9895 17.1723 14.0659 17.2888 14.1168 17.4169C14.1676 17.5451 14.1919 17.6822 14.188 17.82V18.064H14.776C15.036 18.064 15.176 18.184 15.176 18.464C15.176 18.864 15.176 19.264 15.176 19.636C15.176 19.9 15.056 20.036 14.776 20.036H5.22002C4.95602 20.036 4.82002 19.92 4.82002 19.636C4.82002 19.236 4.82002 18.86 4.82002 18.468C4.82002 18.196 4.93602 18.068 5.22002 18.068H5.79202V17.848C5.78443 17.7051 5.80713 17.5621 5.85863 17.4286C5.91013 17.295 5.98927 17.1739 6.09086 17.0731C6.19245 16.9722 6.31419 16.894 6.44812 16.8435C6.58206 16.793 6.72515 16.7714 6.86802 16.78H8.68002V14.084C7.59208 13.8689 6.56901 13.4039 5.69157 12.7257C4.81413 12.0475 4.10632 11.1746 3.62402 10.176C2.89264 8.75021 2.69951 7.10861 3.08002 5.55201C3.45185 3.92164 4.38353 2.47324 5.71293 1.45882C7.04234 0.44441 8.68533 -0.0718029 10.356 5.68433e-06C12.0287 0.099839 13.6135 0.78285 14.8347 1.93024C16.0559 3.07762 16.8362 4.61679 17.04 6.28001C17.2384 8.0652 16.7571 9.85963 15.6919 11.3059C14.6267 12.7521 13.0557 13.744 11.292 14.084ZM4.49202 3.66001L6.17602 4.60401C6.54002 4.24001 6.88002 3.90401 7.21602 3.56001C7.25176 3.51363 7.27392 3.45824 7.28002 3.40001C7.30288 3.10837 7.38574 2.8246 7.52341 2.56648C7.66107 2.30836 7.85057 2.08146 8.08002 1.90001C8.53328 1.52741 9.07952 1.28541 9.66002 1.20001V0.652006C8.62218 0.702376 7.61176 1.00204 6.71426 1.52564C5.81677 2.04923 5.05863 2.78134 4.50402 3.66001H4.49202ZM9.65602 11.66C9.18002 11.524 8.73202 11.392 8.28402 11.26C8.23251 11.2505 8.1793 11.2575 8.13202 11.28C7.81118 11.4312 7.45864 11.5028 7.10424 11.4889C6.74984 11.475 6.40401 11.3759 6.09602 11.2C5.66758 10.9756 5.29559 10.6569 5.00802 10.268L4.52002 10.544C5.06104 11.4304 5.8158 12.167 6.71518 12.6862C7.61456 13.2054 8.62983 13.4907 9.66802 13.516L9.65602 11.66ZM15.8 9.97201C16.2275 9.07493 16.4494 8.09373 16.4494 7.10001C16.4494 6.10628 16.2275 5.12508 15.8 4.22801L14.108 5.17601C14.216 5.53201 14.344 5.85201 14.412 6.18401C14.4204 6.3023 14.4562 6.41702 14.5166 6.51908C14.577 6.62113 14.6604 6.70773 14.76 6.77201C14.8532 6.83792 14.9332 6.92068 14.996 7.01601C15.2429 7.35287 15.4076 7.74277 15.4771 8.15461C15.5465 8.56644 15.5188 8.98881 15.396 9.38801C15.372 9.48801 15.336 9.58801 15.308 9.68801L15.8 9.97201ZM10.328 1.17201C10.352 1.17201 10.36 1.19601 10.372 1.19601H10.552C11.2038 1.25567 11.8146 1.53986 12.28 2.00001C12.4489 2.14519 12.5753 2.33344 12.6458 2.54475C12.7162 2.75606 12.7281 2.98251 12.68 3.20001C12.6528 3.29228 12.6569 3.39096 12.6916 3.48067C12.7264 3.57039 12.7898 3.64609 12.872 3.69601C13.188 3.98001 13.468 4.30801 13.78 4.63201L15.476 3.68401C14.921 2.80481 14.1623 2.07236 13.264 1.54874C12.3658 1.02511 11.3545 0.725745 10.316 0.676006L10.328 1.17201ZM10.328 13.516C11.3666 13.484 12.3809 13.1942 13.2796 12.6725C14.1783 12.1509 14.9331 11.414 15.476 10.528L15 10.264L14.888 10.424C14.5567 10.9339 14.0762 11.3292 13.512 11.556C13.2526 11.6895 12.9572 11.7363 12.6692 11.6895C12.3812 11.6427 12.1158 11.5048 11.912 11.296C11.832 11.216 11.772 11.236 11.684 11.264C11.352 11.368 11.016 11.468 10.68 11.556C10.5575 11.5834 10.4332 11.6021 10.308 11.612L10.328 13.516ZM4.21202 4.23601C3.24802 6.09601 3.41202 8.54401 4.21202 9.95201L4.67202 9.69601C4.42918 9.22176 4.31472 8.69221 4.34002 8.16001C4.39202 7.45601 4.64402 6.88001 5.39602 6.66001C5.41905 6.65207 5.44019 6.63945 5.4581 6.62292C5.476 6.6064 5.49027 6.58633 5.50002 6.56401C5.62002 6.10801 5.73202 5.64801 5.85202 5.16001L4.21202 4.23601ZM5.48802 19.34H14.5V18.72H5.48802V19.34ZM10.036 8.40001C10.2096 8.39844 10.381 8.36101 10.5395 8.29007C10.698 8.21913 10.8401 8.11621 10.9569 7.98776C11.0737 7.85931 11.1627 7.70811 11.2183 7.54364C11.2739 7.37917 11.2949 7.20498 11.28 7.03201C11.2434 6.70446 11.0825 6.40343 10.8306 6.19088C10.5787 5.97833 10.2549 5.87043 9.9259 5.88939C9.59686 5.90836 9.2876 6.05274 9.0618 6.29282C8.83599 6.53291 8.71081 6.85042 8.71202 7.18001C8.71492 7.3483 8.75194 7.51425 8.82083 7.66782C8.88973 7.82138 8.98908 7.95937 9.11286 8.07343C9.23664 8.18749 9.38228 8.27524 9.54095 8.33137C9.69963 8.38751 9.86805 8.41085 10.036 8.40001ZM13.544 18.076V17.92C13.544 17.468 13.5 17.42 13.056 17.42H6.80002C6.54802 17.42 6.46402 17.512 6.45602 17.76V18.06L13.544 18.076ZM9.36002 16.76H10.628V14.188H9.36002V16.76ZM8.16002 10.528L9.42802 9.01201L8.43202 8.33601L6.76002 9.27201C7.11741 9.80289 7.6031 10.2349 8.17202 10.528H8.16002ZM9.65202 5.12801V3.24801C9.17725 3.27385 8.7123 3.39348 8.28402 3.60001C7.84402 3.81601 7.92802 3.74401 8.06802 4.14001C8.24802 4.66001 8.44802 5.17201 8.62402 5.65601L9.65202 5.12801ZM11.936 6.62801C11.904 6.99201 11.864 7.33201 11.84 7.67201C11.8447 7.70149 11.8558 7.72962 11.8723 7.75446C11.8889 7.77931 11.9106 7.8003 11.936 7.81601C12.18 7.96001 12.428 8.09601 12.672 8.21601L13.516 8.684C13.7471 8.17584 13.8606 7.6221 13.848 7.06401C13.848 7.01601 13.76 6.93601 13.704 6.92401C13.12 6.82801 12.516 6.72801 11.948 6.62801H11.936ZM11.484 8.30801L11.176 8.67201L12.096 10.364C12.5395 10.0835 12.9163 9.70943 13.2 9.26801L11.484 8.30801ZM11.752 3.64401C11.3061 3.41304 10.8172 3.27685 10.316 3.24401V5.20001L10.716 5.33201L11.752 3.64401ZM8.04002 7.31201H6.09202L6.42002 8.72801L7.80402 7.952C8.20402 7.73601 8.20402 7.73601 8.05602 7.32401L8.04002 7.31201ZM13.24 4.91201L12.368 3.97201C11.9827 4.45472 11.6576 4.98262 11.4 5.54401C11.348 5.68801 11.34 5.80001 11.504 5.88801L13.24 4.91201ZM11.48 10.712L11.532 10.632L10.636 9.09201C10.6252 9.06308 10.6074 9.03725 10.5843 9.01682C10.5611 8.99639 10.5333 8.98198 10.5032 8.97486C10.4732 8.96775 10.4418 8.96814 10.412 8.97602C10.3821 8.98389 10.3547 8.999 10.332 9.02001V10.988L11.48 10.712ZM8.19202 6.52401L8.16402 6.44401L6.43602 5.48001L6.12802 6.60401C6.73038 6.70929 7.34495 6.72546 7.95202 6.65201C8.03874 6.62335 8.11991 6.58006 8.19202 6.52401ZM12.444 10.952C12.6157 11.0138 12.7944 11.0541 12.976 11.072C13.2893 11.0136 13.5833 10.8785 13.8318 10.6789C14.0802 10.4793 14.2754 10.2214 14.4 9.92801L13.808 9.60001L12.444 10.952ZM10.332 1.85601V2.53201L12.052 3.03201C12.216 2.40001 11.3 1.84001 10.332 1.85601ZM5.43202 7.35601C4.76002 7.53201 4.85202 8.788 5.27602 9.35601L5.86402 9.024L5.43202 7.35601ZM7.43202 10.86L6.19202 9.60001L5.56802 9.94801C5.78498 10.238 6.06802 10.472 6.3936 10.6306C6.71919 10.7893 7.07793 10.8679 7.44002 10.86H7.43202ZM9.66402 1.86801C9.32676 1.91178 9.0051 2.0365 8.72649 2.23153C8.44788 2.42656 8.22059 2.6861 8.06402 2.98801L9.66402 2.54001V1.86801ZM14.724 9.36801C14.8383 9.05552 14.8818 8.72156 14.8514 8.39022C14.8209 8.05889 14.7173 7.73844 14.548 7.452L14.12 9.03201L14.724 9.36801ZM7.38802 4.16801L6.75602 4.92001L7.88802 5.55201L7.38802 4.16801ZM9.65602 10.968V9.76801L8.80002 10.8L9.65602 10.968ZM13.54 5.48801L12.552 6.04401L12.572 6.08401L13.804 6.29201L13.54 5.48801Z" fill="#00A6DF"/>
<path d="M4.50403 3.65998C5.05864 2.78132 5.81678 2.0492 6.71427 1.52561C7.61176 1.00201 8.62219 0.702348 9.66003 0.651978V1.19998C9.08737 1.28652 8.54853 1.52554 8.10003 1.89198C7.87057 2.07343 7.68108 2.30033 7.54341 2.55845C7.40575 2.81657 7.32289 3.10034 7.30003 3.39198C7.29393 3.45021 7.27177 3.5056 7.23603 3.55198C6.90003 3.89598 6.56003 4.23198 6.19603 4.59598L4.50403 3.65998Z" fill="transparent"/>
<path d="M9.66802 11.664V13.504C8.62983 13.4787 7.61456 13.1934 6.71518 12.6742C5.8158 12.155 5.06104 11.4184 4.52002 10.532L5.00802 10.256C5.29423 10.6492 5.66632 10.9721 6.09602 11.2C6.40352 11.3817 6.75051 11.486 7.10721 11.5042C7.46392 11.5223 7.8197 11.4536 8.14402 11.304C8.1913 11.2814 8.24451 11.2744 8.29602 11.284C8.74402 11.396 9.20002 11.528 9.66802 11.664Z" fill="transparent"/>
<path d="M15.8 9.97203L15.296 9.68803C15.324 9.58803 15.36 9.48803 15.384 9.38803C15.5068 8.98883 15.5345 8.56646 15.4651 8.15463C15.3956 7.74279 15.2309 7.35289 14.984 7.01603C14.9212 6.9207 14.8412 6.83795 14.748 6.77203C14.6483 6.70775 14.565 6.62116 14.5046 6.5191C14.4442 6.41704 14.4084 6.30232 14.4 6.18403C14.332 5.85203 14.204 5.53203 14.096 5.17603L15.788 4.22803C16.2174 5.12421 16.4413 6.10494 16.4434 7.09867C16.4454 8.0924 16.2256 9.07406 15.8 9.97203Z" fill="transparent"/>
<path d="M10.328 1.17198V0.651978C11.3665 0.701717 12.3778 1.00108 13.276 1.52471C14.1742 2.04833 14.933 2.78078 15.488 3.65998L13.792 4.60798C13.48 4.28398 13.2 3.95598 12.884 3.67198C12.8018 3.62207 12.7383 3.54636 12.7036 3.45664C12.6689 3.36693 12.6648 3.26825 12.692 3.17598C12.74 2.95848 12.7282 2.73203 12.6578 2.52072C12.5873 2.30942 12.4609 2.12116 12.292 1.97598C11.826 1.5173 11.2152 1.23455 10.564 1.17598H10.384C10.384 1.17598 10.352 1.19998 10.328 1.17198Z" fill="transparent"/>
<path d="M10.324 13.516V11.6C10.4492 11.59 10.5735 11.5713 10.696 11.544C11.032 11.456 11.368 11.356 11.7 11.252C11.788 11.224 11.848 11.204 11.928 11.284C12.1319 11.4927 12.3972 11.6306 12.6852 11.6774C12.9732 11.7242 13.2686 11.6774 13.528 11.544C14.0922 11.3171 14.5727 10.9218 14.904 10.412L15.016 10.252L15.492 10.516C14.9487 11.4069 14.1914 12.148 13.2888 12.6719C12.3863 13.1958 11.3672 13.486 10.324 13.516Z" fill="transparent"/>
<path d="M4.21204 4.23608L5.86404 5.16008C5.74404 5.64808 5.63204 6.10808 5.51204 6.56408C5.5023 6.58641 5.48802 6.60647 5.47012 6.623C5.45222 6.63952 5.43108 6.65215 5.40804 6.66008C4.65604 6.88008 4.40404 7.46008 4.35204 8.16008C4.32674 8.69229 4.4412 9.22184 4.68404 9.69608L4.22404 9.95208C3.41204 8.54408 3.24804 6.09608 4.21204 4.23608Z" fill="transparent"/>
<path d="M5.48804 19.34V18.72H14.5V19.34H5.48804Z" fill="transparent"/>
<path d="M10.036 8.40003C9.86807 8.41088 9.69965 8.38753 9.54097 8.3314C9.38229 8.27527 9.23665 8.18751 9.11287 8.07346C8.98909 7.9594 8.88975 7.82141 8.82085 7.66784C8.75195 7.51428 8.71493 7.34832 8.71203 7.18003C8.69863 6.92438 8.76171 6.67052 8.89323 6.45088C9.02476 6.23124 9.21875 6.05578 9.45045 5.94689C9.68214 5.83801 9.94103 5.80064 10.1941 5.83956C10.4471 5.87847 10.6828 5.99191 10.8711 6.16539C11.0593 6.33887 11.1916 6.56452 11.2511 6.81353C11.3105 7.06254 11.2944 7.32362 11.2048 7.56343C11.1152 7.80324 10.9561 8.01091 10.748 8.15992C10.5398 8.30893 10.2919 8.39253 10.036 8.40003Z" fill="transparent"/>
<path d="M13.544 18.06H6.448V17.76C6.448 17.512 6.54 17.42 6.792 17.42H13.056C13.5 17.42 13.548 17.468 13.544 17.92V18.06Z" fill="transparent"/>
<path d="M9.36005 16.76V14.188H10.628V16.76H9.36005Z" fill="transparent"/>
<path d="M8.17203 10.5281C7.60749 10.2333 7.12608 9.80143 6.77203 9.27206L8.44403 8.33606L9.44003 9.01206L8.17203 10.5281Z" fill="transparent"/>
<path d="M9.66404 5.12805L8.62404 5.67205C8.44804 5.18805 8.24804 4.67605 8.06804 4.15605C7.92804 3.75605 7.84404 3.83205 8.28404 3.61605C8.71484 3.40245 9.18408 3.27732 9.66404 3.24805V5.12805Z" fill="transparent"/>
<path d="M11.948 6.62793C12.516 6.72793 13.12 6.82793 13.716 6.93993C13.772 6.93993 13.86 7.03193 13.86 7.07993C13.8725 7.63802 13.7591 8.19176 13.528 8.69993L12.684 8.23193C12.44 8.09593 12.192 7.95993 11.948 7.83193C11.9226 7.81623 11.9009 7.79524 11.8843 7.77039C11.8677 7.74554 11.8567 7.71742 11.852 7.68793C11.876 7.33193 11.916 6.99193 11.948 6.62793Z" fill="transparent"/>
<path d="M11.496 8.30798L13.216 9.26798C12.9311 9.70984 12.5529 10.0839 12.108 10.364L11.2 8.67198L11.496 8.30798Z" fill="transparent"/>
<path d="M11.764 3.64405L10.74 5.31205L10.34 5.18005V3.24805C10.8368 3.28127 11.3214 3.41605 11.764 3.64405Z" fill="transparent"/>
<path d="M8.03999 7.31205C8.17199 7.71205 8.17199 7.71205 7.78799 7.94005L6.40399 8.71605L6.07599 7.30005L8.03999 7.31205Z" fill="transparent"/>
<path d="M13.252 4.90792L11.504 5.88792C11.34 5.79992 11.348 5.68792 11.4 5.54392C11.6576 4.98254 11.9827 4.45464 12.368 3.97192L13.252 4.90792Z" fill="transparent"/>
<path d="M11.48 10.7119L10.332 10.9879V9.01993C10.3547 8.99892 10.3821 8.98381 10.412 8.97594C10.4419 8.96807 10.4732 8.96767 10.5032 8.97479C10.5333 8.9819 10.5611 8.99632 10.5843 9.01675C10.6075 9.03718 10.6252 9.063 10.636 9.09193L11.532 10.6319L11.48 10.7119Z" fill="transparent"/>
<path d="M8.19199 6.52398C8.11988 6.58003 8.03871 6.62333 7.95199 6.65198C7.34492 6.72544 6.73035 6.70927 6.12799 6.60398L6.43599 5.47998L8.16399 6.44398L8.19199 6.52398Z" fill="transparent"/>
<path d="M12.444 10.952L13.808 9.59998L14.4 9.92798C14.2754 10.2213 14.0802 10.4793 13.8318 10.6789C13.5833 10.8785 13.2893 11.0135 12.976 11.072C12.7944 11.0541 12.6157 11.0138 12.444 10.952Z" fill="transparent"/>
<path d="M10.332 1.85596C11.3 1.85596 12.216 2.40396 12.052 3.03196L10.332 2.53196V1.85596Z" fill="transparent"/>
<path d="M5.43198 7.35596L5.86398 9.03596L5.27598 9.36796C4.85198 8.79996 4.75998 7.53196 5.43198 7.35596Z" fill="transparent"/>
<path d="M7.43999 10.86C7.07756 10.8674 6.7186 10.7882 6.39299 10.6288C6.06737 10.4695 5.78453 10.2347 5.56799 9.94398L6.19199 9.59998L7.43999 10.86Z" fill="transparent"/>
<path d="M9.66403 1.86804V2.54004L8.06403 2.98804C8.22059 2.68614 8.44788 2.42659 8.72649 2.23157C9.0051 2.03654 9.32677 1.91182 9.66403 1.86804Z" fill="transparent"/>
<path d="M14.724 9.36803L14.12 9.03203L14.548 7.45203C14.7173 7.73846 14.8209 8.05891 14.8513 8.39024C14.8818 8.72158 14.8383 9.05554 14.724 9.36803Z" fill="transparent"/>
<path d="M7.38798 4.17993L7.88798 5.55193L6.75598 4.91993L7.38798 4.17993Z" fill="transparent"/>
<path d="M9.65599 10.968L8.79999 10.8L9.67199 9.74805L9.65599 10.968Z" fill="transparent"/>
<path d="M13.54 5.48804L13.804 6.28804L12.572 6.08004L12.552 6.04004L13.54 5.48804Z" fill="transparent"/>
</g>
<defs>
<clipPath id="clip0">
<rect width="20" height="20" fill="transparent"/>
</clipPath>
</defs>
</svg>
