<svg width="21" height="20" viewBox="0 0 21 20" fill="none" xmlns="http://www.w3.org/2000/svg">
<path d="M20.44 19.16H20.08V19.52C20.08 19.72 19.92 19.88 19.72 19.88C19.52 19.88 19.36 19.72 19.36 19.52V19.16H1.4V19.52C1.4 19.72 1.24 19.88 1.04 19.88C0.84 19.88 0.68 19.72 0.68 19.52V19.16H0.36C0.16 19.16 0 19 0 18.8V6.72V5.32C0 5.12 0.16 4.95999 0.36 4.95999H1.6C1.48 4.75999 1.4 4.52 1.4 4.27999C1.4 3.55999 1.96 3 2.64 2.92C2.52 2.72 2.44 2.48 2.44 2.2C2.44 1.44 3.08 0.799995 3.84 0.799995C4.6 0.799995 5.24 1.44 5.24 2.2C5.24 2.44 5.16 2.68 5.04 2.92C5.72 3 6.28 3.55999 6.28 4.27999C6.28 4.52 6.2 4.75999 6.08 4.95999H8.36V3.24C8.36 3.04 8.52 2.88 8.72 2.88H9.08V1.87999C9.08 1.67999 9.24 1.52 9.44 1.52H10.12C10.32 1.52 10.48 1.67999 10.48 1.87999C10.48 2.08 10.32 2.24 10.12 2.24H9.76V2.92H10.12C10.32 2.92 10.48 3.07999 10.48 3.27999V5H11.64L11.44 4.6C11.32 4.4 11.36 4.12 11.48 3.92C11.52 3.72 11.76 3.6 12 3.6H15.24V2.92H14.88C14.68 2.92 14.52 2.76 14.52 2.56C14.52 2.36 14.68 2.2 14.88 2.2H15.24V1.16C15.24 0.599995 15.72 0.119995 16.28 0.119995C16.84 0.119995 17.32 0.599995 17.32 1.16C17.32 1.36 17.16 1.52 16.96 1.52C16.76 1.52 16.6 1.36 16.6 1.16C16.6 0.959995 16.44 0.799995 16.24 0.799995C16.04 0.799995 15.88 0.959995 15.88 1.16V2.2H16.24C16.44 2.2 16.6 2.36 16.6 2.56C16.6 2.76 16.44 2.92 16.24 2.92H15.88V3.6H18.44C18.68 3.6 18.92 3.72 19.04 3.92C19.16 4.12 19.16 4.35999 19.08 4.6L18.88 5H20.4C20.6 5 20.76 5.16 20.76 5.35999V6.76V18.88C20.8 19 20.64 19.16 20.44 19.16ZM2.76 3.6C2.36 3.6 2.08 3.92 2.08 4.27999C2.08 4.64 2.4 4.95999 2.76 4.95999C3.12 4.95999 3.44 4.64 3.44 4.27999C3.44 3.92 3.16 3.6 2.76 3.6ZM3.8 1.52C3.4 1.52 3.12 1.84 3.12 2.2C3.12 2.56 3.44 2.88 3.8 2.88C4.16 2.88 4.48 2.56 4.48 2.2C4.48 1.84 4.2 1.52 3.8 1.52ZM4.84 3.6C4.44 3.6 4.16 3.92 4.16 4.27999C4.16 4.64 4.48 4.95999 4.84 4.95999C5.2 4.95999 5.52 4.64 5.52 4.27999C5.52 3.92 5.24 3.6 4.84 3.6ZM9.72 3.6H9.04V5H9.72V3.6ZM11.92 5.68H10.04H8.64H0.68V6.35999H12.28C12.28 6.35999 12.28 6.36 12.28 6.32C12.24 6.24 12.16 6.16 12.12 6.08L11.92 5.68ZM12 4.27999L12.76 5.79999C12.92 6.16 13.28 6.35999 13.68 6.35999H16.8C17.2 6.35999 17.56 6.12 17.72 5.79999L18.48 4.27999H12ZM20.12 5.68H18.6L18.4 6.12C18.36 6.2 18.32 6.27999 18.24 6.35999C18.24 6.35999 18.24 6.36 18.24 6.4H20.12V5.68ZM20.12 7.08H16.84H13.72H0.68V18.48H20.08V7.08H20.12ZM1.72 8.96H9.36C9.56 8.96 9.72 9.12 9.72 9.31999V12.8V16.28C9.72 16.48 9.56 16.64 9.36 16.64H1.72C1.52 16.64 1.36 16.48 1.36 16.28V12.8V9.31999C1.4 9.12 1.56 8.96 1.72 8.96ZM2.08 15.88H9V13.12H2.08V15.88ZM2.08 12.44H9V9.68H2.08V12.44ZM5.88 11.04H5.2C5 11.04 4.84 10.88 4.84 10.68C4.84 10.48 5 10.32 5.2 10.32H5.88C6.08 10.32 6.24 10.48 6.24 10.68C6.24 10.88 6.08 11.04 5.88 11.04ZM5.88 14.52H5.2C5 14.52 4.84 14.36 4.84 14.16C4.84 13.96 5 13.8 5.2 13.8H5.88C6.08 13.8 6.24 13.96 6.24 14.16C6.24 14.36 6.08 14.52 5.88 14.52ZM11.44 8.96H19.08C19.28 8.96 19.44 9.12 19.44 9.31999V16.24C19.44 16.44 19.28 16.6 19.08 16.6H11.44C11.24 16.6 11.08 16.44 11.08 16.24V9.31999C11.08 9.12 11.24 8.96 11.44 8.96ZM11.8 15.88H18.72V9.64H11.8V15.88ZM17.68 13.48C17.48 13.48 17.32 13.32 17.32 13.12V12.44C17.32 12.24 17.48 12.08 17.68 12.08C17.88 12.08 18.04 12.24 18.04 12.44V13.12C18.04 13.32 17.88 13.48 17.68 13.48Z" fill="#00A6DF"/>
</svg>
