<svg width="8" height="13" viewBox="0 0 8 13" fill="none" xmlns="http://www.w3.org/2000/svg">
<path d="M2.84375 8.65625C2.84375 7.96354 2.92969 7.41146 3.10156 7C3.27344 6.58854 3.61198 6.13802 4.11719 5.64844C4.6276 5.15365 4.95052 4.80208 5.08594 4.59375C5.29427 4.27604 5.39844 3.93229 5.39844 3.5625C5.39844 3.07292 5.27604 2.70052 5.03125 2.44531C4.79167 2.1849 4.4375 2.05469 3.96875 2.05469C3.52083 2.05469 3.15885 2.18229 2.88281 2.4375C2.61198 2.6875 2.47656 3.02865 2.47656 3.46094H0.578125C0.588542 2.53906 0.901042 1.8099 1.51562 1.27344C2.13542 0.736979 2.95312 0.46875 3.96875 0.46875C5.01562 0.46875 5.83073 0.734375 6.41406 1.26562C7.0026 1.79688 7.29688 2.53906 7.29688 3.49219C7.29688 4.34115 6.90104 5.17708 6.10938 6L5.14844 6.94531C4.80469 7.33594 4.6276 7.90625 4.61719 8.65625H2.84375ZM2.71094 11.0859C2.71094 10.7786 2.80729 10.5312 3 10.3438C3.19271 10.151 3.45312 10.0547 3.78125 10.0547C4.11458 10.0547 4.3776 10.1536 4.57031 10.3516C4.76302 10.5443 4.85938 10.7891 4.85938 11.0859C4.85938 11.3724 4.76562 11.612 4.57812 11.8047C4.39062 11.9974 4.125 12.0938 3.78125 12.0938C3.4375 12.0938 3.17188 11.9974 2.98438 11.8047C2.80208 11.612 2.71094 11.3724 2.71094 11.0859Z" fill="white"/>
</svg>
