<svg width="40" height="40" viewBox="0 0 40 40" fill="none" xmlns="http://www.w3.org/2000/svg">
<path d="M18.68 36.72C18.16 36.72 17.68 36.64 17.12 36.52C15.8 36.12 14.68 35.2 13.96 33.92C13.28 32.68 13.12 31.24 13.56 29.88C13.96 28.56 14.88 27.44 16.16 26.72C16.92 26.28 17.76 26.08 18.64 26.08C19.16 26.08 19.68 26.16 20.2 26.32C21.6 26.72 22.68 27.64 23.36 28.92C24.04 30.16 24.2 31.6 23.76 32.96C23.36 34.28 22.44 35.4 21.16 36.12C20.44 36.52 19.56 36.72 18.68 36.72ZM18.6 27.76C18.08 27.76 17.48 27.92 16.92 28.2C16.12 28.64 15.48 29.4 15.16 30.32C14.88 31.2 14.96 32.2 15.4 33.08C15.84 33.88 16.6 34.52 17.52 34.84C17.88 34.96 18.2 35 18.56 35C19.12 35 19.68 34.84 20.24 34.56C21.04 34.12 21.68 33.36 22 32.44C22.24 31.48 22.16 30.48 21.76 29.68C21.32 28.88 20.56 28.24 19.64 27.92C19.28 27.8 18.96 27.76 18.6 27.76ZM18.56 34.2C18.28 34.2 18 34.12 17.72 34.08C17.04 33.88 16.44 33.4 16.08 32.72C15.36 31.32 15.92 29.6 17.28 28.88C17.68 28.68 18.12 28.56 18.6 28.56C18.88 28.56 19.16 28.6 19.4 28.68C20.16 28.92 20.76 29.4 21.04 30.04C21.72 31.44 21.2 33.16 19.84 33.84C19.48 34.08 18.96 34.2 18.56 34.2ZM18.56 30.24C18.36 30.24 18.24 30.24 18.08 30.32C17.56 30.6 17.36 31.24 17.6 31.8C17.76 32.04 17.96 32.24 18.28 32.36C18.36 32.4 18.48 32.4 18.6 32.4C18.76 32.4 18.92 32.36 19.12 32.28C19.32 32.16 19.52 31.92 19.6 31.64C19.68 31.36 19.68 31.08 19.52 30.84C19.36 30.56 19.16 30.4 18.84 30.28C18.76 30.24 18.68 30.24 18.56 30.24ZM24.36 29C24.32 28.92 24.28 28.8 24.24 28.72C24.2 28.64 24.16 28.52 24.12 28.44C24.04 28.36 24 28.24 23.96 28.16C23.92 28.08 23.88 27.96 23.8 27.88L23.68 27.68L38.72 19.72C38.84 19.64 39 19.6 39.16 19.6C39.48 19.6 39.76 19.76 39.92 20.04V20.08C40.08 20.6 39.96 21.08 39.56 21.32L24.44 29.2L24.36 29ZM5.76 8.79997L0.84 8.71997C0.32 8.71997 0 8.27997 0 7.87997C0 7.35997 0.44 7.03997 0.84 7.03997L6.24 7.15997C6.56 7.15997 6.8 7.31997 7 7.55997L16.48 25.56L16.24 25.64C16.16 25.68 16.04 25.72 15.96 25.76C15.84 25.8 15.76 25.88 15.64 25.92C15.36 26 15.2 26.12 15.12 26.2L14.92 26.4L5.76 8.79997ZM22.08 26.2C21.64 25.88 21.24 25.72 20.68 25.48L20.6 25.44L20.16 25.32C19.64 25.2 19.12 25.12 18.64 25.12H18.52L14.88 18.2L10.8 10.68C10.56 10.28 10.72 9.75997 11.12 9.47997L22.68 3.39997C22.8 3.31997 22.92 3.27997 23.08 3.27997C23.16 3.27997 23.24 3.27997 23.36 3.31997C23.6 3.39997 23.76 3.55997 23.88 3.75997L27.48 10.56L29.2 9.63997C29.32 9.55997 29.44 9.51997 29.6 9.51997C29.68 9.51997 29.76 9.51997 29.88 9.55997C30.12 9.63997 30.28 9.79997 30.4 9.99997L34.84 18.52C35.08 18.92 34.92 19.44 34.52 19.72L22.16 26.28L22.08 26.2ZM20.44 25.24L33 18.64L29.24 11.6L16.76 18.2L20.44 25.24ZM16 16.72L17.8 15.76L26 11.44L22.8 5.39997L12.8 10.68L16 16.72Z" fill="#7C7C7C"/>
</svg>
