<svg width="64" height="64" viewBox="0 0 64 64" fill="none" xmlns="http://www.w3.org/2000/svg">
<path d="M32.0005 60.16C18.7525 60.16 8.83254 55.68 8.83254 49.728V49.6V49.472C9.02454 47.36 8.00054 44.736 8.00054 44.736C7.29654 42.688 7.48854 41.088 8.38454 39.808C9.21654 38.72 10.4325 38.208 11.5205 38.016L11.4565 29.824C11.4565 22.336 15.4885 15.488 22.0805 11.84V9.984C22.0805 7.68 23.9365 5.824 26.2405 5.824H26.8805C27.2645 5.824 27.7125 5.888 28.0965 6.016C28.7365 4.736 30.1445 3.84 31.6805 3.84H32.3205C33.8565 3.84 35.2645 4.736 35.9685 6.08C36.3525 5.952 36.8005 5.888 37.1845 5.888H37.8245C40.1285 5.888 41.9845 7.744 41.9845 10.048V11.904C48.4485 15.488 52.6085 22.528 52.6085 29.888L52.5445 38.08C53.6325 38.272 54.8485 38.784 55.6165 39.872C56.5765 41.088 56.7045 42.752 56.0645 44.672V44.736C55.8085 45.376 54.9765 47.616 55.1685 49.6V49.728V49.792C55.2965 51.264 54.7205 52.672 53.5685 54.016C50.2405 57.664 41.5365 60.16 32.0005 60.16ZM12.2245 49.792C12.3525 52.672 19.4565 56.704 32.0005 56.704C40.3845 56.704 48.3845 54.528 51.0725 51.584C51.6485 51.008 51.8405 50.368 51.7765 49.856V49.728V49.664C51.5205 46.72 52.7365 43.712 52.8645 43.328C53.0565 42.688 53.1205 42.112 52.8645 41.792C52.5445 41.344 51.5845 41.152 50.9445 41.152C50.8805 41.152 50.8165 41.152 50.8165 41.152H50.7525C50.2405 41.152 49.8565 40.96 49.6005 40.704C49.2805 40.384 49.0885 39.936 49.0885 39.488L49.1525 29.76C49.1525 24.128 46.4645 19.008 41.9205 15.808V26.304C41.9205 27.264 41.1525 28.032 40.1925 28.032C39.2325 28.032 38.4645 27.264 38.4645 26.304V10.048C38.4645 9.664 38.1445 9.344 37.7605 9.344H37.1205C36.7365 9.344 36.4165 9.664 36.4165 10.048V26.432C36.4165 27.392 35.6485 28.16 34.6885 28.16C33.7285 28.16 32.9605 27.392 32.9605 26.432V8C32.9605 7.616 32.6405 7.296 32.2565 7.296H31.6165C31.2325 7.296 30.9125 7.616 30.9125 8V26.368C30.9125 27.328 30.1445 28.096 29.1845 28.096C28.2245 28.096 27.5205 27.328 27.5205 26.368V10.048C27.5205 9.664 27.2005 9.344 26.8165 9.344H26.1765C25.7925 9.344 25.4725 9.664 25.4725 10.048V26.432C25.4725 27.392 24.7045 28.16 23.7445 28.16C22.7845 28.16 22.0165 27.392 22.0165 26.432V15.872C17.4725 19.072 14.7845 24.192 14.7845 29.824L14.8485 39.552C14.8485 40 14.6565 40.448 14.3365 40.768C13.9525 41.088 13.5045 41.216 13.1845 41.216H13.1205C12.3525 41.216 11.3925 41.408 11.0725 41.856C10.8805 42.112 10.8805 42.688 11.1365 43.456C11.3925 44.032 12.4805 46.976 12.2245 49.792Z" fill="#333333"/>
<path d="M32.0004 48.768C30.2084 48.768 14.4004 48.64 14.4004 43.072C14.4004 42.112 15.1684 41.344 16.1284 41.344C17.0244 41.344 17.7284 42.048 17.8564 42.88C18.4964 43.52 22.9124 45.312 32.0004 45.312C41.1524 45.312 45.5044 43.456 46.1444 42.88C46.2084 41.984 46.9764 41.344 47.8724 41.344C48.8324 41.344 49.6004 42.112 49.6004 43.072C49.6004 48.64 33.7924 48.768 32.0004 48.768Z" fill="#333333"/>
</svg>
