<svg width="64" height="64" viewBox="0 0 64 64" fill="none" xmlns="http://www.w3.org/2000/svg">
<path d="M14.3999 37.248C14.3999 38.208 13.6319 39.04 12.6079 39.04C11.5839 39.04 10.8799 38.272 10.8799 37.248V30.208C10.8799 29.248 11.6479 28.416 12.6719 28.416C13.6959 28.416 14.4639 29.184 14.4639 30.208V37.248H14.3999Z" fill="#333333"/>
<path d="M46.0804 37.248C46.0804 38.208 45.3124 39.04 44.2884 39.04C43.2644 39.04 42.4964 38.272 42.4964 37.248V32H32.0004V51.328C32.0004 52.288 31.2324 53.12 30.2084 53.12C29.1844 53.12 28.4164 52.352 28.4164 51.328V32C28.4164 30.08 30.0164 28.48 31.9364 28.48H56.5764C58.4964 28.48 60.0964 30.08 60.0964 32V56.64C60.0964 58.56 58.4964 60.16 56.5764 60.16H7.29637C5.37637 60.16 3.77637 58.56 3.77637 56.64V7.36C3.84037 5.44 5.44037 3.84 7.36037 3.84H46.0804C48.0004 3.84 49.6004 5.44 49.6004 7.36V23.232C49.6004 24.192 48.8324 25.024 47.8084 25.024C46.7844 25.024 46.0804 24.192 46.0804 23.168V7.36H7.36037V56.64H56.6404V32H46.0804V37.248Z" fill="#333333"/>
</svg>
