<svg width="64" height="64" viewBox="0 0 64 64" fill="none" xmlns="http://www.w3.org/2000/svg">
<g clip-path="url(#clip0)">
<path d="M31.616 59.904C30.72 59.904 29.952 59.712 29.632 59.584C27.84 59.008 26.688 57.728 26.048 55.68C24.448 55.36 23.04 54.464 22.272 53.76C21.376 52.928 20.672 51.648 20.416 50.368C19.2 50.176 18.048 49.6 17.216 48.768C16.192 47.808 15.616 46.272 15.36 45.056C14.208 44.864 13.12 44.288 12.224 43.456C10.944 42.24 10.176 40.64 10.112 38.912L1.856 31.04C0.64 29.824 0 28.224 0 26.56C0 24.896 0.64 23.296 1.856 22.144L18.048 5.88801C19.2 4.73601 20.8 4.03201 22.464 4.03201C24.128 4.03201 25.728 4.67201 26.88 5.88801L32 11.008L37.12 5.88801C38.272 4.73601 39.872 4.03201 41.536 4.03201C43.2 4.03201 44.8 4.67201 45.952 5.88801L62.208 22.144C64.64 24.576 64.64 28.544 62.208 30.976L56.96 36.224C57.408 37.312 57.664 39.808 56 41.6C54.784 42.88 53.376 43.328 52.224 43.456C52.16 44.8 51.584 46.144 50.624 47.04C49.792 47.872 48.448 48.448 47.104 48.576C46.976 50.112 46.208 51.52 44.928 52.416C44.16 52.992 43.136 53.312 41.984 53.312C41.472 53.312 40.96 53.248 40.512 53.12C39.552 54.592 37.824 56.32 36.096 57.92C35.84 58.112 35.712 58.304 35.584 58.432C34.368 59.392 33.088 59.904 31.616 59.904ZM29.312 54.592C29.696 55.872 30.208 56.128 30.72 56.32C30.848 56.384 31.168 56.448 31.616 56.448C32.192 56.448 32.704 56.256 33.152 55.872C33.152 55.808 33.408 55.616 33.664 55.36C37.056 52.224 37.696 51.072 37.824 50.752C37.76 50.368 37.568 49.536 37.12 48.96C36.864 48.64 36.16 48.256 35.648 48.256C35.52 48.256 35.456 48.256 35.328 48.32L29.312 54.592ZM23.744 49.408C23.808 50.048 24.192 50.816 24.576 51.2C25.152 51.712 25.984 52.16 26.688 52.288L32.704 46.016C32.832 45.568 32.96 44.544 32.256 43.84C31.68 43.2 31.04 42.88 30.528 42.88C30.336 42.88 30.208 42.944 30.144 42.944L23.744 49.408ZM41.152 49.664C41.408 49.728 41.664 49.792 41.92 49.792C42.368 49.792 42.688 49.664 42.816 49.6C43.584 49.024 43.712 48.128 43.52 47.424L32.32 35.968C32 35.648 31.808 35.2 31.808 34.752C31.808 34.304 32 33.856 32.32 33.536C32.64 33.216 33.088 33.024 33.536 33.024C33.984 33.024 34.432 33.216 34.752 33.536L45.952 44.992C46.08 45.056 46.272 45.12 46.464 45.12C47.104 45.12 47.808 44.8 48.064 44.544C48.512 44.096 48.768 43.136 48.512 42.624L37.504 31.424C36.8 30.72 36.864 29.632 37.504 28.992C37.824 28.672 38.272 28.48 38.72 28.48C39.168 28.48 39.616 28.672 39.936 28.992L50.752 39.936C50.944 39.936 51.136 40 51.328 40C52.224 40 52.864 39.744 53.376 39.232C53.824 38.72 53.76 38.016 53.696 37.696L38.72 22.4C36.672 24.384 34.24 26.752 33.152 27.776C31.36 29.44 29.056 30.4 26.816 30.4C24.96 30.4 23.104 29.76 21.568 28.608C20.224 27.584 19.456 26.432 19.328 25.28C19.2 24.448 19.456 23.68 19.968 23.04C20.608 22.336 27.392 15.552 29.504 13.44L24.384 8.32001C23.872 7.80801 23.168 7.48801 22.4 7.48801C21.632 7.48801 20.992 7.74401 20.416 8.32001L4.288 24.64C3.776 25.152 3.456 25.856 3.456 26.624C3.456 27.392 3.712 28.032 4.288 28.608L11.776 35.776L16.832 30.912C17.6 30.08 19.008 29.504 20.288 29.504C21.376 29.504 22.848 29.824 24.192 31.36C25.088 32.384 25.6 33.6 25.664 34.88C27.136 34.88 28.48 35.392 29.44 36.352C30.528 37.44 30.912 38.528 31.04 39.488C32.064 39.616 33.472 40.064 34.816 41.536C35.648 42.432 36.16 43.584 36.224 44.864C37.696 45.056 39.04 45.952 39.744 46.848C40.576 47.744 40.96 48.896 41.152 49.664ZM18.624 44.032C18.688 44.8 19.072 45.76 19.52 46.208C19.968 46.656 20.608 46.912 21.248 46.912L27.584 40.576C27.648 40.128 27.648 39.424 26.944 38.72C26.624 38.4 26.176 38.272 25.6 38.272C25.088 38.272 24.64 38.4 24.384 38.464L18.624 44.032ZM13.504 38.848C13.568 39.616 13.888 40.32 14.464 40.832C14.976 41.28 15.552 41.6 16.128 41.6L22.016 35.904C22.208 35.456 22.4 34.496 21.568 33.536C21.184 33.088 20.736 32.832 20.224 32.832V31.936V32.832C19.712 32.832 19.328 33.088 19.2 33.152L13.504 38.848ZM38.784 18.176C39.232 18.176 39.68 18.368 40 18.688L54.656 33.6L59.712 28.544C60.224 28.032 60.544 27.328 60.544 26.56C60.544 25.792 60.288 25.152 59.712 24.576L43.456 8.38401C42.944 7.87201 42.24 7.55201 41.472 7.55201C40.704 7.55201 40.064 7.80801 39.488 8.38401C35.264 12.608 24.512 23.296 22.784 25.152C22.912 25.28 23.104 25.536 23.552 25.856C24.512 26.56 25.6 26.944 26.752 26.944C28.16 26.944 29.568 26.368 30.72 25.28C32.448 23.68 37.44 18.752 37.44 18.752C37.824 18.368 38.272 18.176 38.784 18.176Z" fill="#333333"/>
</g>
<defs>
<clipPath id="clip0">
<rect width="64" height="64" fill="white"/>
</clipPath>
</defs>
</svg>
