<svg width="64" height="64" viewBox="0 0 64 64" fill="none" xmlns="http://www.w3.org/2000/svg">
<path d="M14.1818 60C8.64545 60 4 55.3545 4 49.8182V14.1818C4 8.64545 8.64545 4 14.1818 4H32.1273C33.0818 4 33.8454 4.82727 33.8454 5.90909C33.8454 6.92727 33.1455 7.62727 32.1273 7.62727H14.1818C10.6818 7.62727 7.62727 10.6818 7.62727 14.1818V49.8182C7.62727 53.3182 10.6818 56.3727 14.1818 56.3727H49.8182C53.3182 56.3727 56.3727 53.3182 56.3727 49.8182V32.1273C56.3727 31.1091 57.2636 30.2182 58.2818 30.2182C59.2364 30.2182 60 31.0455 60 32.1273V49.8182C60 55.3545 55.3545 60 49.8182 60H14.1818Z" fill="#333333"/>
<path d="M29.0619 40.5636C28.5528 40.5636 28.1073 40.3727 27.7255 39.9909L16.7164 29.1727C16.0164 28.4727 16.0164 27.2636 16.7164 26.5636C17.0982 26.1818 17.5437 25.9909 18.0528 25.9909C18.5619 25.9909 19.0073 26.1818 19.3891 26.5636L29.1255 36.1091L54.1346 10.9727C54.5164 10.5909 54.9619 10.4 55.471 10.4C55.98 10.4 56.4255 10.5909 56.8073 10.9727C57.571 11.7364 57.571 12.8818 56.8073 13.5818L30.3982 39.9909C30.0164 40.3091 29.571 40.5636 29.0619 40.5636Z" fill="#333333"/>
</svg>
