<svg width="64" height="64" viewBox="0 0 64 64" fill="none" xmlns="http://www.w3.org/2000/svg">
<path d="M52.544 20.992H52.416C50.752 11.008 42.24 3.45599 32 3.45599C21.76 3.45599 13.248 11.008 11.584 20.992H11.456C6.14399 20.992 1.79199 25.344 1.79199 30.656V32.192C1.79199 37.568 6.14399 41.92 11.456 41.92H12.992C13.952 41.92 14.656 41.152 14.656 40.256V24.64C14.656 14.784 22.4 6.78399 32 6.78399C41.6 6.78399 49.344 14.784 49.344 24.576V40.192C49.344 47.232 46.016 50.752 38.336 51.776C37.248 48.704 33.856 47.168 30.784 48.256C27.712 49.344 26.176 52.736 27.264 55.808C28.352 58.88 31.744 60.416 34.816 59.328C36.672 58.624 38.08 57.088 38.528 55.168C47.424 54.016 52.096 49.6 52.672 41.856C57.984 41.792 62.208 37.504 62.272 32.192V30.656C62.272 25.344 57.92 20.992 52.544 20.992ZM5.11999 32.256V30.72C5.11999 27.264 7.87199 24.512 11.264 24.384V38.592C7.80799 38.464 5.11999 35.648 5.11999 32.256ZM32.832 56.384C31.424 56.384 30.336 55.232 30.336 53.888C30.336 52.48 31.488 51.392 32.832 51.392C34.176 51.392 35.328 52.544 35.328 53.888C35.392 55.296 34.24 56.384 32.832 56.384ZM58.88 32.256C58.88 35.712 56.128 38.464 52.736 38.592V24.384C56.128 24.448 58.88 27.264 58.88 30.72V32.256Z" fill="#333333"/>
<path d="M23.6162 25.28C22.6562 25.28 21.9521 26.048 21.9521 26.944V28.608C21.9521 29.568 22.7202 30.272 23.6162 30.272C24.5122 30.272 25.2801 29.504 25.2801 28.608V26.944C25.2801 26.048 24.5122 25.28 23.6162 25.28Z" fill="#333333"/>
<path d="M42.1122 28.672V27.008C42.1122 26.048 41.3442 25.344 40.4482 25.344C39.5522 25.344 38.7842 26.112 38.7842 27.008V28.672C38.7842 29.632 39.5522 30.336 40.4482 30.336C41.3442 30.336 42.1122 29.568 42.1122 28.672Z" fill="#333333"/>
<path d="M37.504 37.568C33.664 41.408 30.272 41.408 26.432 37.568C25.792 36.928 24.704 36.928 24.064 37.568C23.424 38.208 23.424 39.296 24.064 39.936C26.624 42.496 29.312 43.776 32 43.776C34.688 43.776 37.376 42.496 39.936 39.936C40.576 39.296 40.576 38.208 39.936 37.568C39.232 36.928 38.208 36.928 37.504 37.568Z" fill="#333333"/>
</svg>
