<svg width="41" height="285" viewBox="0 0 41 285" fill="none" xmlns="http://www.w3.org/2000/svg">
<path d="M6.411 279.897H0.992999L0.992999 283.53H15V279.897H9.246V274.626H15V270.993H0.992999L0.992999 274.626H6.411V279.897ZM12.564 259.542L15 258.639L15 254.754L0.992999 260.025V263.994L15 269.37V265.527L12.564 264.561V259.542ZM9.792 260.529V263.553L5.319 262.02L9.792 260.529ZM15 253.137V249.504H6.432L15 242.805V239.172H0.992999V242.805H9.561L0.992999 249.504L0.992999 253.137H15ZM1.791 227.104C1.056 228.511 0.656999 230.065 0.656999 231.535C0.656999 234.37 2.568 236.302 5.382 236.302C6.621 236.302 7.545 235.924 8.154 235.189C8.574 234.685 8.826 234.076 9.288 232.522C9.792 230.821 10.149 230.338 10.905 230.338C11.724 230.338 12.27 231.031 12.27 232.102C12.27 233.173 11.808 234.202 10.842 235.315L13.782 236.869C14.811 235.378 15.357 233.677 15.357 232.018C15.357 230.401 14.895 228.973 14.034 227.965C13.215 227.02 11.997 226.537 10.401 226.537C8.322 226.537 7.188 227.545 6.474 229.981C5.991 231.619 5.928 231.745 5.592 232.165C5.424 232.375 5.151 232.501 4.899 232.501C4.206 232.501 3.681 231.829 3.681 230.947C3.681 230.107 3.975 229.372 4.626 228.553L1.791 227.104ZM7.23 217.438H10.065V214.456C10.758 214.561 11.094 214.687 11.472 214.96C12.144 215.485 12.501 216.325 12.501 217.333C12.501 218.341 12.165 219.202 11.493 219.811C10.653 220.609 9.393 221.071 8.091 221.071C5.571 221.071 3.702 219.517 3.702 217.438C3.702 216.031 4.416 215.065 5.928 214.435L4.5 210.97C1.812 212.293 0.552 214.288 0.552 217.27C0.552 221.785 3.597 224.872 8.07 224.872C12.48 224.872 15.504 221.827 15.504 217.396C15.504 214.393 14.097 212.104 11.535 210.949C10.422 210.445 9.288 210.256 7.23 210.214L7.23 217.438ZM9.267 200.673C9.057 199.833 8.847 199.371 8.427 198.888C7.734 198.09 6.558 197.607 5.319 197.607C4.164 197.607 3.03 198.048 2.232 198.804C1.371 199.623 0.992999 200.673 0.992999 202.248V207.897H15V204.264H9.624L15 200.799L15 196.263L9.267 200.673ZM7.272 204.264H3.786V203.592C3.786 202.899 3.933 202.374 4.164 202.038C4.458 201.639 5.025 201.345 5.529 201.345C6.033 201.345 6.621 201.639 6.894 202.038C7.146 202.374 7.272 202.899 7.272 203.592V204.264ZM0.572999 187.817C0.572999 189.77 1.224 191.618 2.337 192.941C3.744 194.6 5.823 195.566 7.902 195.566C12.27 195.566 15.504 192.29 15.504 187.88C15.504 185.822 14.916 184.1 13.74 182.693C12.333 181.034 10.254 180.068 8.049 180.068C6.096 180.068 4.29 180.782 2.925 182.084C1.35 183.575 0.572999 185.486 0.572999 187.817ZM4.101 187.817C4.101 185.633 5.865 183.869 8.028 183.869C10.212 183.869 11.976 185.633 11.976 187.817C11.976 190.022 10.212 191.765 7.986 191.765C5.865 191.765 4.101 189.98 4.101 187.817ZM6.411 174.118H0.992999V177.751H15V174.118H9.246V168.847H15V165.214H0.992999L0.992999 168.847H6.411V174.118ZM4.08 154.308H0.992999L0.992999 162.267H15V154.308H11.913L11.913 158.634H9.498V154.539H6.411V158.634H4.08V154.308ZM11.052 150.292C11.052 151.468 12.039 152.455 13.194 152.455C14.433 152.455 15.399 151.489 15.399 150.271C15.399 149.074 14.412 148.108 13.215 148.108C12.018 148.108 11.052 149.074 11.052 150.292ZM40 284.16V280.548L31.936 279.351L40 276.117V274.668L31.936 271.287L40 270.258V266.625L25.993 268.725V272.358L33.469 275.361L25.993 278.196V281.787L40 284.16ZM29.08 256.355H25.993V264.314H40V256.355H36.913V260.681H34.498V256.586H31.411V260.681H29.08V256.355ZM29.08 246.081H25.993V254.04H40V246.081H36.913V250.407H34.498V246.312H31.411V250.407H29.08V246.081ZM29.08 238.494V235.47H25.993V245.088H29.08V242.127H40V238.494H29.08ZM29.08 223.36V220.336H25.993V229.954H29.08V226.993H40L40 223.36H29.08ZM31.411 215.113H25.993V218.746H40V215.113H34.246V209.842H40V206.209H25.993V209.842H31.411V215.113ZM29.08 195.303H25.993L25.993 203.262H40V195.303H36.913V199.629H34.498V195.534H31.411V199.629H29.08V195.303ZM40 187.738V181.9C40 178.918 38.488 177.07 36.031 177.07C34.96 177.07 33.994 177.406 33.406 177.973C32.944 178.435 32.734 178.918 32.524 179.926C31.894 178.834 31.054 178.393 29.647 178.393C27.295 178.393 25.993 179.779 25.993 182.341V187.738H40ZM31.516 184.105H28.786V183.433C28.786 182.341 29.248 181.732 30.151 181.732C31.033 181.732 31.516 182.341 31.516 183.433V184.105ZM37.165 184.105H34.225V183.37C34.225 182.173 34.267 181.858 34.477 181.438C34.687 181.018 35.17 180.745 35.695 180.745C36.724 180.745 37.165 181.501 37.165 183.307V184.105ZM29.08 166.798H25.993V174.757H40V166.798H36.913V171.124H34.498V167.029H31.411V171.124H29.08V166.798ZM37.564 155.977L40 155.074V151.189L25.993 156.46V160.429L40 165.805V161.962L37.564 160.996V155.977ZM34.792 156.964V159.988L30.319 158.455L34.792 156.964ZM25.993 146.309V149.942H34.078C36.136 149.942 37.27 149.669 38.257 148.934C39.559 147.968 40.357 146.078 40.357 143.936C40.357 141.899 39.685 140.261 38.383 139.106C37.249 138.098 36.136 137.741 34.078 137.741H25.993L25.993 141.374H33.574C35.044 141.374 35.464 141.437 36.01 141.752C36.703 142.13 37.144 142.949 37.144 143.873C37.144 144.755 36.745 145.511 36.073 145.91C35.485 146.267 35.17 146.309 33.574 146.309H25.993ZM29.08 129.536V126.512H25.993V136.13H29.08V133.169H40V129.536H29.08ZM33.28 120.722H40V117.089H33.28L25.993 111.839V116.249L29.815 118.79L25.993 121.436V125.783L33.28 120.722ZM25.573 98.2596C25.573 100.213 26.224 102.061 27.337 103.384C28.744 105.043 30.823 106.009 32.902 106.009C37.27 106.009 40.504 102.733 40.504 98.3226C40.504 96.2646 39.916 94.5426 38.74 93.1356C37.333 91.4766 35.254 90.5106 33.049 90.5106C31.096 90.5106 29.29 91.2246 27.925 92.5266C26.35 94.0176 25.573 95.9286 25.573 98.2596ZM29.101 98.2596C29.101 96.0756 30.865 94.3116 33.028 94.3116C35.212 94.3116 36.976 96.0756 36.976 98.2596C36.976 100.465 35.212 102.208 32.986 102.208C30.865 102.208 29.101 100.423 29.101 98.2596ZM29.08 80.1711H25.993L25.993 88.1931H40V84.5601H34.498V80.5701H31.411V84.5601H29.08V80.1711ZM25.993 70.4197V74.2207L40 70.0417V66.3457L31.894 63.6577L40 61.1167V57.3997L25.993 52.9267V56.7277L35.044 59.3737L25.993 62.1247V65.0227L35.044 67.9837L25.993 70.4197ZM37.564 43.6559L40 42.7529V38.8679L25.993 44.1389V48.1079L40 53.4839V49.6409L37.564 48.6749V43.6559ZM34.792 44.6429V47.6669L30.319 46.1339L34.792 44.6429ZM29.08 32.76V29.736H25.993V39.354H29.08V36.393H40V32.76H29.08ZM29.08 20.1872H25.993L25.993 28.1462H40V20.1872H36.913V24.5132H34.498V20.4182H31.411V24.5132H29.08V20.1872ZM34.267 10.6478C34.057 9.8078 33.847 9.3458 33.427 8.8628C32.734 8.0648 31.558 7.5818 30.319 7.5818C29.164 7.5818 28.03 8.0228 27.232 8.7788C26.371 9.5978 25.993 10.6478 25.993 12.2228V17.8718H40V14.2388H34.624L40 10.7738V6.2378L34.267 10.6478ZM32.272 14.2388H28.786V13.5668C28.786 12.8738 28.933 12.3488 29.164 12.0128C29.458 11.6138 30.025 11.3198 30.529 11.3198C31.033 11.3198 31.621 11.6138 31.894 12.0128C32.146 12.3488 32.272 12.8738 32.272 13.5668V14.2388ZM36.052 3.00478C36.052 4.18078 37.039 5.16778 38.194 5.16778C39.433 5.16778 40.399 4.20178 40.399 2.98378C40.399 1.78678 39.412 0.820781 38.215 0.820781C37.018 0.820781 36.052 1.78678 36.052 3.00478Z" fill="#B00A44"/>
</svg>
