<svg width="32" height="32" viewBox="0 0 32 32" fill="none" xmlns="http://www.w3.org/2000/svg">
<g clip-path="url(#clip0)">
<path fill-rule="evenodd" clip-rule="evenodd" d="M0 0H32V32H0V0ZM12.6382 8.26987C12.0427 8.40107 11.4972 8.72036 11.0578 9.13991C10.9511 9.24836 10.8345 9.35609 10.7733 9.49938C10.6993 9.57925 10.6354 9.66798 10.5831 9.76356C10.4661 9.97689 10.3463 10.1902 10.2756 10.4235C10.128 10.832 10.1333 11.2715 10.1497 11.6996C10.1831 12.1301 10.3332 12.5451 10.5483 12.918C10.586 12.9707 10.624 13.0517 10.7022 13.035C11.1886 13.0332 11.675 13.035 12.16 13.035C12.1301 12.9468 12.0512 12.8928 11.9879 12.8309C11.8762 12.7146 11.7785 12.5856 11.6967 12.4466C11.7006 12.2805 11.6281 12.133 11.5595 11.9872C11.5026 11.7273 11.4706 11.4539 11.5154 11.1908C11.5352 11.0562 11.5397 10.9199 11.5289 10.7844L11.5374 10.7598C11.5488 10.7723 11.573 10.7954 11.5836 10.8085C11.6626 10.7019 11.702 10.57 11.7735 10.4572C11.8446 10.3324 11.9449 10.2276 12.0316 10.1141C12.0485 10.0938 12.061 10.0703 12.0685 10.045C12.076 10.0197 12.0784 9.99315 12.0754 9.96693C12.2544 9.78427 12.4759 9.64869 12.72 9.57227C12.8398 9.53671 12.955 9.47342 13.0834 9.47307C13.333 9.4602 13.5832 9.46282 13.8325 9.48089C14.1742 9.56102 14.4905 9.72487 14.7531 9.95769C15.0837 10.2496 15.2924 10.661 15.3739 11.0912C15.395 11.3412 15.3923 11.5927 15.3657 11.8421C15.2622 12.2795 15.0364 12.7008 14.6692 12.9724L14.6528 12.9472C14.6528 12.9892 14.6549 13.0315 14.6574 13.0734C14.9063 13.2053 15.1972 13.1374 15.4667 13.152C15.7252 13.1367 16.0064 13.2028 16.2471 13.0809C16.4092 12.9209 16.4896 12.7004 16.5952 12.5028C16.6673 12.3648 16.711 12.2138 16.7239 12.0587C16.8391 11.477 16.8402 10.8473 16.6069 10.294L16.5426 10.3392C16.3923 9.92442 16.1582 9.54505 15.8548 9.22474C15.5515 8.90444 15.1854 8.65007 14.7794 8.47751C14.4647 8.31253 14.1116 8.2368 13.7611 8.19627C13.3867 8.19236 13.0034 8.16071 12.6396 8.26987H12.6382ZM23.4507 8.28018C23.3504 8.31573 23.2782 8.40142 23.2188 8.4864L23.2811 8.53902C23.2679 8.97493 23.291 9.41191 23.2622 9.84747C23.2622 10.9227 23.259 11.9979 23.2658 13.0731C23.4773 13.1975 23.7316 13.1403 23.9644 13.1481C24.8658 13.152 25.7671 13.1424 26.6684 13.152C26.7922 13.1609 26.9419 13.0969 26.9774 12.9707C26.9724 12.8203 26.9337 12.667 26.9899 12.5209C27.0254 12.4324 26.9742 12.3484 26.9543 12.2638C26.9543 12.208 26.9639 12.1536 26.9653 12.0981C26.9472 12.0601 26.9042 12.0434 26.8754 12.016L26.8043 11.9947C26.8043 11.9758 26.7996 11.9381 26.7979 11.9193C26.6834 11.9064 26.5681 11.9023 26.453 11.9072C25.9666 11.9125 25.4802 11.9072 24.9952 11.9097C24.8751 11.9119 24.7563 11.8851 24.6489 11.8315C24.6351 11.6854 24.6378 11.5382 24.6571 11.3927C25.2843 11.3397 25.9168 11.4076 26.544 11.3639C26.544 11.3383 26.5479 11.2868 26.5493 11.2608L26.5849 11.2281V11.2715C26.678 11.2484 26.6773 11.142 26.6798 11.0652C26.6766 10.7808 26.6891 10.4964 26.6894 10.2119C26.4523 10.0814 26.1749 10.1408 25.9175 10.1308C25.6686 10.1447 25.4197 10.074 25.1708 10.1013C25.0112 10.1173 24.8473 10.1291 24.693 10.0761C24.6429 9.93949 24.6291 9.79225 24.6528 9.64871C24.677 9.58187 24.7516 9.56409 24.8156 9.56658C25.4329 9.56658 26.0501 9.57298 26.6674 9.56942C26.6973 9.57244 26.7275 9.56648 26.754 9.5523C26.7805 9.53811 26.8022 9.51635 26.8164 9.48978L26.8519 9.49191C26.9941 9.39662 26.97 9.20036 27.0076 9.05173C27.0453 8.90311 26.9493 8.77156 26.9721 8.6272C26.9764 8.54151 27.0044 8.43982 26.9365 8.37049C26.7918 8.28516 26.6165 8.28267 26.4537 8.28089C25.8492 8.28587 25.2448 8.28338 24.6404 8.28409C24.3602 8.27911 24.0796 8.29582 23.7998 8.27271C23.6835 8.26613 23.5669 8.26863 23.451 8.28018H23.4507ZM5.23129 8.35129V8.38684L5.16836 8.43307C5.04569 8.464 5.05244 8.61084 5.0496 8.71004C5.05778 10.1092 5.04782 11.5086 5.0528 12.9077C5.04627 12.9456 5.05429 12.9845 5.07527 13.0167C5.09624 13.0489 5.1286 13.0719 5.16587 13.0812V13.0393L5.19858 13.0716C5.22773 13.1559 5.32729 13.1588 5.40196 13.1616C5.60356 13.1652 5.80551 13.1844 6.0064 13.1637C6.15111 13.1488 6.3296 13.1737 6.4352 13.0503C6.49707 12.9436 6.47076 12.8128 6.46471 12.6948C6.44587 12.5284 6.48498 12.3623 6.47538 12.197C6.4608 11.9627 6.49387 11.7287 6.47893 11.4944C6.56804 11.466 6.66096 11.4514 6.75449 11.451C7.08693 11.451 7.41938 11.4553 7.75182 11.4478C7.85138 11.4478 7.96231 11.4446 8.04587 11.509C8.08142 11.5904 8.07147 11.6825 8.07431 11.7689C8.06791 12.1127 8.07431 12.4569 8.07431 12.8C8.08 12.8846 8.06151 12.9973 8.15289 13.0425L8.18489 13.0763C8.24213 13.2164 8.42062 13.1751 8.54044 13.1666C8.77653 13.1687 9.01333 13.1605 9.24764 13.1957C9.34898 13.21 9.4144 13.12 9.45245 13.0389C9.52356 12.9173 9.45849 12.7751 9.48196 12.6439C9.50743 12.4742 9.50803 12.3018 9.48373 12.1319C9.45671 11.963 9.50009 11.7945 9.49867 11.6256C9.49867 10.855 9.49867 10.0846 9.49867 9.31449C9.50862 9.15164 9.54133 8.98631 9.49227 8.82631C9.45173 8.69653 9.49227 8.52693 9.38062 8.43058L9.34507 8.36622C8.9664 8.37262 8.58631 8.352 8.20907 8.37938L8.23858 8.39502C8.22827 8.4064 8.20693 8.42844 8.19662 8.43982C8.15324 8.59733 8.18276 8.76302 8.18453 8.92409C8.18667 9.14916 8.18809 9.37458 8.1824 9.59964C8.16782 9.81298 8.20124 10.0263 8.17387 10.2396C7.77387 10.2592 7.3728 10.2421 6.97245 10.2485C6.78116 10.2485 6.5888 10.2606 6.39929 10.2279C6.48356 10.2226 6.56711 10.2101 6.65209 10.2101C7.14987 10.2172 7.65191 10.2155 8.15147 10.2101C8.16676 9.86489 8.15396 9.51893 8.15787 9.17298C8.15289 8.92409 8.17209 8.67165 8.14436 8.4224C8.07076 8.45156 8.08213 8.5376 8.07751 8.60231C8.07182 9.0976 8.08427 9.5936 8.06756 10.0889C7.66293 10.2244 7.24196 10.0629 6.82916 10.1013C6.74809 10.0974 6.65813 10.1287 6.58027 10.096C6.41849 9.9232 6.48889 9.66933 6.4736 9.456C6.45369 9.24871 6.52622 9.0432 6.48747 8.83769C6.45653 8.67982 6.50169 8.51769 6.4672 8.36196C6.25671 8.3296 6.04373 8.34311 5.83182 8.34204C5.632 8.34204 5.43182 8.33422 5.232 8.3488L5.23129 8.35129ZM17.5022 8.36942L17.4699 8.43484C17.3785 8.43484 17.3842 8.53831 17.3796 8.60338C17.3841 9.99076 17.3841 11.378 17.3796 12.7652C17.3877 12.8601 17.344 13.0108 17.4649 13.0496V13.0759C17.8617 13.0731 18.2584 13.0731 18.6549 13.0759V13.0496L18.7118 13.0229C18.7687 12.9127 18.73 12.779 18.7399 12.6596C18.757 12.1991 18.7314 11.7383 18.7495 11.2782C18.7886 11.2782 18.8281 11.2782 18.8679 11.2807C18.9924 11.4457 19.0812 11.6345 19.2064 11.7984C19.2964 11.9147 19.3504 12.0537 19.4368 12.1728C19.4809 12.2304 19.5321 12.3001 19.6146 12.2912C19.7806 12.3353 19.9538 12.3136 20.1234 12.3186C20.1788 12.3122 20.2446 12.3307 20.293 12.2948C20.2844 12.3079 20.2677 12.3342 20.2574 12.347C20.0572 12.3406 19.856 12.325 19.6562 12.352C19.7447 12.4786 19.9108 12.4274 20.0405 12.4284C20.1511 12.4128 20.298 12.4512 20.3694 12.3399C20.4526 12.2215 20.5696 12.1266 20.6251 11.9897C20.7225 11.7582 20.918 11.5868 21.024 11.3604C21.0515 11.2965 21.0945 11.2405 21.1492 11.1975C21.1911 11.6597 21.1307 12.1269 21.189 12.5888C21.2021 12.7147 21.1605 12.8377 21.1705 12.965C21.1836 13.0168 21.2135 13.0627 21.2555 13.0957C21.2975 13.1287 21.3493 13.1469 21.4027 13.1474C21.6633 13.1612 21.9246 13.1559 22.1849 13.1552C22.2603 13.1484 22.3719 13.1701 22.3982 13.0741H22.4306C22.4417 13.0073 22.4486 12.9399 22.4512 12.8722C22.4487 11.8766 22.4512 10.8811 22.4512 9.88551C22.4441 9.39698 22.4665 8.90738 22.4395 8.41991C22.2364 8.39538 22.032 8.41387 21.8283 8.40676C21.7404 8.40924 21.6437 8.39147 21.5676 8.44587C21.0731 9.19858 20.5625 9.94347 20.0878 10.71C20.1162 10.647 20.1393 10.5817 20.1568 10.5148C20.0813 10.5874 20.0177 10.6714 19.9684 10.7637C19.8396 10.6005 19.7365 10.4188 19.6164 10.2496C19.5452 10.1557 19.4965 10.027 19.3724 9.99502C19.0396 9.47556 18.6933 8.96391 18.3531 8.45049C18.3488 8.43058 18.3403 8.39111 18.3356 8.3712C18.0569 8.37333 17.7781 8.37333 17.4994 8.3712L17.5022 8.36942ZM12.3431 11.8539C12.3392 11.8974 12.3443 11.9414 12.3582 11.9829C12.3721 12.0243 12.3945 12.0625 12.4238 12.0949C12.458 12.1463 12.496 12.1951 12.5376 12.2407C12.6549 12.4775 12.912 12.603 13.1556 12.6674C13.4044 12.6884 13.6743 12.7086 13.9022 12.586C14.1902 12.4437 14.4338 12.1742 14.5017 11.8556C13.782 11.851 13.0624 11.8556 12.3428 11.8528L12.3431 11.8539ZM15.0908 13.9516C15.0027 14.0281 14.9131 14.118 14.8732 14.2293C14.9152 14.5337 14.8949 14.8409 14.8988 15.1474C14.9052 16.1429 14.8988 17.1385 14.9031 18.134C14.9088 18.3342 14.8473 18.539 14.8964 18.7367C15.0574 18.8128 15.2324 18.9088 15.4165 18.864C15.6693 18.8107 15.9232 18.8839 16.1778 18.8743C16.4156 18.8821 16.651 18.8363 16.8889 18.8434C17.2444 18.848 17.6 18.8412 17.9556 18.8455C18.1522 18.8484 18.3758 18.9305 18.5508 18.8025C18.6176 18.7207 18.614 18.6055 18.6126 18.5056C18.5977 18.2617 18.6169 18.0181 18.6101 17.7749C18.6101 17.6615 18.4722 17.6192 18.3797 17.6085C17.6946 17.5904 17.0084 17.6185 16.3236 17.5975C16.2599 17.4308 16.2962 17.2501 16.336 17.0827C16.7783 17.0315 17.2249 17.0887 17.6704 17.0585C17.7888 17.0513 17.9076 17.0521 18.026 17.061C18.1536 17.0709 18.2688 16.9799 18.3296 16.8743C18.3652 16.6187 18.3253 16.3595 18.3296 16.1024C18.3396 15.9716 18.2475 15.8087 18.0999 15.8233C17.7682 15.8535 17.4357 15.8172 17.1044 15.8261C16.8377 15.8155 16.5689 15.8485 16.304 15.8073C16.3065 15.6388 16.2741 15.4692 16.2994 15.302C16.3541 15.2124 16.4772 15.2146 16.5707 15.211C17.0446 15.2142 17.5193 15.2135 17.9929 15.211C18.154 15.2082 18.3193 15.2523 18.4772 15.2018C18.5241 15.1844 18.5884 15.1662 18.5895 15.1051C18.6407 14.8363 18.6069 14.5621 18.6087 14.2912C18.6048 14.2151 18.6158 14.0999 18.5159 14.0843C18.5074 14.0779 18.4903 14.0636 18.4804 14.0565C18.4853 13.9616 18.3762 13.9833 18.3132 13.9755C17.3643 13.9772 16.4153 13.9716 15.4667 13.9783C15.3404 13.9836 15.2178 13.9463 15.0912 13.9502L15.0908 13.9516ZM24.1931 13.9492C24.1092 14.0526 24.0747 14.1959 24.0665 14.3278C24.0704 15.6078 24.0665 16.8878 24.0697 18.1696C24.0764 18.3174 24.0704 18.4655 24.0519 18.6123C24.0281 18.7189 24.1358 18.79 24.2084 18.8512C24.4011 18.9671 24.6393 18.9138 24.8466 18.8718C24.9973 18.8363 25.1534 18.9177 25.3013 18.8658C25.3838 18.8171 25.4649 18.7364 25.4617 18.6336C25.4617 17.1758 25.4585 15.7159 25.4645 14.2571C25.4681 14.1305 25.4002 13.9559 25.2462 13.9748C24.8949 13.9844 24.5422 13.9207 24.1931 13.9492ZM26.5106 13.9563C26.363 13.9829 26.213 13.9666 26.0644 13.9744C25.9506 13.9858 25.813 14.0576 25.813 14.1877C25.7945 14.411 25.8251 14.6361 25.8005 14.8594C25.7948 14.9504 25.7732 15.051 25.8251 15.1335C25.8652 15.2085 25.9506 15.2402 26.0295 15.2533C26.2468 15.2952 26.4694 15.3017 26.6887 15.2725C26.8334 15.2487 26.9785 15.2772 27.1207 15.3031C27.1332 15.9502 27.1207 16.598 27.1257 17.2448C27.1207 17.7031 27.1396 18.1625 27.1068 18.6194C27.1883 18.7239 27.2711 18.8444 27.3849 18.912C27.6565 18.9092 27.9239 18.8334 28.197 18.8476C28.2848 18.8452 28.394 18.8636 28.4572 18.7858C28.5476 18.6791 28.5554 18.5294 28.5376 18.3975C28.5081 18.1924 28.5237 17.9847 28.5216 17.7781C28.5216 17.0315 28.5234 16.2848 28.5216 15.5381C28.5216 15.4564 28.5216 15.3468 28.619 15.3195C28.7968 15.2082 29.0052 15.3024 29.1982 15.2668C29.3404 15.2459 29.488 15.3298 29.6228 15.258C29.7109 15.2164 29.8411 15.1644 29.8215 15.0446C29.8108 14.752 29.8539 14.458 29.8187 14.1664C29.7764 13.9858 29.5588 13.9716 29.4076 13.9719C28.6012 13.9822 27.7952 13.9655 26.9899 13.9744C26.8302 13.979 26.672 13.9282 26.5131 13.9584L26.5106 13.9563ZM6.27342 14.2066C5.98613 14.3207 5.7504 14.5284 5.53671 14.7467C5.09724 15.2128 4.88 15.8617 4.89387 16.4978C4.92196 16.9746 5.06062 17.4528 5.33831 17.8453C5.60902 18.2117 5.97431 18.4974 6.39502 18.672C7.20462 18.9888 8.19058 18.8892 8.87467 18.3321C8.98489 18.2283 9.12 18.1355 9.17262 17.9872L9.20178 17.9499C9.34009 17.8546 9.40196 17.6885 9.47413 17.5435C9.54027 17.3735 9.64587 17.1972 9.59787 17.0084C9.24231 17.0123 8.88676 17.0133 8.5312 17.0084C8.48569 17.0148 8.42951 16.9973 8.39147 17.0293C8.34238 17.1139 8.3029 17.2037 8.27378 17.2971C8.17493 17.3892 8.10347 17.5143 7.9776 17.5733C7.84 17.6391 7.69316 17.7045 7.53849 17.6978C7.30773 17.6939 7.06276 17.7333 6.84658 17.6316C6.47787 17.5093 6.23253 17.1616 6.12302 16.8028C6.15218 16.5486 6.10773 16.2901 6.14756 16.0366C6.24924 15.6327 6.56569 15.2743 6.98098 15.1833C7.35609 15.0613 7.77636 15.1477 8.09493 15.3724C8.24107 15.4823 8.32036 15.6501 8.40604 15.8059C8.8032 15.8087 9.2 15.8023 9.5968 15.8091C9.60889 15.7436 9.62169 15.675 9.5968 15.6107C9.53807 15.4297 9.4626 15.2546 9.37138 15.0876C9.34016 15.0262 9.29454 14.9733 9.2384 14.9333C9.03787 14.63 8.73778 14.4053 8.41564 14.2436C8.31609 14.1013 8.11982 14.0924 7.96551 14.0484C7.67644 13.9605 7.37244 13.9865 7.07662 13.989C6.80213 14.0274 6.52373 14.0796 6.27449 14.2062L6.27342 14.2066ZM10.2681 14.0747C10.2151 14.1031 10.2144 14.1675 10.2126 14.2197C10.2148 15.6789 10.2148 17.138 10.2126 18.597C10.2093 18.6163 10.2108 18.6362 10.217 18.6548C10.2232 18.6734 10.2339 18.6902 10.2482 18.7036V18.7278H10.2837V18.7612C10.6631 18.7701 11.0428 18.7584 11.4215 18.7698L11.5033 18.7548C11.5861 18.3545 11.4908 17.9502 11.5388 17.5481C11.7522 17.4916 11.9744 17.5211 12.1913 17.5403C12.2581 17.5403 12.2802 17.6153 12.3147 17.6601C12.485 17.9175 12.6347 18.1884 12.8238 18.432C12.9376 18.5742 12.9756 18.8284 13.194 18.8448C13.4901 18.8612 13.787 18.838 14.0828 18.8533C14.1835 18.8551 14.2884 18.87 14.3851 18.8334L14.405 18.7623H14.4679C14.4707 18.7181 14.4611 18.6741 14.4401 18.6351C14.4192 18.5961 14.3878 18.5637 14.3495 18.5415C14.085 18.1333 13.8119 17.7298 13.5356 17.3294C13.4865 17.2599 13.4467 17.1842 13.4172 17.1044C13.6974 16.9159 13.9371 16.6574 14.0572 16.3385C14.1796 16.0388 14.139 15.7081 14.133 15.3931C14.0395 14.8096 13.5492 14.3381 12.9842 14.2012C12.9216 14.1124 12.8043 14.1127 12.7086 14.0889C12.4814 14.0391 12.2464 14.0533 12.0171 14.0533C11.4951 14.0501 10.9732 14.0558 10.4526 14.0533C10.3915 14.0569 10.3257 14.0484 10.2688 14.075L10.2681 14.0747ZM19.2281 14.1159L19.1982 14.112C19.1644 14.1444 19.1111 14.1717 19.1161 14.2268C19.1232 14.9717 19.1196 15.717 19.1225 16.4622C19.1147 16.9244 19.1442 17.3867 19.0923 17.8489C19.0869 18.1028 19.1531 18.3559 19.1108 18.6101C19.088 18.6884 19.173 18.7168 19.226 18.7488C19.8688 18.7602 20.512 18.7488 21.1548 18.7531C21.4297 18.7588 21.6942 18.672 21.9666 18.6521L21.9122 18.613C22.0679 18.5863 22.2464 18.5586 22.3563 18.4352C22.9269 18.1778 23.3362 17.6309 23.494 17.0329C23.5758 16.7072 23.5705 16.3687 23.5488 16.0373C23.5006 15.7563 23.4062 15.4853 23.2693 15.2352C23.0816 14.9351 22.8324 14.6663 22.5252 14.4885C22.3719 14.4004 22.2162 14.3036 22.0395 14.272C21.9136 14.1717 21.7461 14.1276 21.5872 14.1134C20.9472 14.0498 20.3029 14.0828 19.6604 14.0743C19.5157 14.0796 19.3618 14.0491 19.2274 14.1188L19.2281 14.1159ZM5.19502 19.7945C5.12036 19.9012 5.13316 20.0363 5.12889 20.1593C5.13102 21.5641 5.1232 22.9707 5.13813 24.3748C5.15236 24.389 5.18116 24.4164 5.19538 24.4302C5.20356 24.4939 5.28924 24.5074 5.34009 24.528C5.55876 24.6037 5.78596 24.5049 6.00889 24.5422C6.17422 24.5657 6.34062 24.5422 6.50667 24.5376C6.85049 24.5376 7.19431 24.5337 7.53778 24.5376C7.74933 24.5401 7.9552 24.4875 8.16249 24.4526C8.63218 24.4171 9.00871 24.0533 9.21529 23.6516C9.28889 23.4571 9.25333 23.2437 9.2864 23.0421C9.32551 22.7492 9.1552 22.4882 8.98418 22.2681C8.90702 22.1614 8.78329 22.1099 8.68444 22.0295C8.65813 21.9292 8.77262 21.8727 8.82667 21.8052C8.98204 21.6704 9.01333 21.4585 9.07769 21.2743C9.1488 21.0588 9.11609 20.8242 9.04213 20.6144C8.95553 20.3196 8.75572 20.0711 8.4864 19.9232C8.36373 19.8542 8.25742 19.7376 8.10845 19.733C7.95449 19.7195 7.80089 19.6996 7.64622 19.6946C7.04178 19.6917 6.43733 19.6896 5.83289 19.6967C5.65511 19.7042 5.48124 19.6441 5.30489 19.6654C5.23982 19.6732 5.22809 19.749 5.19822 19.7945H5.19502ZM11.1772 19.7472C11.0855 19.8759 11.0471 20.0352 10.971 20.1739C10.8501 20.4772 10.699 20.7673 10.5945 21.077C10.4185 21.4834 10.2325 21.8852 10.074 22.299C9.93742 22.5742 9.85565 22.8722 9.71378 23.1449C9.61458 23.3401 9.56053 23.5545 9.46489 23.7515C9.42933 23.8201 9.43182 23.8987 9.42933 23.9744C9.37422 24.133 9.25618 24.2795 9.27324 24.4555C9.35467 24.6076 9.53813 24.5575 9.67644 24.5476C9.91929 24.5476 10.1639 24.592 10.406 24.5547C10.5269 24.512 10.6059 24.3954 10.6699 24.2901C10.726 24.1252 10.7588 23.9474 10.8636 23.8037C10.9703 23.7326 11.1029 23.7753 11.2217 23.766C11.5819 23.7419 11.9428 23.7611 12.3033 23.7529C12.4213 23.7561 12.5579 23.7415 12.6542 23.824C12.7451 23.9603 12.8127 24.1107 12.8544 24.2692C12.8992 24.4686 13.1307 24.5973 13.3255 24.5582C13.5996 24.5166 13.877 24.5518 14.1522 24.5344C14.2016 24.5383 14.2325 24.4988 14.2645 24.4697C13.909 24.4299 13.5481 24.4565 13.1904 24.4533C13.1449 24.4448 13.0727 24.4668 13.0482 24.4149C13.4393 24.4068 13.8276 24.4124 14.2176 24.4114C14.2148 24.3535 14.2053 24.2961 14.1892 24.2404C14.0825 23.9861 13.9662 23.7348 13.861 23.4798C13.7639 23.1819 13.6007 22.9109 13.5019 22.6151C13.1428 21.7653 12.7808 20.9173 12.4316 20.064C12.4494 19.9477 12.3961 19.8368 12.325 19.749C12.1941 19.7013 12.0494 19.7259 11.9129 19.7209C11.6679 19.7308 11.419 19.6988 11.1772 19.7468V19.7472ZM14.5237 19.8183C14.5143 19.8721 14.51 19.9266 14.5109 19.9812C14.5177 21.3924 14.5145 22.8043 14.5141 24.2151C14.5141 24.3051 14.5223 24.4085 14.6098 24.4583C14.6187 24.4805 14.6344 24.4993 14.6546 24.5121C14.6749 24.5249 14.6986 24.5309 14.7225 24.5294C14.9636 24.5429 15.2068 24.5184 15.4468 24.555C15.5705 24.5714 15.7205 24.5927 15.8148 24.4892C15.9282 24.3826 15.8859 24.2162 15.91 24.0796C15.9477 23.8514 15.8887 23.6238 15.9001 23.3952C15.9125 23.0421 15.8748 22.6841 15.9424 22.3356C16.0135 22.3001 16.0363 22.3925 16.0764 22.4331C16.1447 22.5397 16.2756 22.5895 16.336 22.7033C16.4427 22.8996 16.6414 23.0215 16.7467 23.2203C17.1296 23.5968 17.4917 23.9941 17.8311 24.4103C18.0188 24.6215 18.3143 24.5444 18.5618 24.5696C18.6812 24.5813 18.8124 24.5589 18.8836 24.4523V24.4213L18.9739 24.4064C18.9628 24.1166 18.9984 23.8272 18.9817 23.5374C18.976 22.2951 18.9817 21.0524 18.9817 19.8101L18.8882 19.7984C18.6208 19.7195 18.3374 19.7799 18.0633 19.7596C17.9417 19.7703 17.7881 19.7241 17.6914 19.813L17.669 19.7828C17.6227 19.8514 17.5997 19.933 17.6032 20.0156C17.5979 20.4779 17.6032 20.9401 17.5982 21.4023C17.5936 21.6018 17.637 21.8034 17.5908 22.0004L17.5374 22.0064C17.4389 21.8553 17.2981 21.7376 17.2046 21.5829C17.1307 21.4695 17.0169 21.3927 16.9202 21.2985C16.8 21.1975 16.7605 21.014 16.5938 20.971C16.5916 20.992 16.5874 21.034 16.5856 21.0549C16.2656 20.6827 15.9431 20.3118 15.6359 19.9285C15.6572 19.797 15.5125 19.7152 15.3973 19.7202C15.1484 19.7202 14.896 19.7127 14.6457 19.7291C14.6048 19.7575 14.5486 19.7707 14.5216 19.8151L14.5237 19.8183ZM19.8247 19.7508C19.8201 19.7636 19.8108 19.7888 19.8059 19.8016H19.7771L19.7742 19.7618C19.6839 19.7973 19.7006 19.904 19.6953 19.9833C19.6927 21.0379 19.6927 22.0927 19.6953 23.1477C19.7035 23.5591 19.6676 23.973 19.7102 24.3829L19.7817 24.3932V24.426C20.0964 24.4615 20.4139 24.4313 20.73 24.4427C20.8096 24.4363 20.9298 24.4683 20.954 24.3616C20.954 24.1102 20.9557 23.8588 20.954 23.6078C20.9575 23.5609 20.9472 23.5086 20.9732 23.4656C20.9639 23.7856 20.954 24.1109 20.9828 24.4316C21.0025 24.4207 21.0188 24.4044 21.0299 24.3847C21.0409 24.365 21.0463 24.3426 21.0453 24.32C21.0507 24.0356 20.9931 23.7312 21.1122 23.4603C21.1865 23.2743 21.3522 23.1524 21.4702 22.998C21.5132 22.9532 21.5691 22.8711 21.6409 22.912C21.7682 23.002 21.8304 23.1534 21.9161 23.2796C22.1543 23.6306 22.4139 23.9655 22.6628 24.3108C22.6819 24.3419 22.7079 24.3683 22.7386 24.388C22.7694 24.4077 22.8043 24.4202 22.8405 24.4245C22.8907 24.5276 23.0158 24.5223 23.1132 24.5223C23.4332 24.5173 23.7532 24.5223 24.0732 24.5205C24.1504 24.5252 24.2197 24.4903 24.2866 24.4555C24.2827 24.4118 24.2677 24.3699 24.2428 24.3339C24.1141 24.2094 24.0185 24.0569 23.9122 23.914C23.4176 23.243 22.9276 22.5678 22.4348 21.8951C22.379 21.8272 22.4391 21.7529 22.4857 21.7028C22.9991 21.1026 23.5211 20.5099 24.0345 19.9093C24.0644 19.8763 24.0896 19.8226 24.0395 19.7931C23.6711 19.7867 23.3028 19.7931 22.9348 19.7895C22.8814 19.7963 22.8153 19.7756 22.773 19.8165C22.5952 19.9708 22.4601 20.1646 22.3036 20.3385L22.2613 20.2912C22.1031 20.3538 22.021 20.5131 21.9189 20.6382C21.7186 20.8977 21.5037 21.1454 21.275 21.3803C21.216 21.4332 21.1584 21.5122 21.0692 21.5008C21.0215 20.9621 21.0674 20.4213 21.0421 19.882C21.0422 19.8722 21.0402 19.8625 21.0363 19.8535C21.0324 19.8446 21.0267 19.8365 21.0196 19.8298C21.0124 19.8232 21.004 19.818 20.9948 19.8148C20.9856 19.8115 20.9758 19.8102 20.966 19.8108C20.9579 19.7948 20.9419 19.7628 20.9337 19.7472C20.5639 19.7543 20.1927 19.7447 19.8233 19.7508H19.8247Z" fill="#DB0022"/>
<path fill-rule="evenodd" clip-rule="evenodd" d="M12.6386 8.26985C13.0023 8.1614 13.3852 8.19234 13.76 8.19625C14.1106 8.23678 14.4636 8.31251 14.7783 8.47749C15.1843 8.65005 15.5504 8.90442 15.8538 9.22472C16.1571 9.54503 16.3912 9.9244 16.5415 10.3392C16.5884 10.4696 16.6205 10.6048 16.6371 10.7424C16.5422 10.5034 16.4778 10.2528 16.3605 10.0224C16.0025 9.29634 15.3454 8.73385 14.5884 8.4558C14.3061 8.32887 13.9936 8.29616 13.6885 8.26985C13.221 8.26487 12.7342 8.24851 12.2926 8.427C11.8396 8.61189 11.4037 8.85865 11.0564 9.20674C10.9639 9.30487 10.8743 9.4062 10.7744 9.49758C10.8349 9.35536 10.9522 9.24656 11.0589 9.13811C11.4976 8.72034 12.043 8.40105 12.6386 8.26985Z" fill="#E98C97"/>
<path fill-rule="evenodd" clip-rule="evenodd" d="M23.4507 8.28015C23.5666 8.2686 23.6832 8.2661 23.7995 8.27268C24.0793 8.2958 24.3598 8.27908 24.64 8.28406C25.2444 8.28406 25.8489 8.28406 26.4533 8.28086C26.6165 8.28086 26.7915 8.28513 26.9362 8.37046C27.0041 8.4398 26.976 8.54149 26.9717 8.62718C26.9497 8.77154 27.0429 8.90701 27.0073 9.05172C26.9717 9.19644 26.9956 9.39662 26.8516 9.49191C26.8708 9.32671 26.8787 9.1604 26.8754 8.99412C26.8693 8.78469 26.8981 8.57065 26.8398 8.3662C25.8571 8.36869 24.8747 8.3662 23.8923 8.3662C23.7369 8.3662 23.5808 8.35233 23.4265 8.37615L23.3938 8.41171C23.3852 8.42167 23.3685 8.44087 23.3604 8.45082L23.28 8.53473L23.2178 8.48211C23.2782 8.4014 23.3504 8.31642 23.4507 8.28015Z" fill="#BF0C1F"/>
<path fill-rule="evenodd" clip-rule="evenodd" d="M12.2916 8.4288C12.7332 8.25102 13.22 8.26667 13.6875 8.27164C13.9926 8.29796 14.3051 8.33067 14.5875 8.4576C15.3444 8.73565 16.0015 9.29814 16.3596 10.0242C16.4769 10.2546 16.5412 10.5053 16.6362 10.7442C16.7411 11.3092 16.718 11.9094 16.4989 12.4459C16.422 12.6525 16.3219 12.8498 16.2006 13.034C15.7028 13.034 15.2051 13.034 14.7073 13.034L14.6682 12.9742C15.0355 12.7026 15.2612 12.2813 15.3647 11.8439C15.3911 11.5941 15.3936 11.3423 15.3722 11.0919C15.2907 10.6617 15.082 10.2503 14.7514 9.95841C14.489 9.72495 14.1726 9.56047 13.8308 9.47983C13.5815 9.46176 13.3313 9.45914 13.0817 9.47201C12.9533 9.47201 12.8381 9.53458 12.7183 9.57121C12.4742 9.64763 12.2527 9.78321 12.0737 9.96587C11.8248 10.1746 11.6541 10.4597 11.5357 10.7588L11.5272 10.7833C11.3494 11.3241 11.385 11.9566 11.695 12.4455C11.7776 12.584 11.876 12.7124 11.9883 12.8281C12.0516 12.8903 12.1306 12.944 12.1604 13.0322C11.674 13.0322 11.1876 13.0322 10.7026 13.0322C10.6244 13.0489 10.5864 12.9678 10.5487 12.9152C10.3336 12.5422 10.1835 12.1273 10.1501 11.6967C10.1327 11.2701 10.1284 10.8292 10.276 10.4206C10.3471 10.187 10.4666 9.97334 10.5835 9.76072C10.6358 9.66515 10.6997 9.57641 10.7738 9.49654C10.8737 9.40516 10.9633 9.30383 11.0557 9.20569C11.4034 8.85867 11.8386 8.61191 12.2916 8.4288Z" fill="#FDFDFD"/>
<path fill-rule="evenodd" clip-rule="evenodd" d="M5.23145 8.35057C5.43127 8.33599 5.63145 8.34488 5.83127 8.34381C6.0446 8.34381 6.25793 8.33137 6.46665 8.36372C6.5022 8.52088 6.45598 8.68159 6.48691 8.83946C6.52567 9.04497 6.45313 9.25048 6.47305 9.45777C6.48727 9.6711 6.41687 9.92355 6.57971 10.0978C6.6558 10.1305 6.74576 10.0978 6.8286 10.1031C7.2414 10.0647 7.66238 10.2261 8.067 10.0907C8.08371 9.59537 8.07127 9.09937 8.07696 8.60408C8.08158 8.53937 8.0702 8.45332 8.1438 8.42417C8.17154 8.67306 8.15233 8.92444 8.15731 9.17475C8.1534 9.5207 8.1662 9.86666 8.15091 10.2119C7.65313 10.2187 7.15109 10.2204 6.65153 10.2119C6.56656 10.2119 6.483 10.2243 6.39873 10.2297H6.36567C6.34611 9.62203 6.37491 9.01404 6.35145 8.4071C5.98131 8.35555 5.60727 8.42844 5.23536 8.38648L5.23145 8.35057Z" fill="#C60517"/>
<path fill-rule="evenodd" clip-rule="evenodd" d="M8.20583 8.37974C8.58307 8.35236 8.96316 8.37298 9.3436 8.36658L9.37916 8.43094C9.37655 9.91146 9.37655 11.3922 9.37916 12.8732C9.37916 12.9379 9.37454 13.0026 9.37134 13.0677C8.97738 13.0947 8.58201 13.0677 8.18734 13.0773L8.15534 13.0435C8.15961 12.486 8.16707 11.9282 8.15285 11.3724C7.56808 11.3611 6.98296 11.3611 6.39748 11.3724C6.38077 11.7059 6.3957 12.0405 6.39037 12.3744C6.38504 12.6016 6.40921 12.8302 6.37366 13.0556L6.36406 13.0165C6.33881 12.6492 6.35837 12.2802 6.35304 11.9122C6.35304 11.7138 6.34272 11.515 6.36441 11.3173C6.96886 11.3173 7.57721 11.3202 8.18343 11.3148C8.21898 11.8862 8.17916 12.4604 8.2005 13.0329C8.57098 13.0482 8.94218 13.0425 9.31267 13.0393C9.31587 13.024 9.32262 12.9934 9.32582 12.9781C9.34254 12.1017 9.32831 11.2245 9.33294 10.347C9.33009 9.72764 9.33898 9.10791 9.32867 8.48925C9.32618 8.46792 9.32049 8.42561 9.318 8.40463C8.95818 8.39823 8.59801 8.41778 8.2389 8.39574L8.20583 8.37974Z" fill="#CE4C57"/>
<path fill-rule="evenodd" clip-rule="evenodd" d="M17.5025 8.36874C17.7812 8.37111 18.06 8.37111 18.3387 8.36874C18.3434 8.38865 18.3519 8.42812 18.3562 8.44803C18.0717 8.45265 17.7873 8.43239 17.5028 8.46154C17.5028 9.98403 17.4968 11.5072 17.506 13.0301C17.8751 13.0246 18.244 13.0246 18.6129 13.0301C18.6182 12.3371 18.6129 11.6434 18.6107 10.9497C18.6113 10.881 18.6225 10.8128 18.6438 10.7474L18.6986 10.8256C18.6274 10.9888 18.6509 11.1687 18.6506 11.3415C18.6527 11.9104 18.6506 12.4793 18.6545 13.0482V13.0745C18.2581 13.0717 17.8615 13.0717 17.4644 13.0745V13.0482C17.4683 11.5104 17.4594 9.97194 17.4687 8.43452L17.501 8.3691L17.5025 8.36874ZM5.19531 19.7945C5.28446 19.7613 5.37895 19.7448 5.47407 19.7458C6.16242 19.7543 6.85113 19.7433 7.53948 19.7504C7.91566 19.7899 8.31672 19.8617 8.6129 20.1159C8.73556 20.2165 8.83551 20.3419 8.90617 20.4839C8.97684 20.6259 9.0166 20.7813 9.02285 20.9397C9.03032 21.0877 9.03245 21.243 8.95992 21.3778C8.96241 21.3529 8.96668 21.3017 8.96881 21.2765C9.00862 21.1287 9.00972 20.9732 8.97201 20.8249C8.93282 20.5669 8.80022 20.3323 8.59939 20.1657C8.27263 19.9044 7.84241 19.8144 7.43175 19.8173C6.71353 19.8212 5.99531 19.8144 5.27709 19.8212C5.26038 21.3412 5.27247 22.8619 5.27211 24.3819C6.06334 24.3819 6.85445 24.3819 7.64544 24.3819C8.06144 24.3865 8.49628 24.2752 8.81308 23.9947C9.02001 23.8169 9.14197 23.5559 9.18108 23.2889C9.20383 23.1065 9.17574 22.9234 9.15085 22.7428C9.30481 23.1307 9.21663 23.5993 8.95103 23.9189C8.72312 24.187 8.38535 24.3389 8.04544 24.4057C7.77415 24.4693 7.49397 24.4469 7.21806 24.4498C6.70855 24.4498 6.19904 24.4498 5.68918 24.4498C5.5242 24.4473 5.34927 24.4768 5.19602 24.3993C5.21842 24.0413 5.20242 23.6821 5.20705 23.3237C5.20705 22.2334 5.20705 21.143 5.20705 20.0526C5.2074 19.9666 5.2042 19.8805 5.19531 19.7945Z" fill="#E46875"/>
<path fill-rule="evenodd" clip-rule="evenodd" d="M23.4275 8.37866C23.5818 8.35483 23.7379 8.36977 23.8933 8.3687C24.8757 8.3687 25.8581 8.3687 26.8409 8.3687C26.8988 8.57315 26.87 8.78719 26.8764 8.99661C26.8797 9.16289 26.8718 9.32919 26.8526 9.49439L26.817 9.49226C26.2222 9.46986 25.6263 9.48906 25.0311 9.48195C24.8757 9.47946 24.7203 9.48195 24.5656 9.49012C24.5504 9.73024 24.5504 9.97108 24.5656 10.2112C25.0169 10.2286 25.4688 10.2112 25.9203 10.2187C26.1369 10.2247 26.3562 10.1952 26.5703 10.2403C25.9513 10.2759 25.3301 10.2443 24.71 10.2567C24.6446 10.2595 24.5799 10.2674 24.5155 10.2766C24.5155 9.98932 24.502 9.70132 24.5248 9.41475C25.2153 9.42932 25.9065 9.41155 26.597 9.42328C26.6737 9.42789 26.7506 9.42155 26.8256 9.40444C26.865 9.28497 26.8487 9.15555 26.8519 9.03324C26.8455 8.82915 26.8732 8.61937 26.8163 8.41955C25.6761 8.41955 24.5358 8.42204 23.3955 8.41955L23.4275 8.37866Z" fill="#CF4D59"/>
<path fill-rule="evenodd" clip-rule="evenodd" d="M5.16815 8.43305L5.23322 8.38647C5.60513 8.42843 5.97988 8.35554 6.3493 8.4071C6.37277 9.01403 6.34397 9.62203 6.36353 10.2297H6.39659C6.5861 10.2624 6.77846 10.2489 6.96975 10.2503C7.3701 10.2439 7.77117 10.261 8.17117 10.2414C8.19855 10.0281 8.16513 9.81474 8.1797 9.60141C8.18539 9.37634 8.18397 9.15092 8.18184 8.92585C8.18184 8.76479 8.15055 8.5991 8.19393 8.44159C8.20424 8.43021 8.22557 8.40816 8.23588 8.39679C8.59499 8.41883 8.95517 8.39927 9.31499 8.40567C9.31748 8.42665 9.32317 8.46896 9.32566 8.4903C9.15761 8.46832 8.98795 8.46106 8.81864 8.46861C8.62557 8.47252 8.42966 8.45083 8.23944 8.49314C8.23162 9.08621 8.2373 9.67892 8.23944 10.2709C8.01757 10.3637 7.77224 10.3065 7.5397 10.3179C7.13117 10.3061 6.72193 10.3452 6.31375 10.2944C6.28922 9.68745 6.33224 9.07874 6.29313 8.47252C5.94006 8.46434 5.58948 8.46434 5.23926 8.46861C5.23926 9.96976 5.23926 11.4712 5.23926 12.9728V13.0023C5.61224 13.0194 5.98593 12.9891 6.35962 13.0155L6.36922 13.0546C5.97988 13.0859 5.58877 13.0571 5.19873 13.0716L5.16602 13.0393C5.17917 11.798 5.16602 10.5568 5.1717 9.31554C5.1717 9.0215 5.17597 8.7271 5.16673 8.43305H5.16815ZM24.1921 14.0942C24.3632 14.0587 24.5378 14.075 24.7109 14.0736C24.931 14.0736 25.1521 14.059 25.3705 14.0953C25.3662 15.6167 25.3705 17.1381 25.3705 18.6595C25.3569 18.7634 25.2183 18.7527 25.1397 18.7545C24.8218 18.741 24.5022 18.773 24.1865 18.7363C24.1587 18.5479 24.1747 18.358 24.1729 18.1675C24.1729 16.8637 24.1729 15.5593 24.1729 14.2542C24.1768 14.2 24.184 14.1461 24.1943 14.0928L24.1921 14.0942ZM24.2405 14.1778C24.2241 14.4178 24.2359 14.6578 24.233 14.8978C24.233 15.976 24.233 17.0546 24.233 18.1333C24.233 18.3079 24.2224 18.4832 24.2451 18.6574C24.4589 18.6794 24.6739 18.6873 24.8887 18.6812C25.0241 18.6766 25.1692 18.7047 25.2937 18.6364C25.2975 17.1884 25.2975 15.7403 25.2937 14.2923C25.309 14.1603 25.1489 14.166 25.0583 14.16C24.7863 14.1682 24.5129 14.1586 24.2405 14.1778Z" fill="#EC959B"/>
<path fill-rule="evenodd" clip-rule="evenodd" d="M5.04785 8.71005C5.0507 8.60979 5.04394 8.46401 5.1666 8.43307C5.17584 8.72712 5.17015 9.02152 5.17158 9.31556C5.16767 10.5568 5.17904 11.7981 5.16767 13.0393V13.0813C5.12996 13.0727 5.09692 13.0501 5.07526 13.0181C5.0536 12.9861 5.04495 12.947 5.05105 12.9088C5.04607 11.5086 5.05603 10.1092 5.04785 8.71005Z" fill="#C4061C"/>
<path fill-rule="evenodd" clip-rule="evenodd" d="M9.37638 8.43094C9.48837 8.52729 9.44749 8.69689 9.48802 8.82667C9.53708 8.98667 9.50437 9.15201 9.49442 9.31485C9.49442 10.0855 9.49442 10.8558 9.49442 11.626C9.49442 11.7949 9.45246 11.9634 9.47949 12.1323C9.50378 12.3021 9.50318 12.4746 9.47771 12.6443C9.45424 12.7755 9.52108 12.9177 9.4482 13.0393C9.41015 13.1204 9.34473 13.2103 9.2434 13.1961C9.00909 13.1605 8.7723 13.1691 8.53621 13.1669C8.41782 13.1755 8.23933 13.2167 8.18066 13.0766C8.57532 13.0663 8.97069 13.0941 9.36464 13.067C9.36784 13.002 9.37104 12.9373 9.37247 12.8725C9.37365 11.3922 9.37495 9.91171 9.37638 8.43094Z" fill="#CA0519"/>
<path fill-rule="evenodd" clip-rule="evenodd" d="M17.3803 8.60271C17.3849 8.53764 17.3803 8.43382 17.4706 8.43417C17.4613 9.97159 17.4706 11.5101 17.4663 13.0478C17.3461 13.0102 17.3892 12.8594 17.381 12.7634C17.3833 11.3774 17.3831 9.99055 17.3803 8.60271Z" fill="#AB0A1E"/>
<path fill-rule="evenodd" clip-rule="evenodd" d="M21.5706 8.44482C21.6467 8.39042 21.7434 8.40927 21.8312 8.40571C22.035 8.41282 22.2394 8.39433 22.4424 8.41887C22.4695 8.90633 22.4471 9.39593 22.4542 9.88446C22.4542 10.88 22.4542 11.8756 22.4542 12.8711C22.4515 12.9388 22.4446 13.0062 22.4336 13.0731H22.4012C22.0336 13.0652 21.6663 13.0706 21.299 13.0702C21.284 12.9691 21.2766 12.867 21.2769 12.7648C21.2826 12.2315 21.2769 11.6981 21.2805 11.1648C21.2787 11.0418 21.2997 10.9124 21.2471 10.7972L21.2574 10.7837L21.3196 10.7737C21.3239 11.2594 21.3196 11.7454 21.3196 12.2315C21.3224 12.4804 21.3075 12.7314 21.331 12.9806C21.6872 13.0004 22.0442 13.001 22.4005 12.9824C22.4211 11.7735 22.403 10.5618 22.4094 9.35149C22.4008 9.05709 22.4293 8.76091 22.392 8.46793C22.121 8.4306 21.844 8.46225 21.5706 8.44482Z" fill="#E98B91"/>
<path fill-rule="evenodd" clip-rule="evenodd" d="M23.3613 8.4551C23.3695 8.44514 23.3862 8.42594 23.3948 8.41599C24.535 8.41954 25.6753 8.41599 26.8155 8.41599C26.8728 8.61581 26.845 8.82559 26.8511 9.02968C26.8479 9.15306 26.8642 9.28141 26.8248 9.40088C26.7498 9.41799 26.6728 9.42433 26.5961 9.41972C25.9057 9.40799 25.2145 9.42577 24.524 9.41119C24.5307 9.39946 24.545 9.37563 24.5517 9.36461C25.245 9.3575 25.9384 9.36461 26.6324 9.36248C26.6964 9.35679 26.8056 9.36461 26.8102 9.2743C26.8272 9.01381 26.8263 8.75245 26.8077 8.49207C26.6299 8.4775 26.4521 8.47927 26.2744 8.48212H24.2477C23.9739 8.48639 23.6998 8.46896 23.4271 8.4935C23.4058 8.74239 23.4204 8.99128 23.4175 9.24194C23.4175 10.2259 23.4175 11.2096 23.4175 12.1931C23.4175 12.442 23.4083 12.6933 23.4257 12.9422C23.543 12.9727 23.664 12.9864 23.7851 12.9828C24.7914 12.9739 25.7979 12.9931 26.8034 12.9707C26.8253 12.6776 26.8253 12.3834 26.8034 12.0903C26.1051 12.0608 25.4054 12.0857 24.7057 12.0779C24.6427 12.0747 24.5805 12.0676 24.5183 12.0601C24.8173 12.0245 25.1192 12.0469 25.4193 12.0409C25.8914 12.0484 26.364 12.0263 26.8354 12.0523C26.8522 12.3721 26.8522 12.6925 26.8354 13.0123C26.6485 13.0276 26.4608 13.0318 26.2733 13.0251C25.5148 13.0251 24.7563 13.0251 23.9978 13.0251C23.7894 13.0251 23.5793 13.0098 23.3734 13.0496C23.3656 12.0185 23.3734 10.9874 23.3699 9.95413C23.3663 9.45528 23.3848 8.95465 23.3613 8.4551Z" fill="#F7B8BF"/>
<path fill-rule="evenodd" clip-rule="evenodd" d="M5.23961 8.46864C5.59055 8.46544 5.94112 8.46366 6.29206 8.47219C6.33117 9.07841 6.28815 9.68712 6.31268 10.2941C6.71908 10.3449 7.13046 10.3058 7.53864 10.3175C7.77117 10.3051 8.0165 10.3634 8.23837 10.2706C8.23837 9.67752 8.23161 9.08481 8.23837 8.49281C8.42859 8.4505 8.6245 8.47219 8.81757 8.46828C8.98689 8.46073 9.15654 8.46799 9.32459 8.48997C9.3349 9.10864 9.32459 9.72837 9.32886 10.3477C9.32424 11.2245 9.33846 12.1017 9.32175 12.9788C8.96619 12.9892 8.60815 12.9945 8.25188 12.9746C8.22166 12.4459 8.25188 11.9143 8.23624 11.3853C8.24228 11.2747 8.12317 11.2455 8.03606 11.2505C7.56139 11.2505 7.08672 11.2555 6.61384 11.2505C6.52853 11.2454 6.44293 11.2516 6.35926 11.269C6.30344 11.2949 6.30628 11.3632 6.3013 11.4151C6.29384 11.9353 6.32192 12.4569 6.28815 12.9764C5.93888 12.9989 5.58852 12.9989 5.23926 12.9764C5.23926 11.4747 5.23926 9.97334 5.23926 8.47219L5.23961 8.46864ZM23.4291 8.49601C23.7018 8.47148 23.976 8.4889 24.2497 8.48464H26.2764C26.4542 8.48179 26.632 8.48002 26.8097 8.49459C26.8284 8.75497 26.8292 9.01632 26.8122 9.27681C26.808 9.36712 26.6988 9.3593 26.6345 9.36499C25.9411 9.36855 25.2478 9.36001 24.5537 9.36712C24.547 9.37886 24.5328 9.40268 24.526 9.4137C24.5033 9.70028 24.5185 9.98828 24.5168 10.2756C24.5807 10.2896 24.6456 10.2993 24.7109 10.3044C25.3121 10.314 25.9152 10.2837 26.5161 10.3207C26.5097 10.6052 26.5449 10.8914 26.4947 11.1723C25.9841 11.1922 25.4729 11.1758 24.9619 11.1794C24.8176 11.1876 24.6586 11.1456 24.5274 11.2221C24.5047 11.5023 24.5032 11.7839 24.5228 12.0644C24.585 12.0718 24.6473 12.0789 24.7102 12.0821C25.4089 12.09 26.1086 12.0651 26.808 12.0946C26.8298 12.3876 26.8298 12.6819 26.808 12.9749C25.8025 12.9973 24.7959 12.9781 23.7897 12.987C23.6673 12.9903 23.5452 12.9759 23.427 12.9444C23.4096 12.6955 23.4206 12.4466 23.4188 12.1952C23.4188 11.2113 23.4188 10.2276 23.4188 9.2441C23.4217 8.99521 23.4071 8.74633 23.4284 8.49566L23.4291 8.49601ZM10.3091 14.1849C10.4282 14.1694 10.5479 14.1599 10.6679 14.1564C11.3818 14.1586 12.0965 14.1365 12.8097 14.1756L12.9854 14.2016C13.5504 14.3385 14.0407 14.81 14.1342 15.3934C14.1402 15.7084 14.1808 16.0391 14.0585 16.3388C13.9369 16.6588 13.6972 16.9163 13.4185 17.1047C13.4479 17.1844 13.4875 17.26 13.5365 17.3294C13.8128 17.7298 14.0858 18.1333 14.3504 18.5415C14.3557 18.5852 14.3607 18.629 14.3653 18.6734C14.0339 18.6923 13.7015 18.6759 13.3697 18.6841C13.2794 18.6777 13.1653 18.6965 13.1031 18.613C12.8755 18.3243 12.7255 17.9804 12.478 17.707C12.4218 17.5893 12.3738 17.4581 12.2629 17.381C12.1477 17.3568 12.0293 17.3696 11.9127 17.3675C11.7324 17.3728 11.5468 17.3447 11.3726 17.403C11.331 17.8204 11.3815 18.2411 11.3473 18.6595C11.0027 18.6796 10.6572 18.6786 10.3127 18.6567C10.2892 18.4227 10.3027 18.187 10.3006 17.9523C10.3006 16.9452 10.3006 15.9378 10.3006 14.9301C10.3038 14.6812 10.2892 14.4324 10.3105 14.1835L10.3091 14.1849ZM11.4014 15.1804C11.3897 15.5122 11.4014 15.8446 11.3961 16.176C11.4017 16.23 11.3754 16.3143 11.4455 16.3374C11.779 16.3399 12.1136 16.3449 12.4471 16.3335C12.6448 16.2923 12.846 16.1859 12.9516 16.0067C13.0241 15.9334 13.0649 15.8346 13.0652 15.7316C13.0655 15.6285 13.0254 15.5294 12.9534 15.4556C12.8009 15.2149 12.5057 15.1136 12.2316 15.1243C11.9703 15.1292 11.7086 15.1164 11.4473 15.1296C11.4359 15.142 11.4117 15.1669 11.4014 15.1797V15.1804ZM15.0302 14.1451C15.5902 14.122 16.1513 14.1408 16.7116 14.1348C17.294 14.1422 17.8771 14.1198 18.4588 14.1461C18.4787 14.4554 18.4787 14.7656 18.4588 15.0748C17.694 15.1051 16.9271 15.0713 16.1616 15.0919C16.1225 15.3212 16.1296 15.5541 16.1367 15.787C16.1481 15.8503 16.1367 15.9516 16.2206 15.9648C16.3354 15.9865 16.4538 15.9758 16.5705 15.9772C17.1038 15.9772 17.6343 15.9772 18.1662 15.9772C18.1925 16.2874 18.1925 16.5993 18.1662 16.9095C17.5034 16.9113 16.84 16.8971 16.1776 16.9152C16.1751 16.9333 16.1701 16.9696 16.1673 16.9863C16.1633 17.2025 16.1591 17.4187 16.1673 17.6345C16.1677 17.6486 16.1713 17.6625 16.1778 17.6751C16.1843 17.6876 16.1935 17.6986 16.2048 17.7071C16.2161 17.7157 16.2292 17.7216 16.243 17.7244C16.2569 17.7272 16.2712 17.7268 16.2849 17.7234C17.0149 17.7234 17.7427 17.7234 18.4745 17.7234C18.5085 18.0513 18.513 18.3816 18.488 18.7104C18.2284 18.7317 17.9681 18.7164 17.7086 18.7207C16.8432 18.7189 15.9774 18.7239 15.113 18.7189C15.0124 18.7189 15.0252 18.5952 15.0249 18.5255C15.0327 17.0677 15.0167 15.606 15.0323 14.1468L15.0302 14.1451ZM14.6362 20.3733C14.638 20.187 14.6231 19.9993 14.6529 19.8144C14.9655 19.8681 15.2929 19.7838 15.5966 19.8912L15.6368 19.9317C15.944 20.315 16.2665 20.6858 16.5865 21.0581C16.7425 21.248 16.9065 21.4329 17.0633 21.621C17.2631 21.8595 17.4828 22.0832 17.6606 22.3392L17.6705 22.3513L17.7292 22.3651C17.7434 21.5939 17.7264 20.8227 17.736 20.0515C17.74 19.977 17.7519 19.9031 17.7715 19.8311C18.1178 19.8265 18.4649 19.819 18.8108 19.8393C18.8357 20.5027 18.8137 21.1673 18.8211 21.8304C18.8147 22.6734 18.8339 23.5178 18.8115 24.3601C18.5726 24.3772 18.3333 24.3719 18.0944 24.3705C17.9404 24.3729 17.8483 24.2282 17.7388 24.1425C17.2737 23.6128 16.8087 23.0833 16.3521 22.5457C16.2298 22.3324 16.0464 22.1614 15.8928 21.9705C15.8572 21.9129 15.7907 21.9043 15.7296 21.8965C15.7274 22.501 15.7296 23.1086 15.7296 23.7148C15.7296 23.9281 15.7431 24.1415 15.7121 24.352C15.3529 24.3801 14.992 24.3801 14.6327 24.352C14.6391 23.0272 14.6345 21.7002 14.6362 20.3733Z" fill="#FEFDFD"/>
<path fill-rule="evenodd" clip-rule="evenodd" d="M17.5035 8.46189C17.788 8.43274 18.0724 8.453 18.3568 8.44838C18.6971 8.96251 19.0434 9.47344 19.3762 9.99291C19.5444 10.2998 19.7876 10.5593 19.9423 10.8747C20.0208 10.8512 20.0543 10.7741 20.0916 10.709C20.5663 9.94242 21.0768 9.19753 21.5714 8.44482C21.8459 8.46225 22.1218 8.4306 22.3952 8.46758C22.4308 8.76056 22.4041 9.05673 22.4127 9.35113C22.4063 10.56 22.4244 11.7721 22.4038 12.9821C22.0475 13.0007 21.6905 13.0001 21.3343 12.9803C21.3108 12.7314 21.3257 12.4825 21.3229 12.2311C21.3211 11.7451 21.3257 11.259 21.3229 10.7734L21.2607 10.7833L21.2504 10.7968C20.9417 11.3013 20.6075 11.7899 20.2964 12.2933C20.248 12.3289 20.1823 12.3108 20.1268 12.3172C19.9572 12.3122 19.784 12.3339 19.618 12.2898C19.4139 11.9172 19.1622 11.5726 18.9442 11.2078C18.8672 11.0784 18.7865 10.9512 18.7021 10.8263L18.6473 10.7481C18.626 10.8135 18.6149 10.8817 18.6143 10.9504C18.6164 11.6441 18.6217 12.3371 18.6164 13.0308C18.2476 13.0253 17.8786 13.0253 17.5096 13.0308C17.5003 11.5079 17.5067 9.98473 17.5064 8.46225L17.5035 8.46189ZM6.91329 14.0747C7.35371 14.0254 7.79941 14.0562 8.22885 14.1657C8.21711 14.1813 8.20574 14.1973 8.19329 14.2137C8.26689 14.2233 8.34049 14.2322 8.41409 14.2439C8.73622 14.4057 9.03631 14.6304 9.23685 14.9337C9.362 15.1868 9.53765 15.4315 9.54689 15.7241C9.17249 15.7376 8.79738 15.7323 8.42262 15.7284C8.29249 15.5097 8.13818 15.2878 7.90209 15.1744C7.60022 15.0322 7.24431 15.0219 6.9268 15.1157C6.49516 15.2672 6.17089 15.6647 6.082 16.1113C6.0404 16.3392 6.02298 16.587 6.1204 16.8039C6.22991 17.1627 6.47596 17.5104 6.84396 17.6327C7.06014 17.7333 7.30618 17.6949 7.53587 17.6988C7.69196 17.7056 7.83738 17.6402 7.97498 17.5744C8.10085 17.5154 8.17231 17.3902 8.27116 17.2981C8.32982 17.2384 8.37782 17.1687 8.43756 17.1108C8.52254 17.0752 8.61854 17.0891 8.70885 17.0855C8.99685 17.094 9.28556 17.0748 9.57356 17.0983C9.52485 17.4108 9.35311 17.6811 9.19951 17.9516L9.17036 17.989C8.92858 18.2293 8.66618 18.4565 8.34831 18.5906C8.02156 18.7595 7.64716 18.7769 7.28698 18.7811C7.07045 18.7619 6.84716 18.7733 6.63809 18.7043C6.27685 18.581 5.92698 18.4057 5.6532 18.133C5.3044 17.8155 5.08218 17.3749 4.99009 16.9163C4.94814 16.6485 4.95774 16.3755 4.96698 16.1056C5.02849 15.4368 5.4068 14.7932 5.98565 14.4448C6.26244 14.253 6.57912 14.1265 6.91187 14.0747H6.91329ZM19.2998 14.1497C19.6216 14.1326 19.944 14.1444 20.2662 14.1412C20.6804 14.1451 21.0971 14.1237 21.5088 14.1789C21.6866 14.2073 21.8612 14.25 22.0422 14.2692C22.22 14.3008 22.3746 14.3975 22.5279 14.4857C22.8351 14.6635 23.0843 14.9323 23.272 15.2324C23.4084 15.4825 23.5024 15.7536 23.5501 16.0345C23.5718 16.3669 23.5771 16.7054 23.4953 17.03C23.3368 17.6281 22.9264 18.1749 22.3576 18.4323C22.2424 18.4629 22.1282 18.496 22.0159 18.5344C21.6376 18.6638 21.2336 18.6905 20.8361 18.6809C20.3245 18.6741 19.8121 18.6926 19.3005 18.672C19.2781 17.7476 19.2973 16.8188 19.2909 15.8923C19.298 15.3109 19.277 14.7292 19.3008 14.1501L19.2998 14.1497ZM20.423 15.0962C20.3572 15.1175 20.3476 15.1922 20.3519 15.2516C20.3519 16.0114 20.3536 16.7712 20.3519 17.531C20.3519 17.6053 20.3551 17.7216 20.456 17.7237C20.6779 17.7394 20.9012 17.7237 21.1234 17.7298C21.7442 17.7376 22.3245 17.2448 22.4237 16.6336C22.4301 16.4203 22.4536 16.197 22.3757 15.9936C22.2114 15.4916 21.7168 15.1253 21.1931 15.0926C20.9371 15.0926 20.6804 15.0816 20.4251 15.0969L20.423 15.0962ZM5.27631 19.8211C5.99454 19.8144 6.71276 19.8211 7.43098 19.8172C7.84165 19.8144 8.27187 19.9043 8.59862 20.1657C8.79985 20.3321 8.93285 20.5667 8.97231 20.8249C8.96876 20.9753 8.96449 21.1257 8.96911 21.2764C8.96698 21.3017 8.96271 21.3529 8.96022 21.3778C8.87032 21.6495 8.68418 21.879 8.43685 22.0231C8.47331 22.062 8.51802 22.0922 8.56769 22.1116C8.85462 22.2048 9.0548 22.4672 9.15116 22.7431C9.17605 22.9237 9.20414 23.1068 9.18138 23.2892C9.14227 23.5562 9.02031 23.8172 8.81338 23.995C8.49658 24.2755 8.06174 24.3861 7.64574 24.3822C6.85474 24.3822 6.06363 24.3822 5.2724 24.3822C5.2724 22.8622 5.26067 21.3415 5.27738 19.8215L5.27631 19.8211ZM6.41231 20.704C6.40378 20.7136 6.38671 20.7339 6.37854 20.7438C6.35614 20.9155 6.37854 21.0894 6.37142 21.2626C6.37498 21.4108 6.35827 21.5616 6.38245 21.7088C6.41196 21.766 6.48911 21.7394 6.54102 21.7482C6.81338 21.7408 7.08609 21.7529 7.3588 21.7426C7.56325 21.7141 7.778 21.616 7.88005 21.4272C7.91303 21.3662 7.93319 21.2991 7.93931 21.23C7.94542 21.1609 7.93735 21.0913 7.9156 21.0254C7.84876 20.8579 7.68094 20.7481 7.50671 20.7218C7.28236 20.6841 7.05374 20.6926 6.8276 20.6891C6.68929 20.6912 6.5492 20.6777 6.41267 20.704H6.41231ZM6.40982 22.4842C6.40449 22.5049 6.39347 22.5465 6.38814 22.5674C6.38351 22.832 6.38494 23.0969 6.386 23.3614C6.37676 23.4273 6.40473 23.4579 6.46991 23.4531C6.80176 23.4531 7.13433 23.4531 7.4676 23.4531C7.62272 23.4584 7.77605 23.4187 7.9092 23.339C8.11578 23.1993 8.15987 22.854 7.96325 22.6894C7.94511 22.6489 7.92769 22.6048 7.88289 22.5891C7.72289 22.5059 7.53942 22.4825 7.36129 22.4846C7.04414 22.4874 6.72698 22.4846 6.40982 22.4846V22.4842ZM11.2223 19.8247C11.2912 19.7863 11.3723 19.7923 11.4484 19.7891C11.6617 19.7913 11.8751 19.7909 12.0909 19.7891C12.1563 19.7913 12.226 19.7859 12.2875 19.8144C12.3561 19.8827 12.3899 19.9772 12.4326 20.0633C12.7817 20.9166 13.1437 21.7646 13.5028 22.6144C13.6016 22.9109 13.7648 23.1811 13.8619 23.4791C13.9686 23.734 14.0824 23.9854 14.1901 24.2396C14.2062 24.2953 14.2157 24.3527 14.2185 24.4106C13.8274 24.4106 13.4388 24.406 13.0491 24.4142C12.9193 24.1653 12.8475 23.893 12.7334 23.6377L12.7092 23.5897C12.1229 23.5712 11.5359 23.5918 10.9496 23.5801C10.8806 23.5886 10.7718 23.5591 10.7476 23.6483C10.6555 23.8688 10.5983 24.1045 10.4859 24.3164C10.4468 24.3922 10.3462 24.3602 10.2776 24.3715C9.96325 24.3641 9.64822 24.3815 9.33462 24.3591C9.34785 24.2876 9.36847 24.2176 9.39614 24.1504C9.54334 23.8304 9.66849 23.5036 9.8132 23.184C9.87081 23.0558 9.91836 22.9234 9.95542 22.7879C10.1289 22.3829 10.2875 21.9701 10.4738 21.5726C10.6598 21.0962 10.8742 20.6311 11.0619 20.155C11.1103 20.0423 11.1483 19.9225 11.2226 19.8236L11.2223 19.8247ZM11.7364 21.1221C11.7086 21.1944 11.6905 21.2701 11.6827 21.3472L11.6521 21.3394C11.5273 21.7774 11.3321 22.1927 11.1718 22.6194C11.2479 22.6905 11.3552 22.6595 11.4484 22.6656C11.7439 22.656 12.0408 22.6823 12.3348 22.651C12.2377 22.3075 12.0816 21.9836 11.96 21.6483C11.9245 21.5634 11.9056 21.4706 11.8488 21.3959C11.8299 21.2971 11.8249 21.1875 11.7364 21.1228V21.1221ZM22.77 19.8137C22.8123 19.7728 22.8784 19.7934 22.9318 19.7867C23.2998 19.7906 23.6681 19.7838 24.0365 19.7902C24.0866 19.8197 24.0614 19.8734 24.0315 19.9065C23.5181 20.5081 22.9961 21.1008 22.4834 21.701C22.4368 21.7522 22.3768 21.8254 22.4326 21.8933C22.9254 22.566 23.4153 23.2412 23.9099 23.9122C24.0166 24.0544 24.1119 24.2076 24.2406 24.3321C24.136 24.4313 23.9885 24.4032 23.858 24.406C23.5124 24.3993 23.1668 24.4128 22.8212 24.3978C22.5257 23.9612 22.2079 23.5392 21.9088 23.1047C21.8203 22.9852 21.7442 22.8558 21.6464 22.7445C21.5753 22.709 21.5348 22.806 21.49 22.8444C21.3272 23.0599 21.1202 23.2402 20.9712 23.4659C20.9453 23.5075 20.9556 23.5598 20.952 23.6082C20.9552 23.8592 20.952 24.1106 20.952 24.3619C20.5851 24.3619 20.215 24.3946 19.8498 24.347C19.8399 24.2677 19.8303 24.1888 19.8278 24.1095C19.8296 23.232 19.8278 22.3545 19.8278 21.4784C19.8352 20.9347 19.8132 20.3904 19.8431 19.8478C20.1986 19.8211 20.556 19.8343 20.9119 19.8478C20.936 20.5326 20.9119 21.2188 20.9222 21.904L21.0104 21.8748C21.1736 21.6899 21.3503 21.5125 21.4776 21.2995C21.7446 20.9742 22.0265 20.6595 22.3 20.3395C22.4571 20.1621 22.5926 19.9691 22.77 19.8147V19.8137Z" fill="#FDFDFC"/>
<path fill-rule="evenodd" clip-rule="evenodd" d="M23.2812 8.53899L23.3615 8.45508C23.385 8.95286 23.3665 9.45527 23.3722 9.95554C23.3743 10.9867 23.3679 12.0178 23.3758 13.051C23.4522 13.0659 23.5297 13.0746 23.6076 13.077C24.6032 13.0737 25.5994 13.0737 26.5964 13.077C26.685 13.077 26.7742 13.0717 26.8624 13.0667C26.8873 12.7168 26.8585 12.3659 26.8763 12.0156C26.9051 12.043 26.9474 12.0597 26.9662 12.0978C26.9662 12.1532 26.9548 12.2076 26.9552 12.2635C26.9744 12.3481 27.0263 12.432 26.9908 12.5205C26.9346 12.6667 26.9733 12.8199 26.9783 12.9703C26.9428 13.0965 26.7931 13.1605 26.6693 13.1517C25.768 13.1421 24.8666 13.1517 23.9653 13.1477C23.7324 13.1399 23.4782 13.1972 23.2666 13.0727C23.2598 11.9975 23.2616 10.9223 23.263 9.84709C23.2911 9.41189 23.268 8.97491 23.2812 8.53899Z" fill="#B50518"/>
<path fill-rule="evenodd" clip-rule="evenodd" d="M24.5657 9.48763C24.7203 9.47838 24.8757 9.47696 25.0311 9.47945C25.6263 9.48656 26.2222 9.46736 26.817 9.48976C26.8029 9.51633 26.7812 9.53809 26.7546 9.55228C26.7281 9.56646 26.6979 9.57242 26.668 9.5694C26.0508 9.57296 25.4336 9.56514 24.8163 9.56656C24.7523 9.56407 24.6777 9.58185 24.6535 9.64869C24.63 9.79269 24.6443 9.94033 24.6951 10.0771C24.8494 10.1301 25.0133 10.1184 25.1729 10.1024C25.4218 10.075 25.6707 10.1457 25.9196 10.1319C26.177 10.1408 26.4529 10.0825 26.6915 10.2129C26.6915 10.4974 26.6787 10.7818 26.6819 11.0663C26.6794 11.1431 26.6801 11.2494 26.5869 11.2725V11.2291C26.5688 10.8992 26.5965 10.5685 26.5713 10.2389C26.358 10.1937 26.1379 10.2233 25.9214 10.2172C25.4698 10.2112 25.0179 10.2272 24.5667 10.2097C24.551 9.96931 24.5507 9.72811 24.5657 9.48763Z" fill="#C60A1C"/>
<path fill-rule="evenodd" clip-rule="evenodd" d="M11.5371 10.7588C11.6555 10.4598 11.8258 10.1746 12.0751 9.96588C12.078 9.9921 12.0757 10.0186 12.0682 10.0439C12.0607 10.0692 12.0481 10.0927 12.0313 10.1131C11.9446 10.2265 11.8454 10.3314 11.7732 10.4562C11.7021 10.5689 11.6623 10.699 11.5833 10.8075C11.5716 10.7954 11.5478 10.7719 11.5371 10.7588ZM20.9643 19.8109C20.9741 19.8102 20.9838 19.8115 20.9931 19.8148C21.0023 19.8181 21.0107 19.8232 21.0178 19.8299C21.025 19.8366 21.0307 19.8446 21.0346 19.8536C21.0384 19.8626 21.0404 19.8722 21.0404 19.882C21.0656 20.4214 21.0198 20.9622 21.0674 21.5009C21.1567 21.5122 21.2143 21.4333 21.2733 21.3803C21.5011 21.1448 21.7153 20.8965 21.9147 20.6365C22.0168 20.5113 22.0989 20.3521 22.2571 20.2895L22.2994 20.3368C22.026 20.6568 21.744 20.97 21.477 21.2968C21.2914 21.444 21.1631 21.6459 20.997 21.8127C20.9416 21.6104 20.9689 21.3992 20.965 21.1926C20.964 20.7311 20.9704 20.2713 20.9643 19.8109Z" fill="#B4111D"/>
<path fill-rule="evenodd" clip-rule="evenodd" d="M19.3753 9.99325C19.4994 10.0253 19.5492 10.154 19.6193 10.2478C19.7394 10.4171 19.8425 10.5988 19.9713 10.762C20.0206 10.6696 20.0842 10.5856 20.1597 10.5131C20.1422 10.58 20.1191 10.6453 20.0907 10.7083C20.0534 10.7733 20.0196 10.8505 19.9414 10.874C19.7867 10.5586 19.5435 10.299 19.3753 9.99219V9.99325ZM11.1773 19.7472C11.4191 19.6992 11.668 19.7312 11.9129 19.7213C12.0495 19.7262 12.1942 19.7017 12.325 19.7493C12.3961 19.8372 12.4513 19.9481 12.4317 20.0644C12.389 19.9787 12.3553 19.8841 12.2866 19.8155C12.2251 19.787 12.1554 19.7924 12.09 19.7902C11.8767 19.7902 11.6616 19.792 11.4475 19.7902C11.3714 19.7924 11.2904 19.7863 11.2214 19.8258C11.1471 19.9246 11.109 20.0445 11.0607 20.1572C10.8729 20.6333 10.6585 21.0983 10.4726 21.5748C10.2863 21.9741 10.1277 22.3851 9.95419 22.7901C9.75116 23.1712 9.61036 23.5829 9.42832 23.9755C9.43045 23.8997 9.42832 23.8212 9.46387 23.7525C9.55916 23.5556 9.61321 23.3412 9.71276 23.146C9.85498 22.8733 9.93641 22.5771 10.0729 22.3001C10.2315 21.8862 10.4175 21.4845 10.5935 21.0781C10.698 20.7684 10.8491 20.4782 10.97 20.1749C11.0461 20.0363 11.0845 19.877 11.1762 19.7483L11.1773 19.7472ZM14.6479 19.7323C14.8968 19.7159 15.1492 19.722 15.3995 19.7234C15.5147 19.717 15.6594 19.8002 15.6381 19.9317L15.5979 19.8912C15.5442 19.8361 15.4838 19.7764 15.3995 19.7874C15.1506 19.7931 14.8993 19.7643 14.6529 19.8144C14.623 19.9993 14.6379 20.187 14.6361 20.3733C14.6361 21.7003 14.639 23.0272 14.6337 24.3538C14.6269 24.3677 14.6134 24.3954 14.6063 24.4093C14.5888 24.3337 14.5769 24.2569 14.5707 24.1796C14.5707 22.8875 14.5686 21.5947 14.5707 20.304C14.5757 20.1131 14.5281 19.9012 14.6468 19.7351L14.6479 19.7323ZM6.4061 20.7701C6.5181 20.7346 6.6397 20.757 6.75561 20.7524C7.02121 20.7613 7.29143 20.7261 7.55347 20.784C7.61605 20.7978 7.67362 20.8285 7.71987 20.8729C7.30565 20.7559 6.86974 20.7993 6.44556 20.8121C6.43418 21.0766 6.43596 21.3419 6.44556 21.6068C6.70298 21.626 6.96147 21.6299 7.21961 21.6288C7.4045 21.6288 7.58121 21.5701 7.75116 21.5044C7.63063 21.6466 7.43116 21.685 7.25338 21.6782C6.96894 21.6743 6.6845 21.6782 6.40005 21.6782C6.38014 21.4574 6.40005 21.2356 6.39045 21.0144C6.39365 20.9323 6.3773 20.8477 6.4061 20.7701Z" fill="#B62A3B"/>
<path fill-rule="evenodd" clip-rule="evenodd" d="M24.5149 10.2742C24.5793 10.2649 24.644 10.2571 24.7094 10.2542C25.3295 10.2418 25.9506 10.2724 26.5697 10.2379C26.5949 10.5675 26.5672 10.8982 26.5853 11.2281L26.5497 11.2608C26.0559 11.2576 25.5617 11.2587 25.0678 11.2587C24.8929 11.2587 24.7122 11.2377 24.5441 11.2982L24.527 11.2206C24.6582 11.1442 24.8171 11.1851 24.9615 11.178C25.4724 11.1744 25.9837 11.1908 26.4943 11.1709C26.5444 10.89 26.5092 10.602 26.5156 10.3193C25.9147 10.2838 25.3117 10.3126 24.7105 10.303C24.6452 10.2978 24.5803 10.2882 24.5163 10.2742H24.5149ZM19.7754 19.8006H19.8042C20.1715 19.8155 20.5391 19.8045 20.9064 19.8091L20.9124 19.8425C20.5569 19.8304 20.1992 19.8173 19.8437 19.8425C19.8138 20.3851 19.8358 20.9294 19.8284 21.4731C19.8284 22.3506 19.8301 23.2281 19.8284 24.1042C19.8309 24.1835 19.8405 24.2624 19.8504 24.3417C20.2156 24.3894 20.5857 24.3577 20.9526 24.3566C20.9284 24.4633 20.8083 24.4313 20.7286 24.4377C20.4125 24.4263 20.095 24.4555 19.7804 24.421V24.3933C19.7839 23.6466 19.7804 22.8999 19.7804 22.1533C19.7768 21.3675 19.7925 20.5838 19.7754 19.8006Z" fill="#F3ACB0"/>
<path fill-rule="evenodd" clip-rule="evenodd" d="M16.5416 10.3392L16.606 10.294C16.8392 10.8473 16.8382 11.477 16.723 12.0586C16.7108 12.2143 16.6675 12.3659 16.5957 12.5045C16.489 12.7022 16.4097 12.9226 16.2476 13.0826C16.0069 13.2032 15.7257 13.137 15.4672 13.1537C15.1977 13.1392 14.9075 13.2071 14.6579 13.0752C14.6555 13.0332 14.654 12.9909 14.6533 12.9489L14.6697 12.9742L14.7088 13.0339C15.2066 13.0339 15.7043 13.0339 16.2021 13.0339C16.3234 12.8498 16.4235 12.6525 16.5004 12.4458C16.7194 11.9093 16.7425 11.3081 16.6376 10.7442C16.621 10.606 16.5888 10.4701 16.5416 10.3392Z" fill="#BC1023"/>
<path fill-rule="evenodd" clip-rule="evenodd" d="M11.6969 12.4466C11.3876 11.9595 11.3527 11.3252 11.5291 10.7844C11.5399 10.9199 11.5353 11.0562 11.5156 11.1908C11.4708 11.4549 11.5028 11.7273 11.5597 11.9872C11.6283 12.133 11.7019 12.2805 11.6969 12.4466ZM21.4885 22.8445C21.5333 22.8061 21.5728 22.709 21.645 22.7445C21.7428 22.8562 21.8189 22.9853 21.9074 23.1047C22.2064 23.5392 22.5243 23.9613 22.8197 24.3979L22.8357 24.4228C22.7995 24.4184 22.7646 24.4059 22.7338 24.3862C22.7031 24.3665 22.6771 24.3401 22.658 24.309C22.4112 23.9641 22.1502 23.6292 21.9113 23.2779C21.8256 23.1517 21.7634 23.0002 21.6361 22.9102C21.565 22.8693 21.5085 22.9515 21.4654 22.9963C21.3474 23.1524 21.181 23.2743 21.1074 23.4585C20.9883 23.7294 21.0459 24.0324 21.0405 24.3182C21.0415 24.3408 21.0361 24.3632 21.0251 24.3829C21.014 24.4026 20.9977 24.4189 20.978 24.4299C20.9492 24.1099 20.9591 23.7849 20.9684 23.4638C21.1202 23.2402 21.3271 23.0599 21.4885 22.8445Z" fill="#AB111E"/>
<path fill-rule="evenodd" clip-rule="evenodd" d="M21.2481 10.7968C21.3007 10.912 21.2797 11.0414 21.2815 11.1644C21.2773 11.6978 21.2837 12.2311 21.278 12.7644C21.2776 12.8667 21.285 12.9688 21.3 13.0699C21.6673 13.0699 22.0346 13.0649 22.4022 13.0727C22.3756 13.1687 22.2639 13.147 22.1889 13.1538C21.9279 13.1538 21.6666 13.1598 21.4067 13.146C21.3533 13.1455 21.3015 13.1273 21.2595 13.0943C21.2175 13.0613 21.1876 13.0153 21.1745 12.9636C21.1645 12.8377 21.2061 12.7147 21.193 12.5874C21.1347 12.1252 21.1951 11.6583 21.1532 11.1961C21.0985 11.2391 21.0555 11.2951 21.028 11.3589C20.9213 11.5854 20.7265 11.7568 20.6291 11.9883C20.5736 12.1244 20.4566 12.2201 20.3734 12.3385C20.3023 12.4498 20.1551 12.4114 20.0445 12.427C19.9147 12.427 19.7487 12.4772 19.6602 12.3506C19.86 12.3236 20.0612 12.3392 20.2614 12.3456C20.2699 12.3328 20.2867 12.3065 20.297 12.2933C20.6052 11.7899 20.9395 11.3013 21.2481 10.7968Z" fill="#B70F21"/>
<path fill-rule="evenodd" clip-rule="evenodd" d="M18.6998 10.8263C18.7842 10.951 18.8649 11.0782 18.9419 11.2078C19.1598 11.5726 19.4116 11.9172 19.6156 12.2898C19.5328 12.2987 19.4816 12.229 19.4379 12.1714C19.3515 12.0523 19.2974 11.9133 19.2075 11.797C19.0813 11.6331 18.9942 11.4443 18.869 11.2793C18.8292 11.2793 18.7897 11.2768 18.7506 11.2768C18.7325 11.7369 18.7581 12.1977 18.741 12.6581C18.7311 12.7776 18.7698 12.9113 18.7129 13.0215L18.6561 13.0482C18.6536 12.4793 18.6543 11.9104 18.6521 11.3415C18.6521 11.1694 18.6287 10.9888 18.6998 10.8263Z" fill="#BA0E19"/>
<path fill-rule="evenodd" clip-rule="evenodd" d="M6.35793 11.2658C6.4416 11.2484 6.5272 11.2422 6.6125 11.2473C7.08681 11.2537 7.56148 11.2473 8.03473 11.2473C8.12184 11.2423 8.24095 11.2715 8.2349 11.3821C8.25233 11.9111 8.22033 12.4427 8.25055 12.9714C8.6061 12.9913 8.96415 12.986 9.32041 12.9756C9.31721 12.9909 9.31046 13.0215 9.30726 13.0368C8.93677 13.04 8.56557 13.0457 8.19508 13.0304C8.17375 12.458 8.21215 11.8837 8.17801 11.3124C7.57357 11.3177 6.96521 11.3163 6.35899 11.3149C6.3373 11.5125 6.34761 11.7113 6.34761 11.9097C6.35295 12.2777 6.33339 12.6468 6.35864 13.014C5.98566 12.9877 5.61197 13.018 5.23828 13.0009V12.9714C5.58755 12.994 5.9379 12.994 6.28717 12.9714C6.32095 12.4519 6.29286 11.9303 6.30033 11.4101C6.30601 11.36 6.3021 11.2917 6.35793 11.2658Z" fill="#F1A8AE"/>
<path fill-rule="evenodd" clip-rule="evenodd" d="M24.521 12.0629C24.5013 11.7824 24.5029 11.5009 24.5256 11.2206L24.5426 11.2981C24.5675 11.5275 24.5426 11.7586 24.5622 11.9883C25.3089 12.0057 26.0555 11.9911 26.8043 11.9947L26.8754 12.016C26.8577 12.3662 26.8865 12.7171 26.8616 13.067C26.7727 13.072 26.6838 13.0766 26.5956 13.0773C25.6001 13.0731 24.6038 13.0731 23.6068 13.0773C23.529 13.0749 23.4514 13.0662 23.375 13.0514C23.5809 13.0115 23.791 13.0283 23.9994 13.0268C24.7579 13.0268 25.5164 13.0268 26.2749 13.0268C26.4624 13.0336 26.6501 13.0293 26.837 13.014C26.8538 12.6943 26.8538 12.3738 26.837 12.054C26.3656 12.0281 25.893 12.0501 25.4209 12.0427C25.1218 12.0498 24.82 12.027 24.521 12.0629Z" fill="#D86370"/>
<path fill-rule="evenodd" clip-rule="evenodd" d="M24.543 11.2981C24.7115 11.2377 24.8918 11.2601 25.0667 11.2587C25.5606 11.2587 26.0548 11.2587 26.5487 11.2608C26.5487 11.2868 26.5447 11.3383 26.5433 11.3639C25.9161 11.4077 25.2836 11.3397 24.6564 11.3927C24.6371 11.5382 24.6344 11.6854 24.6482 11.8315C24.7557 11.8851 24.8745 11.9119 24.9945 11.9097C25.4806 11.9065 25.967 11.9125 26.4523 11.9072C26.5674 11.9023 26.6827 11.9064 26.7972 11.9193C26.7972 11.9381 26.8022 11.9758 26.8036 11.9947C26.0569 11.9911 25.3103 12.0057 24.5615 11.9883C24.543 11.7586 24.5679 11.5275 24.543 11.2981Z" fill="#C5051D"/>
<path fill-rule="evenodd" clip-rule="evenodd" d="M6.39441 11.3714C6.97917 11.36 7.56429 11.36 8.14977 11.3714C8.16399 11.9282 8.15652 12.4861 8.15226 13.0425C8.06088 12.9974 8.07937 12.8846 8.07368 12.8C8.07368 12.4558 8.0687 12.1117 8.07368 11.7689C8.07084 11.6825 8.07937 11.5911 8.04524 11.509C7.96168 11.4446 7.85075 11.4496 7.75119 11.4478C7.41875 11.4553 7.08631 11.45 6.75565 11.451C6.66267 11.4511 6.57024 11.4652 6.48152 11.493C6.49645 11.7273 6.46338 11.9613 6.47796 12.1956C6.48756 12.3623 6.44845 12.5284 6.46729 12.6934C6.47476 12.8114 6.49965 12.9422 6.43778 13.0489C6.33112 13.1723 6.15334 13.1474 6.00899 13.1623C5.80739 13.183 5.60544 13.1623 5.40455 13.1602C5.32988 13.1574 5.23033 13.1545 5.20117 13.0702C5.59228 13.0557 5.98339 13.0845 6.37165 13.0532C6.40721 12.8278 6.38303 12.5991 6.38836 12.3719C6.39263 12.0395 6.37805 11.7049 6.39441 11.3714Z" fill="#C70817"/>
<path fill-rule="evenodd" clip-rule="evenodd" d="M12.343 11.8535C13.0626 11.8578 13.7822 11.8517 14.5019 11.8564C14.434 12.1764 14.1904 12.4441 13.9024 12.5867C13.6742 12.7093 13.4046 12.6891 13.1558 12.6681C12.9122 12.6027 12.6551 12.4771 12.5378 12.2414C12.8126 12.4821 13.1639 12.6883 13.5433 12.6243C13.9209 12.5763 14.3188 12.3339 14.4084 11.9428C13.9796 11.9154 13.5494 11.9374 13.1198 11.931C12.8934 11.931 12.6669 11.9214 12.4407 11.9403L12.4237 12.0932C12.3945 12.0609 12.3723 12.023 12.3584 11.9817C12.3445 11.9405 12.3392 11.8969 12.343 11.8535Z" fill="#F59BA5"/>
<path fill-rule="evenodd" clip-rule="evenodd" d="M12.4409 11.9417C12.667 11.9228 12.8935 11.9339 13.12 11.9324C13.5495 11.9388 13.9797 11.9168 14.4085 11.9442C14.3189 12.3353 13.9211 12.5778 13.5435 12.6258C13.1641 12.6883 12.811 12.4835 12.5376 12.2403C12.496 12.1947 12.458 12.146 12.4238 12.0946L12.4409 11.9417Z" fill="#FDFCFB"/>
<path fill-rule="evenodd" clip-rule="evenodd" d="M15.0902 13.9509C15.2161 13.947 15.3391 13.9844 15.4657 13.979C16.4143 13.9723 17.3633 13.979 18.3122 13.9762C18.3752 13.984 18.4843 13.9623 18.4794 14.0573C17.3345 14.0625 16.1895 14.0625 15.0443 14.0573C15.0408 14.0796 15.033 14.1237 15.0291 14.1461C15.0134 15.6039 15.0291 17.0652 15.0216 18.5247C15.0216 18.5959 15.0091 18.7174 15.1098 18.7182C15.9748 18.7231 16.8406 18.7182 17.7053 18.7199C17.9649 18.7157 18.2251 18.731 18.4847 18.7096C18.5097 18.3809 18.5052 18.0506 18.4712 17.7226C17.7412 17.7244 17.0116 17.7226 16.2817 17.7226C16.2679 17.7261 16.2536 17.7264 16.2397 17.7236C16.2259 17.7208 16.2128 17.7149 16.2015 17.7064C16.1902 17.6979 16.181 17.6869 16.1745 17.6743C16.168 17.6618 16.1644 17.6479 16.164 17.6337C16.1554 17.4179 16.1597 17.2017 16.164 16.9856C16.7962 16.9657 17.429 16.9817 18.0616 16.9781C18.1174 16.9745 18.2013 16.9756 18.2159 16.907C18.2429 16.7484 18.2216 16.587 18.2258 16.4263C18.2216 16.2663 18.2411 16.1063 18.218 15.9466C18.1992 15.899 18.1366 15.9111 18.0971 15.9061C17.4664 15.9061 16.8349 15.9154 16.2042 15.9026C16.1931 15.6494 16.191 15.3959 16.2042 15.1431C16.9185 15.1342 17.6328 15.1413 18.3467 15.1431C18.397 15.1438 18.447 15.1364 18.495 15.1214C18.5213 15.0258 18.5124 14.9255 18.5128 14.8277C18.5064 14.5788 18.5128 14.3332 18.5128 14.086C18.6127 14.1017 18.6017 14.2169 18.6056 14.293C18.6056 14.5639 18.6376 14.838 18.5864 15.1068C18.5864 15.1683 18.521 15.1861 18.474 15.2035C18.3162 15.254 18.1508 15.2099 17.9898 15.2128C17.5154 15.2128 17.0408 15.2146 16.5675 15.2128C16.474 15.2163 16.351 15.2128 16.2962 15.3038C16.271 15.4709 16.3034 15.6405 16.3009 15.809C16.5658 15.8503 16.8342 15.8172 17.1012 15.8279C17.434 15.819 17.7665 15.8553 18.0968 15.825C18.2443 15.8105 18.3364 15.9733 18.3265 16.1042C18.3236 16.3612 18.362 16.6204 18.3265 16.8761C18.2657 16.9827 18.1505 17.0727 18.0228 17.0627C17.9045 17.0539 17.7857 17.053 17.6673 17.0602C17.2232 17.0905 16.7752 17.0332 16.3329 17.0844C16.293 17.2519 16.2568 17.4325 16.3204 17.5992C17.0052 17.6202 17.6914 17.5921 18.3766 17.6103C18.469 17.6209 18.6074 17.6632 18.607 17.7767C18.6138 18.0199 18.5946 18.2634 18.6095 18.5073C18.6095 18.6072 18.6145 18.7224 18.5476 18.8042C18.3727 18.9322 18.149 18.8501 17.9524 18.8472C17.5969 18.843 17.2413 18.8497 16.8858 18.8451C16.6479 18.838 16.4125 18.8838 16.1747 18.876C15.9201 18.8856 15.6662 18.8124 15.4134 18.8657C15.2292 18.9105 15.0543 18.8145 14.8932 18.7384C14.8442 18.5407 14.9057 18.3359 14.9 18.1358C14.8957 17.1402 14.9021 16.1447 14.8957 15.1491C14.8918 14.8427 14.9121 14.5355 14.8701 14.2311C14.9135 14.1177 15.002 14.0274 15.0902 13.9509Z" fill="#C21222"/>
<path fill-rule="evenodd" clip-rule="evenodd" d="M24.1923 13.9484C24.5415 13.92 24.8942 13.984 25.2455 13.974C25.3995 13.9552 25.4674 14.1298 25.4638 14.2564C25.4578 15.7141 25.4599 17.1741 25.461 18.6329C25.4642 18.7357 25.3831 18.8164 25.3006 18.8651C25.1527 18.917 24.9966 18.8359 24.8459 18.8711C24.6386 18.9131 24.4003 18.9664 24.2076 18.8505C24.1365 18.7908 24.0274 18.7193 24.0512 18.6116C24.0697 18.4648 24.0757 18.3167 24.069 18.1689C24.0643 16.8889 24.069 15.6089 24.0658 14.3289C24.0739 14.197 24.1084 14.0537 24.1923 13.9502V13.9484ZM24.1923 14.0942C24.182 14.1476 24.1749 14.2015 24.171 14.2557C24.171 15.5594 24.171 16.8638 24.171 18.1689C24.171 18.3581 24.1568 18.5479 24.1845 18.7378C24.5003 18.7734 24.8199 18.7424 25.1378 18.7559C25.2164 18.7542 25.355 18.7648 25.3685 18.661C25.3685 17.1396 25.3657 15.6181 25.3685 14.0967C25.1502 14.0612 24.9291 14.0757 24.709 14.075C24.5379 14.075 24.3634 14.059 24.1923 14.0942Z" fill="#C6071A"/>
<path fill-rule="evenodd" clip-rule="evenodd" d="M26.51 13.9555C26.6689 13.9253 26.8271 13.9762 26.9868 13.9715C27.7928 13.9627 28.5988 13.9794 29.4045 13.9691C29.5556 13.9691 29.7732 13.9829 29.8155 14.1635C29.8511 14.4551 29.8077 14.7491 29.8184 15.0418C29.8379 15.1627 29.7078 15.2146 29.6196 15.2551C29.4849 15.3262 29.3352 15.243 29.1951 15.264C29.002 15.2995 28.794 15.2053 28.6159 15.3166C28.5188 15.344 28.5192 15.4535 28.5185 15.5353C28.522 16.2819 28.5185 17.0286 28.5185 17.7753C28.5206 17.9819 28.505 18.1895 28.5345 18.3947C28.5523 18.5266 28.5444 18.677 28.4541 18.7829C28.3908 18.8608 28.2817 18.8423 28.1939 18.8448C27.9208 18.8306 27.6534 18.9063 27.3818 18.9091C27.268 18.8416 27.1852 18.7211 27.1037 18.6165C27.1364 18.1596 27.1176 17.7003 27.1226 17.2419C27.119 16.5952 27.13 15.9474 27.1176 15.3003C26.9754 15.2743 26.8303 15.2459 26.6856 15.2697C26.4663 15.2989 26.2437 15.2924 26.0264 15.2505C25.9475 15.2363 25.8621 15.2057 25.822 15.1307C25.7701 15.0482 25.7917 14.9475 25.7974 14.8565C25.822 14.6332 25.7914 14.4082 25.8099 14.1849C25.8099 14.0544 25.9475 13.9826 26.0613 13.9715C26.2099 13.9637 26.3599 13.9801 26.5075 13.9534L26.51 13.9555ZM25.9269 14.1109V14.1465L25.8888 14.1952C25.8618 14.4288 25.8917 14.6649 25.8799 14.8999C25.8877 14.971 25.86 15.0659 25.9283 15.1132V15.1424C26.3578 15.1779 26.7905 15.1424 27.2214 15.1605C27.2282 15.2142 27.236 15.2672 27.2403 15.3223C27.2492 16.4555 27.2303 17.5893 27.2499 18.7225C27.4436 18.7655 27.6431 18.7431 27.8397 18.7477C28.0257 18.7445 28.2138 18.7637 28.3979 18.7271V18.6713C28.4438 18.6215 28.4335 18.5518 28.4378 18.4903C28.4257 17.4819 28.4353 16.4739 28.4331 15.4659C28.4354 15.3691 28.4458 15.2727 28.4641 15.1776L28.3983 15.1726V15.1371C28.8161 15.1193 29.2356 15.1403 29.6541 15.1275L29.7025 15.0795C29.7135 14.7737 29.6947 14.4675 29.7117 14.1618C29.6993 14.139 29.6802 14.1206 29.657 14.1091C29.6338 14.0976 29.6076 14.0935 29.5819 14.0974C28.5267 14.0974 27.4719 14.0974 26.4175 14.0974C26.2529 14.0985 26.0893 14.086 25.9269 14.1109Z" fill="#C80C20"/>
<path fill-rule="evenodd" clip-rule="evenodd" d="M6.27275 14.2066C6.52164 14.08 6.80039 14.0288 7.07488 13.9893C7.37248 13.9868 7.67648 13.9609 7.96376 14.0487C8.11807 14.0928 8.31434 14.1006 8.41389 14.2439C8.34029 14.2322 8.26669 14.2233 8.19309 14.2137C8.20447 14.1973 8.21585 14.1813 8.22865 14.1657C7.79922 14.0562 7.35352 14.0254 6.9131 14.0747C6.57986 14.1262 6.26267 14.2528 5.98546 14.4448C5.4052 14.7929 5.02547 15.4368 4.96467 16.1056C4.95542 16.3755 4.94582 16.6486 4.98778 16.9163C5.082 17.375 5.30422 17.8155 5.6548 18.1312C5.9268 18.404 6.27844 18.5792 6.63968 18.7026C6.84875 18.7716 7.07203 18.7602 7.28857 18.7794C7.64874 18.7752 8.02314 18.7577 8.34989 18.5888C8.66776 18.4548 8.93016 18.2276 9.17193 17.9872C9.11931 18.1355 8.9842 18.2283 8.87398 18.3321C8.18989 18.8893 7.20394 18.9889 6.39435 18.672C5.97364 18.4975 5.60835 18.2117 5.33764 17.8454C5.05996 17.4543 4.92129 16.9746 4.8932 16.4978C4.87934 15.8617 5.09658 15.2128 5.53604 14.7467C5.74973 14.5284 5.98546 14.3207 6.27275 14.2066Z" fill="#E0767F"/>
<path fill-rule="evenodd" clip-rule="evenodd" d="M10.268 14.0747C10.3249 14.048 10.3906 14.0565 10.4518 14.053C10.9737 14.0555 11.4957 14.0498 12.0162 14.053C12.247 14.0555 12.4806 14.0398 12.7078 14.0885C12.8034 14.1124 12.9211 14.112 12.9834 14.2009L12.8077 14.1749C12.482 14.0761 12.1386 14.1074 11.8029 14.1013C11.2913 14.1045 10.7796 14.0981 10.2683 14.1045C10.2328 14.2958 10.2534 14.4903 10.2509 14.6834C10.2473 16.0231 10.2559 17.3632 10.2463 18.7032C10.232 18.6898 10.2213 18.673 10.2151 18.6544C10.2089 18.6358 10.2074 18.6159 10.2107 18.5966C10.2143 17.1374 10.2143 15.6783 10.2107 14.2194C10.2143 14.1675 10.215 14.1031 10.268 14.0747Z" fill="#CE454F"/>
<path fill-rule="evenodd" clip-rule="evenodd" d="M15.0446 14.0576C16.1894 14.0619 17.3344 14.0619 18.4795 14.0576C18.4881 14.0647 18.5051 14.079 18.5151 14.0854C18.5151 14.3325 18.5094 14.5796 18.5151 14.827C18.5151 14.9248 18.5236 15.0251 18.4973 15.1207C18.4493 15.1357 18.3993 15.1431 18.349 15.1424C17.6351 15.1424 16.9208 15.1349 16.2065 15.1424C16.1923 15.3952 16.1944 15.6487 16.2065 15.9019C16.8373 15.9147 17.4687 15.9054 18.0994 15.9054C18.1389 15.9118 18.2015 15.8983 18.2203 15.9459C18.2434 16.1045 18.2239 16.2659 18.2282 16.4256C18.2239 16.5856 18.2452 16.7477 18.2182 16.9063C18.2036 16.9774 18.1197 16.9753 18.0639 16.9774C17.4314 16.9809 16.7985 16.9649 16.1663 16.9849C16.1692 16.9671 16.1742 16.9308 16.1766 16.9137C16.839 16.8956 17.5025 16.9098 18.1652 16.9081C18.1915 16.5979 18.1915 16.286 18.1652 15.9758C17.6319 15.9758 17.1014 15.9758 16.5695 15.9758C16.4529 15.9758 16.3345 15.9851 16.2197 15.9634C16.135 15.9502 16.1486 15.8489 16.1358 15.7856C16.1286 15.5541 16.1215 15.3198 16.1606 15.0905C16.9261 15.0699 17.6931 15.1036 18.4578 15.0734C18.4777 14.7642 18.4777 14.454 18.4578 14.1447C17.8762 14.1184 17.2931 14.1408 16.7107 14.1333C16.1503 14.1394 15.5893 14.1205 15.0293 14.1437C15.0332 14.1241 15.041 14.08 15.0446 14.0576Z" fill="#E77278"/>
<path fill-rule="evenodd" clip-rule="evenodd" d="M19.2285 14.1177C19.3629 14.0466 19.5169 14.0786 19.6616 14.0732C20.3041 14.0818 20.948 14.0487 21.5883 14.1124C21.7472 14.1266 21.9147 14.1707 22.0406 14.2709C21.8628 14.2517 21.685 14.2091 21.5072 14.1806C21.0955 14.1255 20.6788 14.1451 20.2646 14.1429C19.9425 14.1461 19.62 14.1344 19.2982 14.1515C19.2744 14.7321 19.2954 15.3138 19.2883 15.8937C19.2947 16.8202 19.2755 17.7475 19.2979 18.6734C19.8095 18.694 20.3218 18.6755 20.8335 18.6823C21.2303 18.6919 21.6349 18.6652 22.0132 18.5358C22.1255 18.4974 22.2397 18.4647 22.3549 18.4337C22.245 18.5582 22.0665 18.5859 21.9108 18.6115L21.9652 18.6506C21.6928 18.6705 21.4283 18.7573 21.1535 18.7516C20.5106 18.748 19.8674 18.7587 19.2246 18.7473V18.7118C19.2349 17.1793 19.2267 15.6466 19.2285 14.1177Z" fill="#EC8F93"/>
<path fill-rule="evenodd" clip-rule="evenodd" d="M10.2702 14.1056C10.7815 14.0992 11.2931 14.1056 11.8047 14.1024C12.1404 14.1084 12.4838 14.0772 12.8095 14.176C12.0963 14.1369 11.3816 14.1589 10.6677 14.1568C10.5477 14.1602 10.428 14.1697 10.3089 14.1852C10.2876 14.4341 10.3022 14.683 10.299 14.9319C10.299 15.9391 10.299 16.9465 10.299 17.9541C10.3011 18.1888 10.2876 18.4245 10.3111 18.6585C10.6556 18.6804 11.0011 18.6814 11.3457 18.6613C11.3813 18.2428 11.3294 17.8222 11.371 17.4048C11.4008 17.6103 11.3937 17.8187 11.3923 18.0256C11.3887 18.2585 11.4062 18.4924 11.3759 18.7246C11.0115 18.7246 10.6471 18.7186 10.2826 18.7246H10.2471V18.7044C10.2567 17.3643 10.2471 16.0242 10.2517 14.6844C10.2552 14.4914 10.2357 14.2955 10.2702 14.1056Z" fill="#F6B2B8"/>
<path fill-rule="evenodd" clip-rule="evenodd" d="M19.1164 14.2268C19.1114 14.1717 19.1647 14.1444 19.1985 14.112C19.2174 15.4276 19.1985 16.7456 19.2078 18.0622C19.2078 18.2788 19.1992 18.496 19.2248 18.7111V18.7467C19.1719 18.7154 19.0869 18.6862 19.1096 18.608C19.1519 18.3538 19.0858 18.1006 19.0911 17.8468C19.143 17.3863 19.1135 16.9223 19.1214 16.4601C19.1199 15.7177 19.1235 14.971 19.1164 14.2268Z" fill="#C80718"/>
<path fill-rule="evenodd" clip-rule="evenodd" d="M19.1982 14.112L19.228 14.1159C19.2263 15.6476 19.2344 17.1794 19.2245 18.7111C19.1989 18.496 19.206 18.2788 19.2074 18.0622C19.1989 16.7467 19.217 15.429 19.1982 14.112ZM28.3978 15.173L28.4636 15.178C28.4453 15.273 28.4349 15.3695 28.4327 15.4663C28.4348 16.4743 28.4252 17.4823 28.4373 18.4907C28.4348 18.5522 28.4433 18.6219 28.3975 18.6716C28.3932 17.5054 28.3932 16.3392 28.3975 15.173H28.3978ZM7.82715 20.9717C7.93062 21.099 7.91924 21.2789 7.82715 21.4094C7.85026 21.2644 7.85026 21.1167 7.82715 20.9717ZM11.7361 21.1221C11.8247 21.1868 11.8296 21.2964 11.8485 21.3952C11.7941 21.376 11.7383 21.3596 11.6824 21.3472C11.6902 21.2701 11.7083 21.1944 11.7361 21.1221Z" fill="#8A2227"/>
<path fill-rule="evenodd" clip-rule="evenodd" d="M25.9268 14.1109C26.0892 14.086 26.2539 14.0985 26.4178 14.0967C27.4728 14.0967 28.5276 14.0967 29.5822 14.0967C29.6078 14.0928 29.634 14.0969 29.6573 14.1084C29.6805 14.1199 29.6996 14.1383 29.712 14.161C29.6473 14.1854 29.5777 14.1939 29.509 14.1859C29.2729 14.16 29.0354 14.1763 28.7979 14.1724C27.9445 14.1724 27.0912 14.1724 26.2379 14.1724C26.1525 14.1618 26.085 14.2098 26.0363 14.2745L25.9897 14.1799C25.9676 14.477 25.9676 14.7753 25.9897 15.0723C26.389 15.1104 26.7915 15.0631 27.1911 15.094C27.2864 15.1026 27.302 15.211 27.2999 15.2878C27.2953 16.2958 27.2999 17.3041 27.2974 18.3125C27.2974 18.4295 27.3028 18.5461 27.3116 18.6631C27.6534 18.6839 27.9961 18.6839 28.3378 18.6631C28.3634 18.4042 28.3481 18.1447 28.3516 17.8851C28.3541 16.9781 28.347 16.0718 28.3545 15.1637L28.4004 15.1367V15.1722C28.3942 16.3385 28.3942 17.5047 28.4004 18.6709V18.7267C28.2162 18.7623 28.0281 18.7441 27.8421 18.7473C27.6455 18.7427 27.446 18.7651 27.2523 18.7221C27.2327 17.5889 27.2523 16.4551 27.2427 15.3219C27.2384 15.2675 27.2306 15.2153 27.2238 15.1602C26.7929 15.142 26.3602 15.1786 25.9307 15.142V15.1132C25.9346 14.7907 25.9371 14.4679 25.9307 14.1454L25.9268 14.1109Z" fill="#F4B1B7"/>
<path fill-rule="evenodd" clip-rule="evenodd" d="M24.2409 14.1778C24.5132 14.1586 24.7866 14.1682 25.0586 14.16C25.1493 14.166 25.3093 14.16 25.294 14.2923C25.2966 15.7401 25.2966 17.1881 25.294 18.6364C25.1695 18.7047 25.0245 18.6766 24.889 18.6812C24.6742 18.6873 24.4592 18.6794 24.2455 18.6574C24.2227 18.4832 24.2348 18.3079 24.2334 18.1333C24.2334 17.055 24.2334 15.9765 24.2334 14.8978C24.2362 14.6578 24.2263 14.4178 24.2409 14.1778Z" fill="#FEFEFE"/>
<path fill-rule="evenodd" clip-rule="evenodd" d="M25.889 14.1945L25.9271 14.1458C25.9349 14.4683 25.9325 14.7911 25.9271 15.1136C25.8588 15.0652 25.8865 14.9696 25.8787 14.9003C25.8919 14.6642 25.8613 14.4281 25.889 14.1945Z" fill="#AB293B"/>
<path fill-rule="evenodd" clip-rule="evenodd" d="M29.5092 14.1856C29.5779 14.1936 29.6475 14.185 29.7123 14.1607C29.6952 14.4665 29.7123 14.7726 29.703 15.0784L29.6547 15.1264C29.2362 15.1392 28.8166 15.1182 28.3988 15.136L28.353 15.163C28.3455 16.0697 28.353 16.9764 28.3501 17.8845C28.3466 18.144 28.3619 18.4036 28.3363 18.6624C27.9945 18.6832 27.6519 18.6832 27.3102 18.6624C27.3013 18.5455 27.2952 18.4288 27.2959 18.3119C27.2959 17.3035 27.2938 16.2951 27.2984 15.2871C27.3006 15.2103 27.2849 15.1019 27.1896 15.0933C26.79 15.0624 26.3875 15.1097 25.9882 15.0716C25.9662 14.7746 25.9662 14.4763 25.9882 14.1792L26.0348 14.2738C26.0835 14.2091 26.1511 14.1611 26.2364 14.1717C27.0897 14.1717 27.943 14.1717 28.7964 14.1717C29.0356 14.176 29.2742 14.1596 29.5092 14.1856Z" fill="#FEFEFD"/>
<path fill-rule="evenodd" clip-rule="evenodd" d="M9.23877 14.9355C9.29491 14.9754 9.34053 15.0283 9.37175 15.0898C9.46287 15.2562 9.53834 15.4307 9.59717 15.611C9.62099 15.6754 9.60819 15.744 9.59717 15.8094C9.20037 15.8027 8.80357 15.8094 8.40642 15.8062C8.32073 15.6505 8.24144 15.4827 8.0953 15.3728C7.7753 15.1488 7.35646 15.0617 6.98135 15.1836C6.56606 15.2747 6.24962 15.6331 6.14793 16.037C6.1081 16.2905 6.15255 16.549 6.12339 16.8032C6.02597 16.5863 6.04339 16.3385 6.08499 16.1106C6.17388 15.6647 6.49815 15.2672 6.92979 15.115C7.2473 15.0211 7.60322 15.0315 7.90508 15.1737C8.14188 15.2871 8.29619 15.509 8.42562 15.7276C8.80037 15.7315 9.17548 15.7369 9.54988 15.7234C9.54135 15.4332 9.36357 15.1868 9.23877 14.9355Z" fill="#E9878E"/>
<path fill-rule="evenodd" clip-rule="evenodd" d="M20.4233 15.0962C20.6786 15.0809 20.9353 15.0923 21.1913 15.0919C21.7151 15.1246 22.2096 15.4908 22.3739 15.9929C22.4518 16.197 22.4283 16.4196 22.4219 16.6329C22.3227 17.2441 21.7424 17.7369 21.1216 17.7291C20.8994 17.7241 20.6761 17.7387 20.4542 17.723C20.3532 17.7209 20.3493 17.6046 20.35 17.5303C20.3525 16.7705 20.35 16.0107 20.35 15.2508C20.3472 15.1915 20.3568 15.1168 20.4212 15.0955L20.4233 15.0962ZM20.4379 15.1691C20.4237 15.2432 20.4175 15.3187 20.4194 15.3941C20.4254 16.1479 20.4151 16.9024 20.4247 17.6558C20.6686 17.6619 20.9125 17.6587 21.1568 17.659C21.6994 17.6612 22.2196 17.2654 22.3536 16.7381C22.5218 16.2048 22.2516 15.5776 21.752 15.3291C21.3485 15.1132 20.8773 15.1744 20.4379 15.1691Z" fill="#F49DA5"/>
<path fill-rule="evenodd" clip-rule="evenodd" d="M11.4005 15.1819C11.4119 15.1691 11.436 15.1442 11.4464 15.1317C11.7077 15.1186 11.9694 15.1317 12.2307 15.1264C12.5048 15.1157 12.7996 15.2171 12.9525 15.4578C13.0054 15.6378 13.0048 15.8292 12.9507 16.0089C12.844 16.1867 12.6439 16.2933 12.4462 16.3356C12.1127 16.347 11.7781 16.342 11.4446 16.3395C11.3735 16.3164 11.4008 16.2329 11.3952 16.1781C11.4016 15.846 11.3888 15.5136 11.4005 15.1826V15.1819ZM11.7461 15.2018C11.659 15.2231 11.5157 15.243 11.5228 15.3614C11.5143 15.5748 11.5285 15.7881 11.5228 16.0014C11.5267 16.0825 11.5089 16.2002 11.6053 16.2361C11.7998 16.2716 11.9992 16.2428 12.1959 16.246C12.3317 16.2364 12.4768 16.2549 12.6037 16.1963C12.7815 16.0896 12.9407 15.9019 12.9066 15.6804C12.9091 15.4503 12.6624 15.3753 12.5116 15.258C12.4149 15.1705 12.2791 15.195 12.16 15.1925C12.0213 15.1957 11.883 15.1844 11.7457 15.2018H11.7461Z" fill="#BC0D1E"/>
<path fill-rule="evenodd" clip-rule="evenodd" d="M11.7461 15.2018C11.883 15.1837 12.0213 15.1958 12.1589 15.1922C12.278 15.1947 12.4138 15.1702 12.5106 15.2576C12.6613 15.375 12.9081 15.45 12.9056 15.68C12.9411 15.9016 12.7794 16.0886 12.6026 16.196C12.4757 16.2546 12.3306 16.2361 12.1948 16.2457C11.9982 16.2425 11.7987 16.2703 11.6043 16.2358C11.5079 16.2002 11.5257 16.0822 11.5218 16.0011C11.5285 15.7878 11.5143 15.5744 11.5218 15.3611C11.5161 15.243 11.6594 15.2231 11.7461 15.2018Z" fill="#D90120"/>
<path fill-rule="evenodd" clip-rule="evenodd" d="M20.4377 15.1691C20.8772 15.1744 21.3483 15.1129 21.7533 15.3291C22.2528 15.5779 22.5231 16.2059 22.3549 16.7381C22.2208 17.2654 21.7007 17.6626 21.1581 17.659C20.9138 17.659 20.6699 17.6619 20.426 17.6558C20.4164 16.9024 20.426 16.1479 20.4207 15.3941C20.4188 15.3187 20.425 15.2432 20.4392 15.1691H20.4377ZM20.533 15.3074C20.4975 15.5008 20.5195 15.6985 20.5163 15.8933C20.5131 16.3435 20.5216 16.7939 20.5103 17.2444C20.5065 17.3255 20.5105 17.4067 20.5224 17.4869C20.5224 17.563 20.613 17.5726 20.671 17.5875C20.8309 17.601 20.9919 17.5918 21.1492 17.5602C21.2736 17.5299 21.408 17.5701 21.5275 17.5154C21.6879 17.4489 21.8272 17.3426 21.9602 17.2327C22.138 17.0905 22.196 16.8626 22.2802 16.662C22.3819 16.416 22.3005 16.1454 22.2006 15.9136C22.1248 15.7397 21.973 15.6213 21.8429 15.4905C21.7607 15.4093 21.6573 15.3527 21.5446 15.3273C21.2125 15.2715 20.863 15.1954 20.5341 15.3074H20.533ZM14.522 19.8183C14.549 19.7739 14.6052 19.7607 14.6461 19.7323C14.5273 19.8994 14.575 20.1113 14.57 20.3011C14.5668 21.5936 14.57 22.8864 14.57 24.1767C14.5762 24.254 14.5881 24.3308 14.6056 24.4064C14.6056 24.4188 14.6073 24.4419 14.6077 24.4555C14.5202 24.4057 14.5124 24.3022 14.512 24.2123C14.512 22.8014 14.5156 21.3895 14.5088 19.9783C14.5082 19.9247 14.5126 19.8711 14.522 19.8183Z" fill="#B80616"/>
<path fill-rule="evenodd" clip-rule="evenodd" d="M20.534 15.3074C20.8629 15.1954 21.2124 15.2718 21.5445 15.3273C21.6572 15.3527 21.7605 15.4093 21.8428 15.4905C21.9729 15.6213 22.1247 15.7394 22.2004 15.9136C22.3004 16.1454 22.3818 16.416 22.2801 16.662C22.1969 16.8626 22.1379 17.0919 21.9601 17.2327C21.8271 17.3425 21.6877 17.4488 21.5274 17.5153C21.4079 17.5701 21.2735 17.5299 21.1491 17.5601C20.9918 17.5918 20.8308 17.601 20.6709 17.5875C20.6129 17.5726 20.5237 17.563 20.5223 17.4869C20.5104 17.4066 20.5064 17.3254 20.5102 17.2444C20.5215 16.7939 20.513 16.3435 20.5162 15.8933C20.5205 15.6978 20.4988 15.5008 20.534 15.3074Z" fill="#DA0022"/>
<path fill-rule="evenodd" clip-rule="evenodd" d="M12.953 15.4578C13.025 15.5315 13.0651 15.6306 13.0648 15.7337C13.0645 15.8368 13.0237 15.9356 12.9512 16.0089C13.0053 15.8293 13.0059 15.6378 12.953 15.4578Z" fill="#E79095"/>
<path fill-rule="evenodd" clip-rule="evenodd" d="M8.39051 17.0297C8.42855 16.9977 8.48473 17.0151 8.53025 17.0087C8.88581 17.0133 9.24138 17.0123 9.59695 17.0087C9.64495 17.1975 9.53935 17.3739 9.47321 17.5438C9.4021 17.6889 9.33916 17.8549 9.20085 17.9502C9.35445 17.6807 9.52619 17.4105 9.5749 17.0969C9.28689 17.0734 8.99817 17.0926 8.71016 17.0841C8.61985 17.0876 8.52385 17.0738 8.43887 17.1093C8.37878 17.1673 8.3322 17.237 8.27246 17.2967C8.30175 17.2036 8.34135 17.114 8.39051 17.0297Z" fill="#E46E73"/>
<path fill-rule="evenodd" clip-rule="evenodd" d="M11.3705 17.4058C11.5447 17.3464 11.7303 17.3745 11.9106 17.3703C12.0272 17.3724 12.1456 17.3596 12.2608 17.3838C12.3718 17.4609 12.4198 17.5921 12.4759 17.7098C12.4048 17.6238 12.3447 17.5292 12.2594 17.4577C11.9895 17.4264 11.715 17.446 11.4437 17.4528C11.4164 17.8915 11.4612 18.3324 11.421 18.7705C11.0416 18.7591 10.6619 18.7705 10.2832 18.7619V18.7285C10.6477 18.7207 11.0121 18.7285 11.3765 18.7285C11.4068 18.4963 11.3893 18.2624 11.3929 18.0295C11.3933 17.8197 11.4004 17.6113 11.3705 17.4058Z" fill="#D65D65"/>
<path fill-rule="evenodd" clip-rule="evenodd" d="M11.4434 17.4517C11.7147 17.445 11.9892 17.4254 12.259 17.4567C12.3444 17.5278 12.4055 17.6227 12.4756 17.7088C12.5207 17.8037 12.5723 17.8954 12.6299 17.9833C12.8013 18.2393 12.9581 18.5049 13.1369 18.7556C13.5589 18.7638 13.981 18.7506 14.4034 18.7616L14.3835 18.8328C14.2868 18.8683 14.1819 18.8544 14.0813 18.8527C13.7847 18.8374 13.4878 18.8605 13.1924 18.8441C12.9741 18.8278 12.936 18.5739 12.8222 18.4313C12.6317 18.1877 12.4834 17.9168 12.3131 17.6594C12.2775 17.6146 12.2565 17.5406 12.1897 17.5395C11.9728 17.5203 11.7513 17.4908 11.5373 17.5474C11.4907 17.9495 11.586 18.3538 11.5017 18.7542L11.4199 18.7691C11.4612 18.3314 11.416 17.8905 11.4434 17.4517Z" fill="#C2081D"/>
<path fill-rule="evenodd" clip-rule="evenodd" d="M12.4756 17.7088C12.7245 17.9822 12.8731 18.326 13.1007 18.6147C13.1629 18.6969 13.2784 18.678 13.3673 18.6859C13.6991 18.6777 14.0315 18.694 14.3629 18.6752C14.3583 18.6307 14.3533 18.587 14.348 18.5433C14.3863 18.5654 14.4177 18.5978 14.4386 18.6368C14.4595 18.6758 14.4691 18.7199 14.4664 18.7641H14.4034C13.981 18.7531 13.559 18.7662 13.1369 18.758C12.9592 18.5074 12.8013 18.2418 12.6299 17.9858C12.5722 17.8971 12.5206 17.8046 12.4756 17.7088Z" fill="#F18B90"/>
<path fill-rule="evenodd" clip-rule="evenodd" d="M5.19523 19.7945C5.22616 19.749 5.23789 19.6733 5.30189 19.6654C5.47967 19.6441 5.65282 19.7042 5.82989 19.6967C6.43433 19.6896 7.03877 19.6917 7.64321 19.6946C7.79752 19.6996 7.95112 19.7195 8.10543 19.733C8.25441 19.7376 8.36072 19.8542 8.48339 19.9232C8.75271 20.0711 8.95251 20.3196 9.03912 20.6144C9.11485 20.8242 9.14863 21.0589 9.07467 21.2743C9.01032 21.4585 8.97903 21.6704 8.82365 21.8052C8.77067 21.8727 8.65618 21.9293 8.68143 22.0295C8.78027 22.1099 8.90401 22.1618 8.98116 22.2681C9.15218 22.4882 9.32249 22.7492 9.28338 23.0421C9.24783 23.2437 9.28338 23.4571 9.21227 23.6516C9.00569 24.0533 8.62916 24.416 8.15948 24.4526C7.95219 24.4882 7.74632 24.5401 7.53477 24.5376C7.19059 24.5337 6.84677 24.5376 6.50366 24.5376C6.33798 24.5412 6.17158 24.5657 6.00589 24.5422C5.78296 24.5049 5.55576 24.6037 5.33709 24.528C5.28625 24.5074 5.20056 24.4925 5.19238 24.4302V24.4C5.34563 24.4775 5.52056 24.448 5.68554 24.4505C6.19504 24.4505 6.70455 24.4505 7.21442 24.4505C7.49032 24.4477 7.7705 24.4701 8.04179 24.4064C8.3817 24.3396 8.71947 24.1877 8.94738 23.9197C9.21298 23.5997 9.30294 23.1314 9.1472 22.7435C9.05085 22.4672 8.85067 22.2052 8.56374 22.112C8.51407 22.0926 8.46936 22.0624 8.4329 22.0235C8.68023 21.8794 8.86637 21.6499 8.95627 21.3781C9.02738 21.2434 9.02738 21.088 9.0192 20.9401C9.01344 20.7818 8.97425 20.6266 8.90421 20.4845C8.83417 20.3425 8.73486 20.2169 8.61281 20.1159C8.31663 19.8617 7.91557 19.7899 7.53939 19.7504C6.85104 19.7433 6.16233 19.7543 5.47398 19.7458C5.37886 19.7448 5.28438 19.7613 5.19523 19.7945Z" fill="#BE1023"/>
<path fill-rule="evenodd" clip-rule="evenodd" d="M19.8235 19.7507C20.1929 19.7447 20.5627 19.7543 20.9325 19.7472C20.9406 19.7628 20.9566 19.7948 20.9648 19.8108C20.9709 20.2731 20.9648 20.731 20.967 21.1911C20.9709 21.3977 20.9435 21.6089 20.999 21.8112L20.9552 21.8578L21.0114 21.8706L20.9232 21.8997C20.9136 21.2146 20.9371 20.5283 20.9129 19.8435L20.9069 19.8101C20.5392 19.8055 20.1716 19.8165 19.8047 19.8016C19.8097 19.7888 19.8175 19.7635 19.8235 19.7507Z" fill="#D57884"/>
<path fill-rule="evenodd" clip-rule="evenodd" d="M17.6899 19.8133C17.7866 19.7237 17.9388 19.7707 18.0618 19.76C18.336 19.7803 18.6193 19.7198 18.8867 19.7988C18.8831 21.3397 18.8913 22.8811 18.8821 24.421V24.4519C18.6087 24.4362 18.3349 24.4519 18.0618 24.4462C17.8929 24.4462 17.8307 24.2531 17.7394 24.1426C17.8496 24.2275 17.9417 24.373 18.0949 24.3705C18.3338 24.3705 18.5731 24.3772 18.812 24.3602C18.8344 23.5178 18.8152 22.6734 18.8216 21.8304C18.8142 21.1666 18.8362 20.502 18.8113 19.8393C18.4654 19.819 18.1184 19.8265 17.7721 19.8311C17.7524 19.9031 17.7405 19.977 17.7365 20.0516C17.7269 20.8227 17.744 21.5939 17.7298 22.3651L17.6711 22.3513L17.6611 22.3392C17.6885 22.293 17.7216 22.246 17.7152 22.1891C17.7095 21.7024 17.7152 21.216 17.7127 20.7289C17.7088 20.4235 17.723 20.1177 17.6899 19.8133Z" fill="#F68F9B"/>
<path fill-rule="evenodd" clip-rule="evenodd" d="M19.6936 19.9822C19.699 19.9033 19.6823 19.7977 19.7726 19.7607L19.7754 19.8005C19.7925 20.5828 19.7754 21.3675 19.7818 22.1511C19.7818 22.8978 19.7847 23.6444 19.7818 24.3911L19.7079 24.3808C19.6652 23.9708 19.7011 23.557 19.6929 23.1456C19.6922 22.0913 19.6925 21.0368 19.6936 19.9822Z" fill="#AC0B1D"/>
<path fill-rule="evenodd" clip-rule="evenodd" d="M5.12891 20.1593C5.13317 20.0363 5.12037 19.9008 5.19504 19.7945C5.20286 19.8805 5.20713 19.9666 5.20748 20.0533C5.20748 21.1437 5.20748 22.2341 5.20748 23.3245C5.20286 23.6829 5.21886 24.042 5.19646 24.4V24.4302C5.18224 24.4164 5.15344 24.389 5.13922 24.3748C5.12322 22.971 5.13282 21.5641 5.12891 20.1593ZM18.8889 19.7988L18.9824 19.8105C18.9824 21.0528 18.9767 22.2955 18.9824 23.5378C18.9991 23.8276 18.9636 24.117 18.9746 24.4068L18.8843 24.4217C18.8928 22.8811 18.8839 21.3397 18.8875 19.7988H18.8889Z" fill="#BA0112"/>
<path fill-rule="evenodd" clip-rule="evenodd" d="M14.6533 19.8144C14.8983 19.7643 15.1511 19.7931 15.4 19.7874C15.4843 19.7764 15.5447 19.8361 15.5984 19.8911C15.293 19.7838 14.9659 19.868 14.6533 19.8144Z" fill="#F9B4BE"/>
<path fill-rule="evenodd" clip-rule="evenodd" d="M17.6021 20.016C17.5985 19.9333 17.6216 19.8517 17.6679 19.7831L17.6903 19.8133C17.7233 20.1177 17.7091 20.4235 17.7116 20.7289C17.7116 21.216 17.7084 21.7024 17.7141 22.1892C17.7205 22.246 17.6874 22.293 17.66 22.3392C17.4823 22.0825 17.2625 21.8596 17.0627 21.621C16.9045 21.4329 16.7427 21.248 16.5859 21.0581C16.5877 21.0372 16.592 20.9952 16.5941 20.9742C16.7609 21.0169 16.8003 21.2007 16.9205 21.3017C17.0158 21.3945 17.1296 21.4713 17.2049 21.5861C17.2984 21.7408 17.4392 21.8585 17.5377 22.0096L17.5911 22.0036C17.6373 21.8066 17.5939 21.605 17.5985 21.4055C17.6028 20.9415 17.5968 20.4789 17.6021 20.016Z" fill="#B80D1D"/>
<path fill-rule="evenodd" clip-rule="evenodd" d="M6.4128 20.704C6.54934 20.6777 6.68943 20.6912 6.82774 20.689C7.05387 20.6926 7.28249 20.6841 7.50684 20.7218C7.68107 20.7481 7.84889 20.8579 7.91573 21.0254C7.93748 21.0913 7.94555 21.1609 7.93944 21.23C7.93332 21.2991 7.91316 21.3662 7.88018 21.4272C7.77813 21.616 7.56338 21.7141 7.35893 21.7426C7.08658 21.7529 6.81387 21.7408 6.54116 21.7483C6.4896 21.7394 6.41209 21.766 6.38258 21.7088C6.3584 21.5616 6.37512 21.4108 6.37156 21.2626C6.3776 21.0894 6.35627 20.9155 6.37867 20.7438C6.38685 20.7338 6.40392 20.7136 6.41245 20.704H6.4128ZM6.40712 20.7701C6.37974 20.8476 6.39467 20.9323 6.39218 21.0133C6.40072 21.2345 6.38187 21.4563 6.40178 21.6771C6.68623 21.6771 6.97067 21.6743 7.25511 21.6771C7.43289 21.6839 7.63236 21.6466 7.75289 21.5033C7.78952 21.4826 7.81677 21.4486 7.82898 21.4083C7.92107 21.2779 7.93244 21.0979 7.82898 20.9707C7.80668 20.9258 7.76874 20.8906 7.72231 20.8718C7.67606 20.8275 7.61849 20.7967 7.55591 20.7829C7.29387 20.725 7.02258 20.7602 6.75805 20.7513C6.63965 20.757 6.51947 20.7331 6.40605 20.7701H6.40712Z" fill="#ECA0A7"/>
<path fill-rule="evenodd" clip-rule="evenodd" d="M6.44546 20.8121C6.86964 20.7993 7.30556 20.7559 7.71979 20.8729C7.76622 20.8917 7.80416 20.9269 7.82646 20.9718C7.84957 21.1167 7.84957 21.2645 7.82646 21.4094C7.81424 21.4497 7.78699 21.4837 7.75037 21.5044C7.58041 21.5702 7.4037 21.6295 7.2188 21.6288C6.96067 21.6288 6.70218 21.626 6.44475 21.6068C6.43586 21.3419 6.43408 21.0766 6.44546 20.8121Z" fill="#D9011F"/>
<path fill-rule="evenodd" clip-rule="evenodd" d="M8.97272 20.8249C9.01042 20.9732 9.00932 21.1287 8.96952 21.2764C8.96384 21.1257 8.9681 20.9753 8.97272 20.8249Z" fill="#FEB3C2"/>
<path fill-rule="evenodd" clip-rule="evenodd" d="M20.9985 21.8112C21.1645 21.6444 21.2929 21.4425 21.4785 21.2953C21.3512 21.5086 21.1745 21.6864 21.0113 21.8706L20.9551 21.8578L20.9985 21.8112Z" fill="#E59197"/>
<path fill-rule="evenodd" clip-rule="evenodd" d="M11.6522 21.3405L11.6828 21.3483C11.7386 21.3621 11.7945 21.3771 11.8489 21.3963C11.9058 21.4699 11.9253 21.5637 11.9602 21.6487C12.0818 21.984 12.2379 22.3079 12.3349 22.6513C12.0409 22.6826 11.744 22.6563 11.4485 22.6659C11.3553 22.6599 11.248 22.689 11.1719 22.6197C11.3315 22.1937 11.5274 21.7785 11.6522 21.3405Z" fill="#D3051E"/>
<path fill-rule="evenodd" clip-rule="evenodd" d="M15.7314 21.8972C15.7925 21.9051 15.8583 21.9136 15.8946 21.9712C16.0482 22.1621 16.2316 22.3314 16.354 22.5465C16.1474 22.3847 16.0208 22.1458 15.8153 21.984C15.7876 22.8018 15.8189 23.6196 15.8 24.4402C15.4032 24.4612 15.005 24.4267 14.6086 24.4583C14.6086 24.4459 14.6086 24.4228 14.6064 24.4092C14.6136 24.3954 14.6271 24.3676 14.6338 24.3538C14.9931 24.3819 15.354 24.3819 15.7133 24.3538C15.7442 24.1426 15.7293 23.9292 15.7307 23.7166C15.7328 23.1093 15.7285 22.5031 15.7314 21.8972Z" fill="#F59799"/>
<path fill-rule="evenodd" clip-rule="evenodd" d="M15.8151 21.984C16.0206 22.1458 16.1472 22.3847 16.3538 22.5465C16.8093 23.0841 17.2743 23.6132 17.7404 24.1433C17.8318 24.2539 17.894 24.447 18.0629 24.447C18.336 24.4523 18.6098 24.437 18.8832 24.4527C18.8121 24.5593 18.6809 24.5817 18.5614 24.57C18.3125 24.5448 18.0185 24.6219 17.8308 24.4107C17.491 23.9942 17.1286 23.5967 16.7453 23.2199C16.6386 23.0212 16.4409 22.8999 16.3346 22.703C16.2742 22.5892 16.1433 22.5405 16.075 22.4327C16.0349 22.3922 16.0132 22.299 15.941 22.3353C15.8735 22.6841 15.9111 23.0418 15.8987 23.3949C15.8873 23.6235 15.9463 23.8511 15.9086 24.0793C15.8852 24.2159 15.9268 24.3833 15.8134 24.4889C15.7191 24.5924 15.5691 24.5711 15.4454 24.5547C15.2054 24.5192 14.9622 24.5426 14.7211 24.5291C14.6972 24.5306 14.6735 24.5246 14.6533 24.5118C14.633 24.499 14.6173 24.4802 14.6084 24.458C15.0048 24.4264 15.4031 24.4609 15.7999 24.4399C15.8187 23.6214 15.7874 22.8018 15.8151 21.984Z" fill="#BF0B1E"/>
<path fill-rule="evenodd" clip-rule="evenodd" d="M6.40938 22.4843C6.72654 22.4843 7.04369 22.4871 7.36084 22.4843C7.53862 22.4843 7.72244 22.5056 7.88244 22.5888C7.92724 22.6045 7.94466 22.6485 7.96279 22.6891C7.81039 22.6077 7.64064 22.5641 7.46786 22.5621C7.10769 22.5621 6.74751 22.5575 6.3877 22.5675C6.39303 22.5465 6.40405 22.5049 6.40938 22.4843Z" fill="#F19BA5"/>
<path fill-rule="evenodd" clip-rule="evenodd" d="M6.38757 22.5675C6.74739 22.5575 7.10758 22.5625 7.46776 22.5621C7.64053 22.5641 7.81029 22.6076 7.9627 22.6891C8.15932 22.8537 8.11523 23.1989 7.90865 23.3387C7.7755 23.4184 7.62216 23.4581 7.46705 23.4528C7.13519 23.4528 6.80262 23.4528 6.46935 23.4528C6.4044 23.4576 6.37643 23.427 6.38543 23.3611C6.38437 23.0969 6.38295 22.832 6.38757 22.5675Z" fill="#D8021F"/>
<path fill-rule="evenodd" clip-rule="evenodd" d="M9.42826 23.9744C9.61031 23.5833 9.75111 23.1701 9.95413 22.789C9.91706 22.9245 9.86951 23.0569 9.81191 23.1851C9.6672 23.5051 9.54204 23.8329 9.39484 24.1515C9.36718 24.2187 9.34656 24.2887 9.33333 24.3602C9.64693 24.3826 9.96195 24.3651 10.2763 24.3726C10.3449 24.3612 10.4455 24.3932 10.4846 24.3175C10.597 24.1042 10.6542 23.8699 10.7463 23.6494C10.7712 23.5602 10.8793 23.5897 10.9483 23.5811C11.5346 23.5929 12.1216 23.5723 12.7079 23.5907L12.7321 23.6387C12.0843 23.6743 11.4347 23.6387 10.7861 23.6562C10.6859 23.9203 10.6002 24.1913 10.4768 24.4466C10.075 24.4515 9.67324 24.4355 9.27182 24.4555C9.25689 24.2795 9.37315 24.133 9.42826 23.9744Z" fill="#F58F9A"/>
<path fill-rule="evenodd" clip-rule="evenodd" d="M10.7861 23.6562C11.4346 23.6384 12.0842 23.6733 12.732 23.6388C12.8461 23.894 12.918 24.1675 13.0477 24.4153C13.0712 24.4672 13.1434 24.4451 13.19 24.4537C13.5477 24.4569 13.9075 24.4302 14.2641 24.47C14.2321 24.5003 14.2012 24.5387 14.1517 24.5347C13.8765 24.5522 13.5992 24.517 13.3251 24.5586C13.1302 24.5977 12.8984 24.469 12.854 24.2695C12.8122 24.1111 12.7444 23.9606 12.6534 23.8244C12.5571 23.7415 12.4205 23.7561 12.3025 23.7532C11.942 23.7614 11.5811 23.7422 11.2209 23.7664C11.1021 23.7756 10.9685 23.7308 10.8629 23.8041C10.758 23.9463 10.7253 24.1241 10.6691 24.2905C10.6051 24.3971 10.5269 24.5123 10.4053 24.555C10.1631 24.5923 9.91851 24.5493 9.67566 24.5479C9.53735 24.5578 9.35566 24.608 9.27246 24.4558C9.67388 24.4359 10.0757 24.4519 10.4774 24.4469C10.6008 24.1913 10.6865 23.9204 10.7861 23.6562Z" fill="#C1091D"/>
<path fill-rule="evenodd" clip-rule="evenodd" d="M24.2406 24.3321C24.2654 24.3682 24.2805 24.4101 24.2843 24.4537C24.2182 24.4893 24.1488 24.5249 24.071 24.5188C23.751 24.5188 23.431 24.5156 23.111 24.5206C23.0136 24.5206 22.8884 24.5259 22.8383 24.4228L22.8223 24.3979C23.1679 24.4128 23.5135 24.3979 23.8591 24.4061C23.9885 24.4029 24.136 24.4313 24.2406 24.3321Z" fill="#CE4656"/>
</g>
<defs>
<clipPath id="clip0">
<rect width="32" height="32" fill="white"/>
</clipPath>
</defs>
</svg>
