<svg width="88" height="20" viewBox="0 0 88 20" fill="none" xmlns="http://www.w3.org/2000/svg">
<g clip-path="url(#clip0)">
<path fill-rule="evenodd" clip-rule="evenodd" d="M4.43001 12.322L13.1682 16.144L12.404 17.4421L2.53064 15.6321L4.43001 12.3146V12.322ZM2.12087 16.3405L0 20.0012L11.0639 19.9919L11.8743 18.2858L2.12087 16.3405ZM11.5439 0.0104332L17.0592 9.60339L16.1234 11.2112L9.47837 3.70445L11.5439 0.0104332ZM7.136 7.68962L14.8885 13.3623L15.6268 12.0865L9.07413 4.35907L7.12862 7.69704L7.136 7.68962ZM4.82871 11.6674L13.661 15.4448L14.4141 14.0855L6.73546 8.32198L4.82871 11.6674Z" fill="url(#paint0_linear)"/>
<path fill-rule="evenodd" clip-rule="evenodd" d="M11.9873 19.9981L17.5673 10.3533L23.0845 19.987L20.109 19.9889L17.5728 15.5679L15.0256 19.9944L11.9873 19.9981Z" fill="url(#paint1_linear)"/>
<path fill-rule="evenodd" clip-rule="evenodd" d="M79.7809 7.16921H84.4342L83.5464 8.73991H79.7772V7.1655L79.7809 7.16921ZM70.7363 5.73389C70.7363 6.242 70.7363 6.75011 70.7363 7.25823C71.5835 7.24154 72.4344 7.31201 73.278 7.22114C74.0163 7.15995 73.9997 5.79323 73.2466 5.76356C72.4123 5.69124 71.5724 5.74872 70.7344 5.73389H70.7363ZM69.075 1.83959H70.7363C70.7363 2.65554 70.7363 3.47334 70.7363 4.28929C71.8899 4.35048 73.062 4.18173 74.2027 4.38572C75.2235 4.586 75.6019 5.74316 75.4948 6.66666C75.5299 7.77932 74.5405 8.71766 73.4515 8.73435C71.9933 8.76402 70.5332 8.73435 69.075 8.74362C69.075 6.44166 69.075 4.1397 69.075 1.83774V1.83959ZM62.107 5.82661C62.107 6.30505 62.107 6.78535 62.107 7.26379C63.124 7.23968 64.1485 7.31757 65.1637 7.22485C65.902 7.22485 65.9759 5.92675 65.2597 5.83959C64.2094 5.8025 63.1573 5.83959 62.107 5.82661ZM62.107 3.32684C62.107 3.71256 62.107 4.09828 62.107 4.484C63.0041 4.46546 63.9011 4.51182 64.7964 4.46546C65.3815 4.44321 65.4092 3.3528 64.7964 3.33797C63.9011 3.29532 63.0022 3.33797 62.1051 3.32684H62.107ZM60.4457 1.8433H65.1489C65.6898 1.8433 66.2767 1.98609 66.6514 2.39963C67.1572 3.09133 67.0704 4.23551 66.2712 4.6713C67.6777 5.12378 67.8623 7.10987 66.9634 8.11868C66.4429 8.63236 65.6713 8.74548 64.9773 8.75104H60.4457C60.4457 6.4497 60.4457 4.1465 60.4457 1.84515V1.8433ZM53.9429 3.38062C52.5105 3.80528 52.2392 5.93417 53.3614 6.82985C54.1459 7.38618 55.2405 7.40287 56.1025 7.02457C57.3134 6.48864 57.4684 4.65832 56.6046 3.75336C55.8773 3.15067 54.8141 3.12285 53.9429 3.38247V3.38062ZM53.6364 1.78952C54.9193 1.52434 56.348 1.60408 57.4906 2.29763C59.2423 3.41029 59.473 6.21047 58.0591 7.67547C57.1066 8.59156 55.7186 8.91979 54.432 8.82151C53.4113 8.75289 52.3573 8.39499 51.6632 7.60686C50.7606 6.56096 50.624 4.98099 51.1483 3.72925C51.3797 3.22978 51.726 2.79275 52.1586 2.45419C52.5912 2.11564 53.0978 1.88528 53.6364 1.7821V1.78952ZM35.8518 7.16736H40.4904L39.6136 8.73991H35.85V7.16365L35.8518 7.16736ZM35.8518 4.48029H42.0354L41.1272 6.05285H35.8481V4.48215L35.8518 4.48029ZM45.476 1.8637L41.5481 8.74177H43.56L46.135 4.23922L48.7191 8.74177H50.8289L46.8715 1.83403L45.4779 1.85257L45.476 1.8637ZM35.8481 1.84701H43.56L42.6648 3.38062H35.85V1.85072L35.8481 1.84701ZM29.0296 2.73713L26.4898 7.16736H31.575L29.0296 2.71674V2.73713ZM24.4649 7.17478L28.3873 0.313396H29.7698L33.694 7.17478L34.6963 7.19147V10.7557H33.0794V8.74547H25.05V10.739H23.4404V7.17107H24.4667L24.4649 7.17478ZM79.7809 4.48957H85.9884L85.0784 6.06212H79.7827V4.48586L79.7809 4.48957ZM70.7363 13.096H72.4455V17.4743L76.2498 13.0867H77.7467V19.9926H76.0855V15.542L72.1539 20.0019L70.7326 19.9926V13.0867L70.7363 13.096ZM61.7212 13.0311H63.4286V17.4223L67.2569 13.0292H68.776V19.9332H67.0704V15.4974L63.1683 19.9351H61.7231V13.0218L61.7212 13.0311ZM52.6766 12.8938H54.3379V15.5345H57.8911V12.8846H59.5967V19.7923H57.8893V17.1034H54.3305V19.7886H52.6692V12.8846L52.6766 12.8938ZM33.0037 20H35.0138L37.598 15.4937L40.1822 20H42.2864L38.3455 13.1015L36.9704 13.0904L33.0037 20ZM79.779 1.83774L87.5094 1.8637L86.6197 3.37135H79.7901V1.8433L79.779 1.83774ZM76.2719 1.83774H77.9775V8.74547H76.2719V1.83774ZM43.56 12.8864H45.2674V17.2777L49.0957 12.8846H50.6148V19.7886H48.913V15.3528L45.0053 19.796H43.56V12.8864Z" fill="#231F20"/>
</g>
<defs>
<linearGradient id="paint0_linear" x1="7.31689" y1="10.8625" x2="12.5076" y2="13.7294" gradientUnits="userSpaceOnUse">
<stop stop-color="#EFBA57"/>
<stop offset="0.3" stop-color="#F0BF64"/>
<stop offset="0.47" stop-color="#E18D4B"/>
<stop offset="0.61" stop-color="#E39550"/>
<stop offset="0.76" stop-color="#ECAF48"/>
<stop offset="1" stop-color="#F7D57D"/>
</linearGradient>
<linearGradient id="paint1_linear" x1="12.338" y1="14.5072" x2="24.7943" y2="17.8881" gradientUnits="userSpaceOnUse">
<stop stop-color="#E59A44"/>
<stop offset="1" stop-color="#F0BE5B"/>
</linearGradient>
<clipPath id="clip0">
<rect width="87.5" height="20" fill="white"/>
</clipPath>
</defs>
</svg>
