<svg width="114" height="20" viewBox="0 0 114 20" fill="none" xmlns="http://www.w3.org/2000/svg">
<path fill-rule="evenodd" clip-rule="evenodd" d="M47.0067 6.1823H48.6221C49.709 6.1823 50.4636 6.63769 50.4636 7.60846C50.4636 8.80692 49.5121 9.12538 48.606 9.12538H47.006V6.1823H47.0067ZM106.389 10.5208H107.989C109.71 10.5208 110.072 11.4131 110.072 12.1715C110.072 13.7915 108.397 13.7915 107.944 13.7915H106.39V10.5192L106.389 10.5208ZM47.0067 10.58H48.6529C50.0713 10.58 50.7352 11.08 50.7352 12.1569C50.7352 13.6554 49.3621 13.8215 48.1844 13.8215H47.0075V10.58H47.0067ZM97.7683 6.1823V4.69769H90.099V6.1823H93.1198V15.3054H94.7506V6.1823H97.769H97.7683ZM80.7413 6C82.0998 6 83.1413 6.5923 83.7452 7.16923V5.28692C82.6737 4.66538 81.4067 4.51384 80.696 4.51384C77.5421 4.51384 75.0652 6.66769 75.0652 10.0023C75.0652 13.3354 77.5421 15.4854 80.696 15.4854C81.4067 15.4854 82.6729 15.3338 83.746 14.7131V12.8361C83.1421 13.4108 82.0998 14.0008 80.7421 14.0008C78.296 14.0008 76.7575 12.2908 76.7575 10.0008C76.7575 7.71076 78.296 5.99846 80.7421 5.99846L80.7413 6ZM61.346 15.3062H67.3967V13.8215H62.9736V10.5961H67.0044V9.05H62.9736V6.18153H67.3967V4.69692H61.346V15.3046V15.3062ZM104.758 15.3062H108.11C110.117 15.3062 111.687 14.2308 111.687 12.1569C111.687 10.0046 110.011 8.95846 108.11 8.95846H106.388V4.69692H104.757V15.3062H104.758ZM31.6244 14.0346C29.3452 14.0346 27.7598 12.3692 27.7598 10.0038C27.7598 7.63923 29.3444 5.97076 31.6244 5.97076C33.8736 5.97076 35.459 7.64 35.459 10.0054C35.459 12.3708 33.8744 14.0361 31.6244 14.0361V14.0346ZM45.3767 15.3062H48.546C50.5998 15.3062 52.426 14.5185 52.426 12.3692C52.426 10.7308 51.5206 10.0492 50.5544 9.7923C51.6113 9.2923 52.1083 8.59384 52.1083 7.42615C52.1083 5.38 50.3736 4.69692 48.6375 4.69692H45.376V15.3046L45.3767 15.3062ZM31.6244 4.51538C28.4244 4.51538 26.069 6.89538 26.069 10.0038C26.069 13.1254 28.4244 15.4869 31.6244 15.4869C34.7783 15.4869 37.149 13.1254 37.149 10.0038C37.149 6.89615 34.7798 4.51461 31.6244 4.51461V4.51538ZM11.0921 2.19384C15.3798 2.19384 18.8667 5.69692 18.8667 10.0031C18.8667 14.3054 15.3798 17.8046 11.0921 17.8046C6.80519 17.8046 3.31827 14.3046 3.31827 10.0031C3.31827 5.69692 6.80519 2.19384 11.0921 2.19384ZM1.6875 10.0038C1.6875 15.1538 5.92904 19.2308 11.0921 19.2308C16.1944 19.2308 20.4367 15.3054 20.4367 10.0038C20.4367 4.71153 16.1952 0.769226 11.0921 0.769226C5.92904 0.769226 1.6875 4.86307 1.6875 10.0038ZM11.6206 14.0038C12.979 14.0038 14.0206 13.4131 14.6244 12.8377V14.7146C13.5529 15.3346 12.2844 15.4861 11.5752 15.4861C8.42135 15.4861 5.94442 13.3361 5.94442 10.0031C5.94442 6.66692 8.42135 4.51384 11.5752 4.51384C12.2844 4.51384 13.5521 4.66461 14.6244 5.28615V7.16923C14.0206 6.5923 12.9783 6.00153 11.6206 6.00153C9.17442 6.00153 7.63596 7.71538 7.63596 10.0046C7.63596 12.2938 9.17442 14.0046 11.6206 14.0046V14.0038Z" fill="#1A1918"/>
</svg>
