<svg width="60" height="59" viewBox="0 0 60 59" fill="none" xmlns="http://www.w3.org/2000/svg">
<path d="M47.2521 35.2401C45.4748 35.2401 44.0039 33.7692 44.0039 31.9919C44.0039 31.2564 44.5555 30.6436 45.3522 30.6436C46.0877 30.6436 46.7005 31.2564 46.7005 31.9919C46.7005 32.3596 47.007 32.6047 47.3134 32.6047C47.6811 32.6047 47.9263 32.2983 47.9263 31.9919C47.9263 31.2564 48.5391 30.6436 49.2746 30.6436C49.6423 30.6436 49.9488 30.7661 50.1939 31.0726C50.439 31.3177 50.5616 31.6854 50.5616 31.9919C50.5616 33.7692 49.0907 35.2401 47.2521 35.2401Z" fill="#00A6DF"/>
<path d="M37.8754 58.8355C36.6496 58.8355 35.6078 57.9775 35.3626 56.7518L34.811 53.8713C33.1563 54.0552 31.5628 54.1777 29.9081 54.1777C28.7436 54.1777 27.6404 54.1164 26.476 53.9939L25.9857 56.7518C25.7406 57.9775 24.6987 58.8355 23.4729 58.8355H19.428C18.2022 58.8355 17.1604 57.9775 16.9152 56.7518L15.7508 50.8682C12.9316 49.3361 10.7252 47.2523 9.13177 44.7395C7.41573 41.9816 6.49643 38.6721 6.49643 34.9949C6.49643 34.811 6.49643 34.6885 6.49643 34.5046C6.43514 34.6272 6.31256 34.7497 6.25128 34.811C4.53524 36.9561 2.69663 37.4464 1.53218 37.4464H1.34831C0.61287 37.3851 0 36.8335 0 36.0981C0 35.3626 0.551583 34.7497 1.34831 34.7497C2.02247 34.7497 3.06435 34.5046 3.92237 33.524C2.39019 33.095 1.34831 32.4208 0.919305 31.5628C0.61287 30.8887 0.429009 29.8468 1.4096 28.621C2.02247 27.8856 2.8192 27.4566 3.67722 27.4566C3.7998 27.4566 3.92237 27.4566 4.04494 27.4566C5.27068 27.6404 6.43514 28.621 6.98672 30.0306C6.98672 30.0306 6.98672 30.0919 7.04801 30.0919C8.15117 25.4341 10.9704 21.7569 15.2605 19.3054C15.4443 19.1828 15.6895 19.1216 15.9346 19.1216C16.4249 19.1216 16.8539 19.3667 17.0991 19.7957C17.2829 20.1021 17.3442 20.4699 17.2217 20.7763C17.1604 21.144 16.9152 21.3892 16.6088 21.573C14.2799 22.9213 12.4413 24.6987 11.2155 26.8437C9.86721 29.1726 9.19305 31.9305 9.19305 34.9949C9.19305 41.1236 12.0123 45.904 17.3442 48.7232C17.8345 48.9683 18.141 49.3973 18.2635 49.9489L19.428 56.1389H23.3504L24.0245 52.7068C24.2084 51.8488 24.9438 51.236 25.8018 51.236C25.8631 51.236 25.9244 51.236 25.9857 51.236C27.2114 51.3585 28.4985 51.4811 29.8468 51.4811C31.6241 51.4811 33.4014 51.3585 35.1175 51.1134C35.24 51.1134 35.3013 51.1134 35.4239 51.1134C36.2819 51.1134 37.0174 51.7263 37.2012 52.5843L37.8754 56.2002H41.7978L43.0235 49.6425C43.0848 49.0909 43.4525 48.6619 43.9428 48.3555C47.0684 46.7007 49.3973 44.617 50.9295 42.0429C51.2972 41.3687 51.9101 40.8784 52.7068 40.6333L56.6292 39.4076C57.0582 39.285 57.3647 38.856 57.3647 38.3657V34.3207C57.3647 33.8304 57.0582 33.4627 56.6292 33.2789L54.239 32.4821C53.2584 32.1757 52.4617 31.379 52.1553 30.3984C51.7262 28.9888 51.0521 27.7017 50.1941 26.476C50.1328 26.4147 50.0715 26.2921 50.0102 26.2308C49.5199 27.3953 48.8458 28.192 48.1103 28.621C47.3136 29.0501 46.2717 29.2952 45.1073 29.2952C43.4525 29.2952 41.859 28.8049 40.572 27.8856C39.4076 27.0276 38.6108 25.8631 38.1205 24.4535C37.6302 22.9826 37.569 21.2666 37.9367 19.3054C37.7528 19.2441 37.6302 19.2441 37.4464 19.1828C37.3238 19.1216 37.2012 19.1216 37.0174 19.1216C36.5884 19.7344 36.0981 20.286 35.6078 20.7763C35.1788 21.2053 34.7497 21.573 34.2594 21.9408C34.5046 22.002 34.6885 22.0633 34.9336 22.1859C35.6078 22.4311 35.9755 23.1665 35.7916 23.8407C35.6078 24.3922 35.1175 24.76 34.5659 24.76C34.382 24.76 34.2594 24.76 34.1369 24.6987C31.8693 23.9632 29.4791 23.5342 27.0276 23.5342C24.5761 23.5342 22.1859 23.9019 19.9183 24.6987C19.7957 24.76 19.6118 24.76 19.4893 24.76C18.9377 24.76 18.4474 24.3922 18.2635 23.8407C18.0184 23.1665 18.3861 22.4311 19.1216 22.1859C19.3667 22.1246 19.6118 22.0633 19.7957 22.002C19.3054 21.6343 18.8764 21.2666 18.4474 20.8376C16.1185 18.5087 14.8927 15.4443 14.8927 12.1961C14.8927 8.94791 16.1798 5.88355 18.4474 3.55465C20.7763 1.28703 23.8407 0 27.0889 0C30.3371 0 33.4014 1.28703 35.7303 3.55465C36.6496 4.47395 37.3851 5.51583 37.998 6.74157C38.1818 7.04801 38.1818 7.41573 38.0592 7.78345C37.9367 8.08989 37.6915 8.39632 37.3851 8.5189C37.2012 8.58018 37.0174 8.64147 36.7722 8.64147C36.2819 8.64147 35.8529 8.33504 35.6078 7.90603C35.1175 6.98672 34.5659 6.18999 33.8304 5.45455C32.0531 3.67722 29.6016 2.63534 27.0889 2.63534C24.5148 2.63534 22.1246 3.61593 20.286 5.45455C18.5087 7.23187 17.4668 9.68335 17.4668 12.1961C17.4668 14.7089 18.4474 17.1604 20.286 18.9377C21.2666 19.9183 22.3698 20.6537 23.6568 21.0827C24.76 20.8989 25.9244 20.8376 27.0889 20.8376C28.2533 20.8376 29.3565 20.8989 30.5209 21.0827C31.808 20.5924 32.9111 19.857 33.8917 18.9377C35.6078 17.2217 36.5884 15.0153 36.6496 12.6251C36.7109 11.8897 37.2625 11.3381 37.9367 11.3381H37.998C38.3657 11.3381 38.6721 11.522 38.9173 11.7671C39.1624 12.0123 39.285 12.38 39.285 12.6864C39.2237 14.096 38.9173 15.383 38.427 16.6701C38.7947 16.7314 39.1624 16.8539 39.4688 16.9152C39.5914 16.8539 39.714 16.7314 39.8979 16.6701C43.9428 14.8315 46.8846 13.8509 48.5393 13.8509C49.2748 13.8509 49.6425 14.0347 49.8264 14.1573C50.8682 14.7089 51.3585 16.0572 51.4198 18.5087C51.4198 19.9796 51.236 21.6956 50.9295 23.2278C51.4198 23.7794 51.9101 24.3309 52.3391 24.8825C53.381 26.3534 54.1777 27.8856 54.668 29.5403C54.7293 29.7242 54.8519 29.8468 55.0358 29.9081L57.4259 30.7048C58.9581 31.1951 60 32.6047 60 34.1982V38.2431C60 39.8366 58.9581 41.3075 57.4259 41.7978L53.5036 43.0235C53.381 43.0848 53.3197 43.1461 53.2584 43.2074C51.5424 46.1491 48.9683 48.5393 45.5975 50.3779L44.4331 56.6292C44.1879 57.855 43.1461 58.713 41.9203 58.713H37.8754V58.8355ZM3.37079 30.4597C3.49336 30.5822 3.86108 30.8274 4.65781 31.0112C4.41267 30.4597 3.98366 30.0919 3.7998 30.0919L3.67722 30.0306C3.61593 30.0306 3.55465 30.1532 3.49336 30.1532C3.43207 30.2758 3.37079 30.3984 3.37079 30.4597ZM48.478 16.6088C47.62 16.6088 45.1073 17.2829 40.9397 19.1828C40.7559 19.2441 40.6333 19.428 40.6333 19.6118C40.2043 21.6343 40.143 24.3309 42.1655 25.8631C43.2686 26.6599 44.4944 26.7824 45.1073 26.7824C45.7814 26.7824 46.3943 26.6599 46.762 26.4147C47.4362 26.047 48.2942 23.9019 48.6619 21.0215C48.9683 18.5087 48.6619 17.0378 48.478 16.6088Z" fill="#00A6DF"/>
<path d="M23.6568 17.5896V15.6897H21.144V13.6672H23.6568V13.3608H21.144V11.3383H23.6568V6.00635H28.0695C28.7436 6.00635 29.2952 6.06763 29.8468 6.2515C30.3371 6.43536 30.8274 6.6805 31.1951 7.04823C31.5628 7.35466 31.808 7.78367 32.0531 8.21268C32.237 8.64169 32.3596 9.19327 32.2983 9.68357C32.2983 10.2352 32.1757 10.7867 32.0531 11.2157C31.8693 11.6448 31.5628 12.0738 31.1951 12.3802C30.8274 12.6866 30.3371 12.9318 29.8468 13.1156C29.3565 13.2995 28.8049 13.3608 28.1308 13.3608H26.047V13.6059H30.8887V15.6284H26.047V17.5283H23.6568V17.5896ZM28.0695 11.3383C28.4372 11.3383 28.7436 11.277 28.9888 11.2157C29.2339 11.1545 29.4178 11.0319 29.5404 10.9093C29.6629 10.7867 29.7855 10.6029 29.8468 10.419C29.9081 10.2352 29.9694 9.99 29.9694 9.74485C29.9694 9.49971 29.9081 9.31585 29.8468 9.13198C29.7855 8.94812 29.6629 8.76426 29.5404 8.5804C29.4178 8.45783 29.2339 8.33525 28.9888 8.21268C28.7436 8.09011 28.4372 8.09011 28.0695 8.09011H25.9857V11.3383H28.0695Z" fill="#00A6DF"/>
</svg>
