<svg width="35" height="46" viewBox="0 0 35 46" fill="none" xmlns="http://www.w3.org/2000/svg">
<path d="M8.54639 28.8122C5.43999 31.4323 3.64148 35.2616 3.56521 39.3497H3.32516C1.49178 39.3497 0 40.8415 0 42.6749C0 44.5082 1.49179 46 3.32516 46H31.3162C33.1495 46 34.6413 44.5082 34.6413 42.6748C34.6413 40.8415 33.1495 39.3497 31.3162 39.3497H31.0761C30.9998 35.2616 29.2013 31.4323 26.0949 28.8122C22.7684 26.0062 22.6075 21.4825 24.3261 18.5847C24.3303 18.5758 24.3364 18.5686 24.3402 18.5595C25.961 15.8492 30.545 14.0212 31.0387 6.64983H31.3162C33.1495 6.64983 34.6413 5.15852 34.6413 3.32514C34.6413 1.49176 33.1495 0 31.3162 0H3.32516C1.49179 0 0 1.49178 0 3.32516C0 5.15854 1.49178 6.64985 3.32516 6.64985H3.60264C4.24798 16.2864 11.3652 15.8387 11.3652 22.3028C11.3072 22.5851 11.8722 26.0068 8.54639 28.8122ZM17.3202 28.6156L28.4725 39.3497H6.16857L17.3202 28.6156ZM32.7246 42.6748C32.7246 43.4516 32.0929 44.0833 31.3162 44.0833H3.32516C2.54838 44.0833 1.91667 43.4516 1.91667 42.6748C1.91667 41.8981 2.54838 41.2663 3.32516 41.2663H31.3162C32.0929 41.2664 32.7246 41.8981 32.7246 42.6748ZM24.8596 30.2778C26.9571 32.0464 28.3628 34.4558 28.9112 37.1113L18.2785 26.8776V19.1512H21.938C21.5634 20.1603 21.3594 21.2231 21.3594 22.3028C21.4133 22.5606 20.8133 26.8656 24.8596 30.2778ZM1.91667 3.32516C1.91667 2.54838 2.54838 1.91667 3.32516 1.91667H31.3162C32.0929 1.91667 32.7247 2.54838 32.7247 3.32516C32.7247 4.10147 32.0929 4.73318 31.3162 4.73318H3.32516C2.54838 4.73317 1.91667 4.10147 1.91667 3.32516ZM5.51931 6.64984H29.122C28.639 12.9022 24.6429 14.595 22.9123 17.2346H11.7291C9.98957 14.5815 6.0027 12.907 5.51931 6.64984ZM12.7033 19.1512H16.3619V26.8778L5.73035 37.1112C6.27878 34.4558 7.68445 32.0464 9.78174 30.2778C13.7527 26.9291 13.2393 22.5063 13.2819 22.3028C13.2819 21.2231 13.0779 20.1603 12.7033 19.1512Z" fill="#00A6DF"/>
</svg>
