<svg width="41" height="48" viewBox="0 0 41 48" fill="none" xmlns="http://www.w3.org/2000/svg">
<path d="M20.016 0.960083C19.872 0.960083 19.68 1.00808 19.536 1.10408L0.48 11.9041C0.192 12.0961 0 12.3841 0 12.7681V15.6961C0 16.2241 0.48 16.6561 1.008 16.6561H3.072V41.1841H1.008C0.432 41.1841 0 41.6161 0 42.1441V46.0801C0 46.6081 0.48 47.0401 1.008 47.0401H39.12C39.696 47.0401 40.128 46.6081 40.128 46.0801V42.1441C40.128 41.6161 39.744 41.2321 39.216 41.1841C39.168 41.1841 39.168 41.1841 39.12 41.1841H37.056V16.6561H39.12C39.696 16.6561 40.128 16.2241 40.128 15.6961V12.7681C40.128 12.4321 39.936 12.0961 39.648 11.9041L20.592 1.10408C20.4 1.00808 20.208 0.960083 20.016 0.960083ZM20.064 3.07208L38.112 13.2961V14.6881H2.016V13.2961L20.064 3.07208ZM5.136 16.6561H7.2V41.1841H5.136V16.6561ZM9.264 16.6561H30.912V41.1841H9.264V16.6561ZM32.928 16.6561H34.992V41.1841H32.928V16.6561ZM14.832 22.0321C14.256 22.0801 13.824 22.5121 13.872 23.0401C13.92 23.5681 14.4 24.0001 14.928 23.9521H15.936V28.3681H14.928C14.352 28.3681 13.872 28.8001 13.872 29.3281C13.872 29.8561 14.304 30.3361 14.88 30.3361C14.88 30.3361 14.88 30.3361 14.928 30.3361H15.936V31.8241H14.928C14.88 31.8241 14.88 31.8241 14.832 31.8241C14.256 31.8721 13.824 32.3041 13.872 32.8321C13.92 33.3601 14.4 33.7921 14.928 33.7441H15.936V34.7041C15.936 35.2321 16.368 35.7121 16.944 35.7121C17.52 35.7121 18 35.2801 18 34.7521C18 34.7521 18 34.7521 18 34.7041V33.7441H21.84C22.416 33.7441 22.896 33.3121 22.896 32.7841C22.896 32.2561 22.464 31.7761 21.888 31.7761C21.888 31.7761 21.888 31.7761 21.84 31.7761H18V30.2881H21.888C24.288 30.2881 26.256 28.4161 26.256 26.1121C26.256 23.8081 24.288 21.9361 21.888 21.9361H14.928C14.88 22.0321 14.832 22.0321 14.832 22.0321ZM18 24.0001H21.888C23.184 24.0001 24.192 24.9601 24.192 26.2081C24.192 27.4561 23.184 28.4161 21.888 28.4161H18V24.0001ZM2.016 43.1041H38.112V45.0721H2.016V43.1041Z" fill="#00A6DF"/>
</svg>
