<svg width="34" height="36" viewBox="0 0 34 36" fill="none" xmlns="http://www.w3.org/2000/svg">
<path d="M8.39973 14.92C8.15973 15.16 8.15973 15.52 8.39973 15.76C8.63973 16 8.99973 16 9.23973 15.76C13.4397 11.72 20.2397 11.72 24.3997 15.76C24.5197 15.88 24.6797 15.92 24.7997 15.92C24.9597 15.92 25.1197 15.84 25.2397 15.72C25.4797 15.48 25.4797 15.12 25.2397 14.88C20.5597 10.44 13.0397 10.44 8.39973 14.92Z" fill="#00A6DF"/>
<path d="M15.92 8.12C6.96 8.56 0 16.16 0 25.16V25.68V33.6C0 34.48 0.72 35.2 1.6 35.2H32C32.88 35.2 33.6 34.48 33.6 33.6V25.68V24.88C33.6 15.36 25.6 7.6 15.92 8.12ZM32 26.48V32.8C32 33.24 31.64 33.6 31.2 33.6H2.4C1.96 33.6 1.6 33.24 1.6 32.8V26.48L1.64 24.08C2.04 16.08 8.72 9.68001 16.8 9.68001C24.88 9.68001 31.56 16.08 31.96 24.08L32 26.48Z" fill="#00A6DF"/>
<path d="M3.75945 12.24C10.9595 5.08 22.6395 5.08 29.8395 12.24C29.9995 12.4 30.1995 12.48 30.3995 12.48C30.5995 12.48 30.7995 12.4 30.9595 12.24C31.2795 11.92 31.1995 11.4 30.9195 11.08C28.4795 8.68 25.5995 7 22.4795 6.12C22.9995 5.56 23.3595 4.8 23.3595 3.96C23.3595 2.24 21.9595 0.800004 20.1995 0.800004C18.4395 0.800004 17.0395 2.2 17.0395 3.96C17.0395 4.44 17.1595 4.92 17.3595 5.32H16.2395C16.4395 4.92 16.5595 4.44 16.5595 3.96C16.5595 2.2 15.0795 0.720004 13.2795 0.800004C11.6395 0.880004 10.2795 2.24 10.2795 3.88C10.2795 4.76 10.5995 5.52 11.1595 6.12C8.03945 7.04 5.11945 8.68 2.67945 11.12C2.35945 11.44 2.35945 11.96 2.67945 12.24C2.95945 12.56 3.43945 12.56 3.75945 12.24ZM20.1995 2.4C21.0395 2.4 21.7595 3.08 21.7595 3.96C21.7595 4.84 20.9995 5.56 20.1595 5.52C19.3195 5.48 18.6395 4.84 18.6395 3.96C18.6395 3.08 19.3595 2.4 20.1995 2.4ZM13.3995 2.4C14.2395 2.4 14.9595 3.08 14.9595 3.96C14.9595 4.84 14.1995 5.56 13.3595 5.52C12.5195 5.48 11.8395 4.84 11.8395 3.96C11.8395 3.08 12.5595 2.4 13.3995 2.4Z" fill="#00A6DF"/>
</svg>
