<svg width="36" height="26" viewBox="0 0 36 26" fill="none" xmlns="http://www.w3.org/2000/svg">
<path d="M3.6 25.92C1.6 25.92 0 24.32 0 22.32V3.68C0 1.68 1.6 0.0800018 3.6 0.0800018H31.6C33.6 0.0800018 35.2 1.68 35.2 3.68V22.32C35.2 24.32 33.6 25.92 31.6 25.92H3.6ZM1.64 22.32C1.64 23.4 2.52 24.28 3.6 24.28H31.6C32.72 24.28 33.56 23.4 33.56 22.32V10.92H1.64V22.32ZM33.56 9.28V7.28H1.64V9.28H33.56ZM33.56 5.64V3.72C33.56 2.64 32.68 1.76 31.6 1.76H3.6C2.48 1.76 1.64 2.64 1.64 3.72V5.64H33.56ZM26.92 21.8C26.16 21.8 25.44 21.6 24.84 21.16C24.24 21.56 23.52 21.8 22.76 21.8C21.76 21.8 20.8 21.4 20.12 20.72C19.4 20 19.04 19.08 19.04 18.08C19.04 17.08 19.44 16.16 20.12 15.44C20.84 14.72 21.76 14.36 22.76 14.36C23.52 14.36 24.2 14.6 24.84 15C25.44 14.6 26.16 14.36 26.92 14.36C27.92 14.36 28.84 14.76 29.56 15.44C30.28 16.16 30.64 17.08 30.64 18.08C30.64 19.08 30.24 20.04 29.56 20.72C28.84 21.4 27.88 21.8 26.92 21.8ZM25.44 19.56C25.84 19.96 26.36 20.16 26.92 20.16C27.48 20.16 28 19.96 28.4 19.56C28.8 19.16 29 18.64 29 18.08C29 17.52 28.8 17 28.4 16.6C28 16.2 27.48 16 26.92 16C26.36 16 25.84 16.2 25.44 16.6C25.04 17 24.8 17.52 24.8 18.08C24.8 18.64 25.04 19.16 25.44 19.56ZM22.76 16C22.2 16 21.68 16.2 21.28 16.6C20.88 17 20.68 17.52 20.68 18.08C20.68 18.64 20.88 19.16 21.28 19.56C21.68 19.96 22.2 20.16 22.76 20.16C23.08 20.16 23.4 20.08 23.68 19.96C23.64 19.88 23.6 19.8 23.56 19.68V19.64C23.4 19.32 23.32 19 23.24 18.64V18.56C23.2 18.36 23.2 18.2 23.2 18.04C23.2 17.88 23.2 17.72 23.24 17.52V17.44C23.28 17.12 23.4 16.76 23.52 16.48L23.56 16.44C23.6 16.36 23.64 16.24 23.72 16.16C23.4 16.04 23.08 16 22.76 16ZM5.36 20.28C4.92 20.28 4.56 19.96 4.56 19.52C4.52 19.08 4.88 18.68 5.32 18.64H8.72C9.2 18.64 9.56 19.04 9.56 19.48C9.56 19.92 9.2 20.28 8.76 20.28H5.36ZM5.36 16.92C5.16 16.92 4.96 16.84 4.8 16.68C4.64 16.52 4.56 16.32 4.56 16.08C4.56 15.64 4.92 15.28 5.36 15.28H13.2C13.68 15.28 14.04 15.68 14.04 16.12C14.04 16.56 13.68 16.92 13.24 16.92H5.36Z" fill="#00A6DF"/>
</svg>
