<svg width="31" height="40" viewBox="0 0 31 40" fill="none" xmlns="http://www.w3.org/2000/svg">
<path d="M17.7607 30.36C17.6407 30.36 17.5207 30.32 17.4407 30.28C17.0007 30.12 16.7607 29.68 16.7207 29C16.6807 28.12 17.1207 27.08 17.7207 26.24C17.6807 26.08 17.6807 25.88 17.6407 25.72C17.2407 26.2 16.8407 26.64 16.4407 27.04C16.2407 27.2 15.9607 27.2 15.8007 27.04C15.6407 26.84 15.6407 26.56 15.8007 26.4C16.4407 25.8 17.0007 25.12 17.5207 24.4C17.4807 23.44 17.5607 22.32 18.0407 21.8C18.2407 21.6 18.4807 21.48 18.7607 21.48C19.2007 21.48 19.4007 21.72 19.4807 21.88C19.7207 22.32 19.5207 23.04 18.7607 24.24C18.6807 24.4 18.5607 24.52 18.4807 24.68C18.4807 24.84 18.5207 25.04 18.5207 25.24V25.28C18.9207 24.84 19.3207 24.52 19.6407 24.32C20.0407 24.08 20.3607 24.08 20.6407 24.24C21.1207 24.56 21.0807 25.2 20.8807 25.92C21.6407 25.32 22.4807 24.8 23.4007 24.36C23.6407 24.24 23.9207 24.36 24.0007 24.56C24.1207 24.8 24.0007 25.08 23.8007 25.16C22.2807 25.92 20.8807 26.92 19.7207 28.2C19.5607 28.36 19.2807 28.4 19.1207 28.24C19.0407 28.2 19.0007 28.12 18.9607 28.04C19.0007 28.24 19.0007 28.44 19.0007 28.68C19.0007 29.04 19.0007 29.44 18.7607 29.76C18.4807 30.12 18.1207 30.36 17.7607 30.36ZM17.9207 27.68C17.7207 28.12 17.6007 28.56 17.6007 28.96C17.6007 29.24 17.6807 29.4 17.7207 29.4C17.7607 29.4 17.8407 29.36 17.9207 29.28C18.0007 29.12 18.0007 28.88 18.0007 28.68C18.0007 28.36 17.9607 28.04 17.9207 27.68ZM18.6807 26.48C18.6807 26.52 18.6807 26.52 18.6807 26.56C18.7607 26.96 18.8407 27.36 18.8807 27.8C18.8807 27.76 18.9207 27.68 18.9607 27.64C19.6407 26.56 20.0807 25.52 20.0807 25.08C19.7607 25.28 19.1607 25.8 18.6807 26.48Z" fill="#00A6DF"/>
<path d="M0.84 39.12C0.36 39.12 0 38.72 0 38.24V1.75998C0 1.27998 0.4 0.919983 0.84 0.919983H29.64C30.12 0.919983 30.52 1.31998 30.52 1.75998V38.24C30.52 38.72 30.12 39.12 29.64 39.12H0.84ZM1.68 37.4H28.76V2.59998H1.68V37.4Z" fill="#00A6DF"/>
<path d="M6.59977 13.4C6.11977 13.4 5.75977 13 5.75977 12.52C5.75977 12.04 6.15977 11.68 6.59977 11.68H23.8798C24.3598 11.68 24.7598 12.08 24.7598 12.52C24.7598 12.96 24.3598 13.4 23.8798 13.4H6.59977Z" fill="#00A6DF"/>
<path d="M6.59977 17.2C6.11977 17.2 5.75977 16.8 5.75977 16.36C5.75977 15.92 6.15977 15.52 6.59977 15.52H23.8798C24.3598 15.52 24.7598 15.92 24.7598 16.36C24.7598 16.8 24.3598 17.2 23.8798 17.2H6.59977Z" fill="#00A6DF"/>
<path d="M6.59977 9.56003C6.11977 9.56003 5.75977 9.16003 5.75977 8.72003C5.75977 8.28003 6.15977 7.84003 6.59977 7.84003H23.8798C24.3598 7.84003 24.7598 8.24003 24.7598 8.72003C24.7598 9.20003 24.3598 9.56003 23.8798 9.56003H6.59977Z" fill="#00A6DF"/>
<path d="M9.75996 29.68C7.63996 29.68 5.95996 27.96 5.95996 25.88C5.95996 23.8 7.67996 22.08 9.75996 22.08C11.88 22.08 13.6 23.8 13.6 25.88C13.6 27.96 11.88 29.68 9.75996 29.68ZM9.75996 23.68C8.51996 23.68 7.59996 24.64 7.59996 25.88C7.59996 27.12 8.55996 28.08 9.75996 28.08C10.96 28.08 11.96 27.12 11.96 25.88C11.96 24.64 11 23.68 9.75996 23.68Z" fill="#00A6DF"/>
</svg>
