<svg xmlns="http://www.w3.org/2000/svg" viewBox="0 0 50 50">
<linearGradient id="SVGID_1_" gradientUnits="userSpaceOnUse" x1="-361.4306" y1="-104.4642" x2="-323.5694" y2="-158.5358" gradientTransform="matrix(1 0 0 1 368 157)"><stop offset="0" style="stop-color:#FFB900"></stop><stop offset="1" style="stop-color:#9100EB"></stop></linearGradient>
<path fill="url(#SVGID_1_)" d="M51,44.6c0,3.5-2.9,6.4-6.4,6.4H6.4C2.9,51,0,48.1,0,44.6V6.4C0,2.9,2.9,0,6.4,0h38.2C48.1,0,51,2.9,51,6.4V44.6z"></path><g><g><path fill="#FFFFFF" d="M34.3,44.6H16.7C11,44.6,6.4,40,6.4,34.3V16.7C6.4,11,11,6.4,16.7,6.4h17.5c5.7,0,10.4,4.6,10.4,10.4v17.5C44.6,40,40,44.6,34.3,44.6z M16.7,9.6c-4,0-7.2,3.2-7.2,7.2v17.5c0,4,3.2,7.2,7.2,7.2h17.5c4,0,7.2-3.2,7.2-7.2V16.7c0-4-3.2-7.2-7.2-7.2H16.7z"></path></g><g><path  fill="#FFFFFF" d="M25.5,35.1c-5.3,0-9.6-4.3-9.6-9.6c0-5.3,4.3-9.6,9.6-9.6c5.3,0,9.6,4.3,9.6,9.6C35.1,30.8,30.8,35.1,25.5,35.1z M25.5,19.1c-3.5,0-6.4,2.9-6.4,6.4s2.9,6.4,6.4,6.4s6.4-2.9,6.4-6.4S29,19.1,25.5,19.1z"></path></g><g><circle  fill="#FFFFFF" cx="35.7" cy="15.3" r="2.2"></circle></g></g></svg>