<svg xmlns="http://www.w3.org/2000/svg" viewBox="0 0 50 50"><path fill="#C92228" d="M45.9,0H5.1C2.3,0,0,2.3,0,5.1v40.6c0,2.8,2.3,5.1,5.1,5.1h40.8c2.8,0,5.1-2.3,5.1-5.1V5.1C51,2.3,48.7,0,45.9,0z M28,36c-2,0.1-4-0.8-5.4-2.3l-2.5,8.1l-0.3,0.5c-0.5,0.8-1.4,1.3-2.3,1.3c-1.5,0-2.8-1.3-2.8-2.8v-0.2l0.3-0.5l4.6-14.2c-0.4-1.2-0.5-2.5-0.5-3.8c0-4.3,2.3-5.6,4.3-5.6c1.7-0.2,3.3,0.9,3.5,2.7c0,0.2,0,0.4,0,0.6c0,3.3-2.3,5.1-2.3,7.6c0,1.8,1.5,3.3,3.3,3.3c5.9,0,8.2-4.6,8.2-8.6c0.1-5.9-4.5-10.8-10.4-11s-10.8,4.5-11,10.4c0,1.9,0.4,3.7,1.3,5.3c0.2,0.4,0.3,0.8,0.3,1.3c0.1,1.3-0.9,2.5-2.3,2.5c-0.1,0-0.2,0-0.3,0c-0.9,0-1.8-0.5-2.3-1.3c-4-7.7-1-17.1,6.7-21.1s17.1-1,21.1,6.7c1.1,2.1,1.7,4.4,1.7,6.7C41.3,28.9,37.2,36,28,36z"></path></svg>