<svg xmlns="http://www.w3.org/2000/svg" viewBox="0 0 50 50"><path fill="#ED812B" d="M25.5,21.2c2.3-0.1,4.1-2.1,4-4.4c-0.1-2.3-2.1-4.1-4.4-4c-2.3,0.1-4,2-4,4.2C21.2,19.4,23.1,21.3,25.5,21.2C25.5,21.2,25.5,21.2,25.5,21.2z M48.3,0H2.7C1.2,0,0,1.2,0,2.7c0,0,0,0,0,0v45.4c0,1.5,1.2,2.7,2.7,2.7c0,0,0,0,0,0h45.6c1.5,0,2.7-1.2,2.7-2.7c0,0,0,0,0,0V2.7C51,1.2,49.8,0,48.3,0C48.3,0,48.3,0,48.3,0z M25.6,8.4c4.7,0.2,8.4,4.3,8.2,9s-4.3,8.4-9,8.2c-4.6-0.2-8.2-4-8.2-8.6C16.7,12.1,20.7,8.3,25.6,8.4C25.6,8.4,25.6,8.4,25.6,8.4z M35.6,29c-1.1,1.1-2.4,1.9-3.9,2.4c-1.4,0.5-2.9,0.8-4.4,0.9c0.2,0.2,0.3,0.4,0.5,0.5c2,2,4.1,3.9,6.1,5.9c0.7,0.6,0.8,1.5,0.4,2.3c-0.4,0.9-1.3,1.4-2.3,1.4c-0.5-0.1-1.1-0.3-1.4-0.7c-1.5-1.5-3.1-2.9-4.6-4.4c-0.4-0.4-0.7-0.4-1,0c-1.6,1.5-3.1,3-4.7,4.5c-0.6,0.6-1.6,0.8-2.4,0.4c-0.8-0.4-1.4-1.2-1.4-2.1c0.1-0.5,0.3-1.1,0.7-1.4c2-1.9,4-3.9,6-5.8c0.1-0.1,0.3-0.3,0.4-0.5c-2.6-0.1-5.2-1-7.3-2.5c-0.3-0.2-0.5-0.4-0.8-0.6c-0.8-0.6-1-1.8-0.4-2.7c0-0.1,0.1-0.1,0.1-0.2c0.6-0.9,1.8-1.1,2.8-0.6c0.2,0.1,0.4,0.2,0.6,0.3c4.1,2.6,9.2,2.7,13.3,0.1c0.4-0.3,0.8-0.5,1.3-0.7c0.9-0.3,1.8,0.1,2.3,0.9C36.3,27.2,36.3,28.3,35.6,29z"></path></svg>