<svg width="73" height="72" viewBox="0 0 73 72" fill="none" xmlns="http://www.w3.org/2000/svg">
<path d="M21.28 57.44C21.28 56.56 20.56 55.84 19.68 55.84H9.52004C8.64004 55.84 7.92004 56.56 7.92004 57.44C7.92004 58.32 8.64004 59.04 9.52004 59.04H19.6C20.56 59.04 21.28 58.32 21.28 57.44Z" fill="#00A6DF"/>
<path d="M9.52004 60.4C8.64004 60.4 7.92004 61.12 7.92004 62C7.92004 62.88 8.64004 63.6 9.52004 63.6H15.84C16.72 63.6 17.44 62.88 17.44 62C17.44 61.12 16.72 60.4 15.84 60.4H9.52004Z" fill="#00A6DF"/>
<path d="M19.6 63.6C20.4837 63.6 21.2 62.8837 21.2 62C21.2 61.1163 20.4837 60.4 19.6 60.4C18.7163 60.4 18 61.1163 18 62C18 62.8837 18.7163 63.6 19.6 63.6Z" fill="#00A6DF"/>
<path d="M64 31.2C63.12 31.2 62.4 31.92 62.4 32.8V63.2L57.6 67.04V34.4C57.6 33.52 56.88 32.8 56 32.8C55.12 32.8 54.4 33.52 54.4 34.4V68.8H3.2V17.6H20.88V38.8C20.88 39.68 21.6 40.4 22.48 40.4C22.72 40.4 23.04 40.32 23.28 40.16L28.8 36.8L34.32 40.08C34.8 40.4 35.44 40.4 35.92 40.08C36.4 39.76 36.72 39.28 36.72 38.64V17.6H37.36C38.24 17.6 38.96 16.88 38.96 16C38.96 15.12 38.24 14.4 37.36 14.4H4.96L8.8 9.59999H39.2C40.08 9.59999 40.8 8.87999 40.8 7.99999C40.8 7.11999 40.08 6.39999 39.2 6.39999H8C7.52 6.39999 7.04 6.63999 6.72 7.03999L0.32 15.04C0.32 15.04 0.32 15.04 0.32 15.12C0.32 15.2 0.24 15.2 0.24 15.28L0.16 15.44C0.16 15.52 0.0799999 15.52 0.0799999 15.6L0 15.76V15.92C0 16 0 16 0 16.08V16V70.4C0 71.28 0.72 72 1.6 72H56C56.16 72 56.32 72 56.48 71.92H56.56C56.72 71.84 56.88 71.76 56.96 71.68L64.96 65.28C65.36 64.96 65.6 64.48 65.6 64V32.8C65.6 31.92 64.88 31.2 64 31.2ZM33.52 17.6V35.92L29.6 33.6C29.12 33.28 28.48 33.28 28 33.6L24.08 35.92V17.6H33.52Z" fill="#00A6DF"/>
<path d="M71.28 5.27999C67.2 2.63999 58 0.159989 57.6 0.079989C57.36 -1.09859e-05 57.04 -1.09859e-05 56.8 0.079989C56.4 0.159989 47.1999 2.63999 43.1199 5.35999C42.6399 5.67999 42.3199 6.23999 42.3999 6.87999C42.5599 7.91999 42.6399 8.95999 42.7199 10.08C43.5999 19.2 44.6399 30.48 57.12 31.2H57.28C70.08 30.56 70.96 19.68 71.6 10.96C71.68 9.51999 71.84 8.23999 72 6.87999C72.08 6.23999 71.84 5.59999 71.28 5.27999ZM68.4 10.64C67.68 19.6 67.04 27.36 57.2 27.92C48.2399 27.36 46.9599 20.32 45.9199 9.67999C45.8399 8.95999 45.7599 8.23999 45.6799 7.51999C49.1199 5.67999 55.44 3.75999 57.12 3.27999C58.8 3.75999 65.12 5.59999 68.64 7.51999C68.64 8.47999 68.56 9.59999 68.4 10.64Z" fill="#00A6DF"/>
<path d="M52.56 15.04C51.92 14.4 50.96 14.4 50.32 15.04C49.68 15.68 49.68 16.64 50.32 17.28L54.48 21.44C54.8 21.76 55.2 21.92 55.6 21.92C56 21.92 56.4 21.76 56.72 21.44L65.12 13.04C65.76 12.4 65.76 11.44 65.12 10.8C64.48 10.16 63.52 10.16 62.88 10.8L55.6 18.08L52.56 15.04Z" fill="#00A6DF"/>
</svg>
