<svg width="80" height="80" viewBox="0 0 80 80" fill="none" xmlns="http://www.w3.org/2000/svg">
<path d="M77.52 37.68L70.8 14.56C70.56 13.76 69.84 13.28 69.04 13.28H62.32V5.52C62.32 4.72 61.68 4 60.8 4H50.56C49.68 4 49.04 4.72 49.04 5.52V13.28H10.88C10.08 13.28 9.35997 13.84 9.11997 14.56L2.47997 37.68C2.31997 38.24 2.39997 38.8 2.79997 39.28C3.11997 39.68 3.59997 40 4.23997 40H8.07997V72.48H4.71997V76H75.2V72.4H71.92V40H75.76C76.32 40 76.88 39.76 77.2 39.28C77.6 38.8 77.68 38.24 77.52 37.68ZM52.08 7.04H59.36V13.28H52.08V7.04ZM45.68 72.4H34.32V58.24C34.32 55.12 36.88 52.56 40 52.56C43.12 52.56 45.68 55.12 45.68 58.24V72.4ZM68.4 72.4H49.28V58.24C49.28 53.12 45.12 48.96 40 48.96C34.88 48.96 30.72 53.12 30.72 58.24V72.4H11.6V40H68.32V72.4H68.4ZM6.55997 36.4L12.24 16.88H67.76L73.44 36.4H6.55997Z" fill="#ED6B33"/>
<path d="M53.68 57.6H63.6C64.56 57.6 65.36 56.8 65.36 55.84V48.32C65.36 47.36 64.56 46.56 63.6 46.56H53.68C52.72 46.56 51.92 47.36 51.92 48.32V55.84C51.92 56.8 52.72 57.6 53.68 57.6ZM55.52 50.16H61.84V54.08H55.52V50.16Z" fill="#ED6B33"/>
<path d="M16.4 57.6H26.32C27.28 57.6 28.08 56.8 28.08 55.84V48.32C28.08 47.36 27.28 46.56 26.32 46.56H16.4C15.44 46.56 14.64 47.36 14.64 48.32V55.84C14.56 56.8 15.36 57.6 16.4 57.6ZM18.16 50.16H24.48V54.08H18.16V50.16Z" fill="#ED6B33"/>
</svg>
