<svg width="66" height="66" viewBox="0 0 66 66" fill="none" xmlns="http://www.w3.org/2000/svg">
<g clip-path="url(#clip0)">
<path d="M12.4354 33.4641L18.7002 31.1823C18.8936 31.1051 19.1256 31.0664 19.3575 31.0664H59.499C60.582 31.0664 61.4326 31.9171 61.4326 33V60.1993C61.4326 63.4089 58.8417 66.0001 55.6318 66.0001H16.9599C13.75 66.0001 11.1591 63.4089 11.1591 60.1993V35.2815C11.1591 34.4695 11.6619 33.7348 12.4354 33.4641Z" fill="#FC1A40"/>
<path d="M11.1582 35.2815V60.1993C11.1582 63.4089 13.749 66.0001 16.9589 66.0001H36.2949V31.0664H19.3566C19.1246 31.0664 18.8925 31.1051 18.6993 31.1823L12.4345 33.4641C11.661 33.7348 11.1582 34.4695 11.1582 35.2815Z" fill="#C60034"/>
<path d="M11.855 12.6055C12.5123 9.93712 14.4847 7.84896 17.1531 6.99805C19.7827 6.18581 22.6059 6.76602 24.6554 8.62214L29.1415 12.5668L30.0308 6.65013C30.4562 3.9431 32.1964 1.66132 34.7873 0.578637C35.2901 0.385149 35.7928 0.230461 36.2955 0.153117C38.4225 -0.272274 40.6268 0.191789 42.4058 1.50676C44.7648 3.20833 45.9635 6.07005 45.5769 8.93165C45.1514 11.7934 43.2178 14.2297 40.4722 15.1965L36.2955 16.7047L31.1522 18.5996C31.1135 18.5996 31.1135 18.5996 31.1135 18.5996L22.1803 21.8866C21.291 22.1961 20.3628 22.3509 19.4734 22.3509C17.5782 22.3509 15.7221 21.6546 14.2525 20.3399C12.087 18.4063 11.1589 15.4284 11.855 12.6055Z" fill="#FE9923"/>
<path d="M14.2519 20.34C15.7215 21.6547 17.5777 22.351 19.4728 22.351C20.3621 22.351 21.2902 22.1962 22.1797 21.8867L31.1129 18.5997C31.1129 18.5997 31.1129 18.5997 31.1516 18.5997L36.2949 16.7048V0.153076C35.7922 0.230549 35.2895 0.385108 34.7867 0.578597C32.1958 1.66128 30.4555 3.94306 30.0302 6.65009L29.1409 12.5668L24.6548 8.62211C22.6053 6.76598 19.7821 6.18577 17.1524 6.99801C14.4841 7.84892 12.5118 9.93708 11.8544 12.6054C11.1582 15.4285 12.0863 18.4064 14.2519 20.34Z" fill="#FE8821"/>
<path d="M4.54544 30.1766L7.17514 37.447C7.48464 38.2204 8.21941 38.6845 8.99285 38.6845C9.22488 38.6845 9.45691 38.6458 9.65014 38.5686L29.6437 31.2983L31.4611 25.3041L36.2951 26.3868L40.5489 27.3536L60.5424 20.0833C61.5479 19.6967 62.0505 18.5751 61.7026 17.6083L59.0342 10.3382C58.5315 8.86866 57.4485 7.70824 56.0563 7.05095C54.6642 6.39365 53.0787 6.31618 51.6092 6.85759L36.295 12.4263L35.2507 12.8129C35.2507 12.8129 31.0743 20.3928 30.9581 20.3928C30.8807 20.3928 29.2179 19.4646 27.5937 18.5751C25.9698 17.6856 24.3455 16.7576 24.3455 16.7576L8.02605 22.713C6.55651 23.2544 5.39635 24.3373 4.73906 25.7295C4.08138 27.1216 4.00417 28.7072 4.54544 30.1766Z" fill="#FF3E75"/>
<path d="M4.54524 30.1768L7.17493 37.4471C7.48443 38.2206 8.2192 38.6846 8.99264 38.6846C9.22467 38.6846 9.4567 38.646 9.64993 38.5687L29.6435 31.2984L31.4609 25.3043L36.2949 26.387V12.4265L35.2507 12.8131C35.2507 12.8131 31.0742 20.3929 30.9581 20.3929C30.8806 20.3929 29.2178 19.4648 27.5936 18.5752C25.9696 17.6858 24.3453 16.7578 24.3453 16.7578L8.02584 22.7131C6.5563 23.2545 5.39615 24.3375 4.73885 25.7297C4.08117 27.1217 4.00396 28.7074 4.54524 30.1768Z" fill="#FC1A40"/>
<path d="M42.0957 31.0662V65.9998H30.4941V31.0662H42.0957Z" fill="#FCBF29"/>
<path d="M35.2508 12.813L36.295 15.6747L40.5488 27.3538L36.295 28.9008L31.4611 30.641L29.6436 31.2983L24.3453 16.7577L35.2508 12.813Z" fill="#FCBF29"/>
<path d="M30.4932 31.0662H36.2939V65.9998H30.4932V31.0662Z" fill="#FE9923"/>
<path d="M24.3453 16.7577L29.6435 31.2983L31.4609 30.6409L36.2949 28.9007V15.6747L35.2508 12.813L24.3453 16.7577Z" fill="#FE9923"/>
</g>
<defs>
<clipPath id="clip0">
<rect width="66" height="66" fill="white" transform="matrix(-1 0 0 1 66 0)"/>
</clipPath>
</defs>
</svg>
