<svg width="16" height="15" viewBox="0 0 16 15" fill="none" xmlns="http://www.w3.org/2000/svg">
<path d="M7.15 0.00402832H13.852C14.487 0.00402832 15.002 0.519028 15.002 1.15403V7.85603L14.782 8.07603L9.524 13.343C8.78363 14.0842 7.77919 14.5008 6.73162 14.5014C5.68405 14.5019 4.67916 14.0864 3.938 13.346L1.673 11.076C0.931875 10.3357 0.515204 9.33122 0.514641 8.28365C0.514079 7.23608 0.929671 6.23119 1.67 5.49003L7.149 0.00402832H7.15ZM7.771 1.50403L2.732 6.55003C2.27305 7.00972 2.01545 7.63286 2.01582 8.28244C2.0162 8.93202 2.27452 9.55486 2.734 10.014L4.997 12.282C5.22452 12.5097 5.49468 12.6903 5.79204 12.8136C6.0894 12.9368 6.40812 13.0002 6.73 13.0002C7.05188 13.0002 7.3706 12.9368 7.66796 12.8136C7.96531 12.6903 8.23547 12.5097 8.463 12.282L13.503 7.23403V1.50403H7.77H7.771ZM8.224 6.78803C8.0104 6.57443 7.84097 6.32086 7.72537 6.04178C7.60978 5.76271 7.55028 5.4636 7.55028 5.16153C7.55028 4.85946 7.60978 4.56035 7.72537 4.28127C7.84097 4.0022 8.0104 3.74862 8.224 3.53503C8.43759 3.32143 8.69117 3.152 8.97024 3.0364C9.24932 2.92081 9.54843 2.86131 9.8505 2.86131C10.1526 2.86131 10.4517 2.92081 10.7308 3.0364C11.0098 3.152 11.2634 3.32143 11.477 3.53503C11.9084 3.9664 12.1507 4.55147 12.1507 5.16153C12.1507 5.77158 11.9084 6.35665 11.477 6.78803C11.0456 7.2194 10.4606 7.46175 9.8505 7.46175C9.24044 7.46175 8.65537 7.2194 8.224 6.78803ZM9.214 5.79803C9.38281 5.96684 9.61176 6.06168 9.8505 6.06168C10.0892 6.06168 10.3182 5.96684 10.487 5.79803C10.6558 5.62922 10.7506 5.40026 10.7506 5.16153C10.7506 4.92279 10.6558 4.69384 10.487 4.52503C10.4034 4.44144 10.3042 4.37514 10.195 4.3299C10.0858 4.28466 9.96871 4.26138 9.8505 4.26138C9.61176 4.26138 9.38281 4.35622 9.214 4.52503C9.13041 4.60861 9.06411 4.70785 9.01887 4.81706C8.97363 4.92627 8.95035 5.04332 8.95035 5.16153C8.95035 5.40026 9.04519 5.62922 9.214 5.79803Z" fill="#00A6DF"/>
</svg>
