<svg width="23" height="20" viewBox="0 0 23 20" fill="none" xmlns="http://www.w3.org/2000/svg">
<g clip-path="url(#clip0)">
<path d="M15.826 18.8696H6.78259C6.43477 18.8696 6.1739 19.1304 6.1739 19.3913C6.1739 19.7391 6.43477 20 6.78259 20H15.826C16.1739 20 16.4347 19.7391 16.4347 19.3913C16.4347 19.1304 16.1739 18.8696 15.826 18.8696ZM3.3913 3.91304H5.73912L10.6956 2.95652V17.2174C10.6956 17.5652 10.9565 17.8261 11.2174 17.8261C11.5652 17.8261 11.7391 17.5652 11.7391 17.2174V2.95652L16.8695 4H19.1304C19.4782 4 19.6521 3.73913 19.6521 3.47826C19.6521 3.13043 19.3913 2.86957 19.1304 2.86957H16.9565L11.7391 1.82609V0.521739C11.913 0.26087 11.6521 0 11.3043 0C10.9565 0 10.7826 0.26087 10.7826 0.521739V1.73913L5.65216 2.78261H3.3913C3.04347 2.78261 2.7826 3.04348 2.7826 3.3913C2.86956 3.73913 3.04347 3.91304 3.3913 3.91304ZM3.3913 5.04348C2.26086 5.65217 0 12.3478 0 13.5652C0 14.7826 1.47826 15.8261 3.3913 15.8261C5.30434 15.8261 6.78259 14.7826 6.78259 13.5652C6.78259 12.3478 4.52173 5.65217 3.3913 5.04348ZM3.3913 14.6957C2 14.6957 1.13043 14 1.13043 13.5652C1.13043 12.7826 2.43478 8.86957 3.3913 6.95652C4.34782 8.86957 5.65216 12.7826 5.65216 13.5652C5.65216 14 4.7826 14.6957 3.3913 14.6957ZM19.2173 5.04348C18.0869 5.65217 15.826 12.2609 15.826 13.4783C15.826 14.6957 17.3043 15.7391 19.2173 15.7391C21.1304 15.7391 22.6086 14.6957 22.6086 13.4783C22.6086 12.3478 20.3478 5.65217 19.2173 5.04348ZM19.2173 14.6957C17.826 14.6957 16.9565 14 16.9565 13.5652C16.9565 12.7826 18.2608 8.86957 19.2173 6.95652C20.1739 8.86957 21.4782 12.7826 21.4782 13.5652C21.4782 14 20.6086 14.6957 19.2173 14.6957Z" fill="#7C7C7C"/>
</g>
<defs>
<clipPath id="clip0">
<rect width="22.6086" height="20" fill="white"/>
</clipPath>
</defs>
</svg>
