<svg width="21" height="20" viewBox="0 0 21 20" fill="none" xmlns="http://www.w3.org/2000/svg">
<g clip-path="url(#clip0)">
<path d="M15.84 15.64H18.36V18.64C18.36 19.4 17.72 20.04 16.96 20.04C16.2 20.04 15.56 19.4 15.56 18.64V15.64H14.08V18.64C14.08 19.4 13.44 20.04 12.68 20.04C11.92 20.04 11.28 19.4 11.28 18.64V15.64H9.8V18.64C9.8 19.4 9.16 20.04 8.4 20.04C7.64 20.04 7 19.4 7 18.64V15.64H5.52V18.64C5.52 19.4 4.88 20.04 4.12 20.04C3.36 20.04 2.72 19.4 2.72 18.64V6.64003H2C1.84 7.04003 1.48 7.32003 1.04 7.32003C0.48 7.32003 0 6.84003 0 6.28003V4.88003C0 4.32003 0.48 3.84003 1.04 3.84003C1.48 3.84003 1.88 4.12003 2 4.52003H2.76V1.56003C2.76 0.800034 3.4 0.160034 4.16 0.160034C4.92 0.160034 5.56 0.800034 5.56 1.56003V4.56003H7.04V1.56003C7.04 0.800034 7.68 0.160034 8.44 0.160034C9.2 0.160034 9.84 0.800034 9.84 1.56003V4.56003H11.32V1.56003C11.32 0.800034 11.96 0.160034 12.72 0.160034C13.48 0.160034 14.12 0.800034 14.12 1.56003V4.56003H15.6V1.56003C15.6 0.800034 16.24 0.160034 17 0.160034C17.76 0.160034 18.4 0.800034 18.4 1.56003V4.56003H15.88H18.64H19.8C20.36 4.56003 20.84 5.04003 20.84 5.60003C20.84 6.16003 20.36 6.64003 19.8 6.64003H18.4V13.56H19.8C20.36 13.56 20.84 14.04 20.84 14.6C20.84 15.16 20.36 15.64 19.8 15.64H18.64H15.84ZM1.4 4.88003C1.4 4.68003 1.24 4.52003 1.04 4.52003C0.84 4.52003 0.68 4.68003 0.68 4.88003V6.28003C0.68 6.48003 0.84 6.64003 1.04 6.64003C1.24 6.64003 1.4 6.48003 1.4 6.28003V4.88003ZM2.76 5.24003H2.08V5.92003H2.76V5.24003ZM4.84 1.56003C4.84 1.16003 4.52 0.880034 4.16 0.880034C3.8 0.880034 3.48 1.16003 3.48 1.56003V18.64C3.48 19.04 3.8 19.32 4.16 19.32C4.52 19.32 4.84 19 4.84 18.64V1.56003ZM7.04 5.24003H5.56V5.92003H7.04V5.24003ZM7.04 6.60003H5.56V13.52H7.04V6.60003ZM7.04 14.24H5.56V14.92H7.04V14.24ZM9.12 1.56003C9.12 1.16003 8.8 0.880034 8.44 0.880034C8.04 0.880034 7.76 1.20003 7.76 1.56003V18.64C7.76 19.04 8.08 19.32 8.44 19.32C8.84 19.32 9.12 19 9.12 18.64V1.56003ZM11.32 5.24003H9.84V5.92003H11.32V5.24003ZM11.32 6.60003H9.84V13.52H11.32V6.60003ZM11.32 14.24H9.84V14.92H11.32V14.24ZM13.4 1.56003C13.4 1.16003 13.08 0.880034 12.72 0.880034C12.32 0.880034 12.04 1.20003 12.04 1.56003V18.64C12.04 19.04 12.36 19.32 12.72 19.32C13.12 19.32 13.4 19 13.4 18.64V1.56003ZM15.56 5.24003H14.08V5.92003H15.56V5.24003ZM15.56 6.60003H14.08V13.52H15.56V6.60003ZM15.56 14.24H14.08V14.92H15.56V14.24ZM17.64 1.56003C17.64 1.16003 17.32 0.880034 16.96 0.880034C16.56 0.880034 16.28 1.20003 16.28 1.56003V18.64C16.28 19.04 16.6 19.32 16.96 19.32C17.36 19.32 17.64 19 17.64 18.64V1.56003ZM15.96 14.24V14.92V14.24ZM19.76 14.92C19.96 14.92 20.12 14.76 20.12 14.56C20.12 14.36 19.96 14.2 19.76 14.2H18.36V14.88H19.76V14.92ZM19.76 5.24003H18.36V5.92003H19.76C19.96 5.92003 20.12 5.76003 20.12 5.56003C20.12 5.36003 19.96 5.24003 19.76 5.24003Z" fill="#00A6DF"/>
</g>
<defs>
<clipPath id="clip0">
<rect width="20.8" height="20" fill="white"/>
</clipPath>
</defs>
</svg>
