<svg width="24" height="24" viewBox="0 0 24 24" fill="none" xmlns="http://www.w3.org/2000/svg">
<g clip-path="url(#clip0)">
<path d="M9.16802 24C9.16802 23.88 9.16802 23.772 9.16802 23.652V7.98C9.16802 7.62 9.16802 7.62 8.83202 7.524C7.35602 7.068 5.89202 6.648 4.42802 6.168C3.57979 5.90566 2.79805 5.46363 2.13602 4.872C1.9872 4.75114 1.86378 4.60201 1.7729 4.43321C1.68201 4.26441 1.62545 4.07928 1.60649 3.8885C1.58752 3.69773 1.60652 3.50509 1.6624 3.3217C1.71827 3.1383 1.8099 2.96779 1.93202 2.82C2.06273 2.67532 2.22467 2.56231 2.40556 2.48954C2.58645 2.41677 2.78153 2.38615 2.97602 2.4C3.11287 2.4 3.24412 2.45436 3.34089 2.55113C3.43765 2.6479 3.49202 2.77915 3.49202 2.916C3.49202 3.05285 3.43765 3.1841 3.34089 3.28087C3.24412 3.37764 3.11287 3.432 2.97602 3.432C2.66402 3.432 2.54402 3.648 2.68802 3.936C2.77727 4.12366 2.91372 4.28492 3.08402 4.404C4.01324 4.96184 5.02026 5.37839 6.07202 5.64L6.75602 5.844C6.75602 5.784 6.63602 5.712 6.56402 5.652C5.59255 4.87589 4.96016 3.75307 4.80002 2.52C4.71198 2.17779 4.70973 1.81915 4.79346 1.47586C4.87719 1.13258 5.04431 0.815247 5.28002 0.552C5.58615 0.267231 5.97929 0.0939083 6.39602 0.06C6.47564 0.0710108 6.5564 0.0710108 6.63602 0.06H6.93602L7.60802 0.204C8.44404 0.411546 9.22004 0.811456 9.87421 1.37187C10.5284 1.93229 11.0426 2.63773 11.376 3.432C11.4113 3.5104 11.4514 3.58654 11.496 3.66L11.736 3.168C12.1017 2.38411 12.648 1.69807 13.3301 1.16616C14.0122 0.634242 14.8107 0.271608 15.66 0.108L16.152 0H16.392L16.932 0.12C17.2936 0.195314 17.6192 0.390177 17.8565 0.673182C18.0938 0.956187 18.2289 1.31085 18.24 1.68C18.2753 2.31933 18.1749 2.95889 17.9453 3.55662C17.7158 4.15435 17.3622 4.6967 16.908 5.148L16.596 5.472V5.532C16.86 5.46 17.112 5.376 17.376 5.316C18.336 5.1 19.296 4.848 20.268 4.68C20.7617 4.58356 21.2724 4.62508 21.744 4.8C22.128 4.944 22.26 5.232 22.104 5.544C22.064 5.64322 21.9905 5.72523 21.8961 5.77569C21.8018 5.82614 21.6927 5.84183 21.588 5.82C20.7744 5.62137 19.9211 5.65883 19.128 5.928C17.4302 6.34764 15.7624 6.88084 14.136 7.524C14.0565 7.54136 13.9864 7.58804 13.9397 7.65475C13.893 7.72146 13.8731 7.80331 13.884 7.884C13.884 13.188 13.884 18.492 13.884 23.796C13.8782 23.8639 13.8782 23.9321 13.884 24H9.16802ZM12.384 6.288H12.48L13.116 6C14.1957 5.56188 15.1724 4.90394 15.984 4.068C16.5507 3.47699 16.8686 2.6908 16.872 1.872C16.8799 1.78682 16.8675 1.70098 16.8358 1.62155C16.804 1.54212 16.7539 1.47136 16.6894 1.41511C16.625 1.35887 16.5481 1.31873 16.4651 1.29803C16.3821 1.27732 16.2953 1.27662 16.212 1.296L15.876 1.368C15.0903 1.55417 14.373 1.958 13.8063 2.53319C13.2396 3.10837 12.8465 3.83162 12.672 4.62C12.54 5.196 12.48 5.748 12.384 6.288ZM10.644 6.288C10.5726 5.72724 10.4724 5.17051 10.344 4.62C10.1551 3.80339 9.73201 3.05963 9.12668 2.47987C8.52134 1.90011 7.76002 1.50953 6.93602 1.356C6.85949 1.33061 6.77833 1.3223 6.69825 1.33164C6.61816 1.34098 6.54109 1.36775 6.47246 1.41007C6.40383 1.45239 6.34531 1.50924 6.30101 1.5766C6.2567 1.64397 6.22769 1.72022 6.21602 1.8C6.18577 1.98678 6.18577 2.17722 6.21602 2.364C6.36703 3.1728 6.79054 3.90546 7.41602 4.44C8.31745 5.21857 9.33856 5.84663 10.44 6.3L10.644 6.288Z" fill="#00A6DF"/>
<path d="M15.024 24C15.024 23.724 15.024 23.46 15.024 23.184C15.024 22.908 15.096 22.932 15.276 22.932C16.908 22.932 18.528 22.932 20.148 22.932C20.2276 22.944 20.3085 22.944 20.388 22.932C20.4527 22.8854 20.5094 22.8286 20.556 22.764C20.556 22.764 20.556 22.668 20.556 22.62V11.82C20.556 11.508 20.556 11.508 20.232 11.508H15.336C15.096 11.508 14.976 11.328 15.096 11.124C15.216 10.92 15.252 11.04 15.324 11.04H21.6841C21.9961 11.04 22.008 11.04 22.008 10.728C22.008 9.91201 22.008 9.08401 22.008 8.32801C22.008 8.11201 21.936 8.05201 21.72 8.05201C19.956 8.05201 18.12 8.05201 16.392 8.05201C16.956 7.87201 17.52 7.68001 18.096 7.52401C18.672 7.36801 19.296 7.22401 19.908 7.06801C20.0077 7.05546 20.1084 7.05546 20.208 7.06801H22.452C22.836 7.06801 23.04 7.24801 23.04 7.63201C23.04 8.95201 23.04 10.26 23.04 11.568C23.0455 11.6508 23.0331 11.7339 23.0035 11.8114C22.9739 11.889 22.9279 11.9592 22.8686 12.0173C22.8094 12.0755 22.7382 12.1201 22.6601 12.1482C22.582 12.1762 22.4988 12.1871 22.416 12.18H21.828C21.684 12.18 21.636 12.18 21.648 12.372V12.588C21.648 16.188 21.648 19.692 21.648 23.244C21.648 23.64 21.648 23.952 21.192 24.108L15.024 24Z" fill="#00A6DF"/>
<path d="M1.86 24.0004C1.74156 23.9454 1.63228 23.8726 1.536 23.7844C1.4602 23.6528 1.41892 23.5042 1.416 23.3524C1.416 19.7524 1.416 16.1524 1.416 12.5524V12.3604C1.416 12.1444 1.416 12.0484 1.14 12.0724H0.636004C0.553301 12.0795 0.47004 12.0686 0.391925 12.0405C0.313809 12.0125 0.242684 11.9678 0.183422 11.9097C0.12416 11.8516 0.07816 11.7813 0.0485734 11.7038C0.0189867 11.6262 0.00651229 11.5432 0.0120044 11.4604C0.0120044 10.1524 0.0120044 8.84438 0.0120044 7.52438C0.0120044 7.20038 0.216004 6.96038 0.600004 6.96038H3C3.0831 6.9429 3.16891 6.9429 3.252 6.96038L5.952 7.95638H1.296C1.104 7.95638 1.044 7.95638 1.044 8.20838V10.7284C1.044 11.0284 1.044 11.0404 1.344 11.0404H7.692C7.88401 11.0404 7.992 11.0404 7.98 11.2924C7.968 11.5444 7.908 11.5204 7.728 11.5204H2.76C2.448 11.5204 2.448 11.5204 2.448 11.8324V22.6324C2.448 22.9444 2.448 22.9444 2.748 22.9444C4.392 22.9444 6.036 22.9444 7.68 22.9444C7.908 22.9444 8.004 22.9444 7.98 23.2444C7.956 23.5444 7.98 23.7604 7.98 24.0124L1.86 24.0004Z" fill="#00A6DF"/>
<path d="M17.556 12.2041H19.764C19.932 12.2041 20.1 12.2041 20.112 12.4201C20.124 12.6361 19.944 12.6841 19.764 12.6841H15.264C15.072 12.6841 15.048 12.6001 15.048 12.4441C15.048 12.2881 15.048 12.2041 15.264 12.2041H17.556Z" fill="#00A6DF"/>
<path d="M5.51996 12.6835H3.33596C3.25713 12.7028 3.1748 12.7028 3.09596 12.6835C3.09596 12.6835 2.95196 12.5275 2.97596 12.4555C2.99996 12.3835 3.08396 12.3115 3.16796 12.2635C3.25196 12.2155 3.28796 12.2635 3.34796 12.2635H7.69196C7.89596 12.2635 7.99196 12.2635 7.97996 12.5275C7.96796 12.7915 7.97996 12.7435 7.76396 12.7435L5.51996 12.6835Z" fill="#00A6DF"/>
</g>
<defs>
<clipPath id="clip0">
<rect width="24" height="24" fill="white"/>
</clipPath>
</defs>
</svg>
