<svg width="21" height="20" viewBox="0 0 21 20" fill="none" xmlns="http://www.w3.org/2000/svg">
<g clip-path="url(#clip0)">
<path d="M0 11.8321C0.0972 11.5237 0.316404 11.4341 0.626404 11.4345C4.6584 11.4405 8.6904 11.4385 12.7224 11.4385C12.8228 11.4385 12.9232 11.4385 13.0492 11.4385C13.0492 11.3013 13.0476 11.1877 13.0496 11.0741C13.0552 10.7393 13.2216 10.5709 13.5532 10.5705C14.6704 10.5693 15.7872 10.5693 16.904 10.5705C17.2448 10.5709 17.4024 10.7293 17.4068 11.0701C17.4084 11.1841 17.4072 11.2985 17.4072 11.4385C17.5052 11.4385 17.5844 11.4385 17.664 11.4385C18.5288 11.4385 19.3936 11.4377 20.2584 11.4389C20.5124 11.4393 20.676 11.5445 20.7408 11.7393C20.83 12.0077 20.6448 12.2837 20.352 12.3113C20.2516 12.3205 20.1496 12.3129 20.0432 12.3129C20.026 15.1589 18.766 17.1509 16.0716 18.1973C16.2212 18.5645 16.3744 18.9405 16.5276 19.3161C16.6504 19.6173 16.5704 19.8629 16.3156 19.9653C16.0688 20.0645 15.8524 19.9505 15.728 19.6517C15.5688 19.2689 15.4164 18.8829 15.25 18.5029C15.2252 18.4461 15.1412 18.3777 15.0852 18.3781C14.2684 18.3829 13.4516 18.4077 12.6352 18.4093C10.5104 18.4137 8.3852 18.4089 6.2604 18.4073C6.1856 18.4073 6.1104 18.4065 6.0356 18.4009C5.7124 18.3773 5.7124 18.3765 5.5928 18.6705C5.4568 19.0041 5.3224 19.3385 5.1832 19.6709C5.0668 19.9497 4.8416 20.0609 4.6012 19.9649C4.3544 19.8665 4.2668 19.6197 4.382 19.3337C4.534 18.9565 4.69 18.5809 4.84121 18.2121C2.134 17.1769 0.852404 15.1945 0.830804 12.3173C0.496004 12.3193 0.118803 12.3637 0.000402832 11.9137C2.83201e-06 11.8865 0 11.8593 0 11.8321ZM1.718 12.3253C1.718 12.5253 1.7104 12.7149 1.7192 12.9033C1.776 14.1425 2.1644 15.2521 3.0356 16.1585C3.9836 17.1441 5.1756 17.5457 6.5172 17.5477C9.1528 17.5521 11.7884 17.5541 14.424 17.5413C14.822 17.5393 15.2276 17.4905 15.616 17.4017C17.4756 16.9769 18.8296 15.4725 19.084 13.5633C19.138 13.1561 19.148 12.7429 19.1788 12.3281C18.5592 12.3281 17.9908 12.3281 17.4064 12.3281C17.4064 12.4365 17.4064 12.5305 17.4064 12.6245C17.4068 13.5029 17.4076 14.3817 17.4072 15.2601C17.4068 15.6457 17.26 15.7953 16.8796 15.7953C15.7764 15.7961 14.6732 15.7965 13.5696 15.7953C13.2076 15.7949 13.0504 15.6357 13.0496 15.2689C13.048 14.6357 13.0492 14.0025 13.0492 13.3689C13.0492 13.0241 13.0492 12.6793 13.0492 12.3253C9.2588 12.3253 5.4964 12.3253 1.718 12.3253ZM13.9396 11.4377C13.9396 12.0361 13.9396 12.6029 13.9396 13.1681C14.8124 13.1681 15.6704 13.1681 16.5432 13.1681C16.5432 12.6217 16.5464 12.0925 16.5372 11.5637C16.5364 11.5217 16.452 11.4489 16.4028 11.4457C16.186 11.4321 15.968 11.4381 15.7504 11.4377C15.1532 11.4373 14.556 11.4377 13.9396 11.4377ZM13.9372 14.9329C14.7828 14.9329 15.6052 14.9345 16.4276 14.9281C16.466 14.9277 16.5352 14.8613 16.5368 14.8237C16.5468 14.5749 16.542 14.3257 16.542 14.0653C15.6584 14.0653 14.8044 14.0653 13.9372 14.0653C13.9372 14.3525 13.9372 14.6281 13.9372 14.9329Z" fill="#00A6DF"/>
<path d="M11.0816 8.35044C11.0936 9.37644 10.1504 10.3352 9.11998 10.3444C8.09398 10.3536 7.12878 9.41004 7.11718 8.38644C7.10518 7.33724 8.05718 6.37284 9.10438 6.37244C10.1344 6.37204 11.0696 7.30764 11.0816 8.35044ZM9.11398 7.24884C8.41438 7.24924 7.99478 7.66604 7.99398 8.36204C7.99278 9.03963 8.42438 9.47084 9.10198 9.46924C9.78158 9.46764 10.216 9.03844 10.22 8.36404C10.2244 7.69244 9.78438 7.24844 9.11398 7.24884Z" fill="#00A6DF"/>
<path d="M5.888 5.34005C5.8908 6.12685 5.1432 6.88005 4.358 6.88125C3.5572 6.88245 2.80721 6.13405 2.81001 5.33645C2.81281 4.54685 3.554 3.79885 4.3416 3.79205C5.132 3.78445 5.8852 4.53805 5.888 5.34005ZM4.35401 6.01085C4.78001 6.00765 5.0272 5.76045 5.0276 5.33725C5.028 4.91205 4.78281 4.66885 4.35481 4.66965C3.90761 4.67005 3.6744 4.90285 3.6752 5.34765C3.6756 5.77005 3.92561 6.01405 4.35401 6.01085Z" fill="#00A6DF"/>
<path d="M6.96236 2.79241C6.25916 2.78641 5.57516 2.09761 5.57276 1.39321C5.57076 0.696809 6.27196 -0.00279162 6.96916 8.37689e-06C7.68356 0.00280838 8.37876 0.704409 8.36716 1.41041C8.35556 2.11881 7.66476 2.79801 6.96236 2.79241ZM6.97836 1.91761C7.33076 1.91561 7.49476 1.74441 7.49116 1.38361C7.48756 1.04241 7.31436 0.871209 6.97316 0.872809C6.61155 0.874809 6.44436 1.04881 6.44876 1.41921C6.45276 1.75481 6.62836 1.92001 6.97836 1.91761Z" fill="#00A6DF"/>
</g>
<defs>
<clipPath id="clip0">
<rect width="20.7632" height="20" fill="white"/>
</clipPath>
</defs>
</svg>
