<svg width="18" height="17" viewBox="0 0 18 17" fill="none" xmlns="http://www.w3.org/2000/svg">
<path d="M16.4708 2.21658C15.5297 1.2754 14.3061 0.710693 12.9885 0.710693C11.5767 0.710693 10.3532 1.2754 9.41202 2.21658L8.94144 2.68716L8.47085 2.21658C7.52967 1.2754 6.30615 0.710693 4.9885 0.710693C3.67086 0.710693 2.35321 1.2754 1.41204 2.21658C-0.564429 4.19305 -0.564429 7.39305 1.41204 9.36952L8.37673 16.4283C8.47085 16.6166 8.65908 16.7107 8.84732 16.7107C8.94144 16.7107 8.94144 16.7107 9.03555 16.7107C9.22379 16.7107 9.41202 16.6166 9.60026 16.5225L16.565 9.46364C18.3532 7.39305 18.3532 4.19305 16.4708 2.21658ZM15.3414 8.24011L8.94144 14.8283L2.54145 8.24011C1.2238 6.82834 1.2238 4.66363 2.54145 3.25187C3.20027 2.59305 4.04733 2.21658 4.9885 2.21658C5.92968 2.21658 6.77673 2.59305 7.43556 3.25187L8.47085 4.28716C8.7532 4.56952 9.22379 4.56952 9.60026 4.28716L10.6356 3.25187C11.2944 2.59305 12.1414 2.21658 13.0826 2.21658C14.0238 2.21658 14.8708 2.59305 15.5297 3.25187C16.6591 4.66363 16.6591 6.92246 15.3414 8.24011Z" fill="#7C7C7C"/>
</svg>
