<svg width="20" height="20" viewBox="0 0 20 20" fill="none" xmlns="http://www.w3.org/2000/svg">
<g clip-path="url(#clip0)">
<path d="M15.1143 13.3714C14.0286 13.3714 13.0571 13.9143 12.4571 14.7429L8.08571 11.5143C8.34285 10.9429 8.48571 10.3429 8.48571 9.65714C8.48571 9.08571 8.37142 8.51429 8.17142 8.02857L13.1714 5.34286C13.7714 6.11429 14.6857 6.62857 15.7428 6.62857C17.5428 6.62857 19 5.14286 19 3.31429C19.0571 1.48571 17.6 0 15.7714 0C13.9714 0 12.5143 1.48571 12.5143 3.31429C12.5143 3.62857 12.5714 3.91429 12.6286 4.2L7.54285 6.94286C6.77142 5.97143 5.57142 5.37143 4.25714 5.37143C1.91428 5.34286 0 7.28571 0 9.65714C0 12.0286 1.91428 13.9714 4.25714 13.9714C5.51428 13.9714 6.62857 13.4286 7.39999 12.5714L11.9428 15.9429C11.8857 16.1714 11.8571 16.4286 11.8571 16.6857C11.8571 18.5143 13.3143 20 15.1143 20C16.9143 20 18.3714 18.5143 18.3714 16.6857C18.4 14.8571 16.9143 13.3714 15.1143 13.3714ZM15.7714 1.25714C16.8857 1.25714 17.7714 2.17143 17.7714 3.28571C17.7714 4.42857 16.8857 5.31429 15.7714 5.31429C14.6571 5.31429 13.7714 4.4 13.7714 3.28571C13.7714 2.17143 14.6857 1.25714 15.7714 1.25714ZM4.25714 12.7143C2.6 12.7143 1.25714 11.3429 1.25714 9.65714C1.25714 7.97143 2.6 6.6 4.25714 6.6C5.91428 6.6 7.25714 7.97143 7.25714 9.65714C7.25714 10.1143 7.14285 10.5714 6.97142 10.9429L6.37142 11.7714L6.4 11.8C5.82857 12.3714 5.08571 12.7143 4.25714 12.7143ZM15.1143 18.7429C14 18.7429 13.1143 17.8286 13.1143 16.7143C13.1143 15.6 14 14.6857 15.1143 14.6857C16.2286 14.6857 17.1143 15.6 17.1143 16.7143C17.1143 17.8286 16.2286 18.7429 15.1143 18.7429Z" fill="#7C7C7C"/>
</g>
<defs>
<clipPath id="clip0">
<rect width="19.0571" height="20" fill="white"/>
</clipPath>
</defs>
</svg>
