<svg width="21" height="20" viewBox="0 0 21 20" fill="none" xmlns="http://www.w3.org/2000/svg">
<g clip-path="url(#clip0)">
<path d="M20.24 0H0.640039C0.320039 0 0.0400391 0.24 0.0400391 0.56V19.48C0.0400391 19.8 0.280039 20.04 0.600039 20.04H20.2C20.52 20.04 20.76 19.8 20.76 19.48V0.56C20.8 0.24 20.56 0 20.24 0ZM18.2 19.32V19C18.4 19 18.6 18.96 18.8 18.88C19 18.96 19.2 19 19.4 19V19.32H18.2ZM8.32004 19.32V19C8.52004 19 8.72004 18.96 8.92004 18.88C9.12004 18.96 9.32004 19 9.52004 19V19.32H8.32004ZM18.04 18.88C17.84 18.88 17.68 18.84 17.48 18.76V18.2C17.64 18.12 17.84 18.08 18.04 18.08C18.08 18.08 18.08 18.08 18.12 18.08C18.16 18.08 18.16 18.08 18.2 18.08C18.4 18.08 18.56 18.12 18.76 18.2V18.76C18.6 18.84 18.4 18.88 18.2 18.88C18.16 18.88 18.16 18.88 18.12 18.88C18.08 18.88 18.08 18.88 18.04 18.88ZM16.68 18.88C16.48 18.88 16.32 18.84 16.12 18.76V18.2C16.28 18.12 16.48 18.08 16.68 18.08C16.72 18.08 16.72 18.08 16.76 18.08C16.8 18.08 16.8 18.08 16.84 18.08C17.04 18.08 17.2 18.12 17.4 18.2V18.76C17.24 18.84 17.04 18.88 16.84 18.88C16.8 18.88 16.8 18.88 16.76 18.88C16.72 18.88 16.68 18.88 16.68 18.88ZM15.28 18.88C15.08 18.88 14.92 18.84 14.72 18.76V18.2C14.88 18.12 15.08 18.08 15.28 18.08C15.32 18.08 15.32 18.08 15.36 18.08C15.4 18.08 15.4 18.08 15.44 18.08C15.64 18.08 15.8 18.12 16 18.2V18.76C15.84 18.84 15.64 18.88 15.44 18.88C15.4 18.88 15.4 18.88 15.36 18.88C15.36 18.88 15.32 18.88 15.28 18.88ZM13.92 18.88C13.72 18.88 13.56 18.84 13.36 18.76V18.2C13.52 18.12 13.72 18.08 13.92 18.08C13.96 18.08 13.96 18.08 14 18.08C14.04 18.08 14.04 18.08 14.08 18.08C14.28 18.08 14.44 18.12 14.64 18.2V18.76C14.48 18.84 14.28 18.88 14.08 18.88C14.04 18.88 14.04 18.88 14 18.88C13.96 18.88 13.96 18.88 13.92 18.88ZM12.56 18.88C12.36 18.88 12.2 18.84 12 18.76V18.2C12.16 18.12 12.36 18.08 12.56 18.08C12.6 18.08 12.6 18.08 12.64 18.08C12.68 18.08 12.68 18.08 12.72 18.08C12.92 18.08 13.08 18.12 13.28 18.2V18.76C13.12 18.84 12.92 18.88 12.72 18.88C12.68 18.88 12.68 18.88 12.64 18.88C12.6 18.88 12.56 18.88 12.56 18.88ZM8.16004 18.88C7.96004 18.88 7.80004 18.84 7.60004 18.76V18.2C7.76004 18.12 7.96004 18.08 8.16004 18.08C8.20004 18.08 8.20004 18.08 8.24004 18.08C8.28004 18.08 8.28004 18.08 8.32004 18.08C8.52004 18.08 8.68004 18.12 8.88004 18.2V18.76C8.72004 18.84 8.52004 18.88 8.32004 18.88C8.28004 18.88 8.28004 18.88 8.24004 18.88C8.20004 18.88 8.20004 18.88 8.16004 18.88ZM6.80004 18.88C6.60004 18.88 6.44004 18.84 6.24004 18.76V18.2C6.40004 18.12 6.60004 18.08 6.80004 18.08C6.84004 18.08 6.84004 18.08 6.88004 18.08C6.92004 18.08 6.92004 18.08 6.96004 18.08C7.16004 18.08 7.32004 18.12 7.52004 18.2V18.76C7.36004 18.84 7.16004 18.88 6.96004 18.88C6.92004 18.88 6.92004 18.88 6.88004 18.88C6.84004 18.88 6.80004 18.88 6.80004 18.88ZM5.40004 18.88C5.20004 18.88 5.04004 18.84 4.84004 18.76V18.2C5.00004 18.12 5.20004 18.08 5.40004 18.08C5.44004 18.08 5.44004 18.08 5.48004 18.08C5.52004 18.08 5.52004 18.08 5.56004 18.08C5.76004 18.08 5.92004 18.12 6.12004 18.2V18.76C5.96004 18.84 5.76004 18.88 5.56004 18.88C5.52004 18.88 5.52004 18.88 5.48004 18.88C5.48004 18.88 5.44004 18.88 5.40004 18.88ZM4.04004 18.88C3.84004 18.88 3.68004 18.84 3.48004 18.76V18.2C3.64004 18.12 3.84004 18.08 4.04004 18.08C4.08004 18.08 4.08004 18.08 4.12004 18.08C4.16004 18.08 4.16004 18.08 4.20004 18.08C4.40004 18.08 4.56004 18.12 4.76004 18.2V18.76C4.60004 18.84 4.40004 18.88 4.20004 18.88C4.16004 18.88 4.16004 18.88 4.12004 18.88C4.08004 18.88 4.08004 18.88 4.04004 18.88ZM2.68004 18.88C2.48004 18.88 2.32004 18.84 2.12004 18.76V18.2C2.28004 18.12 2.48004 18.08 2.68004 18.08C2.72004 18.08 2.72004 18.08 2.76004 18.08C2.80004 18.08 2.80004 18.08 2.84004 18.08C3.04004 18.08 3.20004 18.12 3.40004 18.2V18.76C3.16004 18.8 3.00004 18.84 2.80004 18.88C2.76004 18.88 2.76004 18.88 2.72004 18.88H2.68004ZM0.760039 1.12C0.960039 1.12 1.12004 1.16 1.32004 1.24V1.8C1.12004 1.84 0.960039 1.88 0.760039 1.88V1.12ZM2.16004 1.12C2.36004 1.12 2.52004 1.16 2.72004 1.24V1.8C2.52004 1.84 2.32004 1.88 2.16004 1.88C2.12004 1.88 2.12004 1.88 2.08004 1.88C2.04004 1.88 2.04004 1.88 2.00004 1.88C1.80004 1.88 1.64004 1.84 1.44004 1.76V1.2C1.64004 1.16 1.80004 1.12 2.00004 1.12C2.04004 1.12 2.04004 1.12 2.08004 1.12C2.08004 1.12 2.12004 1.12 2.16004 1.12ZM3.52004 1.12C3.72004 1.12 3.88004 1.16 4.08004 1.24V1.8C3.88004 1.84 3.68004 1.88 3.52004 1.88C3.48004 1.88 3.48004 1.88 3.44004 1.88C3.40004 1.88 3.40004 1.88 3.36004 1.88C3.20004 1.88 3.00004 1.84 2.84004 1.8V1.2C3.00004 1.16 3.20004 1.12 3.36004 1.12C3.40004 1.12 3.40004 1.12 3.44004 1.12C3.48004 1.12 3.48004 1.12 3.52004 1.12ZM4.88004 1.12C5.08004 1.12 5.24004 1.16 5.44004 1.24V1.8C5.28004 1.88 5.08004 1.92 4.88004 1.92C4.84004 1.92 4.84004 1.92 4.80004 1.92C4.76004 1.92 4.76004 1.92 4.72004 1.92C4.52004 1.92 4.36004 1.88 4.16004 1.8V1.2C4.32004 1.12 4.52004 1.08 4.72004 1.08C4.76004 1.08 4.76004 1.08 4.80004 1.08C4.84004 1.12 4.88004 1.12 4.88004 1.12ZM6.24004 1.12C6.44004 1.12 6.60004 1.16 6.80004 1.24V1.8C6.64004 1.88 6.44004 1.92 6.24004 1.92C6.20004 1.92 6.20004 1.92 6.16004 1.92C6.12004 1.92 6.12004 1.92 6.08004 1.92C5.88004 1.92 5.72004 1.88 5.52004 1.8V1.2C5.68004 1.12 5.88004 1.08 6.08004 1.08C6.12004 1.08 6.12004 1.08 6.16004 1.08C6.20004 1.12 6.24004 1.12 6.24004 1.12ZM7.64004 1.12C7.84004 1.12 8.00004 1.16 8.20004 1.24V1.8C8.04004 1.88 7.84004 1.92 7.64004 1.92C7.60004 1.92 7.60004 1.92 7.56004 1.92C7.52004 1.92 7.52004 1.92 7.48004 1.92C7.28004 1.92 7.12004 1.88 6.92004 1.8V1.2C7.08004 1.12 7.28004 1.08 7.48004 1.08C7.52004 1.08 7.52004 1.08 7.56004 1.08C7.60004 1.12 7.60004 1.12 7.64004 1.12ZM9.00004 1.12C9.20004 1.12 9.36004 1.16 9.56004 1.24V1.8C9.40004 1.88 9.20004 1.92 9.00004 1.92C8.96004 1.92 8.96004 1.92 8.92004 1.92C8.88004 1.92 8.88004 1.92 8.84004 1.92C8.64004 1.92 8.48004 1.88 8.28004 1.8V1.2C8.44004 1.12 8.64004 1.08 8.84004 1.08C8.88004 1.08 8.88004 1.08 8.92004 1.08C8.96004 1.12 9.00004 1.12 9.00004 1.12ZM10.64 1.12C10.84 1.12 11 1.16 11.2 1.24V1.8C11.04 1.88 10.84 1.92 10.64 1.92V1.12ZM12.04 1.12C12.24 1.12 12.4 1.16 12.6 1.24V1.8C12.44 1.88 12.24 1.92 12.04 1.92C12 1.92 12 1.92 11.96 1.92C11.92 1.92 11.92 1.92 11.88 1.92C11.68 1.92 11.52 1.88 11.32 1.8V1.2C11.48 1.12 11.68 1.08 11.88 1.08C11.92 1.08 11.92 1.08 11.96 1.08C11.96 1.12 12 1.12 12.04 1.12ZM13.4 1.12C13.6 1.12 13.76 1.16 13.96 1.24V1.8C13.8 1.88 13.6 1.92 13.4 1.92C13.36 1.92 13.36 1.92 13.32 1.92C13.28 1.92 13.28 1.92 13.24 1.92C13.04 1.92 12.88 1.88 12.68 1.8V1.2C12.84 1.12 13.04 1.08 13.24 1.08C13.28 1.08 13.28 1.08 13.32 1.08C13.36 1.12 13.36 1.12 13.4 1.12ZM14.76 1.12C14.96 1.12 15.12 1.16 15.32 1.24V1.8C15.16 1.88 14.96 1.92 14.76 1.92C14.72 1.92 14.72 1.92 14.68 1.92C14.64 1.92 14.64 1.92 14.6 1.92C14.4 1.92 14.24 1.88 14.04 1.8V1.2C14.2 1.12 14.4 1.08 14.6 1.08C14.64 1.08 14.64 1.08 14.68 1.08C14.72 1.12 14.76 1.12 14.76 1.12ZM16.12 1.12C16.32 1.12 16.48 1.16 16.68 1.24V1.8C16.52 1.88 16.32 1.92 16.12 1.92C16.08 1.92 16.08 1.92 16.04 1.92C16 1.92 16 1.92 15.96 1.92C15.76 1.92 15.6 1.88 15.4 1.8V1.2C15.56 1.12 15.76 1.08 15.96 1.08C16 1.08 16 1.08 16.04 1.08C16.08 1.12 16.12 1.12 16.12 1.12ZM17.52 1.12C17.72 1.12 17.88 1.16 18.08 1.24V1.8C17.92 1.88 17.72 1.92 17.52 1.92C17.48 1.92 17.48 1.92 17.44 1.92C17.4 1.92 17.4 1.92 17.36 1.92C17.16 1.92 17 1.88 16.8 1.8V1.2C16.96 1.12 17.16 1.08 17.36 1.08C17.4 1.08 17.4 1.08 17.44 1.08C17.48 1.12 17.48 1.12 17.52 1.12ZM18.88 1.12C19.08 1.12 19.24 1.16 19.44 1.24V1.8C19.28 1.88 19.08 1.92 18.88 1.92C18.84 1.92 18.84 1.92 18.8 1.92C18.76 1.92 18.76 1.92 18.72 1.92C18.52 1.92 18.36 1.88 18.16 1.8V1.2C18.32 1.12 18.52 1.08 18.72 1.08C18.76 1.08 18.76 1.08 18.8 1.08C18.84 1.12 18.88 1.12 18.88 1.12ZM20.08 11.32C19.92 11.4 19.72 11.44 19.52 11.44C19.48 11.44 19.48 11.44 19.44 11.44C19.4 11.44 19.4 11.44 19.36 11.44C19.16 11.44 19 11.4 18.8 11.32V10.76C18.96 10.68 19.16 10.64 19.36 10.64C19.4 10.64 19.4 10.64 19.44 10.64C19.48 10.64 19.48 10.64 19.52 10.64C19.72 10.64 19.88 10.68 20.08 10.76V11.32ZM20.08 12.8C19.92 12.88 19.72 12.92 19.52 12.92C19.48 12.92 19.48 12.92 19.44 12.92C19.4 12.92 19.4 12.92 19.36 12.92C19.16 12.92 19 12.88 18.8 12.8V12.24C18.96 12.16 19.16 12.12 19.36 12.12C19.4 12.12 19.4 12.12 19.44 12.12C19.48 12.12 19.48 12.12 19.52 12.12C19.72 12.12 19.88 12.16 20.08 12.24V12.8ZM20.08 14.28C19.92 14.36 19.72 14.4 19.52 14.4C19.48 14.4 19.48 14.4 19.44 14.4C19.4 14.4 19.4 14.4 19.36 14.4C19.16 14.4 19 14.36 18.8 14.28V13.72C18.96 13.64 19.16 13.6 19.36 13.6C19.4 13.6 19.4 13.6 19.44 13.6C19.48 13.6 19.48 13.6 19.52 13.6C19.72 13.6 19.88 13.64 20.08 13.72V14.28ZM20.08 15.76C19.92 15.84 19.72 15.88 19.52 15.88C19.48 15.88 19.48 15.88 19.44 15.88C19.4 15.88 19.4 15.88 19.36 15.88C19.16 15.88 19 15.84 18.8 15.76V15.2C18.96 15.12 19.16 15.08 19.36 15.08C19.4 15.08 19.4 15.08 19.44 15.08C19.48 15.08 19.48 15.08 19.52 15.08C19.72 15.08 19.88 15.12 20.08 15.2V15.76ZM0.760039 15.2C0.920039 15.12 1.12004 15.08 1.32004 15.08C1.36004 15.08 1.36004 15.08 1.40004 15.08C1.44004 15.08 1.44004 15.08 1.48004 15.08C1.68004 15.08 1.84004 15.12 2.04004 15.2V15.76C1.88004 15.84 1.68004 15.88 1.48004 15.88C1.44004 15.88 1.44004 15.88 1.40004 15.88C1.36004 15.88 1.36004 15.88 1.32004 15.88C1.12004 15.88 0.960039 15.84 0.760039 15.76V15.2ZM0.760039 13.72C0.920039 13.64 1.12004 13.6 1.28004 13.6C1.32004 13.6 1.32004 13.6 1.36004 13.6C1.40004 13.6 1.40004 13.6 1.44004 13.6C1.64004 13.6 1.80004 13.64 2.00004 13.72V14.28C1.80004 14.36 1.64004 14.4 1.44004 14.4C1.40004 14.4 1.40004 14.4 1.36004 14.4C1.32004 14.4 1.32004 14.4 1.28004 14.4C1.08004 14.4 0.920039 14.36 0.720039 14.28V13.72H0.760039ZM0.760039 12.24C0.920039 12.16 1.12004 12.12 1.32004 12.12C1.36004 12.12 1.36004 12.12 1.40004 12.12C1.44004 12.12 1.44004 12.12 1.48004 12.12C1.68004 12.12 1.84004 12.16 2.04004 12.24V12.8C1.88004 12.88 1.68004 12.92 1.48004 12.92C1.44004 12.92 1.44004 12.92 1.40004 12.92C1.36004 12.92 1.36004 12.92 1.32004 12.92C1.12004 12.92 0.960039 12.88 0.760039 12.8V12.24ZM0.760039 10.72C0.920039 10.64 1.12004 10.6 1.32004 10.6C1.36004 10.6 1.36004 10.6 1.40004 10.6C1.44004 10.6 1.44004 10.6 1.48004 10.6C1.68004 10.6 1.84004 10.64 2.04004 10.72V11.28C1.88004 11.36 1.68004 11.4 1.48004 11.4C1.44004 11.4 1.44004 11.4 1.40004 11.4C1.36004 11.4 1.36004 11.4 1.32004 11.4C1.12004 11.4 0.960039 11.36 0.760039 11.28V10.72ZM20.08 3.52V3.96C19.88 3.96 19.68 4 19.48 4.08C19.28 4 19.08 3.96 18.88 3.96V3.52C19.08 3.52 19.28 3.48 19.48 3.4C19.68 3.48 19.88 3.52 20.08 3.52ZM19.56 3.28V2.72C19.72 2.64 19.92 2.64 20.08 2.6V3.4C19.92 3.36 19.76 3.32 19.56 3.28ZM19.52 7.04C19.32 6.96 19.12 6.92 18.92 6.92V6.48C19.12 6.48 19.32 6.44 19.52 6.36C19.72 6.44 19.92 6.48 20.12 6.48V6.92C19.88 6.92 19.68 6.96 19.52 7.04ZM20.08 7.08V7.88C19.92 7.88 19.72 7.84 19.56 7.76V7.2C19.76 7.12 19.92 7.08 20.08 7.08ZM2.16004 6.48C2.36004 6.48 2.56004 6.44 2.76004 6.36C2.96004 6.44 3.16004 6.48 3.36004 6.48V6.92C3.16004 6.92 2.96004 6.96 2.76004 7.04C2.56004 6.96 2.36004 6.92 2.16004 6.92V6.48ZM2.08004 6.36C2.04004 6.36 2.04004 6.36 2.00004 6.36C1.80004 6.36 1.64004 6.32 1.44004 6.24V5.68C1.64004 5.6 1.80004 5.56 2.00004 5.56C2.04004 5.56 2.04004 5.56 2.08004 5.56C2.12004 5.56 2.12004 5.56 2.16004 5.56C2.36004 5.56 2.52004 5.6 2.72004 5.68V6.24C2.56004 6.32 2.36004 6.36 2.16004 6.36C2.12004 6.36 2.08004 6.36 2.08004 6.36ZM16.68 12C16.48 12 16.28 12.04 16.08 12.12C15.88 12.04 15.68 12 15.48 12V11.56C15.68 11.56 15.88 11.52 16.08 11.44C16.28 11.52 16.48 11.56 16.68 11.56V12ZM16.72 12.12C16.76 12.12 16.76 12.12 16.8 12.12C17 12.12 17.16 12.16 17.36 12.24V12.8C17.2 12.88 17 12.92 16.8 12.92C16.76 12.92 16.76 12.92 16.72 12.92C16.68 12.92 16.68 12.92 16.64 12.92C16.44 12.92 16.28 12.88 16.08 12.8V12.24C16.24 12.16 16.44 12.12 16.64 12.12C16.68 12.12 16.72 12.12 16.72 12.12ZM4.20004 12V11.56C4.40004 11.56 4.60004 11.52 4.80004 11.44C5.00004 11.52 5.20004 11.56 5.40004 11.56V12C5.20004 12 5.00004 12.04 4.80004 12.12C4.60004 12.04 4.40004 12 4.20004 12ZM4.72004 12.24V12.8C4.56004 12.88 4.36004 12.92 4.16004 12.92C4.12004 12.92 4.12004 12.92 4.08004 12.92C4.04004 12.92 4.04004 12.92 4.00004 12.92C3.80004 12.92 3.64004 12.88 3.44004 12.8V12.24C3.60004 12.16 3.80004 12.12 4.00004 12.12C4.04004 12.12 4.04004 12.12 4.08004 12.12C4.12004 12.12 4.12004 12.12 4.16004 12.12C4.36004 12.12 4.56004 12.16 4.72004 12.24ZM4.88004 8C5.08004 8 5.28004 7.96 5.48004 7.88C5.68004 7.96 5.88004 8 6.08004 8V8.4C5.88004 8.4 5.68004 8.44 5.48004 8.52C5.28004 8.44 5.08004 8.4 4.88004 8.4V8ZM4.80004 7.84C4.76004 7.84 4.76004 7.84 4.72004 7.84C4.52004 7.84 4.36004 7.8 4.16004 7.72V7.16C4.32004 7.08 4.52004 7.04 4.72004 7.04C4.76004 7.04 4.76004 7.04 4.80004 7.04C4.84004 7.04 4.84004 7.04 4.88004 7.04C5.08004 7.04 5.24004 7.08 5.44004 7.16V7.72C5.28004 7.8 5.08004 7.84 4.88004 7.84C4.88004 7.84 4.84004 7.84 4.80004 7.84ZM16 8V8.4C15.8 8.4 15.6 8.44 15.4 8.52C15.2 8.44 15 8.4 14.8 8.4V8C15 8 15.2 7.96 15.4 7.88C15.6 7.92 15.8 7.96 16 8ZM15.44 7.76V7.2C15.6 7.12 15.8 7.08 16 7.08C16.04 7.08 16.04 7.08 16.08 7.08C16.12 7.08 16.12 7.08 16.16 7.08C16.36 7.08 16.52 7.12 16.72 7.2V7.76C16.56 7.84 16.36 7.88 16.16 7.88C16.12 7.88 16.12 7.88 16.08 7.88C16.04 7.88 16.04 7.88 16 7.88C15.8 7.84 15.64 7.8 15.44 7.76ZM14.08 10.64C14.28 10.64 14.44 10.68 14.64 10.76V11.32C14.48 11.4 14.28 11.44 14.08 11.44C14.04 11.44 14.04 11.44 14 11.44C13.96 11.44 13.96 11.44 13.92 11.44C13.72 11.44 13.56 11.4 13.36 11.32V10.76C13.52 10.68 13.72 10.64 13.92 10.64C13.96 10.64 13.96 10.64 14 10.64C14 10.64 14.04 10.64 14.08 10.64ZM13.92 10.48C13.72 10.48 13.52 10.52 13.32 10.6C13.12 10.52 12.92 10.48 12.72 10.48V10.2H13.96V10.48H13.92ZM7.48004 9.32C7.28004 9.32 7.12004 9.28 6.92004 9.2V8.64C7.08004 8.56 7.28004 8.52 7.48004 8.52C7.52004 8.52 7.52004 8.52 7.56004 8.52C7.60004 8.52 7.60004 8.52 7.64004 8.52C7.84004 8.52 8.00004 8.56 8.20004 8.64V9.2C8.04004 9.28 7.84004 9.32 7.64004 9.32C7.60004 9.32 7.60004 9.32 7.56004 9.32C7.56004 9.36 7.52004 9.36 7.48004 9.32ZM7.64004 9.48C7.84004 9.48 8.04004 9.44 8.24004 9.36C8.44004 9.44 8.64004 9.48 8.84004 9.48V9.8H7.60004V9.48H7.64004ZM13.24 9.32C13.04 9.32 12.88 9.28 12.68 9.2V8.64C12.84 8.56 13.04 8.52 13.24 8.52C13.28 8.52 13.28 8.52 13.32 8.52C13.36 8.52 13.36 8.52 13.4 8.52C13.6 8.52 13.76 8.56 13.96 8.64V9.2C13.8 9.28 13.6 9.32 13.4 9.32C13.36 9.32 13.36 9.32 13.32 9.32C13.32 9.36 13.28 9.36 13.24 9.32ZM13.24 9.48V9.8H12V9.48C12.2 9.48 12.4 9.44 12.6 9.36C12.84 9.44 13.04 9.48 13.24 9.48ZM12.56 9.24C12.4 9.32 12.2 9.36 12 9.36C11.96 9.36 11.96 9.36 11.92 9.36C11.88 9.36 11.88 9.36 11.84 9.36C11.64 9.36 11.48 9.32 11.28 9.24V8.68C11.44 8.6 11.64 8.56 11.84 8.56C11.88 8.56 11.88 8.56 11.92 8.56C11.96 8.56 11.96 8.56 12 8.56C12.2 8.56 12.36 8.6 12.56 8.68V9.24ZM11.88 9.48V9.8H10.64V9.48C10.84 9.48 11.04 9.44 11.24 9.36C11.48 9.44 11.68 9.48 11.88 9.48ZM11.2 9.24C11.04 9.32 10.84 9.36 10.64 9.36V8.56C10.84 8.56 11 8.6 11.2 8.68V9.24ZM10.2 9.32C10.04 9.32 9.84004 9.28 9.68004 9.2V8.64C9.84004 8.56 10.04 8.56 10.2 8.52V9.32ZM10.2 9.48V9.8H9.00004V9.48C9.20004 9.48 9.40004 9.44 9.60004 9.36C9.80004 9.4 10 9.44 10.2 9.48ZM9.56004 9.24C9.40004 9.32 9.20004 9.36 9.00004 9.36C8.96004 9.36 8.96004 9.36 8.92004 9.36C8.88004 9.36 8.88004 9.36 8.84004 9.36C8.64004 9.36 8.48004 9.32 8.28004 9.24V8.68C8.44004 8.6 8.64004 8.56 8.84004 8.56C8.88004 8.56 8.88004 8.56 8.92004 8.56C8.96004 8.56 8.96004 8.56 9.00004 8.56C9.20004 8.56 9.36004 8.6 9.56004 8.68V9.24ZM6.92004 10.64C7.12004 10.64 7.28004 10.68 7.48004 10.76V11.32C7.32004 11.4 7.12004 11.44 6.92004 11.44C6.88004 11.44 6.88004 11.44 6.84004 11.44C6.80004 11.44 6.80004 11.44 6.76004 11.44C6.56004 11.44 6.40004 11.4 6.20004 11.32V10.76C6.36004 10.68 6.56004 10.64 6.76004 10.64C6.80004 10.64 6.80004 10.64 6.84004 10.64C6.88004 10.64 6.92004 10.64 6.92004 10.64ZM6.92004 10.48V10.2H8.16004V10.48C7.96004 10.48 7.76004 10.52 7.56004 10.6C7.36004 10.56 7.12004 10.52 6.92004 10.48ZM7.60004 10.72C7.76004 10.64 7.96004 10.6 8.16004 10.6C8.20004 10.6 8.20004 10.6 8.24004 10.6C8.28004 10.6 8.28004 10.6 8.32004 10.6C8.52004 10.6 8.68004 10.64 8.88004 10.72V11.28C8.72004 11.36 8.52004 11.4 8.32004 11.4C8.28004 11.4 8.28004 11.4 8.24004 11.4C8.20004 11.4 8.20004 11.4 8.16004 11.4C7.96004 11.4 7.80004 11.36 7.60004 11.28V10.72ZM8.32004 10.48V10.2H9.56004V10.48C9.36004 10.48 9.16004 10.52 8.96004 10.6C8.72004 10.56 8.52004 10.52 8.32004 10.48ZM9.68004 10.2H10.24V10.6C10.08 10.56 9.88004 10.52 9.68004 10.52V10.2ZM10.64 10.2H11.2V10.48C11 10.48 10.84 10.52 10.64 10.56V10.2ZM11.32 10.2H12.56V10.48C12.36 10.48 12.16 10.52 11.96 10.6C11.76 10.52 11.56 10.48 11.36 10.48V10.2H11.32ZM12 10.72C12.16 10.64 12.36 10.6 12.56 10.6C12.6 10.6 12.6 10.6 12.64 10.6C12.68 10.6 12.68 10.6 12.72 10.6C12.92 10.6 13.08 10.64 13.28 10.72V11.28C13.12 11.36 12.92 11.4 12.72 11.4C12.68 11.4 12.68 11.4 12.64 11.4C12.6 11.4 12.6 11.4 12.56 11.4C12.36 11.4 12.2 11.36 12 11.28V10.72ZM13.4 9.8V9.48C13.6 9.48 13.8 9.44 14 9.36C14.2 9.44 14.4 9.48 14.6 9.48V9.8H13.4ZM14.64 9.32C14.44 9.32 14.28 9.28 14.08 9.2V8.64C14.24 8.56 14.44 8.52 14.64 8.52C14.68 8.52 14.68 8.52 14.72 8.52C14.76 8.52 14.76 8.52 14.8 8.52C15 8.52 15.16 8.56 15.36 8.64V9.2C15.2 9.28 15 9.32 14.8 9.32C14.76 9.32 14.76 9.32 14.72 9.32C14.68 9.36 14.64 9.36 14.64 9.32ZM15.32 7.76C15.16 7.84 14.96 7.88 14.76 7.88C14.72 7.88 14.72 7.88 14.68 7.88C14.64 7.88 14.64 7.88 14.6 7.88C14.4 7.88 14.24 7.84 14.04 7.76V7.2C14.2 7.12 14.4 7.08 14.6 7.08C14.64 7.08 14.64 7.08 14.68 7.08C14.72 7.08 14.72 7.08 14.76 7.08C14.96 7.08 15.12 7.12 15.32 7.2V7.76ZM14.64 8V8.4C14.44 8.4 14.24 8.44 14.04 8.52C13.84 8.44 13.64 8.4 13.44 8.4V8C13.64 8 13.84 7.96 14.04 7.88C14.2 7.92 14.44 7.96 14.64 8ZM13.96 7.76C13.8 7.84 13.6 7.88 13.4 7.88C13.36 7.88 13.36 7.88 13.32 7.88C13.28 7.88 13.28 7.88 13.24 7.88C13.04 7.88 12.88 7.84 12.68 7.76V7.2C12.84 7.12 13.04 7.08 13.24 7.08C13.28 7.08 13.28 7.08 13.32 7.08C13.36 7.08 13.36 7.08 13.4 7.08C13.6 7.08 13.76 7.12 13.96 7.2V7.76ZM13.24 8V8.4C13.04 8.4 12.84 8.44 12.64 8.52C12.44 8.44 12.24 8.4 12.04 8.4V8C12.24 8 12.44 7.96 12.64 7.88C12.84 7.92 13.04 7.96 13.24 8ZM12.56 7.76C12.4 7.84 12.2 7.88 12 7.88C11.96 7.88 11.96 7.88 11.92 7.88C11.88 7.88 11.88 7.88 11.84 7.88C11.64 7.88 11.48 7.84 11.28 7.76V7.2C11.44 7.12 11.64 7.08 11.84 7.08C11.88 7.08 11.88 7.08 11.92 7.08C11.96 7.08 11.96 7.08 12 7.08C12.2 7.08 12.36 7.12 12.56 7.2V7.76ZM11.88 8V8.4C11.68 8.4 11.48 8.44 11.28 8.52C11.08 8.44 10.88 8.4 10.68 8.4V8C10.88 8 11.08 7.96 11.28 7.88C11.48 7.92 11.68 7.96 11.88 8ZM11.2 7.76C11.04 7.84 10.84 7.88 10.64 7.88V7.08C10.84 7.08 11 7.12 11.2 7.2V7.76ZM10.2 7.84C10.04 7.84 9.84004 7.8 9.68004 7.72V7.16C9.84004 7.08 10.04 7.08 10.2 7.04V7.84ZM10.2 7.96V8.4C10 8.4 9.80004 8.44 9.60004 8.52C9.40004 8.44 9.20004 8.4 9.00004 8.4V8C9.20004 8 9.40004 7.96 9.60004 7.88C9.80004 7.92 10 7.96 10.2 7.96ZM9.56004 7.76C9.40004 7.84 9.20004 7.88 9.00004 7.88C8.96004 7.88 8.96004 7.88 8.92004 7.88C8.88004 7.88 8.88004 7.88 8.84004 7.88C8.64004 7.88 8.48004 7.84 8.28004 7.76V7.2C8.44004 7.12 8.64004 7.08 8.84004 7.08C8.88004 7.08 8.88004 7.08 8.92004 7.08C8.96004 7.08 8.96004 7.08 9.00004 7.08C9.20004 7.08 9.36004 7.12 9.56004 7.2V7.76ZM8.88004 8V8.4C8.68004 8.4 8.48004 8.44 8.28004 8.52C8.08004 8.44 7.88004 8.4 7.68004 8.4V8C7.88004 8 8.08004 7.96 8.28004 7.88C8.44004 7.92 8.64004 7.96 8.88004 8ZM8.20004 7.76C8.04004 7.84 7.84004 7.88 7.64004 7.88C7.60004 7.88 7.60004 7.88 7.56004 7.88C7.52004 7.88 7.52004 7.88 7.48004 7.88C7.28004 7.88 7.12004 7.84 6.92004 7.76V7.2C7.08004 7.12 7.28004 7.08 7.48004 7.08C7.52004 7.08 7.52004 7.08 7.56004 7.08C7.60004 7.08 7.60004 7.08 7.64004 7.08C7.84004 7.08 8.00004 7.12 8.20004 7.2V7.76ZM7.48004 8V8.4C7.28004 8.4 7.08004 8.44 6.88004 8.52C6.68004 8.44 6.48004 8.4 6.28004 8.4V8C6.48004 8 6.68004 7.96 6.88004 7.88C7.08004 7.92 7.28004 7.96 7.48004 8ZM6.80004 7.76C6.64004 7.84 6.44004 7.88 6.24004 7.88C6.20004 7.88 6.20004 7.88 6.16004 7.88C6.12004 7.88 6.12004 7.88 6.08004 7.88C5.88004 7.88 5.72004 7.84 5.52004 7.76V7.2C5.68004 7.12 5.88004 7.08 6.08004 7.08C6.12004 7.08 6.12004 7.08 6.16004 7.08C6.20004 7.08 6.20004 7.08 6.24004 7.08C6.44004 7.08 6.60004 7.12 6.80004 7.2V7.76ZM5.56004 8.64C5.72004 8.56 5.92004 8.52 6.12004 8.52C6.16004 8.52 6.16004 8.52 6.20004 8.52C6.24004 8.52 6.24004 8.52 6.28004 8.52C6.48004 8.52 6.64004 8.56 6.84004 8.64V9.2C6.68004 9.28 6.48004 9.32 6.28004 9.32C6.24004 9.32 6.24004 9.32 6.20004 9.32C6.16004 9.32 6.16004 9.32 6.12004 9.32C5.92004 9.32 5.76004 9.28 5.56004 9.2V8.64ZM6.24004 9.48C6.44004 9.48 6.64004 9.44 6.84004 9.36C7.04004 9.44 7.24004 9.48 7.44004 9.48V9.8H6.20004V9.48H6.24004ZM6.80004 10.2V10.48C6.60004 10.48 6.40004 10.52 6.20004 10.6C6.00004 10.52 5.80004 10.48 5.60004 10.48V10.2H6.80004ZM5.56004 10.64C5.76004 10.64 5.92004 10.68 6.12004 10.76V11.32C5.96004 11.4 5.76004 11.44 5.56004 11.44C5.52004 11.44 5.52004 11.44 5.48004 11.44C5.44004 11.44 5.44004 11.44 5.40004 11.44C5.20004 11.44 5.04004 11.4 4.84004 11.32V10.76C5.00004 10.68 5.20004 10.64 5.40004 10.64C5.44004 10.64 5.44004 10.64 5.48004 10.64C5.52004 10.64 5.52004 10.64 5.56004 10.64ZM4.88004 12.24C5.04004 12.16 5.24004 12.12 5.44004 12.12C5.48004 12.12 5.48004 12.12 5.52004 12.12C5.56004 12.12 5.56004 12.12 5.60004 12.12C5.80004 12.12 5.96004 12.16 6.16004 12.24V12.8C6.00004 12.88 5.80004 12.92 5.60004 12.92C5.56004 12.92 5.56004 12.92 5.52004 12.92C5.48004 12.92 5.48004 12.92 5.44004 12.92C5.24004 12.92 5.08004 12.88 4.88004 12.8V12.24ZM5.56004 12V11.56C5.76004 11.56 5.96004 11.52 6.16004 11.44C6.36004 11.52 6.56004 11.56 6.76004 11.56V12C6.56004 12 6.36004 12.04 6.16004 12.12C5.96004 12.04 5.76004 12 5.56004 12ZM6.24004 12.24C6.40004 12.16 6.60004 12.12 6.80004 12.12C6.84004 12.12 6.84004 12.12 6.88004 12.12C6.92004 12.12 6.92004 12.12 6.96004 12.12C7.16004 12.12 7.32004 12.16 7.52004 12.24V12.8C7.36004 12.88 7.16004 12.92 6.96004 12.92C6.92004 12.92 6.92004 12.92 6.88004 12.92C6.84004 12.92 6.84004 12.92 6.80004 12.92C6.60004 12.92 6.44004 12.88 6.24004 12.8V12.24ZM6.92004 12V11.56C7.12004 11.56 7.32004 11.52 7.52004 11.44C7.72004 11.52 7.92004 11.56 8.12004 11.56V12C7.92004 12 7.72004 12.04 7.52004 12.12C7.36004 12.04 7.12004 12 6.92004 12ZM7.60004 12.24C7.76004 12.16 7.96004 12.12 8.16004 12.12C8.20004 12.12 8.20004 12.12 8.24004 12.12C8.28004 12.12 8.28004 12.12 8.32004 12.12C8.52004 12.12 8.68004 12.16 8.88004 12.24V12.8C8.72004 12.88 8.52004 12.92 8.32004 12.92C8.28004 12.92 8.28004 12.92 8.24004 12.92C8.20004 12.92 8.20004 12.92 8.16004 12.92C7.96004 12.92 7.80004 12.88 7.60004 12.8V12.24ZM8.32004 12V11.56C8.52004 11.56 8.72004 11.52 8.92004 11.44C9.12004 11.52 9.32004 11.56 9.52004 11.56V12C9.32004 12 9.12004 12.04 8.92004 12.12C8.72004 12.04 8.52004 12 8.32004 12ZM9.00004 11.32V10.76C9.16004 10.68 9.36004 10.64 9.56004 10.64C9.60004 10.64 9.60004 10.64 9.64004 10.64C9.68004 10.64 9.68004 10.64 9.72004 10.64C9.92004 10.64 10.08 10.68 10.28 10.76V11.32C10.12 11.4 9.92004 11.44 9.72004 11.44C9.68004 11.44 9.68004 11.44 9.64004 11.44C9.60004 11.44 9.60004 11.44 9.56004 11.44C9.36004 11.4 9.16004 11.36 9.00004 11.32ZM9.68004 11.56C9.88004 11.56 10.04 11.52 10.24 11.48V12.12C10.08 12.08 9.88004 12.04 9.68004 12.04V11.56ZM10.64 11.44C10.8 11.48 11 11.52 11.2 11.52V12C11 12 10.84 12.04 10.64 12.08V11.44ZM10.64 11.32V10.76C10.8 10.68 11 10.64 11.2 10.64C11.24 10.64 11.24 10.64 11.28 10.64C11.32 10.64 11.32 10.64 11.36 10.64C11.56 10.64 11.72 10.68 11.92 10.76V11.32C11.76 11.4 11.56 11.44 11.36 11.44C11.32 11.44 11.32 11.44 11.28 11.44C11.24 11.44 11.24 11.44 11.2 11.44C11 11.4 10.8 11.36 10.64 11.32ZM11.32 11.56C11.52 11.56 11.72 11.52 11.92 11.44C12.12 11.52 12.32 11.56 12.52 11.56V12C12.32 12 12.12 12.04 11.92 12.12C11.72 12.04 11.52 12 11.32 12V11.56ZM12 12.24C12.16 12.16 12.36 12.12 12.56 12.12C12.6 12.12 12.6 12.12 12.64 12.12C12.68 12.12 12.68 12.12 12.72 12.12C12.92 12.12 13.08 12.16 13.28 12.24V12.8C13.12 12.88 12.92 12.92 12.72 12.92C12.68 12.92 12.68 12.92 12.64 12.92C12.6 12.92 12.6 12.92 12.56 12.92C12.36 12.92 12.2 12.88 12 12.8V12.24ZM12.68 12V11.56C12.88 11.56 13.08 11.52 13.28 11.44C13.48 11.52 13.68 11.56 13.88 11.56V12C13.68 12 13.48 12.04 13.28 12.12C13.12 12.04 12.88 12 12.68 12ZM13.36 12.24C13.52 12.16 13.72 12.12 13.92 12.12C13.96 12.12 13.96 12.12 14 12.12C14.04 12.12 14.04 12.12 14.08 12.12C14.28 12.12 14.44 12.16 14.64 12.24V12.8C14.48 12.88 14.28 12.92 14.08 12.92C14.04 12.92 14.04 12.92 14 12.92C13.96 12.92 13.96 12.92 13.92 12.92C13.72 12.92 13.56 12.88 13.36 12.8V12.24ZM14.08 12V11.56C14.28 11.56 14.48 11.52 14.68 11.44C14.88 11.52 15.08 11.56 15.28 11.56V12C15.08 12 14.88 12.04 14.68 12.12C14.48 12.04 14.28 12 14.08 12ZM14.76 12.24C14.92 12.16 15.12 12.12 15.32 12.12C15.36 12.12 15.36 12.12 15.4 12.12C15.44 12.12 15.44 12.12 15.48 12.12C15.68 12.12 15.84 12.16 16.04 12.24V12.8C15.88 12.88 15.68 12.92 15.48 12.92C15.44 12.92 15.44 12.92 15.4 12.92C15.36 12.92 15.36 12.92 15.32 12.92C15.12 12.92 14.96 12.88 14.76 12.8V12.24ZM16 11.32C15.84 11.4 15.64 11.44 15.44 11.44C15.4 11.44 15.4 11.44 15.36 11.44C15.32 11.44 15.32 11.44 15.28 11.44C15.08 11.44 14.92 11.4 14.72 11.32V10.76C14.88 10.68 15.08 10.64 15.28 10.64C15.32 10.64 15.32 10.64 15.36 10.64C15.4 10.64 15.4 10.64 15.44 10.64C15.64 10.64 15.8 10.68 16 10.76V11.32ZM15.28 10.48C15.08 10.48 14.88 10.52 14.68 10.6C14.48 10.52 14.28 10.48 14.08 10.48V10.2H15.32V10.48H15.28ZM14.76 9.8V9.48C14.96 9.48 15.16 9.44 15.36 9.36C15.56 9.44 15.76 9.48 15.96 9.48V9.8H14.76ZM16 9.32C15.8 9.32 15.64 9.28 15.44 9.2V8.64C15.6 8.56 15.8 8.52 16 8.52C16.04 8.52 16.04 8.52 16.08 8.52C16.12 8.52 16.12 8.52 16.16 8.52C16.36 8.52 16.52 8.56 16.72 8.64V9.2C16.56 9.28 16.36 9.32 16.16 9.32C16.12 9.32 16.12 9.32 16.08 9.32C16.04 9.36 16.04 9.36 16 9.32ZM16.12 8.4V8C16.32 8 16.52 7.96 16.72 7.88C16.92 7.96 17.12 8 17.32 8V8.4C17.12 8.4 16.92 8.44 16.72 8.52C16.56 8.48 16.36 8.44 16.12 8.4ZM16.84 7.76V7.2C17 7.12 17.2 7.08 17.4 7.08C17.44 7.08 17.44 7.08 17.48 7.08C17.52 7.08 17.52 7.08 17.56 7.08C17.76 7.08 17.92 7.12 18.12 7.2V7.76C17.96 7.84 17.76 7.88 17.56 7.88C17.52 7.88 17.52 7.88 17.48 7.88C17.44 7.88 17.44 7.88 17.4 7.88C17.2 7.84 17 7.8 16.84 7.76ZM17.44 6.36C17.4 6.36 17.4 6.36 17.36 6.36C17.16 6.36 17 6.32 16.8 6.24V5.68C16.96 5.6 17.16 5.56 17.36 5.56C17.4 5.56 17.4 5.56 17.44 5.56C17.48 5.56 17.48 5.56 17.52 5.56C17.72 5.56 17.88 5.6 18.08 5.68V6.24C17.92 6.32 17.72 6.36 17.52 6.36C17.48 6.36 17.48 6.36 17.44 6.36ZM17.36 6.48V6.92C17.16 6.92 16.96 6.96 16.76 7.04C16.56 6.96 16.36 6.92 16.16 6.92V6.48C16.36 6.48 16.56 6.44 16.76 6.36C16.96 6.44 17.16 6.48 17.36 6.48ZM16.68 6.24C16.52 6.32 16.32 6.36 16.12 6.36C16.08 6.36 16.08 6.36 16.04 6.36C16 6.36 16 6.36 15.96 6.36C15.76 6.36 15.6 6.32 15.4 6.24V5.68C15.56 5.6 15.76 5.56 15.96 5.56C16 5.56 16 5.56 16.04 5.56C16.08 5.56 16.08 5.56 16.12 5.56C16.32 5.56 16.48 5.6 16.68 5.68V6.24ZM16 6.48V6.92C15.8 6.92 15.6 6.96 15.4 7.04C15.2 6.96 15 6.92 14.8 6.92V6.48C15 6.48 15.2 6.44 15.4 6.36C15.6 6.44 15.8 6.48 16 6.48ZM15.32 6.24C15.16 6.32 14.96 6.36 14.76 6.36C14.72 6.36 14.72 6.36 14.68 6.36C14.64 6.36 14.64 6.36 14.6 6.36C14.4 6.36 14.24 6.32 14.04 6.24V5.68C14.2 5.6 14.4 5.56 14.6 5.56C14.64 5.56 14.64 5.56 14.68 5.56C14.72 5.56 14.72 5.56 14.76 5.56C14.96 5.56 15.12 5.6 15.32 5.68V6.24ZM14.64 6.48V6.92C14.44 6.92 14.24 6.96 14.04 7.04C13.84 6.96 13.64 6.92 13.44 6.92V6.48C13.64 6.48 13.84 6.44 14.04 6.36C14.2 6.44 14.44 6.48 14.64 6.48ZM13.96 6.24C13.8 6.32 13.6 6.36 13.4 6.36C13.36 6.36 13.36 6.36 13.32 6.36C13.28 6.36 13.28 6.36 13.24 6.36C13.04 6.36 12.88 6.32 12.68 6.24V5.68C12.84 5.6 13.04 5.56 13.24 5.56C13.28 5.56 13.28 5.56 13.32 5.56C13.36 5.56 13.36 5.56 13.4 5.56C13.6 5.56 13.76 5.6 13.96 5.68V6.24ZM13.24 6.48V6.92C13.04 6.92 12.84 6.96 12.64 7.04C12.44 6.96 12.24 6.92 12.04 6.92V6.48C12.24 6.48 12.44 6.44 12.64 6.36C12.84 6.44 13.04 6.48 13.24 6.48ZM12.56 6.24C12.4 6.32 12.2 6.36 12 6.36C11.96 6.36 11.96 6.36 11.92 6.36C11.88 6.36 11.88 6.36 11.84 6.36C11.64 6.36 11.48 6.32 11.28 6.24V5.68C11.44 5.6 11.64 5.56 11.84 5.56C11.88 5.56 11.88 5.56 11.92 5.56C11.96 5.56 11.96 5.56 12 5.56C12.2 5.56 12.36 5.6 12.56 5.68V6.24ZM11.88 6.48V6.92C11.68 6.92 11.48 6.96 11.28 7.04C11.08 6.96 10.88 6.92 10.68 6.92V6.48C10.88 6.48 11.08 6.44 11.28 6.36C11.48 6.44 11.68 6.48 11.88 6.48ZM11.2 6.24C11.04 6.32 10.84 6.36 10.64 6.36V5.56C10.84 5.56 11 5.6 11.2 5.68V6.24ZM10.2 6.36C10.04 6.36 9.84004 6.32 9.68004 6.24V5.68C9.84004 5.6 10.04 5.6 10.2 5.56V6.36ZM10.2 6.48V6.92C10 6.92 9.80004 6.96 9.60004 7.04C9.40004 6.96 9.20004 6.92 9.00004 6.92V6.48C9.20004 6.48 9.40004 6.44 9.60004 6.36C9.80004 6.44 10 6.48 10.2 6.48ZM9.56004 6.24C9.40004 6.32 9.20004 6.36 9.00004 6.36C8.96004 6.36 8.96004 6.36 8.92004 6.36C8.88004 6.36 8.88004 6.36 8.84004 6.36C8.64004 6.36 8.48004 6.32 8.28004 6.24V5.68C8.44004 5.6 8.64004 5.56 8.84004 5.56C8.88004 5.56 8.88004 5.56 8.92004 5.56C8.96004 5.56 8.96004 5.56 9.00004 5.56C9.20004 5.56 9.36004 5.6 9.56004 5.68V6.24ZM8.88004 6.48V6.92C8.68004 6.92 8.48004 6.96 8.28004 7.04C8.08004 6.96 7.88004 6.92 7.68004 6.92V6.48C7.88004 6.48 8.08004 6.44 8.28004 6.36C8.44004 6.44 8.64004 6.48 8.88004 6.48ZM8.20004 6.24C8.04004 6.32 7.84004 6.36 7.64004 6.36C7.60004 6.36 7.60004 6.36 7.56004 6.36C7.52004 6.36 7.52004 6.36 7.48004 6.36C7.28004 6.36 7.12004 6.32 6.92004 6.24V5.68C7.08004 5.6 7.28004 5.56 7.48004 5.56C7.52004 5.56 7.52004 5.56 7.56004 5.56C7.60004 5.56 7.60004 5.56 7.64004 5.56C7.84004 5.56 8.00004 5.6 8.20004 5.68V6.24ZM7.48004 6.48V6.92C7.28004 6.92 7.08004 6.96 6.88004 7.04C6.68004 6.96 6.48004 6.92 6.28004 6.92V6.48C6.48004 6.48 6.68004 6.44 6.88004 6.36C7.08004 6.44 7.28004 6.48 7.48004 6.48ZM6.80004 6.24C6.64004 6.32 6.44004 6.36 6.24004 6.36C6.20004 6.36 6.20004 6.36 6.16004 6.36C6.12004 6.36 6.12004 6.36 6.08004 6.36C5.88004 6.36 5.72004 6.32 5.52004 6.24V5.68C5.68004 5.6 5.88004 5.56 6.08004 5.56C6.12004 5.56 6.12004 5.56 6.16004 5.56C6.20004 5.56 6.20004 5.56 6.24004 5.56C6.44004 5.56 6.60004 5.6 6.80004 5.68V6.24ZM6.12004 6.48V6.92C5.92004 6.92 5.72004 6.96 5.52004 7.04C5.32004 6.96 5.12004 6.92 4.92004 6.92V6.48C5.12004 6.48 5.32004 6.44 5.52004 6.36C5.72004 6.44 5.92004 6.48 6.12004 6.48ZM5.44004 6.24C5.28004 6.32 5.08004 6.36 4.88004 6.36C4.84004 6.36 4.84004 6.36 4.80004 6.36C4.76004 6.36 4.76004 6.36 4.72004 6.36C4.52004 6.36 4.36004 6.32 4.16004 6.24V5.68C4.32004 5.6 4.52004 5.56 4.72004 5.56C4.76004 5.56 4.76004 5.56 4.80004 5.56C4.84004 5.56 4.84004 5.56 4.88004 5.56C5.08004 5.56 5.24004 5.6 5.44004 5.68V6.24ZM4.76004 6.48V6.92C4.56004 6.92 4.36004 6.96 4.16004 7.04C3.96004 6.96 3.76004 6.92 3.56004 6.92V6.48C3.76004 6.48 3.96004 6.44 4.16004 6.36C4.32004 6.44 4.56004 6.48 4.76004 6.48ZM4.08004 6.24C3.92004 6.32 3.72004 6.36 3.52004 6.36C3.48004 6.36 3.48004 6.36 3.44004 6.36C3.40004 6.36 3.40004 6.36 3.36004 6.36C3.16004 6.36 3.00004 6.32 2.80004 6.24V5.68C3.00004 5.6 3.20004 5.56 3.36004 5.56C3.40004 5.56 3.40004 5.56 3.44004 5.56C3.48004 5.56 3.48004 5.56 3.52004 5.56C3.72004 5.56 3.88004 5.6 4.08004 5.68V6.24ZM2.84004 7.16C3.00004 7.08 3.20004 7.04 3.40004 7.04C3.44004 7.04 3.44004 7.04 3.48004 7.04C3.52004 7.04 3.52004 7.04 3.56004 7.04C3.76004 7.04 3.92004 7.08 4.12004 7.16V7.72C3.96004 7.8 3.76004 7.84 3.56004 7.84C3.52004 7.84 3.52004 7.84 3.48004 7.84C3.44004 7.84 3.44004 7.84 3.40004 7.84C3.20004 7.84 3.04004 7.8 2.84004 7.72V7.16ZM3.52004 8C3.72004 8 3.92004 7.96 4.12004 7.88C4.32004 7.96 4.52004 8 4.72004 8V8.4C4.52004 8.4 4.32004 8.44 4.12004 8.52C3.92004 8.44 3.72004 8.4 3.52004 8.4V8ZM4.20004 8.64C4.36004 8.56 4.56004 8.52 4.76004 8.52C4.80004 8.52 4.80004 8.52 4.84004 8.52C4.88004 8.52 4.88004 8.52 4.92004 8.52C5.12004 8.52 5.28004 8.56 5.48004 8.64V9.2C5.32004 9.28 5.12004 9.32 4.92004 9.32C4.88004 9.32 4.88004 9.32 4.84004 9.32C4.80004 9.32 4.80004 9.32 4.76004 9.32C4.56004 9.32 4.40004 9.28 4.20004 9.2V8.64ZM4.88004 9.48C5.08004 9.48 5.28004 9.44 5.48004 9.36C5.68004 9.44 5.88004 9.48 6.08004 9.48V9.8H4.84004V9.48H4.88004ZM5.40004 10.2V10.48C5.20004 10.48 5.00004 10.52 4.80004 10.6C4.60004 10.52 4.40004 10.48 4.20004 10.48V10.2H5.40004ZM4.20004 10.64C4.40004 10.64 4.56004 10.68 4.76004 10.76V11.32C4.60004 11.4 4.40004 11.44 4.20004 11.44C4.16004 11.44 4.16004 11.44 4.12004 11.44C4.08004 11.44 4.08004 11.44 4.04004 11.44C3.84004 11.44 3.68004 11.4 3.48004 11.32V10.76C3.64004 10.68 3.84004 10.64 4.04004 10.64C4.08004 10.64 4.08004 10.64 4.12004 10.64C4.12004 10.64 4.16004 10.64 4.20004 10.64ZM4.04004 11.56V12C3.84004 12 3.64004 12.04 3.44004 12.12C3.24004 12.04 3.00004 12 2.80004 12V11.56C3.00004 11.56 3.20004 11.52 3.40004 11.44C3.64004 11.52 3.84004 11.56 4.04004 11.56ZM3.36004 12.24V12.8C3.20004 12.88 3.00004 12.92 2.80004 12.92C2.76004 12.92 2.76004 12.92 2.72004 12.92C2.68004 12.92 2.68004 12.92 2.64004 12.92C2.44004 12.92 2.28004 12.88 2.08004 12.8V12.24C2.24004 12.16 2.44004 12.12 2.64004 12.12C2.68004 12.12 2.68004 12.12 2.72004 12.12C2.76004 12.12 2.76004 12.12 2.80004 12.12C3.00004 12.12 3.16004 12.16 3.36004 12.24ZM2.72004 13.6C2.76004 13.6 2.80004 13.6 2.80004 13.6C3.00004 13.6 3.16004 13.64 3.36004 13.72V14.28C3.16004 14.36 3.00004 14.4 2.80004 14.4C2.76004 14.4 2.76004 14.4 2.72004 14.4C2.68004 14.4 2.68004 14.4 2.64004 14.4C2.44004 14.4 2.28004 14.36 2.08004 14.28V13.72C2.28004 13.64 2.48004 13.6 2.68004 13.6H2.72004ZM2.80004 13.48V13.04C3.00004 13.04 3.20004 13 3.40004 12.92C3.60004 13 3.80004 13.04 4.00004 13.04V13.48C3.80004 13.48 3.60004 13.52 3.40004 13.6C3.24004 13.52 3.00004 13.48 2.80004 13.48ZM3.48004 13.72C3.64004 13.64 3.84004 13.6 4.04004 13.6C4.08004 13.6 4.08004 13.6 4.12004 13.6C4.16004 13.6 4.16004 13.6 4.20004 13.6C4.40004 13.6 4.56004 13.64 4.76004 13.72V14.28C4.60004 14.36 4.40004 14.4 4.20004 14.4C4.16004 14.4 4.16004 14.4 4.12004 14.4C4.08004 14.4 4.08004 14.4 4.04004 14.4C3.84004 14.4 3.68004 14.36 3.48004 14.28V13.72ZM4.20004 13.48V13.04C4.40004 13.04 4.60004 13 4.80004 12.92C5.00004 13 5.20004 13.04 5.40004 13.04V13.48C5.20004 13.48 5.00004 13.52 4.80004 13.6C4.60004 13.52 4.40004 13.48 4.20004 13.48ZM4.88004 13.72C5.04004 13.64 5.24004 13.6 5.44004 13.6C5.48004 13.6 5.48004 13.6 5.52004 13.6C5.56004 13.6 5.56004 13.6 5.60004 13.6C5.80004 13.6 5.96004 13.64 6.16004 13.72V14.28C6.00004 14.36 5.80004 14.4 5.60004 14.4C5.56004 14.4 5.56004 14.4 5.52004 14.4C5.48004 14.4 5.48004 14.4 5.44004 14.4C5.24004 14.4 5.08004 14.36 4.88004 14.28V13.72ZM5.56004 13.48V13.04C5.76004 13.04 5.96004 13 6.16004 12.92C6.36004 13 6.56004 13.04 6.76004 13.04V13.48C6.56004 13.48 6.36004 13.52 6.16004 13.6C5.96004 13.52 5.76004 13.48 5.56004 13.48ZM6.24004 13.72C6.40004 13.64 6.60004 13.6 6.80004 13.6C6.84004 13.6 6.84004 13.6 6.88004 13.6C6.92004 13.6 6.92004 13.6 6.96004 13.6C7.16004 13.6 7.32004 13.64 7.52004 13.72V14.28C7.36004 14.36 7.16004 14.4 6.96004 14.4C6.92004 14.4 6.92004 14.4 6.88004 14.4C6.84004 14.4 6.84004 14.4 6.80004 14.4C6.60004 14.4 6.44004 14.36 6.24004 14.28V13.72ZM6.92004 13.48V13.04C7.12004 13.04 7.32004 13 7.52004 12.92C7.72004 13 7.92004 13.04 8.12004 13.04V13.48C7.92004 13.48 7.72004 13.52 7.52004 13.6C7.36004 13.52 7.12004 13.48 6.92004 13.48ZM7.60004 13.72C7.76004 13.64 7.96004 13.6 8.16004 13.6C8.20004 13.6 8.20004 13.6 8.24004 13.6C8.28004 13.6 8.28004 13.6 8.32004 13.6C8.52004 13.6 8.68004 13.64 8.88004 13.72V14.28C8.72004 14.36 8.52004 14.4 8.32004 14.4C8.28004 14.4 8.28004 14.4 8.24004 14.4C8.20004 14.4 8.20004 14.4 8.16004 14.4C7.96004 14.4 7.80004 14.36 7.60004 14.28V13.72ZM8.32004 13.48V13.04C8.52004 13.04 8.72004 13 8.92004 12.92C9.12004 13 9.32004 13.04 9.52004 13.04V13.48C9.32004 13.48 9.12004 13.52 8.92004 13.6C8.72004 13.52 8.52004 13.48 8.32004 13.48ZM9.00004 12.8V12.24C9.16004 12.16 9.36004 12.12 9.56004 12.12C9.60004 12.12 9.60004 12.12 9.64004 12.12C9.68004 12.12 9.68004 12.12 9.72004 12.12C9.92004 12.12 10.08 12.16 10.28 12.24V12.8C10.12 12.88 9.92004 12.92 9.72004 12.92C9.68004 12.92 9.68004 12.92 9.64004 12.92C9.60004 12.92 9.60004 12.92 9.56004 12.92C9.36004 12.92 9.16004 12.88 9.00004 12.8ZM9.68004 13.04C9.88004 13.04 10.04 13 10.24 12.96V13.6C10.08 13.56 9.88004 13.52 9.68004 13.52V13.04ZM10.64 12.92C10.8 12.96 11 13 11.2 13V13.44C11 13.44 10.84 13.48 10.64 13.52V12.92ZM10.64 12.8V12.24C10.8 12.16 11 12.12 11.2 12.12C11.24 12.12 11.24 12.12 11.28 12.12C11.32 12.12 11.32 12.12 11.36 12.12C11.56 12.12 11.72 12.16 11.92 12.24V12.8C11.76 12.88 11.56 12.92 11.36 12.92C11.32 12.92 11.32 12.92 11.28 12.92C11.24 12.92 11.24 12.92 11.2 12.92C11 12.92 10.8 12.88 10.64 12.8ZM11.32 13.04C11.52 13.04 11.72 13 11.92 12.92C12.12 13 12.32 13.04 12.52 13.04V13.48C12.32 13.48 12.12 13.52 11.92 13.6C11.72 13.52 11.52 13.48 11.32 13.48V13.04ZM12 13.72C12.16 13.64 12.36 13.6 12.56 13.6C12.6 13.6 12.6 13.6 12.64 13.6C12.68 13.6 12.68 13.6 12.72 13.6C12.92 13.6 13.08 13.64 13.28 13.72V14.28C13.12 14.36 12.92 14.4 12.72 14.4C12.68 14.4 12.68 14.4 12.64 14.4C12.6 14.4 12.6 14.4 12.56 14.4C12.36 14.4 12.2 14.36 12 14.28V13.72ZM12.68 13.48V13.04C12.88 13.04 13.08 13 13.28 12.92C13.48 13 13.68 13.04 13.88 13.04V13.48C13.68 13.48 13.48 13.52 13.28 13.6C13.12 13.52 12.88 13.48 12.68 13.48ZM13.36 13.72C13.52 13.64 13.72 13.6 13.92 13.6C13.96 13.6 13.96 13.6 14 13.6C14.04 13.6 14.04 13.6 14.08 13.6C14.28 13.6 14.44 13.64 14.64 13.72V14.28C14.48 14.36 14.28 14.4 14.08 14.4C14.04 14.4 14.04 14.4 14 14.4C13.96 14.4 13.96 14.4 13.92 14.4C13.72 14.4 13.56 14.36 13.36 14.28V13.72ZM14.08 13.48V13.04C14.28 13.04 14.48 13 14.68 12.92C14.88 13 15.08 13.04 15.28 13.04V13.48C15.08 13.48 14.88 13.52 14.68 13.6C14.48 13.52 14.28 13.48 14.08 13.48ZM14.76 13.72C14.92 13.64 15.12 13.6 15.32 13.6C15.36 13.6 15.36 13.6 15.4 13.6C15.44 13.6 15.44 13.6 15.48 13.6C15.68 13.6 15.84 13.64 16.04 13.72V14.28C15.88 14.36 15.68 14.4 15.48 14.4C15.44 14.4 15.44 14.4 15.4 14.4C15.36 14.4 15.36 14.4 15.32 14.4C15.12 14.4 14.96 14.36 14.76 14.28V13.72ZM15.44 13.48V13.04C15.64 13.04 15.84 13 16.04 12.92C16.24 13 16.44 13.04 16.64 13.04V13.48C16.44 13.48 16.24 13.52 16.04 13.6C15.84 13.52 15.64 13.48 15.44 13.48ZM16.12 13.72C16.28 13.64 16.48 13.6 16.68 13.6C16.72 13.6 16.72 13.6 16.76 13.6C16.8 13.6 16.8 13.6 16.84 13.6C17.04 13.6 17.2 13.64 17.4 13.72V14.28C17.16 14.36 17 14.4 16.8 14.4C16.76 14.4 16.76 14.4 16.72 14.4C16.68 14.4 16.68 14.4 16.64 14.4C16.44 14.4 16.28 14.36 16.08 14.28V13.72H16.12ZM16.8 13.48V13.04C17 13.04 17.2 13 17.4 12.92C17.6 13 17.8 13.04 18 13.04V13.48C17.8 13.48 17.6 13.52 17.4 13.6C17.24 13.52 17 13.48 16.8 13.48ZM17.48 13.72C17.64 13.64 17.84 13.6 18.04 13.6C18.08 13.6 18.08 13.6 18.12 13.6C18.16 13.6 18.16 13.6 18.2 13.6C18.4 13.6 18.56 13.64 18.76 13.72V14.28C18.6 14.36 18.4 14.4 18.2 14.4C18.16 14.4 18.16 14.4 18.12 14.4C18.08 14.4 18.08 14.4 18.04 14.4C17.84 14.4 17.68 14.36 17.48 14.28V13.72ZM18.12 12.92C18.08 12.92 18.08 12.92 18.04 12.92C17.84 12.92 17.68 12.88 17.48 12.8V12.24C17.64 12.16 17.84 12.12 18.04 12.12C18.08 12.12 18.08 12.12 18.12 12.12C18.16 12.12 18.16 12.12 18.2 12.12C18.4 12.12 18.56 12.16 18.76 12.24V12.8C18.6 12.88 18.4 12.92 18.2 12.92C18.16 12.92 18.12 12.92 18.12 12.92ZM18.04 12C17.84 12 17.64 12.04 17.44 12.12C17.24 12.04 17.04 12 16.84 12V11.56C17.04 11.56 17.24 11.52 17.44 11.44C17.64 11.52 17.84 11.56 18.04 11.56V12ZM17.36 11.32C17.2 11.4 17 11.44 16.8 11.44C16.76 11.44 16.76 11.44 16.72 11.44C16.68 11.44 16.68 11.44 16.64 11.44C16.44 11.44 16.28 11.4 16.08 11.32V10.76C16.24 10.68 16.44 10.64 16.64 10.64C16.68 10.64 16.68 10.64 16.72 10.64C16.76 10.64 16.76 10.64 16.8 10.64C17 10.64 17.16 10.68 17.36 10.76V11.32ZM16.68 10.48C16.48 10.48 16.28 10.52 16.08 10.6C15.88 10.52 15.68 10.48 15.48 10.48V10.2H16.72V10.48H16.68ZM16.12 9.8V9.48C16.32 9.48 16.52 9.44 16.72 9.36C16.92 9.44 17.12 9.48 17.32 9.48V9.8H16.12ZM17.36 9.32C17.16 9.32 17 9.28 16.8 9.2V8.64C16.96 8.56 17.16 8.52 17.36 8.52C17.4 8.52 17.4 8.52 17.44 8.52C17.48 8.52 17.48 8.52 17.52 8.52C17.72 8.52 17.88 8.56 18.08 8.64V9.2C17.92 9.28 17.72 9.32 17.52 9.32C17.48 9.32 17.48 9.32 17.44 9.32C17.44 9.36 17.4 9.36 17.36 9.32ZM17.52 8.4V8C17.72 8 17.92 7.96 18.12 7.88C18.32 7.96 18.52 8 18.72 8V8.4C18.52 8.4 18.32 8.44 18.12 8.52C17.92 8.48 17.72 8.44 17.52 8.4ZM17.52 6.92V6.48C17.72 6.48 17.92 6.44 18.12 6.36C18.32 6.44 18.52 6.48 18.72 6.48V6.92C18.52 6.92 18.32 6.96 18.12 7.04C17.92 6.96 17.72 6.92 17.52 6.92ZM18.2 6.24V5.68C18.36 5.6 18.56 5.56 18.76 5.56C18.8 5.56 18.8 5.56 18.84 5.56C18.88 5.56 18.88 5.56 18.92 5.56C19.12 5.56 19.28 5.6 19.48 5.68V6.24C19.32 6.32 19.12 6.36 18.92 6.36C18.88 6.36 18.88 6.36 18.84 6.36C18.8 6.36 18.8 6.36 18.76 6.36C18.56 6.36 18.36 6.32 18.2 6.24ZM18.8 4.88C18.76 4.88 18.76 4.88 18.72 4.88C18.52 4.88 18.36 4.84 18.16 4.76V4.2C18.32 4.12 18.52 4.08 18.72 4.08C18.76 4.08 18.76 4.08 18.8 4.08C18.84 4.08 18.84 4.08 18.88 4.08C19.08 4.08 19.24 4.12 19.44 4.2V4.76C19.28 4.84 19.08 4.88 18.88 4.88C18.88 4.88 18.84 4.88 18.8 4.88ZM18.76 5V5.44C18.56 5.44 18.36 5.48 18.16 5.56C17.96 5.48 17.76 5.44 17.56 5.44V5C17.76 5 17.96 4.96 18.16 4.88C18.32 4.96 18.52 5 18.76 5ZM18.08 4.76C17.92 4.84 17.72 4.88 17.52 4.88C17.48 4.88 17.48 4.88 17.44 4.88C17.4 4.88 17.4 4.88 17.36 4.88C17.16 4.88 17 4.84 16.8 4.76V4.2C16.96 4.12 17.16 4.08 17.36 4.08C17.4 4.08 17.4 4.08 17.44 4.08C17.48 4.08 17.48 4.08 17.52 4.08C17.72 4.08 17.88 4.12 18.08 4.2V4.76ZM17.36 5V5.44C17.16 5.44 16.96 5.48 16.76 5.56C16.56 5.48 16.36 5.44 16.16 5.44V5C16.36 5 16.56 4.96 16.76 4.88C16.96 4.96 17.16 5 17.36 5ZM16.68 4.76C16.52 4.84 16.32 4.88 16.12 4.88C16.08 4.88 16.08 4.88 16.04 4.88C16 4.88 16 4.88 15.96 4.88C15.76 4.88 15.6 4.84 15.4 4.76V4.2C15.56 4.12 15.76 4.08 15.96 4.08C16 4.08 16 4.08 16.04 4.08C16.08 4.08 16.08 4.08 16.12 4.08C16.32 4.08 16.48 4.12 16.68 4.2V4.76ZM16 5V5.44C15.8 5.44 15.6 5.48 15.4 5.56C15.2 5.48 15 5.44 14.8 5.44V5C15 5 15.2 4.96 15.4 4.88C15.6 4.96 15.8 5 16 5ZM15.32 4.76C15.16 4.84 14.96 4.88 14.76 4.88C14.72 4.88 14.72 4.88 14.68 4.88C14.64 4.88 14.64 4.88 14.6 4.88C14.4 4.88 14.24 4.84 14.04 4.76V4.2C14.2 4.12 14.4 4.08 14.6 4.08C14.64 4.08 14.64 4.08 14.68 4.08C14.72 4.08 14.72 4.08 14.76 4.08C14.96 4.08 15.12 4.12 15.32 4.2V4.76ZM14.64 5V5.44C14.44 5.44 14.24 5.48 14.04 5.56C13.84 5.48 13.64 5.44 13.44 5.44V5C13.64 5 13.84 4.96 14.04 4.88C14.2 4.96 14.44 5 14.64 5ZM13.96 4.76C13.8 4.84 13.6 4.88 13.4 4.88C13.36 4.88 13.36 4.88 13.32 4.88C13.28 4.88 13.28 4.88 13.24 4.88C13.04 4.88 12.88 4.84 12.68 4.76V4.2C12.84 4.12 13.04 4.08 13.24 4.08C13.28 4.08 13.28 4.08 13.32 4.08C13.36 4.08 13.36 4.08 13.4 4.08C13.6 4.08 13.76 4.12 13.96 4.2V4.76ZM13.24 5V5.44C13.04 5.44 12.84 5.48 12.64 5.56C12.44 5.48 12.24 5.44 12.04 5.44V5C12.24 5 12.44 4.96 12.64 4.88C12.84 4.96 13.04 5 13.24 5ZM12.56 4.76C12.4 4.84 12.2 4.88 12 4.88C11.96 4.88 11.96 4.88 11.92 4.88C11.88 4.88 11.88 4.88 11.84 4.88C11.64 4.88 11.48 4.84 11.28 4.76V4.2C11.44 4.12 11.64 4.08 11.84 4.08C11.88 4.08 11.88 4.08 11.92 4.08C11.96 4.08 11.96 4.08 12 4.08C12.2 4.08 12.36 4.12 12.56 4.2V4.76ZM11.88 5V5.44C11.68 5.44 11.48 5.48 11.28 5.56C11.08 5.48 10.88 5.44 10.68 5.44V5C10.88 5 11.08 4.96 11.28 4.88C11.48 4.96 11.68 5 11.88 5ZM11.2 4.76C11.04 4.84 10.84 4.88 10.64 4.88V4.08C10.84 4.08 11 4.12 11.2 4.2V4.76ZM10.2 4.88C10.04 4.88 9.84004 4.84 9.68004 4.76V4.2C9.84004 4.12 10.04 4.12 10.2 4.08V4.88ZM10.2 5V5.44C10 5.44 9.80004 5.48 9.60004 5.56C9.40004 5.48 9.20004 5.44 9.00004 5.44V5C9.20004 5 9.40004 4.96 9.60004 4.88C9.80004 4.96 10 5 10.2 5ZM9.56004 4.76C9.40004 4.84 9.20004 4.88 9.00004 4.88C8.96004 4.88 8.96004 4.88 8.92004 4.88C8.88004 4.88 8.88004 4.88 8.84004 4.88C8.64004 4.88 8.48004 4.84 8.28004 4.76V4.2C8.44004 4.12 8.64004 4.08 8.84004 4.08C8.88004 4.08 8.88004 4.08 8.92004 4.08C8.96004 4.08 8.96004 4.08 9.00004 4.08C9.20004 4.08 9.36004 4.12 9.56004 4.2V4.76ZM8.88004 5V5.44C8.68004 5.44 8.48004 5.48 8.28004 5.56C8.08004 5.48 7.88004 5.44 7.68004 5.44V5C7.88004 5 8.08004 4.96 8.28004 4.88C8.44004 4.96 8.64004 5 8.88004 5ZM8.20004 4.76C8.04004 4.84 7.84004 4.88 7.64004 4.88C7.60004 4.88 7.60004 4.88 7.56004 4.88C7.52004 4.88 7.52004 4.88 7.48004 4.88C7.28004 4.88 7.12004 4.84 6.92004 4.76V4.2C7.08004 4.12 7.28004 4.08 7.48004 4.08C7.52004 4.08 7.52004 4.08 7.56004 4.08C7.60004 4.08 7.60004 4.08 7.64004 4.08C7.84004 4.08 8.00004 4.12 8.20004 4.2V4.76ZM7.48004 5V5.44C7.28004 5.44 7.08004 5.48 6.88004 5.56C6.68004 5.48 6.48004 5.44 6.28004 5.44V5C6.48004 5 6.68004 4.96 6.88004 4.88C7.08004 4.96 7.28004 5 7.48004 5ZM6.80004 4.76C6.64004 4.84 6.44004 4.88 6.24004 4.88C6.20004 4.88 6.20004 4.88 6.16004 4.88C6.12004 4.88 6.12004 4.88 6.08004 4.88C5.88004 4.88 5.72004 4.84 5.52004 4.76V4.2C5.68004 4.12 5.88004 4.08 6.08004 4.08C6.12004 4.08 6.12004 4.08 6.16004 4.08C6.20004 4.08 6.20004 4.08 6.24004 4.08C6.44004 4.08 6.60004 4.12 6.80004 4.2V4.76ZM6.12004 5V5.44C5.92004 5.44 5.72004 5.48 5.52004 5.56C5.32004 5.48 5.12004 5.44 4.92004 5.44V5C5.12004 5 5.32004 4.96 5.52004 4.88C5.72004 4.96 5.92004 5 6.12004 5ZM5.44004 4.76C5.28004 4.84 5.08004 4.88 4.88004 4.88C4.84004 4.88 4.84004 4.88 4.80004 4.88C4.76004 4.88 4.76004 4.88 4.72004 4.88C4.52004 4.88 4.36004 4.84 4.16004 4.76V4.2C4.32004 4.12 4.52004 4.08 4.72004 4.08C4.76004 4.08 4.76004 4.08 4.80004 4.08C4.84004 4.08 4.84004 4.08 4.88004 4.08C5.08004 4.08 5.24004 4.12 5.44004 4.2V4.76ZM4.76004 5V5.44C4.56004 5.44 4.36004 5.48 4.16004 5.56C3.96004 5.48 3.76004 5.44 3.56004 5.44V5C3.76004 5 3.96004 4.96 4.16004 4.88C4.32004 4.96 4.56004 5 4.76004 5ZM4.08004 4.76C3.92004 4.84 3.72004 4.88 3.52004 4.88C3.48004 4.88 3.48004 4.88 3.44004 4.88C3.40004 4.88 3.40004 4.88 3.36004 4.88C3.16004 4.88 3.00004 4.84 2.80004 4.76V4.2C2.96004 4.12 3.16004 4.08 3.36004 4.08C3.40004 4.08 3.40004 4.08 3.44004 4.08C3.48004 4.08 3.48004 4.08 3.52004 4.08C3.72004 4.08 3.88004 4.12 4.08004 4.2V4.76ZM3.36004 5V5.44C3.16004 5.44 2.96004 5.48 2.76004 5.56C2.56004 5.48 2.36004 5.44 2.16004 5.44V5C2.36004 5 2.56004 4.96 2.76004 4.88C2.96004 4.96 3.16004 5 3.36004 5ZM2.68004 4.76C2.52004 4.84 2.32004 4.88 2.12004 4.88C2.08004 4.88 2.08004 4.88 2.04004 4.88C2.00004 4.88 2.00004 4.88 1.96004 4.88C1.76004 4.88 1.60004 4.84 1.40004 4.76V4.2C1.56004 4.12 1.76004 4.08 1.96004 4.08C2.00004 4.08 2.00004 4.08 2.04004 4.08C2.08004 4.08 2.08004 4.08 2.12004 4.08C2.32004 4.08 2.48004 4.12 2.68004 4.2V4.76ZM2.00004 5V5.44C1.80004 5.44 1.60004 5.48 1.40004 5.56C1.20004 5.48 1.00004 5.44 0.800039 5.44V5C1.00004 5 1.20004 4.96 1.40004 4.88C1.60004 4.96 1.80004 5 2.00004 5ZM2.00004 6.48V6.92C1.80004 6.92 1.60004 6.96 1.40004 7.04C1.20004 6.96 1.00004 6.92 0.800039 6.92V6.48C1.00004 6.48 1.20004 6.44 1.40004 6.36C1.60004 6.44 1.80004 6.48 2.00004 6.48ZM1.44004 7.16C1.60004 7.08 1.80004 7.04 2.00004 7.04C2.04004 7.04 2.04004 7.04 2.08004 7.04C2.12004 7.04 2.12004 7.04 2.16004 7.04C2.36004 7.04 2.52004 7.08 2.72004 7.16V7.72C2.56004 7.8 2.36004 7.84 2.16004 7.84C2.12004 7.84 2.12004 7.84 2.08004 7.84C2.04004 7.84 2.04004 7.84 2.00004 7.84C1.80004 7.84 1.64004 7.8 1.44004 7.72V7.16ZM2.16004 8C2.36004 8 2.56004 7.96 2.76004 7.88C2.96004 7.96 3.16004 8 3.36004 8V8.4C3.16004 8.4 2.96004 8.44 2.76004 8.52C2.56004 8.44 2.36004 8.4 2.16004 8.4V8ZM2.84004 8.64C3.00004 8.56 3.20004 8.52 3.40004 8.52C3.44004 8.52 3.44004 8.52 3.48004 8.52C3.52004 8.52 3.52004 8.52 3.56004 8.52C3.76004 8.52 3.92004 8.56 4.12004 8.64V9.2C3.96004 9.28 3.76004 9.32 3.56004 9.32C3.52004 9.32 3.52004 9.32 3.48004 9.32C3.44004 9.32 3.44004 9.32 3.40004 9.32C3.20004 9.32 3.04004 9.28 2.84004 9.2V8.64ZM3.52004 9.48C3.72004 9.48 3.92004 9.44 4.12004 9.36C4.32004 9.44 4.52004 9.48 4.72004 9.48V9.8H3.52004V9.48ZM4.04004 10.2V10.48C3.84004 10.48 3.64004 10.52 3.44004 10.6C3.24004 10.52 3.04004 10.48 2.84004 10.48V10.2H4.04004ZM2.80004 10.64C3.00004 10.64 3.16004 10.68 3.36004 10.76V11.32C3.20004 11.4 3.00004 11.44 2.80004 11.44C2.76004 11.44 2.76004 11.44 2.72004 11.44C2.68004 11.44 2.68004 11.44 2.64004 11.44C2.44004 11.44 2.28004 11.4 2.08004 11.32V10.76C2.24004 10.68 2.44004 10.64 2.64004 10.64C2.68004 10.64 2.68004 10.64 2.72004 10.64C2.76004 10.64 2.80004 10.64 2.80004 10.64ZM2.68004 11.56V12C2.48004 12 2.28004 12.04 2.08004 12.12C1.88004 12.04 1.68004 12 1.48004 12V11.56C1.68004 11.56 1.88004 11.52 2.08004 11.44C2.24004 11.52 2.48004 11.56 2.68004 11.56ZM2.68004 13.04V13.48C2.48004 13.48 2.28004 13.52 2.08004 13.6C1.88004 13.52 1.68004 13.48 1.48004 13.48V13.04C1.68004 13.04 1.88004 13 2.08004 12.92C2.24004 13 2.48004 13.04 2.68004 13.04ZM2.68004 14.52V14.96C2.48004 14.96 2.28004 15 2.08004 15.08C1.88004 15 1.68004 14.96 1.48004 14.96V14.52C1.68004 14.52 1.88004 14.48 2.08004 14.4C2.24004 14.48 2.48004 14.52 2.68004 14.52ZM2.12004 15.2C2.28004 15.12 2.48004 15.08 2.68004 15.08C2.72004 15.08 2.72004 15.08 2.76004 15.08C2.80004 15.08 2.80004 15.08 2.84004 15.08C3.04004 15.08 3.20004 15.12 3.40004 15.2V15.76C3.24004 15.84 3.04004 15.88 2.84004 15.88C2.80004 15.88 2.80004 15.88 2.76004 15.88C2.72004 15.88 2.72004 15.88 2.68004 15.88C2.48004 15.88 2.32004 15.84 2.12004 15.76V15.2ZM2.80004 14.96V14.52C3.00004 14.52 3.20004 14.48 3.40004 14.4C3.60004 14.48 3.80004 14.52 4.00004 14.52V14.96C3.80004 14.96 3.60004 15 3.40004 15.08C3.24004 15 3.00004 14.96 2.80004 14.96ZM3.48004 15.2C3.64004 15.12 3.84004 15.08 4.04004 15.08C4.08004 15.08 4.08004 15.08 4.12004 15.08C4.16004 15.08 4.16004 15.08 4.20004 15.08C4.40004 15.08 4.56004 15.12 4.76004 15.2V15.76C4.60004 15.84 4.40004 15.88 4.20004 15.88C4.16004 15.88 4.16004 15.88 4.12004 15.88C4.08004 15.88 4.08004 15.88 4.04004 15.88C3.84004 15.88 3.68004 15.84 3.48004 15.76V15.2ZM4.20004 14.96V14.52C4.40004 14.52 4.60004 14.48 4.80004 14.4C5.00004 14.48 5.20004 14.52 5.40004 14.52V14.96C5.20004 14.96 5.00004 15 4.80004 15.08C4.60004 15 4.40004 14.96 4.20004 14.96ZM4.88004 15.2C5.04004 15.12 5.24004 15.08 5.44004 15.08C5.48004 15.08 5.48004 15.08 5.52004 15.08C5.56004 15.08 5.56004 15.08 5.60004 15.08C5.80004 15.08 5.96004 15.12 6.16004 15.2V15.76C6.00004 15.84 5.80004 15.88 5.60004 15.88C5.56004 15.88 5.56004 15.88 5.52004 15.88C5.48004 15.88 5.48004 15.88 5.44004 15.88C5.24004 15.88 5.08004 15.84 4.88004 15.76V15.2ZM5.56004 14.96V14.52C5.76004 14.52 5.96004 14.48 6.16004 14.4C6.36004 14.48 6.56004 14.52 6.76004 14.52V14.96C6.56004 14.96 6.36004 15 6.16004 15.08C5.96004 15 5.76004 14.96 5.56004 14.96ZM6.24004 15.2C6.40004 15.12 6.60004 15.08 6.80004 15.08C6.84004 15.08 6.84004 15.08 6.88004 15.08C6.92004 15.08 6.92004 15.08 6.96004 15.08C7.16004 15.08 7.32004 15.12 7.52004 15.2V15.76C7.36004 15.84 7.16004 15.88 6.96004 15.88C6.92004 15.88 6.92004 15.88 6.88004 15.88C6.84004 15.88 6.84004 15.88 6.80004 15.88C6.60004 15.88 6.44004 15.84 6.24004 15.76V15.2ZM6.92004 14.96V14.52C7.12004 14.52 7.32004 14.48 7.52004 14.4C7.72004 14.48 7.92004 14.52 8.12004 14.52V14.96C7.92004 14.96 7.72004 15 7.52004 15.08C7.36004 15 7.12004 14.96 6.92004 14.96ZM7.60004 15.2C7.76004 15.12 7.96004 15.08 8.16004 15.08C8.20004 15.08 8.20004 15.08 8.24004 15.08C8.28004 15.08 8.28004 15.08 8.32004 15.08C8.52004 15.08 8.68004 15.12 8.88004 15.2V15.76C8.72004 15.84 8.52004 15.88 8.32004 15.88C8.28004 15.88 8.28004 15.88 8.24004 15.88C8.20004 15.88 8.20004 15.88 8.16004 15.88C7.96004 15.88 7.80004 15.84 7.60004 15.76V15.2ZM8.32004 14.96V14.52C8.52004 14.52 8.72004 14.48 8.92004 14.4C9.12004 14.48 9.32004 14.52 9.52004 14.52V14.96C9.32004 14.96 9.12004 15 8.92004 15.08C8.72004 15 8.52004 14.96 8.32004 14.96ZM9.00004 14.28V13.72C9.16004 13.64 9.36004 13.6 9.56004 13.6C9.60004 13.6 9.60004 13.6 9.64004 13.6C9.68004 13.6 9.68004 13.6 9.72004 13.6C9.92004 13.6 10.08 13.64 10.28 13.72V14.28C10.12 14.36 9.92004 14.4 9.72004 14.4C9.68004 14.4 9.68004 14.4 9.64004 14.4C9.60004 14.4 9.60004 14.4 9.56004 14.4C9.36004 14.4 9.16004 14.36 9.00004 14.28ZM9.68004 14.52C9.88004 14.52 10.04 14.48 10.24 14.4V15.04C10.08 15 9.88004 14.96 9.68004 14.96V14.52ZM10.64 14.44C10.8 14.48 11 14.52 11.2 14.56V15C11 15 10.84 15.04 10.64 15.08V14.44ZM10.64 14.28V13.72C10.8 13.64 11 13.6 11.2 13.6C11.24 13.6 11.24 13.6 11.28 13.6C11.32 13.6 11.32 13.6 11.36 13.6C11.56 13.6 11.72 13.64 11.92 13.72V14.28C11.76 14.36 11.56 14.4 11.36 14.4C11.32 14.4 11.32 14.4 11.28 14.4C11.24 14.4 11.24 14.4 11.2 14.4C11 14.4 10.8 14.36 10.64 14.28ZM11.32 14.52C11.52 14.52 11.72 14.48 11.92 14.4C12.12 14.48 12.32 14.52 12.52 14.52V14.96C12.32 14.96 12.12 15 11.92 15.08C11.72 15 11.52 14.96 11.32 14.96V14.52ZM12 15.2C12.16 15.12 12.36 15.08 12.56 15.08C12.6 15.08 12.6 15.08 12.64 15.08C12.68 15.08 12.68 15.08 12.72 15.08C12.92 15.08 13.08 15.12 13.28 15.2V15.76C13.12 15.84 12.92 15.88 12.72 15.88C12.68 15.88 12.68 15.88 12.64 15.88C12.6 15.88 12.6 15.88 12.56 15.88C12.36 15.88 12.2 15.84 12 15.76V15.2ZM12.68 14.96V14.52C12.88 14.52 13.08 14.48 13.28 14.4C13.48 14.48 13.68 14.52 13.88 14.52V14.96C13.68 14.96 13.48 15 13.28 15.08C13.12 15 12.88 14.96 12.68 14.96ZM13.36 15.2C13.52 15.12 13.72 15.08 13.92 15.08C13.96 15.08 13.96 15.08 14 15.08C14.04 15.08 14.04 15.08 14.08 15.08C14.28 15.08 14.44 15.12 14.64 15.2V15.76C14.48 15.84 14.28 15.88 14.08 15.88C14.04 15.88 14.04 15.88 14 15.88C13.96 15.88 13.96 15.88 13.92 15.88C13.72 15.88 13.56 15.84 13.36 15.76V15.2ZM14.08 14.96V14.52C14.28 14.52 14.48 14.48 14.68 14.4C14.88 14.48 15.08 14.52 15.28 14.52V14.96C15.08 14.96 14.88 15 14.68 15.08C14.48 15 14.28 14.96 14.08 14.96ZM14.76 15.2C14.92 15.12 15.12 15.08 15.32 15.08C15.36 15.08 15.36 15.08 15.4 15.08C15.44 15.08 15.44 15.08 15.48 15.08C15.68 15.08 15.84 15.12 16.04 15.2V15.76C15.88 15.84 15.68 15.88 15.48 15.88C15.44 15.88 15.44 15.88 15.4 15.88C15.36 15.88 15.36 15.88 15.32 15.88C15.12 15.88 14.96 15.84 14.76 15.76V15.2ZM15.44 14.96V14.52C15.64 14.52 15.84 14.48 16.04 14.4C16.24 14.48 16.44 14.52 16.64 14.52V14.96C16.44 14.96 16.24 15 16.04 15.08C15.84 15 15.64 14.96 15.44 14.96ZM16.12 15.2C16.28 15.12 16.48 15.08 16.68 15.08C16.72 15.08 16.72 15.08 16.76 15.08C16.8 15.08 16.8 15.08 16.84 15.08C17.04 15.08 17.2 15.12 17.4 15.2V15.76C17.24 15.84 17.04 15.88 16.84 15.88C16.8 15.88 16.8 15.88 16.76 15.88C16.72 15.88 16.72 15.88 16.68 15.88C16.48 15.88 16.32 15.84 16.12 15.76V15.2ZM16.8 14.96V14.52C17 14.52 17.2 14.48 17.4 14.4C17.6 14.48 17.8 14.52 18 14.52V14.96C17.8 14.96 17.6 15 17.4 15.08C17.24 15 17 14.96 16.8 14.96ZM17.48 15.2C17.64 15.12 17.84 15.08 18.04 15.08C18.08 15.08 18.08 15.08 18.12 15.08C18.16 15.08 18.16 15.08 18.2 15.08C18.4 15.08 18.56 15.12 18.76 15.2V15.76C18.6 15.84 18.4 15.88 18.2 15.88C18.16 15.88 18.16 15.88 18.12 15.88C18.08 15.88 18.08 15.88 18.04 15.88C17.84 15.88 17.68 15.84 17.48 15.76V15.2ZM18.2 14.96V14.52C18.4 14.52 18.6 14.48 18.8 14.4C19 14.48 19.2 14.52 19.4 14.52V14.96C19.2 14.96 19 15 18.8 15.08C18.6 15 18.4 14.96 18.2 14.96ZM18.2 13.48V13.04C18.4 13.04 18.6 13 18.8 12.92C19 13 19.2 13.04 19.4 13.04V13.48C19.2 13.48 19 13.52 18.8 13.6C18.6 13.52 18.4 13.48 18.2 13.48ZM18.2 12V11.56C18.4 11.56 18.6 11.52 18.8 11.44C19 11.52 19.2 11.56 19.4 11.56V12C19.2 12 19 12.04 18.8 12.12C18.6 12.04 18.4 12 18.2 12ZM18.72 11.32C18.56 11.4 18.36 11.44 18.16 11.44C18.12 11.44 18.12 11.44 18.08 11.44C18.04 11.44 18.04 11.44 18 11.44C17.8 11.44 17.64 11.4 17.44 11.32V10.76C17.6 10.68 17.8 10.64 18 10.64C18.04 10.64 18.04 10.64 18.08 10.64C18.12 10.64 18.12 10.64 18.16 10.64C18.36 10.64 18.52 10.68 18.72 10.76V11.32ZM18.04 10.48C17.84 10.48 17.64 10.52 17.44 10.6C17.24 10.52 17.04 10.48 16.84 10.48V10.2H18.08V10.48H18.04ZM17.52 9.8V9.48C17.72 9.48 17.92 9.44 18.12 9.36C18.32 9.44 18.52 9.48 18.72 9.48V9.8H17.52ZM18.76 9.32C18.56 9.32 18.4 9.28 18.2 9.2V8.64C18.36 8.56 18.56 8.52 18.76 8.52C18.8 8.52 18.8 8.52 18.84 8.52C18.88 8.52 18.88 8.52 18.92 8.52C19.12 8.52 19.28 8.56 19.48 8.64V9.2C19.32 9.28 19.12 9.32 18.92 9.32C18.88 9.32 18.88 9.32 18.84 9.32C18.8 9.36 18.76 9.36 18.76 9.32ZM18.8 7.84C18.76 7.84 18.76 7.84 18.72 7.84C18.52 7.84 18.36 7.8 18.16 7.72V7.16C18.32 7.08 18.52 7.04 18.72 7.04C18.76 7.04 18.76 7.04 18.8 7.04C18.84 7.04 18.84 7.04 18.88 7.04C19.08 7.04 19.24 7.08 19.44 7.16V7.72C19.28 7.8 19.08 7.84 18.88 7.84C18.88 7.84 18.84 7.84 18.8 7.84ZM19.56 6.24V5.68C19.72 5.6 19.92 5.6 20.08 5.56V6.36C19.92 6.36 19.76 6.32 19.56 6.24ZM19.52 5.56C19.32 5.48 19.12 5.44 18.92 5.44V5C19.12 5 19.32 4.96 19.52 4.88C19.72 4.96 19.92 5 20.12 5V5.44C19.88 5.44 19.68 5.48 19.52 5.56ZM19.56 4.76V4.2C19.72 4.12 19.92 4.12 20.08 4.08V4.88C19.92 4.88 19.76 4.84 19.56 4.76ZM19.44 3.28C19.28 3.36 19.08 3.4 18.88 3.4C18.84 3.4 18.84 3.4 18.8 3.4C18.76 3.4 18.76 3.4 18.72 3.4C18.52 3.4 18.36 3.36 18.16 3.28V2.72C18.32 2.64 18.52 2.6 18.72 2.6C18.76 2.6 18.76 2.6 18.8 2.6C18.84 2.6 18.84 2.6 18.88 2.6C19.08 2.6 19.24 2.64 19.44 2.72V3.28ZM18.76 3.52V3.96C18.56 3.96 18.36 4 18.16 4.08C17.96 4 17.76 3.96 17.56 3.96V3.52C17.76 3.52 17.96 3.48 18.16 3.4C18.32 3.48 18.52 3.52 18.76 3.52ZM18.08 3.28C17.92 3.36 17.72 3.4 17.52 3.4C17.48 3.4 17.48 3.4 17.44 3.4C17.4 3.4 17.4 3.4 17.36 3.4C17.16 3.4 17 3.36 16.8 3.28V2.72C16.96 2.64 17.16 2.6 17.36 2.6C17.4 2.6 17.4 2.6 17.44 2.6C17.48 2.6 17.48 2.6 17.52 2.6C17.72 2.6 17.88 2.64 18.08 2.72V3.28ZM17.36 3.52V3.96C17.16 3.96 16.96 4 16.76 4.08C16.56 4 16.36 3.96 16.16 3.96V3.52C16.36 3.52 16.56 3.48 16.76 3.4C16.96 3.48 17.16 3.52 17.36 3.52ZM16.68 3.28C16.52 3.36 16.32 3.4 16.12 3.4C16.08 3.4 16.08 3.4 16.04 3.4C16 3.4 16 3.4 15.96 3.4C15.76 3.4 15.6 3.36 15.4 3.28V2.72C15.56 2.64 15.76 2.6 15.96 2.6C16 2.6 16 2.6 16.04 2.6C16.08 2.6 16.08 2.6 16.12 2.6C16.32 2.6 16.48 2.64 16.68 2.72V3.28ZM16 3.52V3.96C15.8 3.96 15.6 4 15.4 4.08C15.2 4 15 3.96 14.8 3.96V3.52C15 3.52 15.2 3.48 15.4 3.4C15.6 3.48 15.8 3.52 16 3.52ZM15.32 3.28C15.16 3.36 14.96 3.4 14.76 3.4C14.72 3.4 14.72 3.4 14.68 3.4C14.64 3.4 14.64 3.4 14.6 3.4C14.4 3.4 14.24 3.36 14.04 3.28V2.72C14.2 2.64 14.4 2.6 14.6 2.6C14.64 2.6 14.64 2.6 14.68 2.6C14.72 2.6 14.72 2.6 14.76 2.6C14.96 2.6 15.12 2.64 15.32 2.72V3.28ZM14.64 3.52V3.96C14.44 3.96 14.24 4 14.04 4.08C13.84 4 13.64 3.96 13.44 3.96V3.52C13.64 3.52 13.84 3.48 14.04 3.4C14.2 3.48 14.44 3.52 14.64 3.52ZM13.96 3.28C13.8 3.36 13.6 3.4 13.4 3.4C13.36 3.4 13.36 3.4 13.32 3.4C13.28 3.4 13.28 3.4 13.24 3.4C13.04 3.4 12.88 3.36 12.68 3.28V2.72C12.84 2.64 13.04 2.6 13.24 2.6C13.28 2.6 13.28 2.6 13.32 2.6C13.36 2.6 13.36 2.6 13.4 2.6C13.6 2.6 13.76 2.64 13.96 2.72V3.28ZM13.24 3.52V3.96C13.04 3.96 12.84 4 12.64 4.08C12.44 4 12.24 3.96 12.04 3.96V3.52C12.24 3.52 12.44 3.48 12.64 3.4C12.84 3.48 13.04 3.52 13.24 3.52ZM12.56 3.28C12.4 3.36 12.2 3.4 12 3.4C11.96 3.4 11.96 3.4 11.92 3.4C11.88 3.4 11.88 3.4 11.84 3.4C11.64 3.4 11.48 3.36 11.28 3.28V2.72C11.44 2.64 11.64 2.6 11.84 2.6C11.88 2.6 11.88 2.6 11.92 2.6C11.96 2.6 11.96 2.6 12 2.6C12.2 2.6 12.36 2.64 12.56 2.72V3.28ZM11.88 3.52V3.96C11.68 3.96 11.48 4 11.28 4.08C11.08 4 10.88 3.96 10.68 3.96V3.52C10.88 3.52 11.08 3.48 11.28 3.4C11.48 3.48 11.68 3.52 11.88 3.52ZM11.2 3.28C11.04 3.36 10.84 3.4 10.64 3.4V2.6C10.84 2.6 11 2.64 11.2 2.72V3.28ZM10.2 3.4C10.04 3.4 9.84004 3.36 9.68004 3.28V2.72C9.84004 2.64 10.04 2.64 10.2 2.6V3.4ZM10.2 3.52V3.96C10 3.96 9.80004 4 9.60004 4.08C9.40004 4 9.20004 3.96 9.00004 3.96V3.52C9.20004 3.52 9.40004 3.48 9.60004 3.4C9.80004 3.48 10 3.52 10.2 3.52ZM9.56004 3.28C9.40004 3.36 9.20004 3.4 9.00004 3.4C8.96004 3.4 8.96004 3.4 8.92004 3.4C8.88004 3.4 8.88004 3.4 8.84004 3.4C8.64004 3.4 8.48004 3.36 8.28004 3.28V2.72C8.44004 2.64 8.64004 2.6 8.84004 2.6C8.88004 2.6 8.88004 2.6 8.92004 2.6C8.96004 2.6 8.96004 2.6 9.00004 2.6C9.20004 2.6 9.36004 2.64 9.56004 2.72V3.28ZM8.88004 3.52V3.96C8.68004 3.96 8.48004 4 8.28004 4.08C8.08004 4 7.88004 3.96 7.68004 3.96V3.52C7.88004 3.52 8.08004 3.48 8.28004 3.4C8.44004 3.48 8.64004 3.52 8.88004 3.52ZM8.20004 3.28C8.04004 3.36 7.84004 3.4 7.64004 3.4C7.60004 3.4 7.60004 3.4 7.56004 3.4C7.52004 3.4 7.52004 3.4 7.48004 3.4C7.28004 3.4 7.12004 3.36 6.92004 3.28V2.72C7.08004 2.64 7.28004 2.6 7.48004 2.6C7.52004 2.6 7.52004 2.6 7.56004 2.6C7.60004 2.6 7.60004 2.6 7.64004 2.6C7.84004 2.6 8.00004 2.64 8.20004 2.72V3.28ZM7.48004 3.52V3.96C7.28004 3.96 7.08004 4 6.88004 4.08C6.68004 4 6.48004 3.96 6.28004 3.96V3.52C6.48004 3.52 6.68004 3.48 6.88004 3.4C7.08004 3.48 7.28004 3.52 7.48004 3.52ZM6.80004 3.28C6.64004 3.36 6.44004 3.4 6.24004 3.4C6.20004 3.4 6.20004 3.4 6.16004 3.4C6.12004 3.4 6.12004 3.4 6.08004 3.4C5.88004 3.4 5.72004 3.36 5.52004 3.28V2.72C5.68004 2.64 5.88004 2.6 6.08004 2.6C6.12004 2.6 6.12004 2.6 6.16004 2.6C6.20004 2.6 6.20004 2.6 6.24004 2.6C6.44004 2.6 6.60004 2.64 6.80004 2.72V3.28ZM6.12004 3.52V3.96C5.92004 3.96 5.72004 4 5.52004 4.08C5.32004 4 5.12004 3.96 4.92004 3.96V3.52C5.12004 3.52 5.32004 3.48 5.52004 3.4C5.72004 3.48 5.92004 3.52 6.12004 3.52ZM5.44004 3.28C5.28004 3.36 5.08004 3.4 4.88004 3.4C4.84004 3.4 4.84004 3.4 4.80004 3.4C4.76004 3.4 4.76004 3.4 4.72004 3.4C4.52004 3.4 4.36004 3.36 4.16004 3.28V2.72C4.32004 2.64 4.52004 2.6 4.72004 2.6C4.76004 2.6 4.76004 2.6 4.80004 2.6C4.84004 2.6 4.84004 2.6 4.88004 2.6C5.08004 2.6 5.24004 2.64 5.44004 2.72V3.28ZM4.76004 3.52V3.96C4.56004 3.96 4.36004 4 4.16004 4.08C3.96004 4 3.76004 3.96 3.56004 3.96V3.52C3.76004 3.52 3.96004 3.48 4.16004 3.4C4.32004 3.48 4.56004 3.52 4.76004 3.52ZM4.08004 3.28C3.88004 3.36 3.68004 3.36 3.52004 3.4C3.48004 3.4 3.48004 3.4 3.44004 3.4C3.40004 3.4 3.40004 3.4 3.36004 3.4C3.20004 3.36 3.00004 3.36 2.84004 3.28V2.72C3.00004 2.64 3.20004 2.6 3.36004 2.6C3.40004 2.6 3.40004 2.6 3.44004 2.6C3.48004 2.6 3.48004 2.6 3.52004 2.6C3.72004 2.6 3.88004 2.64 4.08004 2.72V3.28ZM3.36004 3.52V3.96C3.16004 3.96 2.96004 4 2.76004 4.08C2.56004 4 2.36004 3.96 2.16004 3.96V3.52C2.36004 3.52 2.56004 3.48 2.76004 3.4C2.96004 3.48 3.16004 3.52 3.36004 3.52ZM2.68004 3.28C2.52004 3.36 2.32004 3.36 2.16004 3.4C2.12004 3.4 2.12004 3.4 2.08004 3.4C2.04004 3.4 2.04004 3.4 2.00004 3.4C1.80004 3.4 1.64004 3.36 1.44004 3.28V2.72C1.64004 2.64 1.80004 2.6 2.00004 2.6C2.04004 2.6 2.04004 2.6 2.08004 2.6C2.12004 2.6 2.12004 2.6 2.16004 2.6C2.36004 2.6 2.52004 2.64 2.72004 2.72V3.28H2.68004ZM2.00004 3.52V3.96C1.80004 3.96 1.60004 4 1.40004 4.08C1.20004 4 0.960039 3.96 0.760039 3.96V3.52C0.960039 3.52 1.16004 3.48 1.36004 3.4C1.60004 3.48 1.80004 3.52 2.00004 3.52ZM1.32004 3.28C1.12004 3.36 0.960039 3.36 0.760039 3.4V2.6C0.960039 2.6 1.12004 2.64 1.32004 2.72V3.28ZM0.760039 4.08C0.960039 4.08 1.12004 4.12 1.32004 4.2V4.76C1.16004 4.84 0.960039 4.88 0.760039 4.88V4.08ZM0.760039 5.56C0.960039 5.56 1.12004 5.6 1.32004 5.68V6.24C1.16004 6.32 0.960039 6.36 0.760039 6.36V5.56ZM0.760039 7.04C0.960039 7.04 1.12004 7.08 1.32004 7.16V7.72C1.16004 7.8 0.960039 7.84 0.760039 7.84V7.04ZM0.760039 8C0.960039 8 1.16004 7.96 1.36004 7.88C1.60004 7.92 1.80004 7.96 2.00004 8V8.4C1.80004 8.4 1.60004 8.44 1.40004 8.52C1.20004 8.44 1.00004 8.4 0.800039 8.4V8H0.760039ZM1.44004 8.64C1.60004 8.56 1.80004 8.52 2.00004 8.52C2.04004 8.52 2.04004 8.52 2.08004 8.52C2.12004 8.52 2.12004 8.52 2.16004 8.52C2.36004 8.52 2.52004 8.56 2.72004 8.64V9.2C2.56004 9.28 2.36004 9.32 2.16004 9.32C2.12004 9.32 2.12004 9.32 2.08004 9.32C2.04004 9.32 2.04004 9.32 2.00004 9.32C1.80004 9.32 1.64004 9.28 1.44004 9.2V8.64ZM2.16004 9.48C2.36004 9.48 2.56004 9.44 2.76004 9.36C2.96004 9.44 3.16004 9.48 3.36004 9.48V9.8H2.16004V9.48ZM2.68004 10.2V10.48C2.48004 10.48 2.28004 10.52 2.08004 10.6C1.88004 10.52 1.68004 10.48 1.48004 10.48V10.2H2.68004ZM1.44004 16C1.64004 16 1.84004 15.96 2.04004 15.88C2.24004 15.96 2.44004 16 2.64004 16V16.44C2.44004 16.44 2.24004 16.48 2.04004 16.56C1.84004 16.48 1.64004 16.44 1.44004 16.44V16ZM2.12004 16.68C2.28004 16.6 2.48004 16.56 2.68004 16.56C2.72004 16.56 2.72004 16.56 2.76004 16.56C2.80004 16.56 2.80004 16.56 2.84004 16.56C3.04004 16.56 3.20004 16.6 3.40004 16.68V17.24C3.24004 17.32 3.04004 17.36 2.84004 17.36C2.80004 17.36 2.80004 17.36 2.76004 17.36C2.72004 17.36 2.72004 17.36 2.68004 17.36C2.48004 17.36 2.32004 17.32 2.12004 17.24V16.68ZM2.80004 16.44V16C3.00004 16 3.20004 15.96 3.40004 15.88C3.60004 15.96 3.80004 16 4.00004 16V16.44C3.80004 16.44 3.60004 16.48 3.40004 16.56C3.24004 16.48 3.00004 16.44 2.80004 16.44ZM3.48004 16.68C3.64004 16.6 3.84004 16.56 4.04004 16.56C4.08004 16.56 4.08004 16.56 4.12004 16.56C4.16004 16.56 4.16004 16.56 4.20004 16.56C4.40004 16.56 4.56004 16.6 4.76004 16.68V17.24C4.60004 17.32 4.40004 17.36 4.20004 17.36C4.16004 17.36 4.16004 17.36 4.12004 17.36C4.08004 17.36 4.08004 17.36 4.04004 17.36C3.84004 17.36 3.68004 17.32 3.48004 17.24V16.68ZM4.20004 16.44V16C4.40004 16 4.60004 15.96 4.80004 15.88C5.00004 15.96 5.20004 16 5.40004 16V16.44C5.20004 16.44 5.00004 16.48 4.80004 16.56C4.60004 16.48 4.40004 16.44 4.20004 16.44ZM4.88004 16.68C5.04004 16.6 5.24004 16.56 5.44004 16.56C5.48004 16.56 5.48004 16.56 5.52004 16.56C5.56004 16.56 5.56004 16.56 5.60004 16.56C5.80004 16.56 5.96004 16.6 6.16004 16.68V17.24C6.00004 17.32 5.80004 17.36 5.60004 17.36C5.56004 17.36 5.56004 17.36 5.52004 17.36C5.48004 17.36 5.48004 17.36 5.44004 17.36C5.24004 17.36 5.08004 17.32 4.88004 17.24V16.68ZM5.56004 16.44V16C5.76004 16 5.96004 15.96 6.16004 15.88C6.36004 15.96 6.56004 16 6.76004 16V16.44C6.56004 16.44 6.36004 16.48 6.16004 16.56C5.96004 16.48 5.76004 16.44 5.56004 16.44ZM6.24004 16.68C6.40004 16.6 6.60004 16.56 6.80004 16.56C6.84004 16.56 6.84004 16.56 6.88004 16.56C6.92004 16.56 6.92004 16.56 6.96004 16.56C7.16004 16.56 7.32004 16.6 7.52004 16.68V17.24C7.36004 17.32 7.16004 17.36 6.96004 17.36C6.92004 17.36 6.92004 17.36 6.88004 17.36C6.84004 17.36 6.84004 17.36 6.80004 17.36C6.60004 17.36 6.44004 17.32 6.24004 17.24V16.68ZM6.92004 16.44V16C7.12004 16 7.32004 15.96 7.52004 15.88C7.72004 15.96 7.92004 16 8.12004 16V16.44C7.92004 16.44 7.72004 16.48 7.52004 16.56C7.36004 16.48 7.12004 16.44 6.92004 16.44ZM7.60004 16.68C7.76004 16.6 7.96004 16.56 8.16004 16.56C8.20004 16.56 8.20004 16.56 8.24004 16.56C8.28004 16.56 8.28004 16.56 8.32004 16.56C8.52004 16.56 8.68004 16.6 8.88004 16.68V17.24C8.72004 17.32 8.52004 17.36 8.32004 17.36C8.28004 17.36 8.28004 17.36 8.24004 17.36C8.20004 17.36 8.20004 17.36 8.16004 17.36C7.96004 17.36 7.80004 17.32 7.60004 17.24V16.68ZM8.32004 16.44V16C8.52004 16 8.72004 15.96 8.92004 15.88C9.12004 15.96 9.32004 16 9.52004 16V16.44C9.32004 16.44 9.12004 16.48 8.92004 16.56C8.72004 16.48 8.52004 16.44 8.32004 16.44ZM9.00004 15.76V15.2C9.16004 15.12 9.36004 15.08 9.56004 15.08C9.60004 15.08 9.60004 15.08 9.64004 15.08C9.68004 15.08 9.68004 15.08 9.72004 15.08C9.92004 15.08 10.08 15.12 10.28 15.2V15.76C10.12 15.84 9.92004 15.88 9.72004 15.88C9.68004 15.88 9.68004 15.88 9.64004 15.88C9.60004 15.88 9.60004 15.88 9.56004 15.88C9.36004 15.88 9.16004 15.84 9.00004 15.76ZM9.68004 16C9.88004 16 10.04 15.96 10.24 15.88V16.52C10.08 16.48 9.88004 16.44 9.68004 16.44V16ZM10.64 15.92C10.8 15.96 11 16 11.2 16.04V16.48C11 16.48 10.84 16.52 10.64 16.56V15.92ZM10.64 15.76V15.2C10.8 15.12 11 15.08 11.2 15.08C11.24 15.08 11.24 15.08 11.28 15.08C11.32 15.08 11.32 15.08 11.36 15.08C11.56 15.08 11.72 15.12 11.92 15.2V15.76C11.76 15.84 11.56 15.88 11.36 15.88C11.32 15.88 11.32 15.88 11.28 15.88C11.24 15.88 11.24 15.88 11.2 15.88C11 15.88 10.8 15.84 10.64 15.76ZM11.32 16C11.52 16 11.72 15.96 11.92 15.88C12.12 15.96 12.32 16 12.52 16V16.44C12.32 16.44 12.12 16.48 11.92 16.56C11.72 16.48 11.52 16.44 11.32 16.44V16ZM12 16.68C12.16 16.6 12.36 16.56 12.56 16.56C12.6 16.56 12.6 16.56 12.64 16.56C12.68 16.56 12.68 16.56 12.72 16.56C12.92 16.56 13.08 16.6 13.28 16.68V17.24C13.12 17.32 12.92 17.36 12.72 17.36C12.68 17.36 12.68 17.36 12.64 17.36C12.6 17.36 12.6 17.36 12.56 17.36C12.36 17.36 12.2 17.32 12 17.24V16.68ZM12.68 16.44V16C12.88 16 13.08 15.96 13.28 15.88C13.48 15.96 13.68 16 13.88 16V16.44C13.68 16.44 13.48 16.48 13.28 16.56C13.12 16.48 12.88 16.44 12.68 16.44ZM13.36 16.68C13.52 16.6 13.72 16.56 13.92 16.56C13.96 16.56 13.96 16.56 14 16.56C14.04 16.56 14.04 16.56 14.08 16.56C14.28 16.56 14.44 16.6 14.64 16.68V17.24C14.48 17.32 14.28 17.36 14.08 17.36C14.04 17.36 14.04 17.36 14 17.36C13.96 17.36 13.96 17.36 13.92 17.36C13.72 17.36 13.56 17.32 13.36 17.24V16.68ZM14.08 16.44V16C14.28 16 14.48 15.96 14.68 15.88C14.88 15.96 15.08 16 15.28 16V16.44C15.08 16.44 14.88 16.48 14.68 16.56C14.48 16.48 14.28 16.44 14.08 16.44ZM14.76 16.68C14.92 16.6 15.12 16.56 15.32 16.56C15.36 16.56 15.36 16.56 15.4 16.56C15.44 16.56 15.44 16.56 15.48 16.56C15.68 16.56 15.84 16.6 16.04 16.68V17.24C15.88 17.32 15.68 17.36 15.48 17.36C15.44 17.36 15.44 17.36 15.4 17.36C15.36 17.36 15.36 17.36 15.32 17.36C15.12 17.36 14.96 17.32 14.76 17.24V16.68ZM15.44 16.44V16C15.64 16 15.84 15.96 16.04 15.88C16.24 15.96 16.44 16 16.64 16V16.44C16.44 16.44 16.24 16.48 16.04 16.56C15.84 16.48 15.64 16.44 15.44 16.44ZM16.12 16.68C16.28 16.6 16.48 16.56 16.68 16.56C16.72 16.56 16.72 16.56 16.76 16.56C16.8 16.56 16.8 16.56 16.84 16.56C17.04 16.56 17.2 16.6 17.4 16.68V17.24C17.24 17.32 17.04 17.36 16.84 17.36C16.8 17.36 16.8 17.36 16.76 17.36C16.72 17.36 16.72 17.36 16.68 17.36C16.48 17.36 16.32 17.32 16.12 17.24V16.68ZM16.8 16.44V16C17 16 17.2 15.96 17.4 15.88C17.6 15.96 17.8 16 18 16V16.44C17.8 16.44 17.6 16.48 17.4 16.56C17.24 16.48 17 16.44 16.8 16.44ZM17.48 16.68C17.64 16.6 17.84 16.56 18.04 16.56C18.08 16.56 18.08 16.56 18.12 16.56C18.16 16.56 18.16 16.56 18.2 16.56C18.4 16.56 18.56 16.6 18.76 16.68V17.24C18.6 17.32 18.4 17.36 18.2 17.36C18.16 17.36 18.16 17.36 18.12 17.36C18.08 17.36 18.08 17.36 18.04 17.36C17.84 17.36 17.68 17.32 17.48 17.24V16.68ZM18.2 16.44V16C18.4 16 18.6 15.96 18.8 15.88C19 15.96 19.2 16 19.4 16V16.44C19.2 16.44 19 16.48 18.8 16.56C18.6 16.48 18.4 16.44 18.2 16.44ZM19.4 10.48C19.2 10.48 19 10.52 18.8 10.6C18.6 10.52 18.4 10.48 18.2 10.48V10.2H19.44V10.48H19.4ZM18.88 9.8V9.48C19.08 9.48 19.28 9.44 19.48 9.36C19.68 9.44 19.88 9.48 20.08 9.48V9.8H18.88ZM18.88 8.4V8C19.08 8 19.28 7.96 19.48 7.88C19.68 7.96 19.88 8 20.08 8V8.4C19.88 8.4 19.68 8.44 19.48 8.52C19.32 8.48 19.08 8.44 18.88 8.4ZM20.08 1.88C19.92 1.88 19.72 1.84 19.56 1.76V1.2C19.72 1.12 19.92 1.12 20.08 1.08V1.88ZM20.08 2.04V2.48C19.88 2.48 19.68 2.52 19.48 2.6C19.28 2.52 19.08 2.48 18.88 2.48V2.04C19.08 2.04 19.28 2 19.48 1.92C19.68 1.96 19.88 2 20.08 2.04ZM18.76 2.04V2.48C18.56 2.48 18.36 2.52 18.16 2.6C17.96 2.52 17.76 2.48 17.56 2.48V2.04C17.76 2.04 17.96 2 18.16 1.92C18.32 1.96 18.52 2 18.76 2.04ZM17.36 2.04V2.48C17.16 2.48 16.96 2.52 16.76 2.6C16.56 2.52 16.36 2.48 16.16 2.48V2.04C16.36 2.04 16.56 2 16.76 1.92C16.96 1.96 17.16 2 17.36 2.04ZM16 2.04V2.48C15.8 2.48 15.6 2.52 15.4 2.6C15.2 2.52 15 2.48 14.8 2.48V2.04C15 2.04 15.2 2 15.4 1.92C15.6 1.96 15.8 2 16 2.04ZM14.64 2.04V2.48C14.44 2.48 14.24 2.52 14.04 2.6C13.84 2.52 13.64 2.48 13.44 2.48V2.04C13.64 2.04 13.84 2 14.04 1.92C14.2 1.96 14.44 2 14.64 2.04ZM13.24 2.04V2.48C13.04 2.48 12.84 2.52 12.64 2.6C12.44 2.52 12.24 2.48 12.04 2.48V2.04C12.24 2.04 12.44 2 12.64 1.92C12.84 1.96 13.04 2 13.24 2.04ZM11.88 2.04V2.48C11.68 2.48 11.48 2.52 11.28 2.6C11.08 2.52 10.88 2.48 10.68 2.48V2.04C10.88 2.04 11.08 2 11.28 1.92C11.48 1.96 11.68 2 11.88 2.04ZM10.2 1.88C10.04 1.88 9.84004 1.84 9.68004 1.76V1.2C9.84004 1.12 10.04 1.12 10.2 1.08V1.88ZM10.2 2.04V2.48C10 2.48 9.80004 2.52 9.60004 2.6C9.40004 2.52 9.20004 2.48 9.00004 2.48V2.04C9.20004 2.04 9.40004 2 9.60004 1.92C9.80004 1.96 10 2 10.2 2.04ZM8.88004 2.04V2.48C8.68004 2.48 8.48004 2.52 8.28004 2.6C8.08004 2.52 7.88004 2.48 7.68004 2.48V2.04C7.88004 2.04 8.08004 2 8.28004 1.92C8.44004 1.96 8.64004 2 8.88004 2.04ZM7.48004 2.04V2.48C7.28004 2.48 7.08004 2.52 6.88004 2.6C6.68004 2.52 6.48004 2.48 6.28004 2.48V2.04C6.48004 2.04 6.68004 2 6.88004 1.92C7.08004 1.96 7.28004 2 7.48004 2.04ZM6.12004 2.04V2.48C5.92004 2.48 5.72004 2.52 5.52004 2.6C5.32004 2.52 5.12004 2.48 4.92004 2.48V2.04C5.12004 2.04 5.32004 2 5.52004 1.92C5.72004 1.96 5.92004 2 6.12004 2.04ZM4.76004 2.04V2.48C4.56004 2.48 4.36004 2.52 4.16004 2.6C3.96004 2.52 3.76004 2.48 3.56004 2.48V2.04C3.76004 2.04 3.96004 2 4.16004 1.92C4.32004 1.96 4.56004 2 4.76004 2.04ZM3.36004 2.04V2.48C3.16004 2.48 2.96004 2.52 2.76004 2.6C2.56004 2.52 2.36004 2.48 2.16004 2.48V2.04C2.36004 2.04 2.56004 2 2.76004 1.92C2.96004 1.96 3.16004 2 3.36004 2.04ZM2.00004 2.04V2.48C1.80004 2.48 1.60004 2.52 1.40004 2.6C1.20004 2.52 0.960039 2.48 0.760039 2.48V2.04C0.960039 2.04 1.16004 2 1.36004 1.92C1.60004 1.96 1.80004 2 2.00004 2.04ZM0.760039 8.56C0.960039 8.56 1.16004 8.6 1.32004 8.68V9.24C1.16004 9.32 0.960039 9.36 0.760039 9.36V8.56ZM0.760039 9.48C0.960039 9.48 1.16004 9.44 1.36004 9.36C1.56004 9.44 1.76004 9.48 1.96004 9.48V9.8H0.760039V9.48ZM1.28004 10.48C1.08004 10.48 0.920039 10.52 0.720039 10.56V10.16H1.28004V10.48ZM1.28004 11.56V12C1.08004 12 0.920039 12.04 0.720039 12.08V11.44C0.920039 11.52 1.12004 11.56 1.28004 11.56ZM1.28004 13.04V13.48C1.08004 13.48 0.920039 13.52 0.720039 13.56V12.92C0.920039 13 1.12004 13.04 1.28004 13.04ZM1.28004 14.52V14.96C1.08004 14.96 0.920039 15 0.720039 15.04V14.4C0.920039 14.48 1.12004 14.52 1.28004 14.52ZM1.28004 16V16.44C1.08004 16.44 0.920039 16.48 0.720039 16.52V15.88C0.920039 15.96 1.12004 16 1.28004 16ZM0.760039 17.28V16.72C0.920039 16.64 1.12004 16.6 1.32004 16.6C1.36004 16.6 1.36004 16.6 1.40004 16.6C1.44004 16.6 1.44004 16.6 1.48004 16.6C1.68004 16.6 1.84004 16.64 2.04004 16.72V17.28C1.88004 17.36 1.68004 17.4 1.48004 17.4C1.44004 17.4 1.44004 17.4 1.40004 17.4C1.36004 17.4 1.36004 17.4 1.32004 17.4C1.12004 17.36 0.920039 17.32 0.760039 17.28ZM1.28004 17.52V17.96C1.08004 17.96 0.920039 18 0.720039 18.04V17.4C0.920039 17.48 1.12004 17.48 1.28004 17.52ZM1.44004 17.52C1.64004 17.52 1.84004 17.48 2.04004 17.4C2.24004 17.48 2.44004 17.52 2.64004 17.52V17.96C2.44004 17.96 2.24004 18 2.04004 18.08C1.84004 18 1.64004 17.96 1.44004 17.96V17.52ZM2.80004 17.96V17.52C3.00004 17.52 3.20004 17.48 3.40004 17.4C3.60004 17.48 3.80004 17.52 4.00004 17.52V17.96C3.80004 17.96 3.60004 18 3.40004 18.08C3.24004 18 3.00004 17.96 2.80004 17.96ZM4.20004 17.96V17.52C4.40004 17.52 4.60004 17.48 4.80004 17.4C5.00004 17.48 5.20004 17.52 5.40004 17.52V17.96C5.20004 17.96 5.00004 18 4.80004 18.08C4.60004 18 4.40004 17.96 4.20004 17.96ZM5.56004 17.96V17.52C5.76004 17.52 5.96004 17.48 6.16004 17.4C6.36004 17.48 6.56004 17.52 6.76004 17.52V17.96C6.56004 17.96 6.36004 18 6.16004 18.08C5.96004 18 5.76004 17.96 5.56004 17.96ZM6.92004 17.96V17.52C7.12004 17.52 7.32004 17.48 7.52004 17.4C7.72004 17.48 7.92004 17.52 8.12004 17.52V17.96C7.92004 17.96 7.72004 18 7.52004 18.08C7.36004 18 7.12004 17.96 6.92004 17.96ZM8.32004 17.96V17.52C8.52004 17.52 8.72004 17.48 8.92004 17.4C9.12004 17.48 9.32004 17.52 9.52004 17.52V17.96C9.32004 17.96 9.12004 18 8.92004 18.08C8.72004 18 8.52004 17.96 8.32004 17.96ZM9.00004 17.28V16.72C9.16004 16.64 9.36004 16.6 9.56004 16.6C9.60004 16.6 9.60004 16.6 9.64004 16.6C9.68004 16.6 9.68004 16.6 9.72004 16.6C9.92004 16.6 10.08 16.64 10.28 16.72V17.28C10.12 17.36 9.92004 17.4 9.72004 17.4C9.68004 17.4 9.68004 17.4 9.64004 17.4C9.60004 17.4 9.60004 17.4 9.56004 17.4C9.36004 17.36 9.16004 17.32 9.00004 17.28ZM10.64 17.4C10.8 17.44 11 17.48 11.2 17.48V17.92C11 17.92 10.84 17.96 10.64 18V17.4ZM10.64 17.28V16.72C10.8 16.64 11 16.6 11.2 16.6C11.24 16.6 11.24 16.6 11.28 16.6C11.32 16.6 11.32 16.6 11.36 16.6C11.56 16.6 11.72 16.64 11.92 16.72V17.28C11.76 17.36 11.56 17.4 11.36 17.4C11.32 17.4 11.32 17.4 11.28 17.4C11.24 17.4 11.24 17.4 11.2 17.4C11 17.36 10.8 17.32 10.64 17.28ZM11.32 17.52C11.52 17.52 11.72 17.48 11.92 17.4C12.12 17.48 12.32 17.52 12.52 17.52V17.96C12.32 17.96 12.12 18 11.92 18.08C11.72 18 11.52 17.96 11.32 17.96V17.52ZM12.68 17.96V17.52C12.88 17.52 13.08 17.48 13.28 17.4C13.48 17.48 13.68 17.52 13.88 17.52V17.96C13.68 17.96 13.48 18 13.28 18.08C13.12 18 12.88 17.96 12.68 17.96ZM14.08 17.96V17.52C14.28 17.52 14.48 17.48 14.68 17.4C14.88 17.48 15.08 17.52 15.28 17.52V17.96C15.08 17.96 14.88 18 14.68 18.08C14.48 18 14.28 17.96 14.08 17.96ZM15.44 17.96V17.52C15.64 17.52 15.84 17.48 16.04 17.4C16.24 17.48 16.44 17.52 16.64 17.52V17.96C16.44 17.96 16.24 18 16.04 18.08C15.84 18 15.64 17.96 15.44 17.96ZM16.8 17.96V17.52C17 17.52 17.2 17.48 17.4 17.4C17.6 17.48 17.8 17.52 18 17.52V17.96C17.8 17.96 17.6 18 17.4 18.08C17.24 18 17 17.96 16.8 17.96ZM18.2 17.96V17.52C18.4 17.52 18.6 17.48 18.8 17.4C19 17.48 19.2 17.52 19.4 17.52V17.96C19.2 17.96 19 18 18.8 18.08C18.6 18 18.4 17.96 18.2 17.96ZM18.88 17.28V16.72C19.04 16.64 19.24 16.6 19.44 16.6C19.48 16.6 19.48 16.6 19.52 16.6C19.56 16.6 19.56 16.6 19.6 16.6C19.8 16.6 19.96 16.64 20.16 16.72V17.28C20 17.36 19.8 17.4 19.6 17.4C19.56 17.4 19.56 17.4 19.52 17.4C19.48 17.4 19.48 17.4 19.44 17.4C19.24 17.36 19.04 17.32 18.88 17.28ZM19.56 16.44V16C19.76 16 19.92 15.96 20.12 15.88V16.52C19.92 16.48 19.72 16.44 19.56 16.44ZM19.56 14.96V14.52C19.76 14.52 19.92 14.48 20.12 14.4V15.04C19.92 15 19.72 14.96 19.56 14.96ZM19.56 13.48V13.04C19.76 13.04 19.92 13 20.12 12.96V13.6C19.92 13.52 19.72 13.48 19.56 13.48ZM19.56 12V11.56C19.76 11.56 19.92 11.52 20.12 11.48V12.12C19.92 12.04 19.72 12 19.56 12ZM20.08 10.6C19.92 10.56 19.72 10.52 19.52 10.52V10.24H20.08V10.6ZM19.56 9.24V8.68C19.72 8.6 19.92 8.6 20.08 8.56V9.36C19.92 9.32 19.76 9.28 19.56 9.24ZM20.08 0.96C19.88 0.96 19.68 1 19.48 1.08C19.28 1 19.08 0.96 18.88 0.96V0.68H20.08V0.96ZM18.76 0.96C18.56 0.96 18.36 1 18.16 1.08C17.96 1 17.76 0.96 17.56 0.96V0.68H18.8V0.96H18.76ZM17.36 0.96C17.16 0.96 16.96 1 16.76 1.08C16.56 1 16.36 0.96 16.16 0.96V0.68H17.4V0.96H17.36ZM16 0.96C15.8 0.96 15.6 1 15.4 1.08C15.2 1 15 0.96 14.8 0.96V0.68H16V0.96ZM14.64 0.96C14.44 0.96 14.24 1 14.04 1.08C13.84 1 13.64 0.96 13.44 0.96V0.68H14.68V0.96H14.64ZM13.24 0.96C13.04 0.96 12.84 1 12.64 1.08C12.44 1 12.24 0.96 12.04 0.96V0.68H13.28V0.96H13.24ZM11.88 0.96C11.68 0.96 11.48 1 11.28 1.08C11.08 1 10.88 0.96 10.68 0.96V0.68H11.92V0.96H11.88ZM10.2 0.96C10 0.96 9.80004 1 9.60004 1.08C9.40004 1 9.20004 0.96 9.00004 0.96V0.68H10.2V0.96ZM8.88004 0.96C8.68004 0.96 8.48004 1 8.28004 1.08C8.08004 1 7.88004 0.96 7.68004 0.96V0.68H8.92004V0.96H8.88004ZM7.48004 0.96C7.28004 0.96 7.08004 1 6.88004 1.08C6.68004 1 6.48004 0.96 6.28004 0.96V0.68H7.52004V0.96H7.48004ZM6.12004 0.96C5.92004 0.96 5.72004 1 5.52004 1.08C5.32004 1 5.12004 0.96 4.92004 0.96V0.68H6.16004V0.96H6.12004ZM4.76004 0.96C4.56004 0.96 4.36004 1 4.16004 1.08C3.96004 1 3.76004 0.96 3.56004 0.96V0.68H4.80004V0.96H4.76004ZM3.36004 0.96C3.16004 0.96 2.96004 1 2.76004 1.08C2.56004 1 2.36004 0.96 2.16004 0.96V0.68H3.40004V0.96H3.36004ZM2.00004 0.96C1.80004 0.96 1.60004 1 1.40004 1.08C1.20004 1.04 0.960039 0.96 0.760039 0.96V0.68H2.00004V0.96ZM0.760039 18.16C0.920039 18.08 1.12004 18.04 1.32004 18.04C1.36004 18.04 1.36004 18.04 1.40004 18.04C1.44004 18.04 1.44004 18.04 1.48004 18.04C1.68004 18.04 1.84004 18.08 2.04004 18.16V18.72C1.88004 18.8 1.68004 18.84 1.48004 18.84C1.44004 18.84 1.44004 18.84 1.40004 18.84C1.36004 18.84 1.36004 18.84 1.32004 18.84C1.12004 18.84 0.960039 18.8 0.760039 18.72V18.16ZM1.44004 19C1.64004 19 1.84004 18.96 2.04004 18.88C2.24004 18.96 2.44004 19 2.64004 19V19.32H1.44004V19ZM2.80004 19C3.00004 19 3.20004 18.96 3.40004 18.88C3.60004 18.96 3.80004 19 4.00004 19V19.32H2.80004V19ZM4.20004 19C4.40004 19 4.60004 18.96 4.80004 18.88C5.00004 18.96 5.20004 19 5.40004 19V19.32H4.16004V19H4.20004ZM5.56004 19C5.76004 19 5.96004 18.96 6.16004 18.88C6.36004 18.96 6.56004 19 6.76004 19V19.32H5.52004V19H5.56004ZM6.92004 19C7.12004 19 7.32004 18.96 7.52004 18.88C7.72004 18.96 7.92004 19 8.12004 19V19.32H6.88004V19H6.92004ZM9.52004 18.88C9.32004 18.88 9.16004 18.84 8.96004 18.76V18.2C9.12004 18.12 9.32004 18.08 9.52004 18.08C9.56004 18.08 9.56004 18.08 9.60004 18.08C9.64004 18.08 9.64004 18.08 9.68004 18.08C9.88004 18.08 10.04 18.12 10.24 18.2V18.76C10.08 18.84 9.88004 18.88 9.68004 18.88C9.64004 18.88 9.64004 18.88 9.60004 18.88C9.60004 18.88 9.56004 18.88 9.52004 18.88ZM9.68004 17.96V17.52C9.88004 17.52 10.04 17.48 10.24 17.44V18.08C10.04 18 9.84004 17.96 9.68004 17.96ZM10.64 18.16C10.8 18.08 11 18.04 11.2 18.04C11.24 18.04 11.24 18.04 11.28 18.04C11.32 18.04 11.32 18.04 11.36 18.04C11.56 18.04 11.72 18.08 11.92 18.16V18.72C11.76 18.8 11.56 18.84 11.36 18.84C11.32 18.84 11.32 18.84 11.28 18.84C11.24 18.84 11.24 18.84 11.2 18.84C11 18.84 10.84 18.8 10.64 18.72V18.16ZM11.32 19C11.52 19 11.72 18.96 11.92 18.88C12.12 18.96 12.32 19 12.52 19V19.32H11.28V19H11.32ZM12.68 19C12.88 19 13.08 18.96 13.28 18.88C13.48 18.96 13.68 19 13.88 19V19.32H12.64V19H12.68ZM14.08 19C14.28 19 14.48 18.96 14.68 18.88C14.88 18.96 15.08 19 15.28 19V19.32H14.04V19H14.08ZM15.44 19C15.64 19 15.84 18.96 16.04 18.88C16.24 18.96 16.44 19 16.64 19V19.32H15.4V19H15.44ZM16.8 19C17 19 17.2 18.96 17.4 18.88C17.6 18.96 17.8 19 18 19V19.32H16.8V19ZM19.4 18.88C19.2 18.88 19.04 18.84 18.84 18.76V18.2C19 18.12 19.2 18.08 19.4 18.08C19.44 18.08 19.44 18.08 19.48 18.08C19.52 18.08 19.52 18.08 19.56 18.08C19.76 18.08 19.92 18.12 20.12 18.2V18.76C19.96 18.84 19.76 18.88 19.56 18.88C19.52 18.88 19.52 18.88 19.48 18.88C19.48 18.88 19.44 18.88 19.4 18.88ZM19.56 17.96V17.52C19.76 17.52 19.92 17.48 20.12 17.44V18.08C19.92 18 19.72 17.96 19.56 17.96ZM0.760039 18.88C0.920039 18.92 1.12004 18.96 1.32004 18.96V19.28H0.760039V18.88ZM9.68004 19.32V19C9.88004 19 10.04 18.96 10.24 18.92V19.36H9.68004V19.32ZM10.64 18.88C10.8 18.92 11 18.96 11.2 18.96V19.28H10.64V18.88ZM19.56 19.32V19C19.76 19 19.92 18.96 20.12 18.92V19.36H19.56V19.32Z" fill="#00A6DF"/>
</g>
<defs>
<clipPath id="clip0">
<rect width="20.8" height="20" fill="white"/>
</clipPath>
</defs>
</svg>
