<svg width="28" height="18" viewBox="0 0 16 18" fill="none" xmlns="http://www.w3.org/2000/svg">
<path d="M14.1803 11.1066C13.5307 10.457 12.6988 10.1321 11.6852 10.1321C10.6716 10.1321 9.8418 10.4591 9.19609 11.1129C8.54986 11.7667 8.22739 12.5998 8.22739 13.6134V14.449C8.22739 15.5242 8.55586 16.3851 9.21358 17.031C9.87105 17.677 10.7027 18 11.7084 18C12.7142 18 13.5401 17.6731 14.1858 17.0193C14.8315 16.3655 15.1547 15.5323 15.1547 14.5187V13.6949C15.1547 12.6194 14.8299 11.7565 14.1803 11.1066ZM13.5419 14.4673C13.5419 15.126 13.3753 15.6477 13.0429 16.0315C12.7103 16.4154 12.2651 16.607 11.7084 16.607C11.1358 16.607 10.6797 16.4114 10.3392 16.0198C9.99846 15.6281 9.82875 15.126 9.82875 14.5135V13.6526C9.82875 13.0014 10.0008 12.4837 10.3449 12.1001C10.6891 11.7163 11.1358 11.5246 11.6855 11.5246C12.2502 11.5246 12.7009 11.7184 13.0375 12.1061C13.374 12.4938 13.5424 12.9938 13.5424 13.6064V14.4673H13.5419ZM5.94691 7.50361C6.59288 6.85764 6.91613 6.0242 6.91613 5.00276V4.17923C6.91613 3.12724 6.5968 2.27004 5.95866 1.60866C5.32052 0.947286 4.48681 0.616467 3.45806 0.616467C2.44446 0.616467 1.61467 0.945458 0.968958 1.60266C0.322725 2.26064 0 3.09591 0 4.10952V4.92155C0 5.99704 0.328731 6.85764 0.986452 7.50361C1.64391 8.14984 2.47553 8.47257 3.4813 8.47257C4.47872 8.47257 5.30094 8.14984 5.94691 7.50361ZM1.60109 4.99832V4.14921C1.60109 3.51342 1.76741 2.998 2.10006 2.60243C2.43245 2.20711 2.8852 2.0092 3.4578 2.0092C4.03014 2.0092 4.4829 2.20737 4.81528 2.60243C5.14793 2.998 5.31425 3.49801 5.31425 4.10273V4.95158C5.31425 5.61087 5.14584 6.13047 4.80954 6.51037C4.47298 6.89028 4.03014 7.08062 3.48078 7.08062C2.90818 7.08062 2.45177 6.88479 2.11155 6.49314C1.77107 6.10122 1.60109 5.60303 1.60109 4.99832ZM13.2492 4.13902L13.3931 0L9.73631 1.94418L10.9421 2.69773L2.90165 15.567L4.00247 16.2548L12.0432 3.38548L13.2492 4.13902Z" fill="#ED6B33"/>
</svg>
