<svg width="12" height="12" viewBox="0 0 12 12" fill="none" xmlns="http://www.w3.org/2000/svg">
<path d="M0.684936 0.24066C0.590882 0.249813 0.501434 0.285779 0.427224 0.344283C0.353013 0.402787 0.297161 0.481368 0.266305 0.570687C0.23545 0.660005 0.230888 0.756305 0.253164 0.848141C0.275439 0.939976 0.323614 1.02348 0.391962 1.08874L5.30569 6.00247L0.391962 10.9162C0.346064 10.9621 0.309655 11.0166 0.284815 11.0766C0.259975 11.1365 0.24719 11.2008 0.24719 11.2657C0.24719 11.3306 0.259975 11.3949 0.284815 11.4549C0.309655 11.5148 0.346064 11.5693 0.391962 11.6152C0.437861 11.6611 0.492351 11.6975 0.55232 11.7224C0.612289 11.7472 0.676564 11.76 0.741474 11.76C0.806385 11.76 0.87066 11.7472 0.930629 11.7224C0.990598 11.6975 1.04509 11.6611 1.09099 11.6152L6.00471 6.70149L10.9184 11.6152C10.9643 11.6611 11.0188 11.6975 11.0788 11.7224C11.1388 11.7472 11.203 11.76 11.268 11.76C11.3329 11.76 11.3971 11.7472 11.4571 11.7224C11.5171 11.6975 11.5716 11.6611 11.6175 11.6152C11.6634 11.5693 11.6998 11.5148 11.7246 11.4549C11.7494 11.3949 11.7622 11.3306 11.7622 11.2657C11.7622 11.2008 11.7494 11.1365 11.7246 11.0766C11.6998 11.0166 11.6634 10.9621 11.6175 10.9162L6.70374 6.00247L11.6175 1.08874C11.6892 1.01942 11.7383 0.929981 11.7581 0.832219C11.778 0.734456 11.7678 0.632962 11.7289 0.541121C11.6899 0.449279 11.624 0.371404 11.5399 0.317765C11.4558 0.264126 11.3574 0.237242 11.2577 0.24066C11.1295 0.244395 11.0079 0.297853 10.9184 0.389716L6.00471 5.30344L1.09099 0.389716C1.04486 0.34239 0.989705 0.30481 0.928784 0.279206C0.867862 0.253601 0.802418 0.240493 0.736335 0.24066C0.719213 0.239767 0.702057 0.239767 0.684936 0.24066Z" fill="white"/>
</svg>
