<svg width="41" height="48" viewBox="0 0 41 48" fill="none" xmlns="http://www.w3.org/2000/svg">
<path d="M39.3469 7.77188L20.9719 0.140625C20.5125 -0.046875 19.9969 -0.046875 19.5375 0.140625L1.1625 7.77188C0.459375 8.0625 0 8.74687 0 9.50625V18.7781C0 31.5469 7.71562 43.0312 19.5375 47.8594C19.9875 48.0469 20.5031 48.0469 20.9531 47.8594C32.7844 43.0312 40.5 31.5469 40.5 18.7781V9.50625C40.5 8.74687 40.0406 8.0625 39.3469 7.77188Z" fill="#00AA00"/>
<path d="M39.3469 7.77188L20.9719 0.140625C20.7375 0.046875 20.25 0 20.25 0V48C20.25 48 20.7281 47.9531 20.9625 47.8594C32.7844 43.0312 40.5 31.5469 40.5 18.7781V9.50625C40.5 8.74687 40.0406 8.0625 39.3469 7.77188Z" fill="#009500"/>
<path d="M18.1782 25.0969L26.2407 17.0344C26.9719 16.3031 28.1625 16.3031 28.8938 17.0344C29.625 17.7656 29.625 18.9562 28.8938 19.6875L19.5 29.0719C18.7688 29.8031 17.5782 29.8031 16.8469 29.0719L11.6063 23.8312C10.875 23.1 10.875 21.9094 11.6063 21.1781C12.3375 20.4469 13.5282 20.4469 14.2594 21.1781L18.1782 25.0969Z" fill="white"/>
</svg>
