<svg width="20" height="20" viewBox="0 0 20 20" fill="none" xmlns="http://www.w3.org/2000/svg">
<path d="M9.99997 0.339844C4.65997 0.339844 0.339966 4.65984 0.339966 9.99984C0.339966 15.3398 4.65997 19.6598 9.99997 19.6598C15.34 19.6598 19.66 15.3398 19.66 9.99984C19.66 4.65984 15.34 0.339844 9.99997 0.339844ZM15.64 10.6598H10.52H9.23997H4.13997C3.77997 10.6598 3.49997 10.3798 3.49997 10.0198C3.49997 9.65984 3.77997 9.37984 4.13997 9.37984H9.25997H10.54H15.66C16.02 9.37984 16.3 9.65984 16.3 10.0198C16.28 10.3798 16 10.6598 15.64 10.6598Z" fill="#B00A44"/>
</svg>
