<svg width="20" height="20" viewBox="0 0 20 20" fill="none" xmlns="http://www.w3.org/2000/svg">
<path d="M18.9439 16.1421H18.5444C18.6589 15.8853 18.6295 16.1278 18.6295 11.482C18.6291 11.1011 18.3189 10.7911 17.938 10.7911H17.0568C17.4004 9.8497 17.7176 8.97693 17.9172 8.41822C17.9716 8.26587 17.8922 8.09822 17.7399 8.04376C17.5876 7.98923 17.4199 8.06869 17.3654 8.22107C17.152 8.81826 16.8041 9.77513 16.433 10.7911H14.4727C14.4616 9.09353 14.2427 7.1524 13.6378 5.58146C13.5284 5.29716 13.2856 5.11345 13.0191 5.11345H12.2653V3.85771H12.524C13.0047 3.85771 13.4111 3.53478 13.5385 3.09455H14.3144L14.9824 4.23201C15.0646 4.37197 15.2443 4.41798 15.3834 4.33626C15.5229 4.25431 15.5696 4.07482 15.4877 3.93529L14.7348 2.65322C14.6821 2.56365 14.586 2.50861 14.4821 2.50861H13.5385C13.4111 2.06841 13.0047 1.74548 12.524 1.74548H10.0471C9.46473 1.74548 8.99098 2.21923 8.99098 2.80158C8.99098 3.38396 9.46473 3.85771 10.0471 3.85771H10.1531V5.11341H9.39953C9.13309 5.11341 8.89023 5.29712 8.78086 5.58134C8.02598 7.54216 7.85129 10.154 7.9877 12.2415C7.98797 12.2458 7.98832 12.2502 7.98859 12.2545C7.99504 12.3525 8.00231 12.4498 8.01016 12.5465C8.01102 12.5569 8.01176 12.5673 8.01266 12.5777C8.02066 12.6747 8.02953 12.7709 8.03895 12.8667C8.04016 12.879 8.04141 12.8913 8.04262 12.9036C8.05231 13.0001 8.06273 13.0958 8.07387 13.1908C8.07492 13.2 8.07605 13.2091 8.07711 13.2182C8.08887 13.317 8.10121 13.4152 8.11449 13.5123C8.11453 13.5128 8.11457 13.5132 8.11465 13.5136C8.11465 13.5138 8.11469 13.5139 8.11473 13.514C8.24813 14.4923 8.45813 15.3856 8.7366 16.142H7.15715C7.30781 15.8423 7.26594 16.3036 7.26594 8.70298C7.26594 8.13744 6.8059 7.6774 6.24035 7.6774H5.35219V6.95654C5.74117 6.83283 6.02383 6.46834 6.02383 6.03892V5.33193C6.02383 4.80103 5.59191 4.36919 5.06105 4.36919H3.14793C2.61703 4.36919 2.18516 4.80107 2.18516 5.33193V6.03892C2.18516 6.48982 2.4968 6.86915 2.91602 6.97326V7.6774H2.02789C1.46238 7.6774 1.0023 8.13744 1.0023 8.70298V9.31619C1.0023 9.47798 1.13344 9.60916 1.29527 9.60916C1.45707 9.60916 1.58824 9.47798 1.58824 9.31619V8.70298C1.58824 8.46056 1.78547 8.26337 2.02785 8.26337C2.42668 8.26337 5.83563 8.26337 6.24035 8.26337C6.48273 8.26337 6.67996 8.46056 6.67996 8.70298V15.6831C6.67996 15.9255 6.48273 16.1227 6.24035 16.1227H2.02789C1.78551 16.1227 1.58828 15.9255 1.58828 15.6831V10.6836C1.58828 10.5218 1.45711 10.3906 1.29531 10.3906C1.13348 10.3906 1.00234 10.5218 1.00234 10.6836C1.00234 16.0927 0.961289 15.8441 1.11113 16.1421C0.414922 16.1421 0 16.6573 0 17.1983C0 17.7806 0.473789 18.2544 1.05617 18.2544H15.3552C15.5171 18.2544 15.6482 18.1232 15.6482 17.9614C15.6482 17.7996 15.5171 17.6685 15.3552 17.6685H1.05617C0.796875 17.6685 0.585977 17.4576 0.585977 17.1983C0.585977 16.939 0.796875 16.7281 1.05617 16.7281C1.30187 16.7281 18.7013 16.7281 18.9439 16.7281C19.2031 16.7281 19.414 16.939 19.414 17.1983C19.414 17.4576 19.2031 17.6685 18.9439 17.6685H16.7225C16.5607 17.6685 16.4295 17.7996 16.4295 17.9614C16.4295 18.1232 16.5607 18.2544 16.7225 18.2544H18.9439C19.5262 18.2544 20 17.7806 20 17.1983C20 16.6159 19.5263 16.1421 18.9439 16.1421ZM4.76621 7.67755H3.50191V7.00181H4.76621V7.67755ZM5.05926 6.41587C2.81332 6.41587 3.53789 6.41587 3.14793 6.41587C2.94016 6.41587 2.77113 6.24685 2.77113 6.03912V5.33212C2.77113 5.12439 2.94016 4.95537 3.14793 4.95537H5.06109C5.26887 4.95537 5.43789 5.12439 5.43789 5.33212V6.03912C5.43789 6.24216 5.2743 6.41587 5.05926 6.41587ZM10.0471 3.27177C9.78789 3.27177 9.57699 3.06087 9.57699 2.80162C9.57699 2.5424 9.78789 2.3315 10.0471 2.3315H12.5241C12.7833 2.3315 12.9942 2.5424 12.9942 2.80162C12.9942 3.06087 12.7833 3.27177 12.5241 3.27177C12.4604 3.27177 10.2664 3.27177 10.0471 3.27177ZM11.6794 3.85771V5.1133H10.7391V3.85771H11.6794ZM9.39957 5.69939H13.0191C13.1097 5.69939 13.4804 6.84415 13.675 8.07439H8.74383C8.93871 6.84193 9.30934 5.69939 9.39957 5.69939ZM13.3855 15.1363C13.3628 15.2201 13.1062 16.1421 13.0192 16.1421H9.39961C9.39195 16.1421 9.35449 16.119 9.32777 16.0497C9.0752 15.3935 8.87859 14.6193 8.74379 13.7672H13.3855V15.1363ZM13.8786 10.8205C13.8762 10.8212 13.8377 10.8339 13.8338 10.8353C13.8327 10.8358 13.8053 10.8473 13.7978 10.8506C13.7781 10.8594 13.7525 10.8724 13.7418 10.8784C13.7245 10.888 13.6977 10.9048 13.6891 10.9106C13.6595 10.9308 13.6472 10.9415 13.6282 10.9577C13.6011 10.981 13.5937 10.989 13.5792 11.004C13.5635 11.0204 13.5496 11.0363 13.5375 11.0513C13.5248 11.0672 13.5071 11.0919 13.5009 11.1013C13.4902 11.1174 13.4765 11.1402 13.4689 11.1541C13.4524 11.1845 13.4449 11.2026 13.4352 11.227C13.4238 11.2555 13.4194 11.2696 13.4134 11.2903C13.4069 11.3127 13.4013 11.3366 13.3982 11.3531C13.3944 11.3733 13.39 11.4057 13.3889 11.417C13.3841 11.468 13.3855 11.3446 13.3855 13.1812H8.66273C8.49074 11.7559 8.48492 10.1338 8.66273 8.66037H13.7561C13.8416 9.36915 13.8834 10.098 13.8871 10.8177C13.8842 10.8186 13.8814 10.8197 13.8786 10.8205ZM18.0436 15.7422C18.0436 15.9627 17.8641 16.1421 17.6436 16.1421H14.3714C14.1509 16.1421 13.9715 15.9627 13.9715 15.7422C13.9715 15.4976 13.9715 13.7347 13.9715 13.4742V11.4826C13.9716 11.4244 14.0189 11.3771 14.077 11.3771H14.1788H16.2188C15.5273 13.2676 14.8292 15.1641 14.8177 15.1953C14.7475 15.3863 14.889 15.5896 15.0926 15.5896C15.2119 15.5896 15.324 15.5162 15.3676 15.3977C15.3795 15.3654 16.1277 13.3328 16.8427 11.377H17.938C17.9962 11.377 18.0435 11.4244 18.0436 11.4822V15.7422Z" fill="#00A6DF"/>
</svg>
