<svg width="20" height="20" viewBox="0 0 20 20" fill="none" xmlns="http://www.w3.org/2000/svg">
<g clip-path="url(#clip0)">
<path d="M6.84001 9.36002H6.92001H7.12001H7.20001L7.36001 5.40002H7.28001H7.08001H6.72001H6.64001L6.76001 9.36002H6.84001Z" fill="transparent"/>
<path d="M7.35997 10.52H8.23997C8.51997 10.52 8.79997 10.64 8.91997 10.88L9.27997 11.4H9.63997V7.36002H8.75997H8.71997C8.31997 7.36002 8.03997 7.04002 8.03997 6.72002V5.40002H7.59997L7.43997 9.48003C7.43997 9.52003 7.39997 9.60002 7.31997 9.60002H7.15997H6.87997H6.71997C6.67997 9.60002 6.59997 9.56003 6.59997 9.48003L6.43997 5.40002H6.15997V9.52002C6.15997 10.08 6.67997 10.52 7.35997 10.52Z" fill="transparent"/>
<path d="M7.36 10.76H8.24C8.44 10.76 8.64 10.84 8.76 11.04L9.12 11.6V11.84C9.12 12.04 9.24 12.24 9.44 12.32V12.64H9.64V12.32H10.16H10.68V12.64H10.88V12.32C11.08 12.24 11.2 12.08 11.2 11.84V11.56L11.56 11.04C11.68 10.88 11.88 10.76 12.08 10.76H12.96C13.64 10.76 14.16 10.36 14.32 9.80005V4.80005H14.16V5.20005H13.88H13.68H13.12H12.92H12.36H8.04H7.48H7.28H6.72H6.52H6.16V4.80005H6V9.80005C6.12 10.36 6.68 10.76 7.36 10.76ZM10.96 11.84C10.96 12 10.84 12.12 10.68 12.12H10.04H9.6C9.44 12.12 9.32 12 9.32 11.84V11.64H9.64H10.32H10.64H10.96V11.84ZM9.64 7.12005H8.92V6.80005V6.00005H11.08H11.4V7.16005H10.6H9.64V7.12005ZM10.44 7.36005V11.44H10.16H9.88V7.36005H10.16H10.44ZM13.08 5.40005H13.44H13.64H13.72L13.56 9.36005H13.48H13.28H13.2H13.12L12.96 5.40005H13.08ZM12.32 6.68005V5.36005H12.76L12.92 9.44005C12.92 9.48005 12.96 9.56005 13.04 9.56005H13.2H13.48H13.64C13.68 9.56005 13.76 9.52005 13.76 9.44005L13.92 5.36005H14.08V9.48005C14.08 10.04 13.56 10.52 12.88 10.52H12C11.72 10.52 11.44 10.64 11.32 10.88L10.96 11.4H10.6V11.08V7.32005H11.6H11.64C12 7.32005 12.32 7.04005 12.32 6.68005ZM8.24 5.40005H11.88H12.12V6.72005C12.12 6.76005 12.12 6.84005 12.08 6.88005C12.04 6.92005 12.04 6.96005 11.96 7.00005C11.92 7.00005 11.92 7.04005 11.88 7.04005C11.8 7.08005 11.72 7.12005 11.6 7.12005V6.64005V5.76005H8.68V7.12005C8.4 7.12005 8.2 6.92005 8.2 6.68005V5.40005H8.24ZM6.72 5.40005H7.08H7.28H7.36L7.2 9.36005H7.12H6.92H6.84H6.76L6.6 5.40005H6.72ZM6.16 5.40005H6.44L6.6 9.48005C6.6 9.52005 6.64 9.60005 6.72 9.60005H6.88H7.16H7.32C7.36 9.60005 7.44 9.56005 7.44 9.48005L7.6 5.40005H8.04V6.72005C8.04 7.08005 8.36 7.36005 8.72 7.36005H8.76H9.64V11.44H9.28L8.92 10.92C8.76 10.72 8.52 10.56 8.24 10.56H7.36C6.72 10.56 6.16 10.08 6.16 9.52005V5.40005Z" fill="#00A6DF"/>
<path d="M13.96 1.83997C14 1.87997 14 1.91997 14 1.95997C14 1.99997 14.04 2.03997 14.04 2.07997C14.04 2.11997 14.04 2.15997 14.04 2.15997C14.04 2.15997 14.04 2.15997 14.04 2.19997C14.04 2.23997 14.04 2.27997 14.04 2.31997V2.35997H13.36C13.16 2.35997 13.04 2.47997 12.96 2.63997L12.56 3.75997H12.8L13.16 2.71997C13.2 2.63997 13.28 2.59997 13.36 2.59997H13.56H14.04V3.75997H14.2V1.99997C14.16 1.87997 14.12 1.79997 14.08 1.71997H13.84C13.92 1.75997 13.96 1.79997 13.96 1.83997Z" fill="#00A6DF"/>
<path d="M6 3.71997H6.16V2.55997H6.84C6.92 2.55997 7 2.59997 7.04 2.67997L7.4 3.71997H7.6L7.2 2.59997C7.16 2.43997 7 2.31997 6.8 2.31997H6.12C6.12 2.11997 6.2 1.91997 6.32 1.71997H6.08C6.04 1.79997 6 1.91997 6 1.99997V3.71997Z" fill="#00A6DF"/>
<path d="M10.12 12.3199H9.64001V12.5999H10.64V12.3199H10.12Z" fill="transparent"/>
<path d="M11.64 7.36002H11.6H10.64V11.12V11.44H11L11.36 10.92C11.52 10.72 11.76 10.56 12.04 10.56H12.92C13.56 10.56 14.12 10.08 14.12 9.52002V5.40002H13.96L13.8 9.48002C13.8 9.52002 13.76 9.60002 13.68 9.60002H13.52H13.2H13.04C13 9.60002 12.92 9.56002 12.92 9.48002L12.76 5.40002H12.32V6.72002C12.32 7.04002 12 7.32002 11.64 7.36002Z" fill="transparent"/>
<path d="M8.72 7.12002V5.76002H11.64V6.64002V7.12002C11.72 7.12002 11.84 7.08003 11.92 7.04003C11.96 7.04003 11.96 7.00002 12 7.00002C12.04 6.96002 12.08 6.92003 12.12 6.88003C12.16 6.84003 12.16 6.76002 12.16 6.72002V5.40002H11.92H8.28V6.72002C8.24 6.92002 8.44 7.12002 8.72 7.12002Z" fill="transparent"/>
<path d="M6.83997 2.55994H6.15997V3.71994H7.39997L7.03997 2.67994C6.99997 2.59994 6.91997 2.55994 6.83997 2.55994Z" fill="transparent"/>
<path d="M6.51997 5.20005H6.71997H7.27997H7.47997H8.03997H12.32H12.88H13.08H13.64H13.8H14.08V4.80005H6.15997V5.20005H6.51997Z" fill="transparent"/>
<path d="M13.6 2.55994H13.4C13.32 2.55994 13.24 2.59994 13.2 2.67994L12.84 3.71994H14.08V2.55994H13.6Z" fill="transparent"/>
<path d="M13.2 9.36002H13.28H13.48H13.56L13.72 5.40002H13.64H13.44H13.08H13L13.12 9.36002H13.2Z" fill="transparent"/>
<path d="M9.84003 11.44H10.12H10.44V7.35999H10.12H9.84003V11.44Z" fill="transparent"/>
<path d="M10.32 11.64H9.64001H9.32001V11.84C9.32001 12 9.44001 12.12 9.60001 12.12H10.04H10.68C10.84 12.12 10.96 12 10.96 11.84V11.64H10.64H10.32Z" fill="transparent"/>
<path d="M11.4 7.12V6H11.08H8.91998V6.8V7.12H9.63998H10.64H11.4Z" fill="transparent"/>
<path d="M12 3.72001H12.64L13.04 2.60001C13.08 2.44001 13.24 2.32001 13.44 2.32001H14.12C14.12 2.28001 14.12 2.24001 14.12 2.20001C14.12 2.20001 14.12 2.20001 14.12 2.16001C14.12 2.12001 14.12 2.08001 14.12 2.08001C14.12 2.04001 14.08 2.00001 14.08 1.96001C14.08 1.92001 14.04 1.88001 14.04 1.88001C14 1.84001 14 1.80001 13.96 1.76001H12V3.60001V3.72001Z" fill="transparent"/>
<path d="M6.15997 2.35997H6.83997C7.03997 2.35997 7.15997 2.47997 7.23997 2.63997L7.63997 3.75997H8.27997V3.59997V1.71997H6.39997C6.27997 1.87997 6.19997 2.07997 6.19997 2.31997V2.35997H6.15997Z" fill="transparent"/>
<path d="M8.52 3.88005H11.72C11.76 3.88005 11.76 3.88005 11.76 3.84005L11.8 3.80005C11.8 3.84005 11.76 3.88005 11.72 3.88005H8.52C8.48 3.88005 8.44 3.84005 8.44 3.80005C8.44 3.84005 8.44 3.84005 8.48 3.84005C8.48 3.88005 8.52 3.88005 8.52 3.88005Z" fill="transparent"/>
<path d="M8.68002 2.71994C8.68002 2.19994 9.08002 1.79994 9.60002 1.79994C9.88002 1.79994 10.16 1.91994 10.32 2.11994C10.44 1.99994 10.64 1.95994 10.8 1.95994C11.16 1.95994 11.48 2.19994 11.56 2.55994V1.55994H8.52002C8.52002 1.55994 8.52002 1.55994 8.48002 1.55994H8.44002L8.40002 1.59994V1.67994V3.59994H9.24002C8.92002 3.47994 8.68002 3.11994 8.68002 2.71994Z" fill="transparent"/>
<path d="M10.8 3.48C10.6 3.48 10.44 3.4 10.32 3.32C10.2 3.44 10.08 3.56 9.91998 3.6H11.48C11.52 3.6 11.56 3.56 11.56 3.52V2.88C11.48 3.24 11.16 3.48 10.8 3.48Z" fill="transparent"/>
<path d="M9.88003 3.59998H9.84003C9.84003 3.63997 9.88003 3.59998 9.88003 3.59998Z" fill="transparent"/>
<path d="M8.52001 3.87994H11.72C11.76 3.87994 11.8 3.83994 11.8 3.79994V3.71994V1.71994V1.63994C11.8 1.59994 11.76 1.55994 11.72 1.55994H11.56V2.55994C11.56 2.59994 11.56 2.59994 11.56 2.63994C11.56 2.67994 11.56 2.67994 11.56 2.71994C11.56 2.75994 11.56 2.75994 11.56 2.79994C11.56 2.83994 11.56 2.83994 11.56 2.87994V3.51994C11.56 3.55994 11.52 3.59994 11.48 3.59994H9.92001H9.88001H9.84001H9.80001H9.76001H9.72001C9.68001 3.59994 9.68001 3.59994 9.64001 3.59994C9.60001 3.59994 9.60001 3.59994 9.56001 3.59994H9.52001C9.52001 3.59994 9.52001 3.59994 9.48001 3.59994C9.44001 3.59994 9.44001 3.59994 9.40001 3.59994C9.36001 3.59994 9.36001 3.59994 9.32001 3.55994H8.48001V3.67994V3.75994C8.44001 3.83994 8.48001 3.87994 8.52001 3.87994Z" fill="#D1D3D4"/>
<path d="M9.04 3.16C9.44001 3.32 9.84001 3.16 10.04 2.84C10.04 2.8 10.04 2.76 10.04 2.76C10.04 2.6 10.08 2.48 10.16 2.36C10.16 2.32 10.16 2.32 10.16 2.28C10 2.08 9.80001 2 9.60001 2C9.2 2 8.88 2.32 8.88 2.72C8.88 2.88 8.92 3 9 3.12C9 3.12 9.04 3.12 9.04 3.16Z" fill="transparent"/>
<path d="M11.24 2.36003C11.2 2.36003 11.2 2.32003 11.24 2.36003C11.12 2.24003 11 2.16003 10.84 2.16003C10.52 2.16003 10.28 2.40003 10.28 2.72003C10.28 2.80003 10.28 2.88003 10.32 2.92003C10.36 2.96003 10.44 3.00003 10.48 3.04003C10.92 3.24003 11.36 2.80003 11.24 2.36003Z" fill="transparent"/>
<path d="M11.36 2.59995C11.32 2.47995 11.28 2.39995 11.2 2.31995V2.35995C11.32 2.79995 10.88 3.23995 10.44 3.03995C10.36 2.99995 10.32 2.95995 10.28 2.91995C10.36 3.07995 10.48 3.19995 10.68 3.23995C10.68 3.23995 10.68 3.23995 10.72 3.23995C10.76 3.23995 10.76 3.23995 10.8 3.23995C10.8 3.23995 10.8 3.23995 10.84 3.23995C10.88 3.23995 10.92 3.23995 10.96 3.23995C11 3.23995 11 3.23995 11.04 3.19995C11.04 3.19995 11.04 3.19995 11.08 3.19995C11.12 3.19995 11.12 3.15995 11.16 3.15995C11.2 3.15995 11.2 3.11995 11.24 3.07995L11.28 3.03995C11.28 2.99995 11.32 2.99995 11.32 2.95995C11.32 2.91995 11.32 2.91995 11.36 2.87995C11.36 2.87995 11.36 2.87995 11.36 2.83995C11.36 2.79995 11.36 2.75995 11.36 2.71995C11.36 2.67995 11.36 2.63995 11.36 2.59995Z" fill="#D1D3D4"/>
<path d="M9.04 3.16005C9.04 3.16005 9 3.16005 9 3.12005C9.12 3.32005 9.36 3.44005 9.6 3.44005C9.84 3.44005 10.04 3.32005 10.16 3.16005C10.08 3.04005 10.04 2.96005 10.04 2.80005C9.84 3.12005 9.44 3.32005 9.04 3.16005Z" fill="#D1D3D4"/>
<path d="M10.16 2.27999L10.12 2.23999C10.12 2.27999 10.12 2.27999 10.12 2.31999C10.16 2.31999 10.16 2.27999 10.16 2.27999Z" fill="#D1D3D4"/>
<path d="M7.72 4.27999H8.52H13.92C14 4.27999 14.08 4.19999 14.08 4.12H6V4.27999H7.72Z" fill="transparent"/>
<path d="M13.92 14C14 14 14.08 13.92 14.08 13.84H13.68V14H13.92Z" fill="transparent"/>
<path d="M6.56 13.8H6V13.96H6.56V13.8Z" fill="transparent"/>
<path d="M13.92 14H13.68V14.2H14.24V13.84H14.08C14.12 13.92 14.04 14 13.92 14Z" fill="#D1D3D4"/>
<path d="M6.56 14H6V14.2H6.56V14Z" fill="#D1D3D4"/>
<path d="M14.28 4.08008H14.12C14.12 4.16008 14.04 4.24008 13.96 4.24008H8.56H7.76H6V4.40008H7.72H8.56H14.28V4.08008Z" fill="#D1D3D4"/>
<path d="M7.76 17.6H6V18.16H7.84C7.76 18 7.76 17.8 7.76 17.6Z" fill="transparent"/>
<path d="M13.32 18.16C13.6 18.16 13.8 17.92 13.8 17.68V17.6H12.52C12.52 17.8 12.48 18 12.44 18.16H13.32Z" fill="transparent"/>
<path d="M6 18.16V18.6H8C7.92 18.48 7.88 18.32 7.84 18.16H6Z" fill="#D1D3D4"/>
<path d="M13.32 18.16H12.44C12.4 18.32 12.36 18.44 12.28 18.6H14.28V17.6H13.8V17.68C13.8 17.96 13.56 18.16 13.32 18.16Z" fill="#D1D3D4"/>
<path d="M4.64001 19.2C4.92001 19.2 5.16001 18.96 5.16001 18.68V13.36V11.8V1.71997H4.64001V17.6V18.6V19.64V19.2Z" fill="transparent"/>
<path d="M14.64 19.2C14.92 19.2 15.16 18.96 15.16 18.68V13.36V11.8V1.71997H14.64V3.71997V4.79997V13.44V14.52V19.64V19.2Z" fill="transparent"/>
<path d="M4.64001 0.919985H14.4C14.72 0.919985 14.96 0.679985 14.96 0.359985H14.64H5.64001H4.64001V1.35999V0.919985Z" fill="transparent"/>
<path d="M7.99997 18.6H5.99997V18.16V17.6H7.75997C7.75997 17.6 7.75997 17.6 7.75997 17.56V17.24H5.99997V14.52H6.55997C6.55997 14.44 6.55997 14.36 6.55997 14.28V14.16H5.99997V14V13.84H6.55997V13.72V13.48H5.99997V9.84V4.8H6.15997H14.08H14.24V9.8V13.44H13.68V13.68V13.8H14.08H14.24V14.16H13.68V14.28C13.68 14.36 13.68 14.44 13.68 14.52H14.24V17.24H12.48V17.6C12.48 17.6 12.48 17.6 12.48 17.64H13.76H14.24V18.64H12.24C12.16 18.76 12.12 18.88 12.04 19H14.24V20H16V18.96V17.24V1.72V0H14.28H5.99997H4.27997V1.72V17.24V18.96V20H5.99997V18.96H8.19997C8.11997 18.84 8.03997 18.72 7.99997 18.6ZM6.35997 1.72H8.23997V1.64C8.23997 1.48 8.35997 1.36 8.51997 1.36H11.72H11.76C11.92 1.4 12 1.52 12 1.64V1.72H13.88H14.12H14.24V2V3.72H14.08H12.84H12.6H12V3.8C12 3.84 12 3.92 11.96 3.96L11.92 4C11.88 4.04 11.84 4.08 11.76 4.08H11.72H8.51997C8.35997 4.08 8.23997 3.96 8.23997 3.8V3.72H7.59997H7.35997H6.11997H5.99997V2V1.72H6.11997H6.35997ZM8.55997 4.44H7.71997H5.99997V4.28V4.12H14.12H14.28V4.48H8.55997V4.44ZM15.64 12.24V13.8V19.64H14.64V14.52V13.44V4.8V3.72V1.72H15.16H15.64V12.24ZM4.59997 0.36H5.59997H14.6H14.92H15.6V1.36H4.63997V0.36H4.59997ZM5.63997 12.24V13.8V19.64H4.63997V18.6V17.6V1.72H5.15997H5.63997V12.24Z" fill="#00A6DF"/>
<path d="M15.16 1.71997V11.8V13.36V18.68C15.16 18.96 14.92 19.2 14.64 19.2V19.6H15.64V13.8V12.24V1.71997H15.16Z" fill="#D1D3D4"/>
<path d="M5.11998 1.71997V11.8V13.36V18.68C5.11998 18.96 4.87998 19.2 4.59998 19.2V19.6H5.59998V13.8V12.24V1.71997H5.11998Z" fill="#D1D3D4"/>
<path d="M14.4 0.919985H4.64001V1.35999H15.64V0.359985H14.96C14.96 0.679985 14.68 0.919985 14.4 0.919985Z" fill="#D1D3D4"/>
<path d="M8.23999 3.71999V3.79999C8.23999 3.95999 8.35999 4.07999 8.51999 4.07999H11.72H11.76C11.8 4.07999 11.88 4.03999 11.92 3.99999L11.96 3.95999C12 3.91999 12 3.83999 12 3.79999V3.71999V3.55998V1.71999V1.63999C12 1.51999 11.92 1.39999 11.76 1.35999H11.72H8.51999C8.35999 1.35999 8.23999 1.47999 8.23999 1.63999V1.71999V3.59999V3.71999ZM8.43999 3.79999V3.71999V3.59999V1.71999V1.63999C8.43999 1.59999 8.43999 1.59999 8.47999 1.59999C8.47999 1.59999 8.47999 1.59999 8.51999 1.59999C8.51999 1.59999 8.51999 1.59999 8.55999 1.59999H11.6H11.76C11.8 1.59999 11.84 1.63999 11.84 1.67999V1.75999V3.75998V3.83999C11.84 3.87999 11.84 3.87999 11.8 3.87999L11.76 3.91999H8.55999C8.51999 3.91999 8.51999 3.91999 8.51999 3.87999C8.43999 3.83999 8.43999 3.83999 8.43999 3.79999Z" fill="#00A6DF"/>
<path d="M10.8 1.96005C10.6 1.96005 10.44 2.04005 10.32 2.12005C10.16 1.92005 9.87999 1.80005 9.59999 1.80005C9.07999 1.80005 8.67999 2.20005 8.67999 2.72005C8.67999 3.12005 8.95999 3.48005 9.31999 3.60005C9.35999 3.60005 9.35999 3.60005 9.39999 3.64005C9.43999 3.64005 9.43999 3.64005 9.47999 3.64005C9.47999 3.64005 9.47999 3.64005 9.51999 3.64005H9.55999C9.59999 3.64005 9.59999 3.64005 9.63999 3.64005C9.67999 3.64005 9.67999 3.64005 9.71999 3.64005H9.75999H9.79999H9.83999H9.87999H9.91999C10.08 3.60005 10.2 3.48005 10.32 3.36005C10.44 3.48005 10.64 3.52005 10.8 3.52005C11.16 3.52005 11.48 3.28005 11.56 2.92005C11.56 2.88005 11.56 2.88005 11.56 2.84005C11.56 2.80005 11.56 2.80005 11.56 2.76005C11.56 2.72005 11.56 2.72005 11.56 2.68005C11.56 2.64005 11.56 2.64005 11.56 2.60005C11.48 2.20005 11.16 1.96005 10.8 1.96005ZM9.59999 2.00005C9.79999 2.00005 9.99999 2.08005 10.12 2.24005L10.16 2.28005C10.16 2.28005 10.16 2.32005 10.12 2.32005C10.04 2.44005 9.99999 2.56005 9.99999 2.72005C9.99999 2.76005 9.99999 2.80005 9.99999 2.80005C9.99999 2.92005 10.08 3.04005 10.12 3.16005C9.99999 3.32005 9.75999 3.44005 9.55999 3.44005C9.31999 3.44005 9.07999 3.32005 8.95999 3.12005C8.87999 3.00005 8.83999 2.88005 8.83999 2.72005C8.87999 2.32005 9.19999 2.00005 9.59999 2.00005ZM11.36 2.60005C11.36 2.64005 11.36 2.68005 11.36 2.72005C11.36 2.72005 11.36 2.72005 11.36 2.76005C11.36 2.80005 11.36 2.80005 11.36 2.84005C11.36 2.88005 11.36 2.92005 11.32 2.92005C11.32 2.92005 11.32 2.92005 11.32 2.96005C11.32 3.00005 11.28 3.00005 11.28 3.04005C11.28 3.04005 11.28 3.04005 11.28 3.08005C11.28 3.12005 11.24 3.12005 11.2 3.16005C11.16 3.16005 11.16 3.20005 11.12 3.20005C11.12 3.20005 11.12 3.20005 11.08 3.20005C11.04 3.20005 11.04 3.24005 11 3.24005C10.96 3.24005 10.92 3.28005 10.92 3.28005C10.88 3.28005 10.88 3.28005 10.84 3.28005C10.84 3.28005 10.84 3.28005 10.8 3.28005C10.6 3.28005 10.44 3.16005 10.36 3.04005C10.32 3.00005 10.28 2.92005 10.28 2.84005C10.24 2.52005 10.44 2.24005 10.72 2.16005C10.88 2.12005 11.04 2.16005 11.16 2.24005C11.2 2.32005 11.28 2.40005 11.32 2.48005C11.32 2.48005 11.32 2.48005 11.32 2.52005C11.36 2.56005 11.36 2.60005 11.36 2.60005Z" fill="#00A6DF"/>
<path d="M13.36 13.24C13.36 13.12 13.24 13 13.12 13H7.15998C7.03998 13 6.91998 13.12 6.91998 13.24V13.56H13.36V13.24Z" fill="transparent"/>
<path d="M6.91998 13.88V14.28C6.91998 14.8 7.19998 15.24 7.67998 15.48C7.95998 15.6 8.11998 15.88 8.11998 16.2V17.6C8.11998 18.72 8.99998 19.6 10.12 19.6H10.16C11.28 19.6 12.16 18.72 12.16 17.6V16.2C12.16 15.92 12.32 15.64 12.6 15.48C13.04 15.28 13.36 14.8 13.36 14.28V13.88H6.91998Z" fill="transparent"/>
<path d="M12.44 18.16C12.48 17.96 12.52 17.8 12.52 17.6C12.52 17.6 12.52 17.6 12.52 17.56V17.24V16.2C12.52 16.04 12.6 15.88 12.76 15.84C13.28 15.6 13.64 15.12 13.72 14.56C13.72 14.48 13.72 14.4 13.72 14.32V14.2V14V13.84V13.72C13.72 13.8 13.64 13.88 13.56 13.88H13.4V14.28C13.4 14.8 13.12 15.24 12.64 15.48C12.36 15.6 12.2 15.88 12.2 16.2V17.6C12.2 18.72 11.32 19.6 10.2 19.6H10.16C9.04001 19.6 8.16001 18.72 8.16001 17.6V16.2C8.16001 15.92 8.00001 15.64 7.72001 15.48C7.28001 15.28 6.96001 14.8 6.96001 14.28V13.88H6.80001C6.72001 13.88 6.64001 13.8 6.64001 13.72V13.84V14V14.2V14.32C6.64001 14.4 6.64001 14.48 6.64001 14.56C6.72001 15.12 7.08001 15.6 7.60001 15.84C7.76001 15.92 7.84001 16.04 7.84001 16.2V17.24V17.6C7.84001 17.6 7.84001 17.6 7.84001 17.64C7.84001 17.84 7.88001 18.04 7.92001 18.2C7.96001 18.36 8.00001 18.48 8.08001 18.64C8.16001 18.76 8.20001 18.88 8.28001 19C8.72001 19.6 9.40001 19.96 10.2 19.96H10.24C11.04 19.96 11.72 19.56 12.16 19C12.24 18.88 12.32 18.76 12.36 18.64C12.32 18.48 12.4 18.32 12.44 18.16Z" fill="#00A6DF"/>
<path d="M6.72002 13.52H6.88002V13.2C6.88002 13.08 7.00002 12.96 7.12002 12.96H13.08C13.2 12.96 13.32 13.08 13.32 13.2V13.52H13.48C13.56 13.52 13.64 13.6 13.64 13.72V13.48V13.24C13.64 12.92 13.36 12.64 13.04 12.64H10.8H10.6H9.60002H9.40002H7.12002C6.80002 12.64 6.52002 12.92 6.52002 13.24V13.48V13.72C6.56002 13.6 6.64002 13.52 6.72002 13.52Z" fill="#00A6DF"/>
<path d="M6.71999 13.88H6.88H13.32H13.48C13.56 13.88 13.64 13.8 13.64 13.72C13.64 13.64 13.56 13.52 13.48 13.52H13.32H6.91999H6.75999C6.67999 13.52 6.59999 13.6 6.59999 13.72C6.55999 13.8 6.63999 13.88 6.71999 13.88Z" fill="#00A6DF"/>
</g>
<defs>
<clipPath id="clip0">
<rect width="20" height="20" fill="transparent"/>
</clipPath>
</defs>
</svg>
