<svg xmlns="http://www.w3.org/2000/svg" viewBox="0 0 320.648 320.648">
<path d="M139.219 124.494c12.369-13.416 19.184-31.412 19.184-50.678C158.403 37.134 132.202 0 82.116 0 58.807 0 39.143 8.006 25.247 23.152 12.938 36.57 6.161 54.562 6.161 73.816c0 36.686 26.09 73.818 75.955 73.818 23.396.001 43.146-7.999 57.103-23.14zM82.116 34.322c27.443 0 39.941 20.486 39.941 39.52 0 10.354-3.484 19.939-9.816 26.986-7.064 7.871-17.33 12.033-29.68 12.033-28.137 0-40.955-20.484-40.955-39.516 0-19.421 12.528-39.023 40.51-39.023zM264.274 28.476c-4.539.082-10.736 2.912-13.772 6.287L25.186 285.275c-3.035 3.377-.885 8.111 3.654 8.111h29.49c4.539 0 10.73-2.768 13.76-6.148L296.013 36.777c3.029-3.383 2.828-8.887-4.672-8.885l-27.067.584zM239.647 175.822c-22.859 0-42.15 7.858-55.783 22.715-12.074 13.158-18.726 30.811-18.726 49.699 0 35.984 25.594 72.412 74.51 72.412 22.957 0 42.326-7.85 56.02-22.701 12.135-13.162 18.818-30.816 18.818-49.711-.001-35.984-25.706-72.414-74.839-72.414zm.442 111.596c-27.375 0-39.848-20.557-39.848-39.648 0-10.397 3.482-20.018 9.809-27.092 7.053-7.894 17.287-12.066 29.598-12.066 27.377 0 39.844 20.553 39.844 39.65 0 10.395-3.483 20.018-9.805 27.092-7.055 7.892-17.29 12.064-29.598 12.064z"></path>
</svg>