<svg width="40" height="40" viewBox="0 0 40 40" fill="none" xmlns="http://www.w3.org/2000/svg">
<path d="M9.894 37C8.76066 37 7.74066 36.5844 6.75844 35.7533C4.98289 33.8644 4.98289 30.9933 6.75844 29.2556L12.8784 22.8711C12.9918 22.7578 13.1051 22.6444 13.294 22.6444C13.3696 22.6444 13.4829 22.6822 13.5584 22.72C13.8229 22.8333 14.1251 22.9089 14.4273 22.9089C15.0696 22.9089 15.7496 22.6067 16.2407 22.1533C16.4296 21.9644 16.5429 21.7756 16.6184 21.5867L14.1251 18.7911C13.3696 19.0178 12.614 19.1689 11.8207 19.1689C9.78066 19.1689 7.74066 18.3 6.22955 16.7889C4.114 14.56 3.434 11.0844 4.49178 8.17556V8.13778L4.56733 8.1C4.68066 7.98667 4.83178 7.83556 5.02066 7.79778C5.09622 7.76 5.17178 7.76 5.24733 7.76C5.43622 7.76 5.58733 7.87333 5.66289 7.98667L9.51622 11.9533C9.62955 12.0667 9.81844 12.1422 9.85622 12.1422C10.0073 12.1422 10.0829 12.0667 10.1962 11.9533L12.6896 9.46C12.6896 9.38444 12.7273 9.30889 12.7651 9.23333C12.7651 9.19556 12.8029 9.08222 12.8029 9.04444C12.8029 8.81778 12.8029 8.74222 12.7273 8.70444L8.79844 4.66222C8.60955 4.47333 8.60955 4.20889 8.60955 4.05778V3.94444L9.06289 3.49111H9.10066C9.96955 3.15111 10.914 3 11.8584 3C13.974 3 16.014 3.86889 17.6007 5.45556C19.6784 7.64667 20.3962 10.82 19.4896 13.6911L22.6251 16.6L25.6096 13.5022C25.7607 13.3511 25.9496 13.2756 26.1007 13.2756C26.2896 13.2756 26.4407 13.3511 26.5918 13.5022C26.7429 13.6533 26.8184 13.8422 26.8184 13.9933C26.8184 14.1822 26.7429 14.3333 26.5918 14.4844L22.3607 18.8289L22.9651 19.5089L32.5607 9.57333L31.8429 8.78L28.1407 12.5956C27.9896 12.7467 27.8007 12.8222 27.6496 12.8222C27.4607 12.8222 27.3096 12.7467 27.1584 12.5956C27.0073 12.4444 26.9318 12.2556 26.9318 12.1044C26.9318 11.9156 27.0073 11.7644 27.1584 11.6133L31.3896 7.23111H31.4273L32.4096 5.19111C32.5607 4.88889 32.9762 4.62444 33.2784 4.58667C33.354 4.54889 33.4673 4.51111 33.5429 4.51111C33.8829 4.51111 34.0718 4.7 34.2607 4.85111L36.414 7.11778C36.7162 7.42 36.7162 7.72222 36.7162 8.1C36.7162 8.47778 36.4896 8.81778 36.1496 8.96889L34.2984 9.98889C34.2607 10.0644 34.1851 10.14 34.1096 10.1778L25.3829 19.1689L35.3184 28.3867C36.3384 29.5578 36.8296 30.6533 36.8296 31.7489C36.8296 33.1089 36.3384 34.3556 35.4696 35.2244C34.5629 36.1311 33.4296 36.5844 32.2207 36.5844H32.1073C30.7473 36.5844 29.614 36.0933 28.7073 35.0733L21.1518 26.6867C20.8496 26.3844 20.8496 26.0067 21.1518 25.7044C21.3029 25.5533 21.4918 25.4778 21.6429 25.4778C21.8318 25.4778 21.9829 25.5533 22.134 25.7044L29.6896 34.2422C30.4451 34.9978 31.2384 35.3756 32.0696 35.3756C32.7496 35.3756 33.7696 35.1867 34.5629 34.2422C35.1296 33.5622 35.4696 32.6178 35.4696 31.7111C35.3562 30.7667 34.9784 29.9733 34.3362 29.3311L24.4007 20.1511L24.0607 20.4911L24.4007 20.8311C24.7784 21.36 24.9296 21.8511 24.9296 22.2667C24.9296 22.8711 24.7407 23.3622 24.4007 23.7022L23.1918 24.9111C23.0784 25.0244 22.9651 25.1378 22.7762 25.1378C22.7007 25.1378 22.5873 25.1 22.5118 25.0622C22.2473 24.9489 21.9451 24.9111 21.6429 24.9111C21.0007 24.9111 20.3207 25.2133 19.8296 25.6667C19.1496 26.46 18.9607 27.48 19.2629 28.4622C19.414 28.7267 19.3007 29.0667 19.1118 29.2556L13.0296 35.64C12.1229 36.5089 10.9896 37 9.894 37ZM7.74066 30.2378C7.13622 30.7667 6.834 31.5222 6.79622 32.3156C6.75844 33.1844 7.09844 34.0156 7.74066 34.6578C8.30733 35.2244 9.10067 35.5644 9.894 35.5644C10.6873 35.5644 11.4807 35.2244 12.0473 34.6578L17.8651 28.6133C17.5251 27.2533 17.9029 25.78 18.8851 24.7978C19.6407 24.0422 20.5851 23.6644 21.6051 23.6644C21.9073 23.6644 22.2473 23.7022 22.5496 23.7778L23.4184 22.9089C23.7207 22.6067 23.7207 22.2667 23.4184 21.9644L22.5873 21.1333L20.8873 19.32L20.0562 18.4511C19.9051 18.3 19.754 18.2244 19.6029 18.2244C19.4518 18.2244 19.2629 18.3 19.1496 18.4511L18.2807 19.32C18.6207 20.68 18.2429 22.1533 17.2607 23.1356C16.5051 23.8911 15.5607 24.2689 14.5407 24.2689C14.2384 24.2689 13.8984 24.2311 13.5962 24.1556L7.74066 30.2378ZM14.3896 17.3556C14.5784 17.3556 14.7673 17.4311 14.9184 17.5822L16.8829 19.8489C16.8451 19.7356 16.8073 19.5844 16.7696 19.4333C16.6184 19.1689 16.7318 18.8289 16.9207 18.64L18.1296 17.4311C18.5451 17.0156 19.074 16.7889 19.5651 16.7889C20.0562 16.7889 20.5851 17.0156 21.0007 17.4311L21.2651 17.7711L21.454 17.5822L17.9784 14.3711C17.7896 14.1822 17.6762 13.8422 17.8273 13.54C18.8473 11.0467 18.3184 8.17556 16.4296 6.32444C15.1829 5.07778 13.5207 4.36 11.8207 4.36C11.4051 4.36 10.9896 4.39778 10.574 4.47333L13.8229 7.60889C14.2007 7.98667 14.3518 8.40222 14.3518 8.93111C14.3518 9.46 14.2007 9.87556 13.8229 10.2533L11.2918 12.8978C10.914 13.2756 10.4984 13.4267 9.96955 13.4267C9.40289 13.4267 9.02511 13.2756 8.64733 12.8978L5.54955 9.8C5.134 11.8778 5.77622 14.1822 7.24955 15.92C8.49622 17.1667 10.1207 17.8844 11.8584 17.8844C12.6518 17.8844 13.4073 17.7333 14.1251 17.4311C14.2007 17.3933 14.314 17.3556 14.3896 17.3556ZM33.8073 8.85556L35.2807 8.06222L33.5807 6.28667L32.7873 7.83556L33.8073 8.85556ZM32.0696 33.8644C31.0118 33.8644 30.2184 33.0711 30.2184 32.0133C30.2184 30.9556 31.0118 30.1622 32.0696 30.1622C33.1273 30.1622 33.9207 30.9556 33.9207 32.0133C33.9584 33.0711 33.1651 33.8644 32.0696 33.8644ZM32.0696 31.4844C31.8051 31.4844 31.5407 31.7489 31.5407 32.0133C31.5407 32.2778 31.8051 32.5422 32.0696 32.5422C32.334 32.5422 32.5984 32.2778 32.5984 32.0133C32.6362 31.7489 32.334 31.4844 32.0696 31.4844ZM11.2162 33.6378C11.0651 33.6378 10.914 33.6378 10.7251 33.4489C10.574 33.2978 10.4984 33.1089 10.4984 32.9578C10.4984 32.7689 10.574 32.6178 10.7251 32.4667L15.4096 27.5556H15.4473C15.5984 27.48 15.7496 27.4422 15.9007 27.4422C16.0518 27.4422 16.2029 27.48 16.354 27.5556H16.3918L16.4296 27.5933C16.5807 27.7444 16.6562 27.9333 16.6562 28.0844C16.6562 28.2356 16.5807 28.4244 16.4296 28.5756L11.7451 33.4867C11.5184 33.6378 11.3296 33.6378 11.2162 33.6378ZM9.40289 31.8244C9.25178 31.8244 9.10066 31.8244 8.91178 31.6356C8.60955 31.3333 8.60955 30.9556 8.91178 30.6533L13.5962 25.7422C13.7473 25.5911 13.9362 25.5156 14.0873 25.5156C14.2762 25.5156 14.4273 25.5911 14.5784 25.7422C14.7673 25.9311 14.8429 26.1578 14.8051 26.3844C14.7673 26.5356 14.6918 26.6867 14.5784 26.7622L9.93178 31.6733C9.70511 31.8244 9.51622 31.8244 9.40289 31.8244Z" fill="#7C7C7C"/>
</svg>
