<svg width="40" height="40" viewBox="0 0 40 40" fill="none" xmlns="http://www.w3.org/2000/svg">
<path d="M31.6 32.56C29.52 32.56 27.68 31.16 27.12 29.16L27.04 28.84H21.04L20.96 29.16C20.52 30.72 19.28 32 17.72 32.4C17.32 32.52 16.92 32.56 16.52 32.56C14.44 32.56 12.6 31.16 12.04 29.16L11.96 28.84H11.48C9.64 28.84 8.12 27.32 8.12 25.48V22.96C8.12 22.48 8.52 22.12 8.96 22.12C9.4 22.12 9.8 22.52 9.8 22.96V25.48C9.8 26.4 10.56 27.16 11.48 27.16H11.96L12.04 26.84C12.48 25.28 13.72 24 15.28 23.6C15.68 23.48 16.08 23.44 16.48 23.44C18.56 23.44 20.4 24.84 20.96 26.84L21.04 27.16H23.2V10.36C23.2 9.44 22.44 8.68 21.52 8.68H0.84C0.36 8.68 0 8.28 0 7.84C0 7.4 0.4 7 0.84 7H21.52C23.36 7 24.88 8.52 24.88 10.36V12.44L25.44 12.24C25.8 12.12 26.16 12.04 26.56 12.04H32.76C33.88 12.04 34.92 12.6 35.56 13.52L39.44 19.4C39.8 19.92 40 20.56 40 21.2V25.48C40 27.32 38.48 28.84 36.64 28.84H36.16L36.08 29.16C35.64 30.72 34.4 32 32.84 32.4C32.4 32.52 32 32.56 31.6 32.56ZM31.6 25.08C30 25.08 28.68 26.4 28.68 28C28.68 29.6 30 30.92 31.6 30.92C33.2 30.92 34.52 29.6 34.52 28C34.52 26.4 33.2 25.08 31.6 25.08ZM16.48 25.08C14.88 25.08 13.56 26.4 13.56 28C13.56 29.6 14.88 30.92 16.48 30.92C18.08 30.92 19.4 29.6 19.4 28C19.4 26.4 18.08 25.08 16.48 25.08ZM31.6 23.44C33.68 23.44 35.52 24.84 36.08 26.84L36.16 27.16H36.68C37.6 27.16 38.36 26.4 38.36 25.48V21.2C38.36 20.88 38.24 20.56 38.08 20.28L34.2 14.48C33.88 14 33.36 13.76 32.8 13.76H26.56C25.64 13.76 24.88 14.52 24.88 15.44V27.2H27.04L27.12 26.88C27.56 25.32 28.8 24.04 30.36 23.64C30.76 23.48 31.16 23.44 31.6 23.44Z" fill="#7C7C7C"/>
<path d="M4.64078 13.72C4.16078 13.72 3.80078 13.32 3.80078 12.88C3.80078 12.44 4.20078 12.04 4.64078 12.04H18.4808C18.9608 12.04 19.3208 12.44 19.3208 12.88C19.3208 13.32 18.9208 13.72 18.4808 13.72H4.64078Z" fill="#7C7C7C"/>
<path d="M8.40055 18.76C7.92055 18.76 7.56055 18.36 7.56055 17.92C7.56055 17.48 7.96055 17.08 8.40055 17.08H18.4805C18.9605 17.08 19.3205 17.48 19.3205 17.92C19.3205 18.36 18.9205 18.76 18.4805 18.76H8.40055Z" fill="#7C7C7C"/>
</svg>
