<svg width="40" height="40" viewBox="0 0 40 40" fill="none" xmlns="http://www.w3.org/2000/svg">
<path d="M5.6 32.84C3.6 32.84 2 31.24 2 29.24V10.6C2 8.6 3.6 7 5.6 7H33.6C35.6 7 37.2 8.6 37.2 10.6V29.24C37.2 31.24 35.6 32.84 33.6 32.84H5.6ZM3.64 29.24C3.64 30.32 4.52 31.2 5.6 31.2H33.6C34.72 31.2 35.56 30.32 35.56 29.24V17.84H3.64V29.24ZM35.56 16.2V14.2H3.64V16.2H35.56ZM35.56 12.56V10.64C35.56 9.56 34.68 8.68 33.6 8.68H5.6C4.48 8.68 3.64 9.56 3.64 10.64V12.56H35.56ZM28.92 28.72C28.16 28.72 27.44 28.52 26.84 28.08C26.24 28.48 25.52 28.72 24.76 28.72C23.76 28.72 22.8 28.32 22.12 27.64C21.4 26.92 21.04 26 21.04 25C21.04 24 21.44 23.08 22.12 22.36C22.84 21.64 23.76 21.28 24.76 21.28C25.52 21.28 26.2 21.52 26.84 21.92C27.44 21.52 28.16 21.28 28.92 21.28C29.92 21.28 30.84 21.68 31.56 22.36C32.28 23.08 32.64 24 32.64 25C32.64 26 32.24 26.96 31.56 27.64C30.84 28.32 29.88 28.72 28.92 28.72ZM27.44 26.48C27.84 26.88 28.36 27.08 28.92 27.08C29.48 27.08 30 26.88 30.4 26.48C30.8 26.08 31 25.56 31 25C31 24.44 30.8 23.92 30.4 23.52C30 23.12 29.48 22.92 28.92 22.92C28.36 22.92 27.84 23.12 27.44 23.52C27.04 23.92 26.8 24.44 26.8 25C26.8 25.56 27.04 26.08 27.44 26.48ZM24.76 22.92C24.2 22.92 23.68 23.12 23.28 23.52C22.88 23.92 22.68 24.44 22.68 25C22.68 25.56 22.88 26.08 23.28 26.48C23.68 26.88 24.2 27.08 24.76 27.08C25.08 27.08 25.4 27 25.68 26.88C25.64 26.8 25.6 26.72 25.56 26.6V26.56C25.4 26.24 25.32 25.92 25.24 25.56V25.48C25.2 25.28 25.2 25.12 25.2 24.96C25.2 24.8 25.2 24.64 25.24 24.44V24.36C25.28 24.04 25.4 23.68 25.52 23.4L25.56 23.36C25.6 23.28 25.64 23.16 25.72 23.08C25.4 22.96 25.08 22.92 24.76 22.92ZM7.36 27.2C6.92 27.2 6.56 26.88 6.56 26.44C6.52 26 6.88 25.6 7.32 25.56H10.72C11.2 25.56 11.56 25.96 11.56 26.4C11.56 26.84 11.2 27.2 10.76 27.2H7.36ZM7.36 23.84C7.16 23.84 6.96 23.76 6.8 23.6C6.64 23.44 6.56 23.24 6.56 23C6.56 22.56 6.92 22.2 7.36 22.2H15.2C15.68 22.2 16.04 22.6 16.04 23.04C16.04 23.48 15.68 23.84 15.24 23.84H7.36Z" fill="#00A6DF"/>
</svg>
