<svg width="64" height="64" viewBox="0 0 64 64" fill="none" xmlns="http://www.w3.org/2000/svg">
<path d="M31.9998 60.16C24.4478 60.16 17.4078 57.216 12.0958 51.904C6.78384 46.592 3.83984 39.552 3.83984 32C3.83984 24.448 6.78384 17.408 12.0958 12.096C17.4078 6.784 24.4478 3.84 31.9998 3.84C39.5518 3.84 46.5918 6.784 51.9038 12.096C57.2158 17.408 60.1598 24.448 60.1598 32C60.1598 39.552 57.2158 46.592 51.9038 51.904C46.5918 57.216 39.5518 60.16 31.9998 60.16ZM31.9998 7.36C18.4318 7.36 7.35984 18.432 7.35984 32C7.35984 45.568 18.4318 56.64 31.9998 56.64C45.5678 56.64 56.6398 45.568 56.6398 32C56.6398 18.432 45.5678 7.36 31.9998 7.36ZM31.8718 46.08C25.0238 46.08 21.1838 40.128 20.9918 39.872C20.7358 39.488 20.6718 39.04 20.7358 38.528C20.8638 38.08 21.1198 37.696 21.5038 37.44C21.7598 37.248 22.0798 37.184 22.4638 37.184C23.0398 37.184 23.6158 37.504 23.9358 38.016C23.9358 38.08 26.8798 42.56 31.8718 42.56C36.7998 42.56 39.7438 38.016 39.8078 38.016C40.1278 37.504 40.7038 37.184 41.2798 37.184C41.5998 37.184 41.9198 37.248 42.2398 37.44C42.6238 37.696 42.8798 38.08 43.0078 38.528C43.1358 38.976 43.0078 39.424 42.7518 39.872C42.6238 40.128 38.7838 46.08 31.8718 46.08Z" fill="#333333"/>
<path d="M18.368 30.08C17.856 30.08 17.344 29.824 17.024 29.44C16.704 29.056 16.576 28.608 16.64 28.16C16.704 27.712 16.896 27.264 17.28 26.944C19.328 25.216 21.504 24.32 23.68 24.32H26.752C27.712 24.32 28.48 25.088 28.48 26.048C28.48 27.008 27.712 27.776 26.752 27.776H23.744C23.616 27.776 20.992 28.352 19.52 29.632C19.136 29.888 18.752 30.08 18.368 30.08ZM45.568 29.952C45.184 29.952 44.8 29.824 44.48 29.568C42.944 28.416 41.472 27.776 40.128 27.776H37.12C36.16 27.776 35.392 27.008 35.392 26.048C35.392 25.088 36.16 24.32 37.12 24.32H40.064C42.24 24.32 44.416 25.152 46.592 26.816C47.36 27.392 47.488 28.48 46.912 29.248C46.592 29.696 46.08 29.952 45.568 29.952Z" fill="#333333"/>
</svg>
