<svg width="92" height="20" viewBox="0 0 92 20" fill="none" xmlns="http://www.w3.org/2000/svg">
<g clip-path="url(#clip0)">
<path d="M91.2183 6.50645L91.1236 6.74869C90.9968 7.05149 90.8682 7.35429 90.7451 7.65709C90.219 8.93831 89.6891 10.2176 89.1687 11.5008C88.6047 12.8886 88.0452 14.2809 87.49 15.6775C87.3744 15.9786 87.2184 16.2625 87.0264 16.5216C86.2883 17.4849 85.3231 17.8463 84.1308 17.6211C83.8266 17.5678 83.5324 17.4682 83.2584 17.3259C83.3997 16.9553 83.5941 16.6072 83.8356 16.2926C84.0446 16.0677 84.3287 15.9271 84.6342 15.8971C84.6948 15.8971 84.7553 15.8762 84.8235 15.8743C85.0137 15.8591 85.1906 15.7709 85.3174 15.6283C85.5777 15.3395 85.7715 14.9971 85.8852 14.6253C85.8941 14.56 85.8815 14.4935 85.8492 14.436C85.5691 13.7756 85.2815 13.1113 85.0033 12.4584L82.5278 6.65028C82.5051 6.59539 82.4843 6.54051 82.4521 6.46102C83.0199 6.46102 83.5725 6.42696 84.1176 6.48752C84.282 6.50513 84.4394 6.56375 84.5753 6.65798C84.7112 6.75222 84.8212 6.87906 84.8954 7.02688C84.9669 7.14864 85.0302 7.2751 85.0846 7.40539C85.5956 8.67336 86.1104 9.93945 86.6119 11.2112C86.7122 11.4705 86.7652 11.7487 86.8409 12.0174C86.856 12.0723 86.8731 12.1272 86.8996 12.2067C86.9374 12.1518 86.962 12.1329 86.9658 12.1083C87.155 11.0825 87.5979 10.1457 87.931 9.1692C88.1202 8.6128 88.3284 8.06019 88.5347 7.50947C88.598 7.33817 88.6739 7.1718 88.7618 7.01174C88.8498 6.85002 88.9793 6.71464 89.1369 6.61951C89.2946 6.52439 89.4747 6.47295 89.6588 6.47049C90.1793 6.44967 90.7035 6.47049 91.2258 6.47049L91.2183 6.50645Z" fill="#EE1750"/>
<path d="M0 9.78992C0.0297302 9.71837 0.0550117 9.64505 0.0757002 9.57039C0.1826 9.01308 0.493441 8.51566 0.947493 8.17529C1.40155 7.83492 1.96619 7.67606 2.53111 7.72975C3.09603 7.78344 3.62063 8.04582 4.00244 8.46563C4.38424 8.88544 4.59581 9.43252 4.59581 9.99999C4.59581 10.5675 4.38424 11.1145 4.00244 11.5343C3.62063 11.9542 3.09603 12.2165 2.53111 12.2702C1.96619 12.3239 1.40155 12.1651 0.947493 11.8247C0.493441 11.4843 0.1826 10.9869 0.0757002 10.4296C0.0558962 10.3485 0.0306046 10.2688 0 10.1911V9.78992Z" fill="#EE1750"/>
<path d="M24.2921 3.61659C24.6706 3.62984 25.0245 3.61659 25.3727 3.66012C25.9405 3.73014 26.2547 4.08404 26.3001 4.65747C26.3001 4.73506 26.3095 4.81455 26.3095 4.89403C26.3095 5.46179 26.3095 6.02954 26.3095 6.60864C26.3095 6.80736 26.2868 7.00796 26.2755 7.20857C26.2755 7.27481 26.2755 7.33915 26.266 7.39782C26.3587 7.42431 26.3985 7.35618 26.4553 7.31833C26.8722 6.99063 27.3572 6.76042 27.8746 6.6446C28.6865 6.45572 29.5375 6.53252 30.3023 6.86369C31.0672 7.19485 31.7055 7.76288 32.1233 8.48412C32.6544 9.39058 32.8712 10.447 32.7403 11.4894C32.6697 12.2939 32.3761 13.0627 31.8924 13.7093C31.5724 14.1531 31.1621 14.5241 30.6885 14.7981C30.2149 15.0721 29.6887 15.2428 29.1445 15.299C28.1552 15.4389 27.1475 15.2465 26.2793 14.7521C25.4516 14.2659 24.8369 13.4864 24.5571 12.5681C24.3733 12.0134 24.2812 11.4323 24.2846 10.8479C24.2846 8.51503 24.2846 6.18094 24.2846 3.84559C24.2827 3.77935 24.2883 3.72068 24.2921 3.61659ZM26.2111 10.9406C26.2414 11.162 26.2565 11.3891 26.3058 11.6068C26.4219 12.2152 26.7589 12.7591 27.252 13.134C27.6168 13.4178 28.0773 13.5494 28.537 13.5011C28.9831 13.4683 29.4098 13.3054 29.7644 13.0326C30.1189 12.7599 30.3857 12.3891 30.5317 11.9663C30.7494 11.4063 30.78 10.7908 30.6188 10.212C30.5082 9.76626 30.274 9.36084 29.9431 9.04241C29.6788 8.77473 29.3484 8.58155 28.9855 8.48235C28.6226 8.38316 28.2399 8.38147 27.8761 8.47746C27.5123 8.57345 27.1803 8.76371 26.9135 9.02904C26.6468 9.29437 26.4548 9.62539 26.3568 9.98866C26.2772 10.3004 26.2284 10.6193 26.2111 10.9406Z" fill="#EE1750"/>
<path d="M53.916 7.45836L54.1052 7.31643C54.8409 6.73871 55.7738 6.47237 56.7036 6.57456C58.4258 6.74489 59.5556 7.71007 60.1291 9.30166C60.367 9.92972 60.4662 10.6018 60.4198 11.2719C60.3734 11.9419 60.1826 12.5939 59.8603 13.1832C59.5778 13.7427 59.1642 14.2256 58.6548 14.5907C58.1453 14.9558 57.5551 15.1923 56.9345 15.2801C56.0481 15.4314 55.1367 15.3168 54.3153 14.9508C53.1798 14.4455 52.4909 13.5522 52.1484 12.3751C52.0047 11.8781 51.9321 11.3633 51.9326 10.8459V3.62793C52.3528 3.64118 52.754 3.58819 53.1476 3.67714C53.3477 3.71275 53.5311 3.81185 53.6705 3.95978C53.8099 4.10771 53.898 4.2966 53.9216 4.49849C53.9449 4.62332 53.957 4.75 53.9576 4.87699C53.9576 5.4542 53.9576 6.03141 53.9576 6.60863C53.9576 6.83384 53.9311 7.05715 53.9179 7.28236C53.9141 7.32589 53.916 7.36752 53.916 7.45836ZM58.369 11.0201C58.3906 10.4274 58.2164 9.84406 57.8732 9.36033C57.6668 9.06066 57.389 8.81719 57.0648 8.65197C56.7406 8.48674 56.3804 8.40498 56.0166 8.41408C55.5869 8.41552 55.1682 8.55104 54.8192 8.80175C54.4701 9.05245 54.2079 9.40584 54.0693 9.81264C53.8655 10.3631 53.819 10.9594 53.9349 11.5348C54.0313 12.0965 54.3124 12.61 54.7335 12.9939C54.922 13.1725 55.1454 13.3102 55.3897 13.3981C55.634 13.4861 55.8939 13.5224 56.1529 13.5049C56.6989 13.4747 57.2147 13.2451 57.6026 12.8596C57.8481 12.6207 58.0426 12.3346 58.1744 12.0184C58.3061 11.7022 58.3723 11.3626 58.369 11.0201Z" fill="#EE1750"/>
<path d="M42.4832 10.8668C42.5039 11.9177 42.145 12.9409 41.4724 13.7488C40.7998 14.5566 39.8585 15.0949 38.8212 15.2649C38.1909 15.388 37.5415 15.3743 36.9169 15.2247C36.2923 15.0752 35.7071 14.7933 35.2009 14.3982C34.3451 13.7437 33.7777 12.782 33.6187 11.7165C33.4283 10.7232 33.586 9.69455 34.0653 8.80393C34.3417 8.28424 34.726 7.82964 35.1924 7.4706C35.6588 7.11156 36.1966 6.85639 36.7697 6.72218C37.3887 6.54667 38.0375 6.5028 38.6745 6.59342C39.3114 6.68404 39.9223 6.90712 40.4677 7.2483C41.001 7.57001 41.4545 8.00842 41.7941 8.53058C42.1337 9.05273 42.3505 9.64506 42.4283 10.2631C42.4416 10.3425 42.4529 10.4201 42.4586 10.4977C42.4737 10.6378 42.4794 10.7835 42.4832 10.8668ZM37.998 13.4898C38.4569 13.4978 38.908 13.3705 39.295 13.1238C39.682 12.8771 39.9879 12.5219 40.1744 12.1026C40.4595 11.4932 40.512 10.8006 40.322 10.1552C40.191 9.67471 39.9134 9.24705 39.528 8.93174C39.1425 8.61644 38.6683 8.42919 38.1714 8.39608C37.6745 8.36297 37.1797 8.48564 36.7558 8.74701C36.3319 9.00838 36 9.39543 35.8065 9.85427C35.5709 10.421 35.529 11.0497 35.6872 11.6427C35.8041 12.1679 36.097 12.6373 36.5173 12.9732C36.9375 13.3092 37.46 13.4914 37.998 13.4898Z" fill="#EE1750"/>
<path d="M69.2659 11.2907H63.3784C63.3781 11.3495 63.3812 11.4082 63.3878 11.4667C63.4274 11.7415 63.5223 12.0054 63.6667 12.2425C63.8111 12.4796 64.0021 12.685 64.2281 12.8463C64.5871 13.1214 65.0084 13.3038 65.4546 13.3774C65.9009 13.451 66.3584 13.4135 66.7868 13.2683C67.0858 13.1718 67.3696 13.0299 67.663 12.9126C67.7735 12.862 67.8881 12.8209 68.0055 12.7895C68.1661 12.75 68.3346 12.7575 68.491 12.8112C68.6474 12.8649 68.785 12.9625 68.8874 13.0923C69.0551 13.3004 69.1904 13.5327 69.2886 13.7812C69.1618 13.9023 69.0426 14.0291 68.9101 14.1408C68.2207 14.7282 67.371 15.0954 66.4707 15.1949C65.271 15.365 64.0517 15.0683 63.0642 14.366C62.57 14.0285 62.156 13.5866 61.8512 13.0716C61.5464 12.5566 61.3584 11.9809 61.3004 11.3853C61.1562 10.3393 61.3724 9.27536 61.9136 8.36865C62.2138 7.85808 62.6286 7.42427 63.1252 7.10142C63.6217 6.77857 64.1865 6.57553 64.775 6.50832C65.5355 6.38347 66.3156 6.46651 67.0328 6.74866C68.1683 7.20854 68.8609 8.05828 69.1694 9.23163C69.3037 9.74433 69.3473 10.2766 69.2981 10.8043C69.2849 10.9576 69.2659 11.1147 69.2659 11.2907ZM67.3734 9.7199C67.38 9.7093 67.3851 9.69784 67.3886 9.68583C67.3905 9.6619 67.3905 9.63785 67.3886 9.61392C67.3807 9.33525 67.2976 9.0639 67.148 8.82867C66.9984 8.59343 66.7879 8.40308 66.5388 8.27781C66.2602 8.13315 65.953 8.05186 65.6392 8.03976C65.3255 8.02765 65.0129 8.08503 64.7239 8.20779C64.4193 8.31064 64.1434 8.48437 63.919 8.71469C63.6946 8.945 63.5281 9.22531 63.4332 9.53254C63.4143 9.5931 63.4067 9.65934 63.3935 9.72179C63.5657 9.75775 67.2239 9.75775 67.3734 9.7199Z" fill="#EE1750"/>
<path d="M45.2995 10.6491L42.4739 6.48561C42.5059 6.47996 42.5381 6.47617 42.5705 6.47425C43.0947 6.47425 43.617 6.47425 44.1393 6.47425C44.2728 6.47584 44.4059 6.48978 44.5368 6.51589C44.7601 6.55605 44.9659 6.66295 45.1272 6.82248C45.2386 6.91938 45.3371 7.03003 45.4206 7.15177C45.7858 7.74602 46.1435 8.34784 46.4993 8.94776C46.539 9.014 46.5655 9.09159 46.5996 9.16161C46.624 9.19785 46.6506 9.23261 46.6791 9.2657C46.7169 9.19568 46.7491 9.14647 46.7718 9.09348C47.0979 8.42352 47.4684 7.7761 47.8808 7.15556C48.0097 6.93636 48.1963 6.75675 48.4202 6.63628C48.6441 6.51581 48.8968 6.45911 49.1507 6.47236H50.854C50.3865 7.20098 49.8585 7.85578 49.3967 8.55412C48.935 9.25245 48.4694 9.95079 48.0001 10.6567C48.9312 12.1215 49.8055 13.6166 50.8672 15.0246C50.7991 15.0246 50.7669 15.0378 50.7328 15.0378C50.2105 15.0378 49.6882 15.0378 49.164 15.0378C49.0245 15.0347 48.8858 15.0182 48.7495 14.9886C48.4811 14.9318 48.2409 14.7832 48.0701 14.5685C47.9418 14.4148 47.8236 14.2529 47.7162 14.084C47.4758 13.7055 47.2431 13.327 47.0141 12.9315C46.9232 12.7744 46.8513 12.606 46.7699 12.4432C46.7415 12.3845 46.7113 12.3278 46.6677 12.2407C46.6337 12.2839 46.6027 12.3294 46.575 12.377C46.2873 13.0299 45.8786 13.6147 45.5228 14.2297C45.3842 14.4958 45.1702 14.7151 44.9077 14.8601C44.6451 15.0052 44.3456 15.0697 44.0466 15.0454C43.5659 15.0303 43.0852 15.0454 42.6045 15.0454H42.4531C42.4799 14.9927 42.5096 14.9415 42.5421 14.8921C42.8619 14.4417 43.1817 13.9894 43.5054 13.5409C43.9993 12.8596 44.3967 12.1215 44.8396 11.408C44.9948 11.1639 45.1386 10.9122 45.2995 10.6491Z" fill="#EE1750"/>
<path d="M81.6574 6.4383V8.47842C81.5722 8.46328 81.5003 8.45193 81.4322 8.4349C81.0944 8.34661 80.7384 8.3573 80.4066 8.46568C80.0747 8.57406 79.781 8.77556 79.5605 9.04617C79.2072 9.44617 78.9829 9.94353 78.917 10.4731C78.8714 10.7916 78.8473 11.1128 78.8451 11.4345C78.8356 12.4981 78.8451 13.5617 78.8451 14.6253V14.8505H76.8466C76.8107 14.7161 76.8012 6.69568 76.8372 6.4894C76.8466 6.4894 76.8561 6.47237 76.8655 6.47237C77.241 6.43758 77.6193 6.4503 77.9916 6.51022C78.223 6.54749 78.4327 6.66815 78.5812 6.84945C78.7298 7.03074 78.8068 7.26013 78.7978 7.49432C78.7978 7.6495 78.7978 7.80469 78.8167 7.96745C78.9618 7.6114 79.183 7.29139 79.4648 7.02985C79.7466 6.76831 80.0822 6.57158 80.4481 6.45344C80.8417 6.33486 81.2609 6.32961 81.6574 6.4383Z" fill="#EE1750"/>
<path d="M72.8862 8.01476C73.2647 6.89439 74.5894 6.06737 75.7249 6.45723V8.47464C75.6696 8.47021 75.6146 8.46199 75.5603 8.45004C74.5875 8.19076 73.857 8.65632 73.418 9.30734C73.124 9.77187 72.9552 10.3045 72.9278 10.8535C72.9089 11.1014 72.9051 11.3512 72.9051 11.6105C72.9051 12.6192 72.9051 13.6279 72.9051 14.6385V14.8618H70.918C70.8763 14.7351 70.8593 6.79409 70.9009 6.50643C70.9104 6.50643 70.918 6.48561 70.9274 6.48372C71.3029 6.44894 71.6812 6.46165 72.0535 6.52157C72.2854 6.55804 72.4958 6.67842 72.6448 6.85985C72.7938 7.04127 72.8709 7.2711 72.8616 7.50567C72.8616 7.64004 72.8616 7.77441 72.8616 7.90689C72.8667 7.94348 72.8749 7.97957 72.8862 8.01476Z" fill="#EE1750"/>
<path d="M12.2383 17.7044C12.2356 18.1524 12.1006 18.5897 11.85 18.9611C11.5995 19.3325 11.2447 19.6215 10.8302 19.7918C10.4158 19.962 9.96028 20.0059 9.52099 19.9178C9.08169 19.8298 8.67826 19.6138 8.36145 19.2969C8.04465 18.9801 7.82863 18.5767 7.74058 18.1374C7.65253 17.6981 7.69638 17.2426 7.86663 16.8282C8.03687 16.4137 8.32589 16.0589 8.69732 15.8084C9.06875 15.5578 9.50599 15.4228 9.95401 15.4201C10.5594 15.4216 11.1395 15.6628 11.5676 16.0908C11.9956 16.5189 12.2368 17.099 12.2383 17.7044Z" fill="#EE1750"/>
<path d="M16.0654 6.13741C16.0612 6.58655 15.924 7.02437 15.671 7.39552C15.4181 7.76666 15.0607 8.05447 14.6442 8.22253C14.2277 8.3906 13.7707 8.43137 13.331 8.33971C12.8913 8.24804 12.4886 8.02805 12.1739 7.70756C11.8593 7.38706 11.6467 6.98045 11.5631 6.53914C11.4795 6.09783 11.5287 5.64164 11.7043 5.22827C11.88 4.81489 12.1743 4.46289 12.55 4.21678C12.9258 3.97066 13.366 3.84149 13.8152 3.84558C14.1134 3.84831 14.4082 3.90975 14.6827 4.0264C14.9572 4.14305 15.206 4.31262 15.4149 4.52544C15.6239 4.73826 15.7889 4.99015 15.9005 5.26673C16.0121 5.54332 16.0681 5.83917 16.0654 6.13741Z" fill="#EE1750"/>
<path d="M9.96583 7.70628C10.5722 7.70628 11.1536 7.94714 11.5824 8.37588C12.0111 8.80461 12.252 9.3861 12.252 9.99243C12.252 10.5988 12.0111 11.1802 11.5824 11.609C11.1536 12.0377 10.5722 12.2786 9.96583 12.2786C9.35951 12.2786 8.77802 12.0377 8.34928 11.609C7.92055 11.1802 7.67969 10.5988 7.67969 9.99243C7.67969 9.3861 7.92055 8.80461 8.34928 8.37588C8.77802 7.94714 9.35951 7.70628 9.96583 7.70628Z" fill="#EE1750"/>
<path d="M6.14119 3.84557C6.59515 3.8422 7.03985 3.97396 7.41872 4.22407C7.79758 4.47418 8.09348 4.83134 8.26877 5.25012C8.44405 5.66889 8.49079 6.13034 8.40305 6.57576C8.31531 7.02118 8.09705 7.43042 7.77604 7.75143C7.45503 8.07244 7.04579 8.2907 6.60037 8.37845C6.15495 8.46619 5.6935 8.41944 5.27473 8.24416C4.85596 8.06887 4.49879 7.77298 4.24868 7.39411C3.99857 7.01525 3.86681 6.57054 3.87018 6.11658C3.87018 5.51427 4.10945 4.93663 4.53534 4.51073C4.96124 4.08483 5.53888 3.84557 6.14119 3.84557Z" fill="#EE1750"/>
<path d="M19.8954 9.99055C19.8905 10.4392 19.7529 10.8763 19.4998 11.2468C19.2467 11.6173 18.8896 11.9046 18.4735 12.0723C18.0573 12.24 17.6008 12.2807 17.1616 12.1892C16.7223 12.0978 16.32 11.8782 16.0054 11.5583C15.6908 11.2385 15.478 10.8326 15.3938 10.3918C15.3097 9.95113 15.3579 9.49537 15.5326 9.08207C15.7072 8.66877 16.0003 8.31646 16.3749 8.06959C16.7496 7.82271 17.189 7.69235 17.6376 7.69494C17.9368 7.69667 18.2327 7.7575 18.5084 7.87394C18.784 7.99039 19.0339 8.16015 19.2437 8.37347C19.4535 8.58679 19.619 8.83946 19.7309 9.11697C19.8427 9.39448 19.8986 9.69136 19.8954 9.99055Z" fill="#EE1750"/>
<path d="M6.12997 11.5651C6.58257 11.5599 7.02654 11.6891 7.40563 11.9364C7.78471 12.1838 8.08184 12.538 8.25937 12.9544C8.43691 13.3708 8.48685 13.8305 8.40287 14.2752C8.3189 14.72 8.10478 15.1298 7.78765 15.4528C7.47053 15.7758 7.06467 15.9973 6.62151 16.0894C6.17834 16.1815 5.71781 16.14 5.29828 15.9701C4.87874 15.8002 4.51908 15.5096 4.26487 15.135C4.01067 14.7605 3.87335 14.319 3.87032 13.8664C3.86632 13.5666 3.92173 13.2689 4.03335 12.9906C4.14498 12.7123 4.31061 12.4589 4.52069 12.245C4.73077 12.031 4.98113 11.8608 5.25734 11.7441C5.53355 11.6274 5.83013 11.5666 6.12997 11.5651Z" fill="#EE1750"/>
<path d="M13.8146 11.5651C14.2697 11.5653 14.7143 11.7014 15.0917 11.9558C15.469 12.2102 15.7618 12.5715 15.9326 12.9933C16.1033 13.4152 16.1443 13.8784 16.0503 14.3236C15.9563 14.7689 15.7315 15.176 15.4047 15.4927C15.0779 15.8095 14.6641 16.0215 14.2161 16.1017C13.7681 16.1818 13.3064 16.1264 12.8901 15.9426C12.4738 15.7588 12.1218 15.4549 11.8792 15.0699C11.6366 14.6848 11.5145 14.2361 11.5284 13.7812C11.5428 13.1859 11.7905 12.62 12.2181 12.2054C12.6457 11.7909 13.219 11.561 13.8146 11.5651Z" fill="#EE1750"/>
<path d="M12.2177 2.29183C12.2136 2.74088 12.0764 3.17863 11.8235 3.54974C11.5706 3.92085 11.2134 4.20866 10.797 4.37678C10.3806 4.5449 9.92368 4.5858 9.48402 4.49429C9.04437 4.40278 8.64172 4.18298 8.32696 3.86267C8.01221 3.54236 7.79948 3.13592 7.71568 2.69474C7.63187 2.25355 7.68075 1.79742 7.85613 1.38401C8.03151 0.9706 8.32553 0.618465 8.701 0.37212C9.07648 0.125774 9.51656 -0.00372148 9.96562 1.79607e-06C10.264 0.00247589 10.559 0.0637335 10.8337 0.180273C11.1084 0.296813 11.3575 0.466349 11.5666 0.679192C11.7758 0.892035 11.9409 1.14401 12.0526 1.42072C12.1644 1.69742 12.2205 1.99343 12.2177 2.29183Z" fill="#A6CE38"/>
</g>
<defs>
<clipPath id="clip0">
<rect width="91.2188" height="20" fill="white"/>
</clipPath>
</defs>
</svg>
