<svg xmlns="http://www.w3.org/2000/svg" xmlns:xlink="http://www.w3.org/1999/xlink" version="1.1" id="Слой_1" x="0px" y="0px" viewBox="0 0 253.7 51.6" style="enable-background:new 0 0 253.7 51.6;" xml:space="preserve">
<style type="text/css">
	.st0{fill:#5AA5DC;}
	.st1{fill-rule:evenodd;clip-rule:evenodd;fill:#6D6F73;}
	.st2{fill:#6D6F73;}
	.st3{fill-rule:evenodd;clip-rule:evenodd;fill:#5AA5DC;}
	.st4{fill:none;}
</style>
<g id="XMLID_430_">
	<path id="XMLID_507_" class="st0" d="M14.3,19.8c-4.6,1.4-8.8,1-13.5-2c0,1.1,0.1,2.7,0.2,3.7c2.4,1.9,8.1,3.2,14.2,1.2   c10.8-3.6,15.8,2.1,17,3.2c0.3-1,0.6-2.2,0.8-3.2C26.7,17.1,20.1,18,14.3,19.8z"/>
	<path id="XMLID_504_" class="st0" d="M13.6,26.1c-4.4,1.5-7.6,1.4-12-0.9c3,12.7,13.2,23.2,13.7,23.7l1,1.1l1.1-1   c0.5-0.5,9.4-9.1,13.6-20C31.2,28.7,25.3,22.2,13.6,26.1z M16.5,45.7c-2.1-2.4-7-8.4-10-15.6c2.1,0.2,4.7,0,8.1-1   c7-2,10.6-0.5,12.8,0.9C24,37.3,18.7,43.3,16.5,45.7z"/>
	<path id="XMLID_501_" class="st0" d="M17.4,1.9c-0.1,0-0.2,0-0.3,0C9.3,1.9,2.7,7.4,1.2,14.7C3.4,16,7,19.1,15.8,16.5   c4.4-1.3,10-3,17.4,3c0-0.3,0-0.6,0-1C33.5,9.5,26.3,2.1,17.4,1.9z M14.9,13.6c-5.7,1.7-8.7,0.7-10.2-0.2C6.7,8.4,11.5,4.9,17,4.9   l0.3,0c5.6,0.1,10.4,3.8,12.2,8.8C24.8,11.4,20.3,11.9,14.9,13.6z"/>
	<path id="XMLID_500_" class="st0" d="M224.7,7.7c-5.5,0-10.9,0-16.4,0c0,1,0,1.9,0,2.9c2.1,0,4.3,0,6.4,0c0,6.4,0,12.9,0,19.3   c1.1,0,2.2,0,3.4,0c0-6.5,0-12.9,0-19.4c2.2,0,4.4,0,6.6,0C224.7,9.7,224.7,8.7,224.7,7.7z"/>
	<polygon id="XMLID_499_" class="st0" points="252,13.9 239.5,13.9 239.5,16.8 244.1,16.8 244.1,29.7 247.4,29.7 247.4,16.8    252,16.8  "/>
	<polygon id="XMLID_498_" class="st1" points="150.1,29.7 153.3,29.7 153.3,13.9 150.1,13.9 150,19.9 144.2,19.9 144.2,13.9    140.9,13.9 140.9,29.7 144.2,29.7 144.2,23.1 150.1,23.1  "/>
	<path id="XMLID_492_" class="st2" d="M197.7,20.7c0-2.6,0.1-3.2-1.5-3.8c-1.7-0.6-3.8-0.2-5.1,1c-0.3-0.3-1.5-1.6-1.9-1.9   c0.9-1.1,2-1.8,3.3-2.1c1.7-0.4,3.4-0.4,5.1,0.2c1.4,0.5,2.5,1.4,3.1,2.8c0.3,0.6,0.4,1.2,0.4,1.9c0,3.4,0,10.3,0,10.3   c-0.9,0.4-1.9,0.6-2.8,0.8c-1.5,0.3-3,0.4-4.5,0.2c-1.2-0.1-2.4-0.4-3.4-1.1c-1.5-1.1-1.9-2.6-1.7-4.3c0.3-2.6,2.1-3.8,4.2-4.3   c1.5-0.3,2.9-0.2,4.3,0.2C197.4,20.6,197.5,20.6,197.7,20.7z M197.8,23.3c-1-0.4-2.3-0.6-3.4-0.5c-0.5,0.1-1,0.2-1.4,0.5   c-0.7,0.5-1.1,1.2-1,2.1c0.1,0.9,0.7,1.4,1.6,1.6c0.9,0.2,2.9,0.2,4.2-0.2C197.8,25.7,197.8,23.3,197.8,23.3z"/>
	<path id="XMLID_491_" class="st1" d="M188.1,13.9h-4.2c-1.9,2.1-4.3,4.6-6.2,6.6v-6.6h-3.3c0,2.2,0,15.8,0,15.8h3.3V25l1.4-1.5   l4.8,6.2h3.9c-2.5-3.2-5.3-6.9-6.5-8.5L188.1,13.9z"/>
	<polygon id="XMLID_490_" class="st1" points="166.6,13.9 160.8,24.6 160.8,13.9 157.5,13.9 157.5,29.7 160.8,29.7 160.8,29.7    161.3,29.7 167.1,19.1 167.1,29.7 170.4,29.7 170.4,13.9  "/>
	<polygon id="XMLID_488_" class="st1" points="133.5,21.8 138.7,13.9 134.8,13.9 131.5,19.2 128.1,13.9 124.2,13.9 129.6,21.8    124.2,29.7 128.1,29.7 131.5,24.5 134.8,29.7 138.7,29.7  "/>
	<path id="XMLID_485_" class="st1" d="M121.7,26.8c-1.3,2-3.1,3.1-5.4,3.2c-1.5,0.1-2.9-0.2-4.1-1c-1.4-0.9-2.3-2.1-2.4-3.8   c-0.1-1.2-0.1-5.8,0-7c0.1-1.7,1-2.9,2.5-3.7c1.4-0.8,3-1.1,4.6-0.9c1.2,0.1,2.3,0.5,3.3,1.2c1.3,0.9,1.9,2.2,2,3.7   c0.1,1.6,0.1,4.9,0.1,4.9h-9.1c0,0,0,1.1,0.1,1.6c0.2,1,1,1.5,1.9,1.7c1.3,0.3,2.9,0,3.8-1.5C119.8,25.7,120.7,26.2,121.7,26.8z    M118.9,20.5c0-0.6,0-1.1,0-1.7c0-0.8-0.5-1.3-1.2-1.6c-1.1-0.5-2.2-0.5-3.3-0.1c-0.7,0.3-1.2,0.8-1.3,1.5c-0.1,0.6,0,1.2,0,1.9   C115.1,20.5,117,20.5,118.9,20.5z"/>
	<polygon id="XMLID_484_" class="st2" points="107.7,13.9 95.3,13.9 95.3,16.8 99.8,16.8 99.8,29.7 103.2,29.7 103.2,16.8    107.7,16.8  "/>
	<polygon id="XMLID_483_" class="st1" points="89.4,13.9 89.4,19.9 83.5,19.9 83.5,13.9 80.2,13.9 80.2,29.7 83.5,29.7 83.5,23.1    89.4,23.1 89.4,29.7 92.7,29.7 92.7,13.9  "/>
	<path id="XMLID_480_" class="st2" d="M73.1,20.7c0-2.6,0.1-3.2-1.5-3.8c-1.7-0.6-3.8-0.2-5.1,1c-0.3-0.3-1.5-1.6-1.9-1.9   c0.9-1.1,2-1.8,3.4-2.1c1.7-0.4,3.4-0.4,5.1,0.2c1.4,0.5,2.5,1.4,3.1,2.8c0.3,0.6,0.4,1.2,0.4,1.9c0,3.4,0,10.2,0,10.3   c-0.9,0.4-1.9,0.6-2.8,0.8c-1.5,0.3-3,0.4-4.5,0.2c-1.2-0.1-2.4-0.4-3.4-1.1c-1.5-1.1-1.9-2.6-1.7-4.3c0.3-2.6,2.1-3.8,4.2-4.3   c1.5-0.3,2.9-0.2,4.3,0.2C72.7,20.6,72.9,20.6,73.1,20.7z M73.1,23.3c-1-0.4-2.3-0.6-3.4-0.5c-0.5,0.1-1,0.2-1.4,0.5   c-0.7,0.5-1.1,1.2-1,2.1c0.1,0.9,0.7,1.4,1.6,1.6c0.9,0.2,2.9,0.2,4.2-0.2C73.1,25.7,73.1,23.3,73.1,23.3z"/>
	<g id="XMLID_478_">
		<path id="XMLID_479_" class="st1" d="M59.5,23.6c1,0.5,2.1,1,3.1,1.5c-0.6,1.2-1.4,2.2-2.4,3.1c-1.8,1.4-3.7,2-6,2    c-2-0.1-3.9-0.6-5.5-1.8c-1.5-1.2-2.5-2.7-2.5-4.7c0-3.2,0-6.4,0-9.5c0-1.7,0.8-3.2,2.2-4.3c2-1.7,4.3-2.2,6.8-2.1    c3.4,0.2,5.8,1.9,7.4,4.9c-1.1,0.5-2.1,1-3.1,1.5c-0.5-0.5-0.9-1.1-1.4-1.6c-1-0.9-2.3-1.3-3.6-1.3c-1.1,0-2.2,0.2-3.1,0.8    c-1.1,0.6-1.7,1.5-1.7,2.8c0,2.6,0,5.2,0,7.8c0,1.6,0.7,2.7,2.1,3.3c2.1,0.9,4.1,0.8,6.1-0.6C58.4,25,59,24.2,59.5,23.6z"/>
	</g>
	<path id="XMLID_477_" class="st3" d="M227.9,13.9c0,0,0,7,0,10c0,1.9,1,2.7,2.5,3c1.1,0.2,2.1,0.1,3.1-0.4c0.1-0.1,0.2-0.2,0.4-0.3   c0-4.1,0-12.4,0-12.4h3.3c0,0,0,10.8,0,15.9c0,0.7,0,1.4-0.2,2.1c-0.5,1.7-1.6,2.9-3.2,3.5c-2.8,1-5.4,0.7-7.8-1   c-0.5-0.3-0.9-0.8-1.3-1.3c0.7-0.7,1.4-1.3,2.1-1.9c0.2,0.2,0.3,0.3,0.5,0.4c1.4,1.2,3,1.6,4.8,1.1c1.2-0.3,2.3-1.7,1.9-3.2   c-1.2,0.4-2.4,0.6-3.6,0.5c-2.1-0.2-3.9-1-5.1-2.9c-0.4-0.7-0.7-1.5-0.7-2.3c0-3.5,0-10.9,0-10.9H227.9z"/>
	<g id="XMLID_432_">
		<path id="XMLID_476_" class="st2" d="M178.4,44.5c-0.3,0.6-0.7,0.9-1.4,1.1c-0.3,0-0.5,0-0.8,0c-0.4,0-0.7-0.1-1.1-0.3    c-0.3-0.2-0.5-0.5-0.5-0.9c0-0.6,0-1.3,0-1.9c0-0.5,0-0.9,0-1.4c0-0.5,0.3-0.8,0.7-1c0.4-0.2,0.8-0.3,1.2-0.3    c0.5,0,1.1,0.1,1.5,0.4c0.2,0.1,0.3,0.3,0.4,0.5c0.1,0,0.2-0.1,0.3-0.1c0.2-0.1,0.5-0.3,0.7-0.4c-0.5-0.9-1.2-1.3-1.9-1.5    c-0.2-0.1-0.4-0.1-0.6-0.1c-0.2,0-0.5,0-0.7,0c-0.2,0-0.4,0.1-0.6,0.1c-1.1,0.3-2.1,1-2.2,2.5c0,1,0,2.1,0,3.1    c0,0.7,0.3,1.3,0.9,1.8c1.1,0.9,3.1,1,4.3,0c0.4-0.3,0.7-0.7,0.9-1.3c-0.3-0.2-0.6-0.3-1-0.4C178.4,44.4,178.4,44.5,178.4,44.5z"/>
		<polygon id="XMLID_475_" class="st2" points="63.4,39.8 65.9,39.8 65.9,46.6 67.1,46.6 67.1,39.8 69.6,39.8 69.6,38.6 63.4,38.6       "/>
		<polygon id="XMLID_474_" class="st2" points="101.5,39.8 104,39.8 104,46.6 105.2,46.6 105.2,39.8 107.7,39.8 107.7,38.6     101.5,38.6   "/>
		<polygon id="XMLID_473_" class="st2" points="196.6,39.8 199,39.8 199,46.6 200.3,46.6 200.3,39.8 202.7,39.8 202.7,38.6     196.6,38.6   "/>
		<rect id="XMLID_472_" x="108.2" y="41.4" class="st2" width="4" height="1.2"/>
		<polygon id="XMLID_471_" class="st2" points="60.9,41.9 57.2,41.9 57.2,38.6 56,38.6 56,46.6 57.2,46.6 57.2,43 60.9,43     60.9,46.6 62.2,46.6 62.2,38.6 60.9,38.6   "/>
		<polygon id="XMLID_470_" class="st2" points="91.5,41.9 87.8,41.9 87.8,38.6 86.5,38.6 86.5,46.6 87.8,46.6 87.8,43 91.5,43     91.5,46.6 92.7,46.6 92.7,38.6 91.5,38.6   "/>
		<polygon id="XMLID_469_" class="st2" points="165.8,41.9 162.1,41.9 162.1,38.6 160.9,38.6 160.9,46.6 162.1,46.6 162.1,43     165.8,43 165.8,46.6 167.1,46.6 167.1,38.6 165.8,38.6   "/>
		<polygon id="XMLID_468_" class="st2" points="194,41.9 190.3,41.9 190.3,38.6 189.1,38.6 189.1,46.6 190.3,46.6 190.3,43 194,43     194,46.6 195.2,46.6 195.2,38.6 194,38.6   "/>
		<polygon id="XMLID_467_" class="st2" points="224,41.9 220.3,41.9 220.3,38.6 219.1,38.6 219.1,46.6 220.3,46.6 220.3,43 224,43     224,46.6 225.2,46.6 225.2,38.6 224,38.6   "/>
		<polygon id="XMLID_466_" class="st2" points="132.2,46.5 132.2,46.6 133.4,46.6 133.4,39.8 137,39.8 137,38.6 132.2,38.6   "/>
		<polygon id="XMLID_465_" class="st2" points="52.4,38.6 49,44.9 49,38.6 47.8,38.6 47.8,46.6 49.4,46.6 52.8,40.4 52.8,46.6     54,46.6 54,38.6 52.4,38.6   "/>
		<polygon id="XMLID_464_" class="st2" points="157,38.6 153.6,44.9 153.6,38.6 152.4,38.6 152.4,46.6 154,46.6 157.4,40.4     157.4,46.6 158.6,46.6 158.6,38.6 157,38.6   "/>
		<polygon id="XMLID_463_" class="st2" points="232.1,38.6 228.7,44.9 228.7,38.6 227.5,38.6 227.5,46.6 229.1,46.6 232.5,40.4     232.5,46.6 233.7,46.6 233.7,38.6 232.1,38.6   "/>
		<polygon id="XMLID_462_" class="st2" points="248,38.6 248,38.6 244.6,44.9 244.6,38.6 243.4,38.6 243.4,46.6 244.9,46.6     248.3,40.4 248.3,46.6 249.6,46.6 249.6,38.6   "/>
		<path id="XMLID_459_" class="st2" d="M75.5,39.2c-0.5-0.4-1.1-0.6-1.8-0.7c-0.9-0.1-1.7,0.1-2.4,0.5c-0.7,0.4-1.1,1.1-1.1,1.9    c0,1.1,0,2.2,0,3.4c0,0.8,0.4,1.5,1.1,1.9c1,0.7,2.1,0.7,3.3,0.3c0.7-0.3,1.3-0.8,1.6-1.5c-0.4-0.2-0.7-0.3-1-0.4    c-0.2,0.2-0.4,0.5-0.6,0.6c-0.7,0.5-1.8,0.5-2.5,0.1c-0.3-0.2-0.6-0.5-0.6-0.9c0-0.4,0-1.2,0-1.2h4.9c0,0,0-1.6,0-2.3    C76.4,40.2,76.1,39.6,75.5,39.2z M75.3,42.2h-3.7c0,0,0-0.8,0-1.2c0-0.4,0.4-0.9,0.9-1.1c0.8-0.3,1.5-0.3,2.2,0.2    c0.4,0.3,0.6,0.6,0.6,1.1C75.3,41.4,75.3,42.2,75.3,42.2z"/>
		<path id="XMLID_456_" class="st2" d="M99.9,39.2c-0.5-0.4-1.1-0.6-1.8-0.7c-0.9-0.1-1.7,0.1-2.4,0.5c-0.7,0.4-1.1,1.1-1.1,1.9    c0,1.1,0,2.2,0,3.4c0,0.8,0.4,1.5,1.1,1.9c1,0.7,2.1,0.7,3.3,0.3c0.7-0.3,1.3-0.8,1.6-1.5c-0.4-0.2-0.7-0.3-1-0.4    c-0.2,0.2-0.4,0.5-0.6,0.6c-0.7,0.5-1.8,0.5-2.5,0.1c-0.3-0.2-0.6-0.5-0.6-0.9c0-0.4,0-1.2,0-1.2h4.9c0,0,0-1.6,0-2.3    C100.7,40.2,100.4,39.6,99.9,39.2z M99.6,42.2h-3.7c0,0,0-0.8,0-1.2c0-0.4,0.4-0.9,0.9-1.1c0.8-0.3,1.5-0.3,2.2,0.2    c0.4,0.3,0.6,0.6,0.6,1.1C99.6,41.4,99.6,42.2,99.6,42.2z"/>
		<path id="XMLID_453_" class="st2" d="M208.7,39.2c-0.5-0.4-1.1-0.6-1.8-0.7c-0.9-0.1-1.7,0.1-2.4,0.5c-0.7,0.4-1.1,1.1-1.1,1.9    c0,1.1,0,2.2,0,3.4c0,0.8,0.4,1.5,1.1,1.9c1,0.7,2.1,0.7,3.3,0.3c0.7-0.3,1.3-0.8,1.6-1.5c-0.4-0.2-0.7-0.3-1-0.4    c-0.2,0.2-0.4,0.5-0.6,0.6c-0.7,0.5-1.8,0.5-2.5,0.1c-0.3-0.2-0.6-0.5-0.6-0.9c0-0.4,0-1.2,0-1.2h4.9c0,0,0-1.6,0-2.3    C209.5,40.2,209.2,39.6,208.7,39.2z M208.4,42.2h-3.7c0,0,0-0.8,0-1.2c0-0.4,0.4-0.9,0.9-1.1c0.8-0.3,1.5-0.3,2.2,0.2    c0.4,0.3,0.6,0.6,0.6,1.1C208.4,41.4,208.4,42.2,208.4,42.2z"/>
		<path id="XMLID_450_" class="st2" d="M185.2,38.7c-0.8-0.3-1.6-0.4-2.5-0.1c-0.7,0.2-1.3,0.5-1.8,1.1c0.2,0.3,0.7,0.8,0.7,0.8    s0.1-0.1,0.1-0.1c0.8-0.7,1.8-0.9,2.8-0.5c0.4,0.2,0.9,0.5,0.9,1c0,0.4,0,0.8,0,1.3c-0.2,0-0.3-0.1-0.4-0.1    c-0.9-0.3-1.8-0.4-2.6-0.1c-0.8,0.2-1.4,0.6-1.7,1.4c-0.2,0.4-0.2,0.8-0.2,1.2c0.1,0.8,0.5,1.5,1.2,1.9c0.5,0.3,1.4,0.4,2,0.4    c0.6,0,1.6-0.2,1.9-0.2c0.5-0.1,1.1-0.3,1.1-0.3s0-3.5,0-5.2C186.8,39.9,186.3,39.2,185.2,38.7z M185.6,45.6    c-0.3,0-0.5,0.1-0.8,0.1c-0.6,0-1.2,0.1-1.7,0c-1-0.2-1.3-1-1.1-1.7c0.1-0.7,0.6-1,1.2-1.2c0.8-0.2,1.6,0,2.4,0.2    C185.6,43.9,185.6,44.7,185.6,45.6z"/>
		<path id="XMLID_443_" class="st2" d="M142,38.7c-0.8-0.3-1.6-0.4-2.5-0.1c-0.7,0.2-1.3,0.5-1.8,1.1c0.2,0.3,0.7,0.8,0.7,0.8    s0.1-0.1,0.1-0.1c0.8-0.7,1.8-0.9,2.8-0.5c0.4,0.2,0.9,0.5,0.9,1c0,0.4,0,0.8,0,1.3c-0.2,0-0.3-0.1-0.4-0.1    c-0.9-0.3-1.8-0.4-2.7-0.1c-0.8,0.2-1.4,0.6-1.7,1.4c-0.2,0.4-0.2,0.8-0.2,1.2c0.1,0.8,0.4,1.5,1.2,1.9c0.6,0.3,1.4,0.4,2,0.4    c0.6,0,1.6-0.2,1.9-0.2c0.5-0.1,1.1-0.3,1.1-0.3s0-3.5,0-5.2C143.6,39.9,143.1,39.2,142,38.7z M142.4,45.6c-0.3,0-0.5,0.1-0.8,0.1    c-0.6,0-1.2,0.1-1.7,0c-1-0.2-1.3-1-1.1-1.7c0.1-0.7,0.6-1,1.2-1.2c0.8-0.2,1.6,0,2.4,0.2C142.4,43.9,142.4,44.7,142.4,45.6z"/>
		<path id="XMLID_440_" class="st2" d="M128.5,38.7c-0.8-0.3-1.6-0.4-2.5-0.1c-0.7,0.2-1.3,0.5-1.8,1.1c0.2,0.3,0.7,0.8,0.7,0.8    s0.1-0.1,0.1-0.1c0.8-0.7,1.8-0.9,2.8-0.5c0.4,0.2,0.9,0.5,0.9,1c0,0.4,0,0.8,0,1.3c-0.1,0-0.3-0.1-0.4-0.1    c-0.9-0.3-1.8-0.4-2.7-0.1c-0.8,0.2-1.4,0.6-1.7,1.4c-0.2,0.4-0.2,0.8-0.2,1.2c0.1,0.8,0.4,1.5,1.2,1.9c0.5,0.3,1.4,0.4,2,0.4    c0.6,0,1.6-0.2,1.9-0.2c0.5-0.1,1.1-0.3,1.1-0.3s0-3.5,0-5.2C130,39.9,129.5,39.2,128.5,38.7z M128.8,45.6c-0.3,0-0.5,0.1-0.8,0.1    c-0.6,0-1.2,0.1-1.7,0c-1-0.2-1.3-1-1.1-1.7c0.1-0.7,0.6-1,1.2-1.2c0.8-0.2,1.6,0,2.4,0.2C128.8,43.9,128.8,44.7,128.8,45.6z"/>
		<path id="XMLID_437_" class="st2" d="M83.8,39.2c-0.7-0.6-1.5-0.8-2.4-0.7c-0.7,0-1.4,0.1-2.1,0.3c-0.2,0.1-0.6,0.2-0.8,0.3v10.3    c0.5,0,1,0,1.2,0c0-1,0-2,0-3.1c0,0,0.9,0.5,2.1,0.4c0.7,0,1.3-0.2,1.8-0.6c0.7-0.5,1.1-1.1,1.1-1.9c0-1.1,0-2.2,0-3.3    C84.6,40.2,84.3,39.7,83.8,39.2z M83.4,44c0,0.8-0.5,1.4-1.4,1.5c-0.7,0.1-1.3,0-2-0.2c-0.1,0-0.2-0.1-0.4-0.1c0-1.8,0-3.6,0-5.4    c0.3,0,0.5-0.1,0.8-0.1c0.6,0,1.1-0.1,1.7,0c0.3,0.1,0.5,0.2,0.7,0.4c0.4,0.3,0.5,0.7,0.5,1.1C83.4,42.1,83.4,43.1,83.4,44z"/>
		<polygon id="XMLID_436_" class="st2" points="216.1,38.6 214,41.6 212,38.6 210.5,38.6 213.3,42.6 210.6,46.6 212,46.6 214,43.7     216,46.6 217.5,46.6 214.8,42.6 217.5,38.6   "/>
		<polygon id="XMLID_435_" class="st2" points="118.4,43.7 116,38.6 114.4,38.6 114.4,46.6 115.7,46.6 115.7,40.7 118,45.6     118.8,45.6 121.1,40.7 121.1,46.6 122.3,46.6 122.3,38.6 120.8,38.6   "/>
		<path id="XMLID_434_" class="st2" d="M149.7,42.4c-0.1,0-0.1-0.1-0.2-0.1c0.1,0,0.1-0.1,0.1-0.1c0,0,0.1,0,0.1-0.1    c0.5-0.4,0.7-0.9,0.7-1.5c0-0.9-0.5-1.6-1.4-1.9c-0.6-0.2-1.1-0.3-1.7-0.2c-0.9,0.1-1.7,0.5-2.3,1.4c0.3,0.2,0.6,0.4,0.8,0.6    c0,0,0.3-0.3,0.5-0.5c0.7-0.4,1.4-0.4,2.1-0.2c0.3,0.1,0.6,0.3,0.6,0.7c0.1,0.7-0.2,1.3-0.9,1.4c-0.4,0.1-0.8,0.1-1.6,0.1v1    c0.3,0,0.8,0,1,0c0.4,0,0.7,0,1,0.1c0.6,0.2,0.8,0.6,0.8,1.3c0,0.6-0.3,0.9-0.8,1.1c-0.4,0.1-0.8,0.2-1.2,0.1    c-0.6,0-1.2-0.3-1.6-0.8c0,0,0-0.1-0.1-0.1l-0.9,0.6c0.2,0.4,0.6,0.8,1,1c0.9,0.6,2.2,0.6,3.4,0.2c0.8-0.3,1.4-0.9,1.5-1.8    C150.9,43.9,150.6,42.9,149.7,42.4z"/>
		<polygon id="XMLID_433_" class="st2" points="240.7,38.6 237,42.3 237,38.6 235.8,38.6 235.8,46.6 237,46.6 237,44 237.9,43.1     240.7,46.6 242.2,46.6 238.7,42.3 242.3,38.6   "/>
	</g>
	<line id="XMLID_431_" class="st4" x1="45.5" y1="33.9" x2="201.5" y2="33.9"/>
</g>
</svg>