<svg width="99" height="20" viewBox="0 0 99 20" fill="none" xmlns="http://www.w3.org/2000/svg">
<g clip-path="url(#clip0)">
<path d="M5.20037 10.8364L2.20037 17.5636H0.0185547L3.30946 10.3727C2.53214 9.9779 1.87808 9.37729 1.41855 8.63637C0.899948 7.68525 0.654537 6.6092 0.709459 5.52727C0.692896 4.70268 0.83168 3.88236 1.11855 3.10911C1.35489 2.45469 1.73016 1.85921 2.21855 1.36364C2.68409 0.907911 3.24214 0.557569 3.85491 0.336366C4.48378 0.105629 5.1487 -0.0113506 5.81855 -0.00909268H8.64583V17.5545H6.75492V10.8273L5.20037 10.8364ZM6.7731 1.60002H5.74582C5.36615 1.59802 4.98962 1.66899 4.63673 1.80909C4.28704 1.95804 3.97607 2.18506 3.72764 2.47274C3.42136 2.82087 3.19211 3.22982 3.05492 3.67274C2.86977 4.26067 2.78074 4.87463 2.79128 5.49092C2.77809 6.09049 2.85782 6.68847 3.02764 7.26363C3.15532 7.68933 3.37225 8.08294 3.664 8.4182C3.92795 8.7043 4.25919 8.91992 4.62765 9.04547C5.00354 9.16692 5.39625 9.22826 5.79128 9.22727H6.80037L6.7731 1.60002ZM27.6276 20H25.9095V17.5636H20.6004V20H18.8367V15.9909H19.6004C19.8954 15.2913 20.1178 14.5633 20.264 13.8182C20.4276 13.0243 20.5549 12.2061 20.6458 11.3636C20.7367 10.5182 20.7913 9.66365 20.8186 8.78183C20.8458 7.90001 20.8186 7.06363 20.8186 6.23636V5.18184H26.564V15.9909H27.5458L27.6276 20ZM35.964 16.7364C35.5545 17.0523 35.0973 17.3009 34.6095 17.4727C34.0611 17.6534 33.4868 17.7425 32.9095 17.7364C32.3232 17.7576 31.7407 17.6334 31.2141 17.3749C30.6874 17.1163 30.233 16.7314 29.8913 16.2546C29.0693 14.9539 28.681 13.4261 28.7822 11.8909C28.7791 10.9777 28.8491 10.0657 28.9913 9.16363C29.1113 8.41226 29.3346 7.68111 29.6549 6.99092C29.9234 6.42403 30.3259 5.93103 30.8276 5.55454C31.3032 5.19943 31.8796 5.00519 32.4731 5.00001C32.9569 4.99769 33.4352 5.10328 33.8731 5.30909C34.3214 5.53285 34.6967 5.87974 34.9549 6.3091C35.295 6.86753 35.5293 7.4839 35.6458 8.12728C35.8242 9.0036 35.9065 9.89675 35.8913 10.7909V11.8455H30.7276C30.6681 12.94 30.8674 14.0333 31.3095 15.0364C31.4564 15.3686 31.6994 15.6492 32.0073 15.842C32.3151 16.0349 32.6737 16.1311 33.0367 16.1182C33.5332 16.1295 34.0263 16.0334 34.4822 15.8364C34.8295 15.6837 35.1613 15.498 35.4731 15.2818L35.964 16.7364ZM17.7822 5.18184V17.5636H15.8731V12.0182H13.0186V17.5636H11.1004V5.18184H13.0186V10.4546H15.8731V5.18184H17.7822ZM39.8004 11.3636V17.5273H37.9276V5.18184H39.8458V10.9091L42.8186 5.18184H44.7549L41.6913 11.0091L45.2004 17.5636H43.1095L39.8004 11.3636ZM49.6549 17.7273C49.0426 17.7484 48.4349 17.6145 47.8882 17.338C47.3414 17.0614 46.8735 16.6512 46.5277 16.1455C45.678 14.7018 45.285 13.0348 45.4004 11.3636C45.3948 10.4801 45.4893 9.59866 45.6822 8.73636C45.843 8.02626 46.126 7.34953 46.5186 6.73637C46.8708 6.20864 47.3407 5.76985 47.8913 5.45455C48.4794 5.14504 49.1359 4.98871 49.8004 5.00001C50.2595 4.98557 50.7177 5.05014 51.1549 5.19091C51.4753 5.30498 51.7805 5.45762 52.064 5.64545L51.8004 7.46364C51.5267 7.21992 51.2208 7.01499 50.8913 6.85456C50.5431 6.68484 50.1604 6.59773 49.7731 6.60002C49.4115 6.61522 49.0614 6.73145 48.7626 6.93551C48.4637 7.13958 48.228 7.42332 48.0822 7.75455C47.5713 8.85366 47.3432 10.063 47.4186 11.2727C47.3599 12.4948 47.5485 13.7162 47.9731 14.8636C48.0888 15.2316 48.3185 15.5532 48.629 15.7819C48.9395 16.0107 49.3147 16.1348 49.7004 16.1364C50.1216 16.1452 50.5399 16.0646 50.9277 15.9C51.2402 15.7682 51.5312 15.5905 51.7913 15.3727L52.2367 16.8C51.9011 17.0761 51.5276 17.3027 51.1277 17.4727C50.6586 17.6547 50.1579 17.7412 49.6549 17.7273ZM24.7367 6.72727H22.6004V6.94547C22.6004 7.60002 22.6004 8.31819 22.6004 9.09092C22.6004 9.86364 22.5186 10.6636 22.4367 11.4636C22.3549 12.2636 22.2458 13.0546 22.1004 13.8364C21.9621 14.5693 21.7551 15.2876 21.4822 15.9818H24.7731L24.7367 6.72727ZM32.5004 6.57274C32.2095 6.57507 31.9279 6.67483 31.7004 6.85611C31.473 7.0374 31.3129 7.28972 31.2458 7.57272C30.9646 8.43384 30.8085 9.33089 30.7822 10.2364H33.9549C33.9552 9.74759 33.9309 9.25908 33.8822 8.77273C33.8415 8.37808 33.7623 7.98835 33.6458 7.60909C33.5624 7.32178 33.4094 7.05948 33.2004 6.84546C33.106 6.75073 32.9919 6.67799 32.8662 6.63242C32.7405 6.58685 32.6063 6.56957 32.4731 6.58182L32.5004 6.57274ZM59.3549 8.30001V17.5545H58.1277V7.1032e-06H59.3549V8.18182L64.4913 7.1032e-06H65.6731L60.6549 8.10911L66.164 17.5636H64.7822L59.3549 8.30001ZM70.164 16.8727C70.4471 16.8752 70.7267 16.8116 70.9808 16.6869C71.2349 16.5622 71.4564 16.3799 71.6277 16.1545C72.0356 15.6438 72.344 15.061 72.5368 14.4364V11.0273H71.2095C70.7994 10.9934 70.3866 11.041 69.9949 11.1674C69.6033 11.2937 69.2406 11.4964 68.9277 11.7636C68.6561 12.0884 68.4512 12.4635 68.3249 12.8675C68.1985 13.2716 68.1531 13.6966 68.1913 14.1182C68.1442 14.836 68.329 15.5498 68.7186 16.1545C68.8777 16.3888 69.094 16.5785 69.3469 16.7058C69.5999 16.833 69.8811 16.8936 70.164 16.8818V16.8727ZM72.8913 17.5545C72.8458 17.3909 72.7913 17.1818 72.7367 16.9364C72.6614 16.5924 72.6158 16.2427 72.6004 15.8909C72.3399 16.4346 71.9609 16.9129 71.4913 17.2909C70.9391 17.6824 70.261 17.8546 69.589 17.7739C68.9169 17.6933 68.2988 17.3656 67.8549 16.8546C67.3013 16.0043 67.0297 15.0012 67.0787 13.9877C67.1276 12.9743 67.4947 12.002 68.1276 11.2091C68.9767 10.4763 70.0817 10.1102 71.2004 10.1909H72.5458V8.63637C72.6043 7.91149 72.4256 7.18725 72.0367 6.57274C71.8446 6.35352 71.6042 6.18191 71.3344 6.07148C71.0646 5.96105 70.7729 5.91479 70.4822 5.93637C69.97 5.93498 69.4649 6.05658 69.0095 6.29093C68.5561 6.52489 68.1685 6.86866 67.8822 7.29091L67.564 6.18181C67.8616 5.79657 68.2443 5.48542 68.6822 5.27272C69.249 5.00187 69.8725 4.87095 70.5004 4.89092C70.9377 4.86624 71.3752 4.9345 71.7842 5.0912C72.1931 5.24789 72.5643 5.48947 72.8731 5.80001C73.4855 6.5709 73.7813 7.54609 73.7004 8.52728V15.2818C73.6977 15.7132 73.7219 16.1444 73.7731 16.5727C73.7988 16.9092 73.8628 17.2417 73.964 17.5636L72.8913 17.5545ZM79.8004 16.8C80.1586 16.8027 80.5139 16.7347 80.8458 16.6C81.1231 16.481 81.3831 16.3251 81.6186 16.1364C81.8667 15.9528 82.0819 15.7284 82.2549 15.4727L82.6186 16.4273C82.4344 16.6965 82.2035 16.9305 81.9367 17.1182C81.6612 17.3237 81.3542 17.4833 81.0277 17.5909C80.6234 17.7398 80.1947 17.8108 79.764 17.8C79.1739 17.8136 78.5916 17.6637 78.0813 17.3668C77.5711 17.07 77.153 16.6379 76.8731 16.1182C76.1191 14.6611 75.7676 13.0292 75.8549 11.3909C75.7649 9.7418 76.113 8.09825 76.864 6.62729C77.145 6.09927 77.568 5.66031 78.0853 5.35992C78.6025 5.05954 79.1934 4.90969 79.7913 4.92729C80.3497 4.90933 80.9044 5.02462 81.4095 5.26365C81.8223 5.45943 82.1905 5.7379 82.4913 6.08183L82.1731 7.30911C81.8878 6.93312 81.5477 6.60213 81.164 6.32727C80.7611 6.04844 80.2812 5.90226 79.7913 5.9091C79.337 5.90215 78.8915 6.03546 78.5157 6.29087C78.1399 6.54629 77.8521 6.91138 77.6913 7.33638C77.1822 8.61541 76.9528 9.98859 77.0186 11.3636C76.9605 12.7226 77.1865 14.0788 77.6822 15.3455C77.8391 15.7856 78.131 16.165 78.5163 16.4295C78.9015 16.694 79.3605 16.83 79.8276 16.8182L79.8004 16.8ZM87.9822 16.8C88.3404 16.8027 88.6957 16.7347 89.0277 16.6C89.306 16.4831 89.5662 16.327 89.8004 16.1364C90.0485 15.9528 90.2637 15.7284 90.4367 15.4727L90.8095 16.4273C90.6226 16.6973 90.3886 16.9313 90.1186 17.1182C89.843 17.3237 89.536 17.4833 89.2095 17.5909C88.8053 17.7398 88.3765 17.8108 87.9458 17.8C87.3567 17.815 86.775 17.6656 86.266 17.3685C85.757 17.0715 85.3408 16.6385 85.064 16.1182C84.3041 14.6633 83.9522 13.0297 84.0458 11.3909C83.953 9.74261 84.298 8.09911 85.0458 6.62729C85.3269 6.09927 85.7499 5.66031 86.2671 5.35992C86.7843 5.05954 87.3752 4.90969 87.9731 4.92729C88.5317 4.90827 89.0866 5.02362 89.5913 5.26365C90.0056 5.4569 90.3743 5.73575 90.6731 6.08183L90.3549 7.30911C90.0716 6.93141 89.7311 6.60015 89.3458 6.32727C88.9435 6.04733 88.4632 5.90104 87.9731 5.9091C87.5188 5.90215 87.0734 6.03546 86.6976 6.29087C86.3218 6.54629 86.0339 6.91138 85.8731 7.33638C84.9824 9.94112 84.9824 12.768 85.8731 15.3727C86.0314 15.8026 86.3194 16.1726 86.6973 16.4316C87.0751 16.6906 87.5242 16.8257 87.9822 16.8182V16.8ZM95.1095 16.8727C95.3925 16.8752 95.6722 16.8116 95.9263 16.6869C96.1804 16.5622 96.4019 16.3799 96.5731 16.1545C96.9779 15.6417 97.286 15.0595 97.4822 14.4364V11.0273H96.1549C95.7434 10.9927 95.329 11.0399 94.9358 11.1663C94.5426 11.2927 94.1783 11.4957 93.864 11.7636C93.5924 12.0884 93.3876 12.4635 93.2613 12.8675C93.1349 13.2716 93.0895 13.6966 93.1277 14.1182C93.085 14.8355 93.2695 15.5481 93.6549 16.1545C93.8155 16.3895 94.0333 16.5796 94.2879 16.7069C94.5424 16.8341 94.8252 16.8943 95.1095 16.8818V16.8727ZM97.8367 17.5545C97.8367 17.3909 97.7367 17.1818 97.6822 16.9364C97.6158 16.5909 97.5703 16.2418 97.5458 15.8909C97.2883 16.4364 96.9088 16.9154 96.4367 17.2909C95.9808 17.6387 95.4189 17.8185 94.8458 17.8C94.458 17.8157 94.0717 17.7419 93.717 17.5843C93.3623 17.4266 93.0486 17.1893 92.8004 16.8909C92.2468 16.0406 91.9752 15.0375 92.0241 14.0241C92.0731 13.0107 92.4401 12.0384 93.0731 11.2455C93.9227 10.5136 95.0273 10.1476 96.1458 10.2273H97.5004V8.63637C97.5609 7.91009 97.3787 7.18427 96.9822 6.57274C96.7915 6.35424 96.5526 6.18302 96.2844 6.07259C96.0162 5.96216 95.726 5.91552 95.4367 5.93637C94.9215 5.93388 94.4132 6.0555 93.9549 6.29093C93.5016 6.52489 93.114 6.86866 92.8277 7.29091L92.5095 6.18181C92.8071 5.79657 93.1898 5.48542 93.6277 5.27272C94.1946 5.0022 94.818 4.8713 95.4458 4.89092C95.8817 4.86697 96.3176 4.93559 96.725 5.09228C97.1324 5.24897 97.502 5.49018 97.8095 5.80001C98.426 6.5687 98.7224 7.54559 98.6367 8.52728V15.2818C98.6386 15.7131 98.6628 16.144 98.7095 16.5727C98.7374 16.9097 98.8045 17.2423 98.9095 17.5636L97.8367 17.5545Z" fill="black"/>
</g>
<defs>
<clipPath id="clip0">
<rect width="98.9182" height="20" fill="white"/>
</clipPath>
</defs>
</svg>
