<svg width="60" height="28" viewBox="0 0 60 28" fill="none" xmlns="http://www.w3.org/2000/svg">
<g clip-path="url(#clip0)">
<path d="M11.4176 0C12.0668 0.317035 12.6988 0.669259 13.3109 1.05515C16.1442 2.69298 18.9738 4.33533 21.7996 5.98221L21.9533 6.07731L21.7929 6.18373L14.7342 10.5651C14.677 10.5968 14.6239 10.6356 14.5761 10.6806C14.5374 10.7191 14.507 10.7654 14.4867 10.8164C14.4664 10.8674 14.4566 10.9222 14.458 10.9772C14.458 11.2195 14.458 11.4617 14.458 11.704C14.4578 11.7869 14.478 11.8685 14.517 11.9413C14.5559 12.0141 14.6122 12.0758 14.6808 12.1207C14.8523 12.2316 15.0305 12.3471 15.202 12.4535C15.277 12.5071 15.3665 12.5359 15.4581 12.5359C15.5498 12.5359 15.6393 12.5071 15.7143 12.4535C16.5874 11.9055 17.465 11.3644 18.3404 10.821L22.3631 8.33026C22.4032 8.30309 22.4478 8.28045 22.5124 8.24422C22.5124 8.3212 22.5124 8.38007 22.5124 8.44121V15.1593C22.5124 16.927 22.5124 18.6961 22.5124 20.4668C22.5234 20.6483 22.4842 20.8294 22.3992 20.9895C22.3141 21.1496 22.1867 21.2823 22.0313 21.3725C18.6129 23.5266 15.1857 25.6806 11.7495 27.8347C11.622 27.9008 11.4894 27.9561 11.353 28H11.177C11.0419 27.952 10.9101 27.8945 10.7828 27.8279C7.34513 25.6784 3.90971 23.5213 0.476511 21.3566C0.325397 21.267 0.201166 21.1373 0.117179 20.9813C0.0331916 20.8253 -0.00737469 20.649 -0.000157009 20.4713C-0.000157009 16.453 -0.000157009 12.4346 -0.000157009 8.4163C-0.000157009 8.36649 -0.000157009 8.31441 -0.000157009 8.23969L0.169127 8.34158L8.41058 13.4498C8.96521 13.794 9.52429 14.1404 10.0767 14.4823C10.1345 14.51 10.1823 14.5555 10.2131 14.6125C10.2439 14.6694 10.2562 14.7348 10.2482 14.7993C10.2482 14.8468 10.2482 14.8944 10.2482 14.9419V23.9628C10.2442 24.0442 10.263 24.1251 10.3024 24.196C10.3418 24.267 10.4003 24.3251 10.4709 24.3636C10.6603 24.4768 10.8496 24.59 11.0412 24.6987C11.1089 24.7384 11.1857 24.7594 11.2639 24.7594C11.3421 24.7594 11.4189 24.7384 11.4867 24.6987C11.6782 24.5877 11.8675 24.4723 12.0569 24.3613C12.1258 24.3248 12.1832 24.2694 12.2226 24.2013C12.2619 24.1333 12.2817 24.0553 12.2796 23.9764V23.8813C12.2796 20.4954 12.2796 17.1088 12.2796 13.7215C12.2796 13.6649 12.2796 13.606 12.2796 13.5494C12.2766 13.4866 12.2591 13.4254 12.2286 13.3707C12.198 13.316 12.1552 13.2694 12.1036 13.2347C12.0591 13.203 12.0123 13.1735 11.9655 13.1464L0.725982 6.17014L0.592337 6.07957L0.746029 5.98674L10.3618 0.403041C10.6075 0.239303 10.8705 0.10411 11.1459 0H11.4176Z" fill="#DB0032"/>
<path d="M60 20.6049C59.6414 20.6819 59.285 20.7748 58.9264 20.8314C58.4609 20.9061 57.9953 20.9627 57.5276 21.008C56.9719 21.0661 56.413 21.0858 55.8548 21.0669C55.0933 21.0543 54.3397 20.908 53.6273 20.6344C52.6931 20.282 51.9029 19.62 51.3843 18.755C51.0337 18.1654 50.8062 17.5087 50.7161 16.8259C50.577 15.929 50.621 15.0125 50.8453 14.1336C51.3509 12.2385 52.5225 11.0769 54.3134 10.6263C55.1917 10.4104 56.108 10.4104 56.9863 10.6263C57.0617 10.6465 57.1361 10.6706 57.209 10.6987C57.2781 10.7214 57.3449 10.7508 57.4318 10.7848V6.14529L57.4563 6.11133H57.4696H59.9755L60 20.6049ZM57.4585 18.6305V13.3729C57.4585 13.1804 57.4942 13.203 57.2915 13.1147L57.1801 13.0717C56.5639 12.8554 55.9029 12.8062 55.2623 12.9291C54.251 13.1283 53.6006 13.76 53.3489 14.8333C53.2224 15.3836 53.2148 15.9553 53.3266 16.5089C53.3857 16.9048 53.5354 17.2811 53.7637 17.6076C53.9919 17.934 54.2924 18.2014 54.6408 18.3882C54.9852 18.5661 55.359 18.6775 55.7434 18.7165C56.1418 18.7584 56.5434 18.7584 56.9417 18.7165C57.1044 18.6916 57.2736 18.6577 57.4585 18.6305Z" fill="#414042"/>
<path d="M38.9355 20.6027C38.7128 20.6526 38.5034 20.7114 38.2807 20.7567C37.4726 20.9185 36.6534 21.0169 35.8305 21.0511C35.3469 21.0828 34.8618 21.0828 34.3782 21.0511C33.5644 20.9982 32.7699 20.7763 32.0439 20.399C31.4931 20.1101 31.0094 19.7049 30.6252 19.2105C30.241 18.7161 29.9653 18.144 29.8165 17.5324C29.4879 16.3341 29.508 15.0647 29.8744 13.8779C30.4023 12.1774 31.5115 11.1177 33.1286 10.6716C34.0497 10.4175 35.0192 10.405 35.9463 10.6354C36.0911 10.6694 36.2292 10.7282 36.3918 10.7826C36.3918 10.4656 36.3918 10.1599 36.3918 9.85197V6.10913H38.9199C38.9622 6.22008 38.9712 20.4012 38.9355 20.6027ZM36.4007 18.6306V13.3729C36.3984 13.3466 36.3984 13.32 36.4007 13.2937C36.404 13.2773 36.404 13.2605 36.4008 13.2441C36.3977 13.2277 36.3913 13.2122 36.3822 13.1983C36.3731 13.1844 36.3614 13.1725 36.3478 13.1632C36.3341 13.1539 36.3188 13.1475 36.3027 13.1442C36.2648 13.1306 36.2292 13.1103 36.1913 13.0989C35.5046 12.8382 34.757 12.7917 34.0441 12.9653C33.6125 13.0631 33.2182 13.2865 32.9093 13.6081C32.6004 13.9298 32.3903 14.3358 32.3045 14.7768C32.1404 15.4333 32.1496 16.1221 32.3312 16.7739C32.4142 17.1194 32.5691 17.443 32.7854 17.7226C33.0017 18.0023 33.2745 18.2316 33.5853 18.3951C33.9264 18.5706 34.2963 18.6811 34.6767 18.7211C35.0751 18.763 35.4767 18.763 35.875 18.7211C36.0466 18.6917 36.2158 18.6577 36.4007 18.6306Z" fill="#414042"/>
<path d="M44.4031 21.0803V18.6961H44.5791C44.9064 18.6823 45.2296 18.6166 45.5369 18.5013C45.9149 18.3678 46.2537 18.1398 46.5223 17.8383C46.7909 17.5368 46.9805 17.1715 47.0738 16.7759C47.2464 16.1721 47.2686 15.534 47.1384 14.9192C47.0599 14.4597 46.8485 14.0344 46.5311 13.6977C46.2137 13.3609 45.8047 13.1279 45.3565 13.0286C44.9329 12.9213 44.4935 12.8936 44.0601 12.9471C43.7817 12.9742 43.5055 13.0399 43.2293 13.092C43.1719 13.1067 43.1153 13.1248 43.06 13.1463C43.0348 13.1518 43.0126 13.1667 42.9977 13.1881C42.9828 13.2095 42.9765 13.2358 42.9798 13.2618C42.9798 13.3139 42.9798 13.366 42.9798 13.4203V24.9273C42.8529 24.9636 40.6076 24.9726 40.4339 24.9409C40.4027 24.83 40.3893 11.5817 40.4339 11.3145C40.5631 11.2624 40.699 11.2013 40.8393 11.1515C41.6246 10.8622 42.44 10.6655 43.2694 10.565C43.7597 10.4999 44.254 10.4719 44.7484 10.4813C45.5175 10.4864 46.2787 10.6401 46.9914 10.9341C48.5506 11.6134 49.4594 12.8316 49.7289 14.5932C49.8777 15.5694 49.8207 16.5665 49.5619 17.5186C49.1164 19.1625 48.1163 20.2358 46.5905 20.7611C46.1014 20.926 45.5927 21.0235 45.0781 21.0509C44.8642 21.06 44.6415 21.069 44.4031 21.0803Z" fill="#414042"/>
</g>
<defs>
<clipPath id="clip0">
<rect width="60" height="28" fill="white"/>
</clipPath>
</defs>
</svg>
