<svg width="48" height="24" viewBox="0 0 48 24" fill="none" xmlns="http://www.w3.org/2000/svg">
<g clip-path="url(#clip0)">
<path fill-rule="evenodd" clip-rule="evenodd" d="M14.974 0.265277C16.5471 0.16001 18.1223 0.0547412 19.6985 0.0147395C21.6694 -0.0473685 23.6392 0.0915834 25.6015 0.26317C26.7652 3.50331 26.669 7.11715 25.6015 10.3689C23.8171 10.5497 22.0243 10.6365 20.2306 10.6289C18.4766 10.5994 16.7248 10.492 14.975 10.3668C15.1506 9.47199 15.3337 8.57722 15.504 7.68244C17.9181 7.80771 20.3533 7.99825 22.76 7.68244C22.8203 7.32453 22.8658 6.96241 22.9071 6.60029C21.285 6.60029 19.6604 6.60029 18.0334 6.60029C18.0334 5.74201 18.0334 4.88373 18.0334 4.02544C19.6647 4.02544 21.2956 4.02544 22.9261 4.02544C22.8902 3.66437 22.8457 3.30646 22.7886 2.94855C20.3777 2.67064 17.935 2.80223 15.5114 2.95171C15.3315 2.05693 15.1528 1.16216 14.975 0.267381L14.974 0.265277ZM1.7207 0.265277H13.5934C13.5934 3.63385 13.5934 7.00241 13.5934 10.371H9.79241C9.79241 7.95403 9.79241 5.53744 9.79241 3.12119H5.53123C5.53123 5.53708 5.53123 7.95403 5.53123 10.371H1.72282V0.265277H1.7207ZM27.9691 0.265277H31.7458C31.7458 1.48112 31.7458 2.69696 31.7458 3.91491H33.1507C34.1652 2.70012 35.1744 1.47901 36.19 0.265277H40.5443C39.1225 1.84429 37.6943 3.42331 36.2725 5.00233C37.7895 6.78977 39.3058 8.57757 40.8214 10.3657C39.2699 10.3657 37.7165 10.3657 36.1614 10.3657C35.1451 9.09829 34.1281 7.83052 33.1105 6.56239C32.6556 6.56239 32.2007 6.56239 31.7458 6.56239C31.7458 7.82561 31.7458 9.09303 31.7458 10.3647H27.9702C27.968 7.00031 27.9677 3.63385 27.9691 0.265277Z" fill="#1D2172"/>
<path fill-rule="evenodd" clip-rule="evenodd" d="M6.84965 13.4311C7.49708 13.3048 8.24924 13.3785 8.74857 13.8522C9.24789 14.3259 9.37484 15.0364 9.3431 15.686C9.31983 16.3523 9.02574 17.0544 8.42274 17.3997C8.06558 17.5842 7.6661 17.6723 7.26406 17.6553C6.86203 17.6383 6.47149 17.5168 6.13135 17.3029C5.40881 16.7765 5.30936 15.7628 5.45006 14.9438C5.55585 14.2206 6.10701 13.5627 6.84965 13.4353V13.4311ZM7.04854 14.0564C6.62538 14.1827 6.43073 14.6375 6.38418 15.0407C6.33129 15.5502 6.31224 16.1018 6.55133 16.5692C6.78301 17.0081 7.39764 17.1092 7.8208 16.9081C8.21751 16.6976 8.34234 16.2144 8.37513 15.8007C8.39946 15.3175 8.39206 14.7933 8.12864 14.3691C7.90543 14.0185 7.42832 13.9385 7.05383 14.0533L7.04854 14.0564ZM10.7078 13.7785C11.4028 13.2364 12.3666 13.3206 13.1706 13.5343C13.1272 13.7501 13.0838 13.9648 13.0415 14.1806C12.5337 14.0817 11.9603 13.9627 11.4853 14.2354C11.0347 14.5133 10.9384 15.0922 10.95 15.5796C10.95 16.0302 11.0474 16.5818 11.497 16.806C12.0259 17.0555 12.6279 16.9113 13.1769 16.8176C13.2266 17.0229 13.2753 17.2292 13.3261 17.4345C12.5633 17.6566 11.7054 17.7713 10.9532 17.4534C10.3777 17.2165 10.0709 16.6018 10.0159 16.0112C9.91965 15.2259 10.0551 14.3059 10.7078 13.7785ZM43.6019 0.357909C44.8329 0.231857 46.0739 0.234328 47.3045 0.365279C47.3045 1.41796 47.3045 2.46818 47.3045 3.51594H43.6019C43.6019 2.46327 43.6019 1.41059 43.6019 0.357909ZM1.70936 13.4511H4.44612C4.44612 14.6238 4.44612 15.7961 4.44612 16.9681L4.87986 16.9808C4.87986 17.5345 4.87986 18.0903 4.87986 18.644H4.17742C4.17742 18.2931 4.17742 17.9422 4.17742 17.5913H1.22061V18.644H0.518174C0.518174 18.0917 0.518174 17.5394 0.518174 16.9871C0.676857 16.9513 0.900072 17.0355 1.00692 16.8744C1.30842 16.5102 1.43008 16.0323 1.50942 15.5817C1.62261 14.8764 1.64483 14.1617 1.70724 13.4511H1.70936ZM2.48479 14.0554C2.36843 15.0333 2.46364 16.1186 1.87968 16.9713C2.43401 16.9639 2.98941 16.9713 3.54374 16.9713C3.54374 16.0014 3.54374 15.0308 3.54374 14.0596L2.48479 14.0554ZM13.6191 14.089C13.6191 13.8785 13.6191 13.668 13.6191 13.4511H17.2043C17.2043 13.6617 17.2043 13.8746 17.2043 14.0901H15.8724C15.8724 15.2586 15.8608 16.4239 15.865 17.5913H14.9637C14.9637 16.4235 14.9637 15.2565 14.9637 14.0901L13.6191 14.089ZM18.4791 13.4522C17.9974 14.8312 17.5167 16.2109 17.0371 17.5913H17.9385C18.0407 17.2762 18.1426 16.9604 18.2442 16.6439H19.793C19.8913 16.9597 19.9897 17.2755 20.0902 17.5913H21.0254C20.5578 16.2109 20.0902 14.8308 19.6226 13.4511L18.4791 13.4522ZM19.0281 14.0175C19.2238 14.6912 19.4079 15.3691 19.6057 16.0407H18.442C18.6473 15.3691 18.8377 14.6933 19.0292 14.0175H19.0281ZM21.5226 13.4511C22.2229 13.4627 22.9254 13.4269 23.6257 13.4701C24.0986 13.5016 24.5841 13.8153 24.6571 14.3122C24.7069 14.5298 24.6818 14.7577 24.5859 14.9595C24.49 15.1612 24.3288 15.3251 24.1282 15.4249C24.7217 15.6144 24.9343 16.3376 24.6931 16.8734C24.5069 17.3408 23.9907 17.5892 23.5051 17.5892C22.8429 17.6039 22.1796 17.5892 21.5173 17.5945C21.5173 16.214 21.5173 14.834 21.5173 13.4543L21.5226 13.4511ZM22.4313 14.0754C22.4313 14.434 22.4313 14.7922 22.4313 15.1501C22.7762 15.1354 23.1369 15.1996 23.4712 15.087C23.8817 14.9249 23.832 14.2227 23.4014 14.1196C23.0841 14.0469 22.754 14.0817 22.4324 14.0754H22.4313ZM22.4313 15.7596C22.4313 16.1597 22.4313 16.5628 22.4313 16.9629C22.7836 16.9544 23.1454 17.0018 23.4892 16.9228C23.9854 16.7818 23.9875 15.9649 23.4998 15.8081C23.1518 15.7144 22.7836 15.7702 22.4271 15.7596H22.4313ZM26.1646 15.6807C26.226 14.9438 26.2567 14.1975 26.3085 13.4553H28.9829C28.9829 14.835 28.9829 16.2151 28.9829 17.5955H28.0826C28.0667 16.4239 28.0826 15.2523 28.0741 14.0796H27.0797C27.0046 15.0154 27.0723 15.9976 26.7084 16.8829C26.4968 17.4092 25.9573 17.6808 25.4305 17.7924C25.3638 17.5818 25.2972 17.3829 25.2326 17.1776C25.4558 17.0629 25.7066 16.9671 25.8674 16.7628C26.1033 16.4544 26.1266 16.0512 26.1678 15.6807H26.1646ZM29.9445 14.1859C30.0989 13.7417 30.5676 13.4838 31.0214 13.4637C31.6752 13.4416 32.33 13.4638 32.9838 13.4553C32.9838 14.8354 32.9838 16.2155 32.9838 17.5955H32.0698C32.0698 17.0376 32.0698 16.4807 32.0698 15.9239C31.7101 15.9418 31.2415 15.8418 31.0045 16.1881C30.7591 16.6228 30.6871 17.1292 30.5284 17.5955H29.625C29.7826 17.106 29.8821 16.5965 30.0894 16.1218C30.173 15.9196 30.3666 15.806 30.5485 15.7007C29.9603 15.4691 29.7022 14.7533 29.9445 14.1848V14.1859ZM31.1568 14.1259C30.666 14.2754 30.6395 15.107 31.1357 15.2638C31.4382 15.3459 31.7588 15.2996 32.0698 15.307V14.0754C31.7651 14.0827 31.4541 14.0448 31.1568 14.1217V14.1259ZM33.8809 13.4553H36.7986C36.7986 13.6659 36.7986 13.8711 36.7986 14.0796C36.131 14.0796 35.4624 14.0796 34.7949 14.0796C34.7949 14.4301 34.7949 14.7828 34.7949 15.1322H36.4812C36.4812 15.328 36.4812 15.5249 36.4812 15.7207C35.9195 15.7207 35.3577 15.7207 34.7949 15.7207C34.7949 16.1347 34.7949 16.5488 34.7949 16.9629H36.8853C36.8853 17.1734 36.8853 17.3839 36.8853 17.5945H33.8809V13.4511V13.4553ZM37.6153 13.4553H38.7356C39.1386 14.4027 39.5131 15.367 39.9098 16.3186C40.3129 15.3628 40.7075 14.4038 41.1274 13.4543H42.2065V17.5934H41.3242C41.3242 16.646 41.3242 15.7091 41.3242 14.768C40.9942 15.5923 40.626 16.4007 40.2663 17.2155H39.5205C39.1894 16.407 38.8117 15.6175 38.5018 14.8007C38.4965 15.7333 38.4901 16.6649 38.4922 17.5955H37.6163C37.6163 16.2151 37.6163 14.8354 37.6163 13.4564L37.6153 13.4553ZM27.2141 18.6187L27.5716 18.3534C27.7917 18.5798 28.0382 18.845 28.3788 18.8587C28.7533 18.8756 29.0474 18.6113 29.3214 18.3955L29.5859 18.6292C29.3002 19.0229 28.8972 19.404 28.3777 19.4114C27.8583 19.4187 27.4912 18.9998 27.2141 18.6187ZM1.2587 20.0672C1.95373 19.5588 2.89102 19.6461 3.68127 19.8514C3.63895 20.0675 3.59699 20.2833 3.55538 20.4988C3.04019 20.4062 2.44882 20.2735 1.97489 20.5683C1.50095 20.863 1.44594 21.4852 1.46604 21.9925C1.47345 22.4284 1.60251 22.9505 2.04471 23.1431C2.57366 23.3642 3.15126 23.2305 3.68973 23.1358C3.73839 23.3463 3.78812 23.5484 3.83572 23.7547C3.0952 23.9653 2.2584 24.0821 1.51576 23.7958C0.947677 23.5853 0.611268 23.0021 0.542505 22.4273C0.417674 21.601 0.542505 20.6104 1.2587 20.0704V20.0672ZM9.7049 19.7588C10.309 19.6324 10.9934 19.6798 11.5033 20.0525C11.9836 20.4062 12.1931 21.0136 12.229 21.5873C12.2809 22.2726 12.1232 23.0305 11.5943 23.5116C11.0336 24.0084 10.1989 24.059 9.5039 23.8568C9.22614 23.7689 8.97646 23.61 8.77985 23.3958C8.58324 23.1817 8.4466 22.92 8.3836 22.6368C8.22703 21.9925 8.24501 21.2788 8.53382 20.6725C8.64578 20.4409 8.80952 20.2378 9.01251 20.0789C9.21549 19.92 9.45234 19.8094 9.7049 19.7556V19.7588ZM9.91648 20.382C9.53247 20.5083 9.34945 20.9083 9.28915 21.282C9.21933 21.7768 9.20875 22.3031 9.38754 22.7768C9.61075 23.4084 10.5872 23.521 10.9744 22.9968C11.2283 22.6536 11.2674 22.2062 11.2674 21.7925C11.2674 21.3788 11.2177 20.9378 10.95 20.6072C10.7014 20.3135 10.2614 20.2693 9.91331 20.382H9.91648ZM43.989 19.9609C44.7296 19.7135 45.5621 19.5798 46.3217 19.8325C46.5161 19.8913 46.686 20.0114 46.8058 20.1747C46.9256 20.338 46.9889 20.5356 46.9861 20.7378C46.9945 21.1346 46.7068 21.4557 46.3799 21.642C46.6835 21.7767 46.9723 21.9947 47.0612 22.3294C47.2399 22.9063 46.8803 23.5421 46.3206 23.7526C45.5156 24.0684 44.5963 23.9632 43.7923 23.6947C43.8547 23.5 43.9192 23.3031 43.9838 23.1084C44.5497 23.2579 45.1707 23.3947 45.743 23.2C46.1514 23.0715 46.3016 22.4631 45.9652 22.1852C45.6298 21.9262 45.1771 22.0104 44.7835 21.9925C44.7835 21.8062 44.7835 21.621 44.7835 21.4346C45.1083 21.4188 45.4764 21.4957 45.761 21.2946C45.9588 21.163 46.089 20.9051 45.9959 20.6735C45.9186 20.4725 45.6944 20.3883 45.4976 20.3577C45.0395 20.303 44.5815 20.3998 44.1435 20.5283C44.0885 20.3367 44.0377 20.1462 43.9816 19.9556L43.989 19.9609ZM4.4091 19.7703C5.36755 19.7703 6.32564 19.7703 7.28339 19.7703C7.28339 19.9735 7.28339 20.1767 7.28339 20.3809H5.32417C5.32417 20.7178 5.32417 21.0546 5.32417 21.3915C5.98641 21.4178 6.74281 21.2673 7.3056 21.7073C8.02709 22.2999 7.72876 23.6684 6.7883 23.8537C6.00651 23.98 5.20146 23.8758 4.41756 23.9179C4.39958 22.5357 4.41756 21.1536 4.4091 19.7724V19.7703ZM5.32417 21.9873C5.32417 22.4245 5.32417 22.8617 5.32417 23.2989C5.66799 23.2873 6.02344 23.34 6.36091 23.2558C6.8761 23.0726 6.89832 22.1778 6.34504 22.0304C6.01075 21.9557 5.66376 21.9947 5.32417 21.9873ZM13.0034 19.7693C13.7651 19.8093 14.5511 19.6714 15.2959 19.8746C16.1982 20.1514 16.3199 21.4915 15.6132 22.0336C15.1393 22.421 14.4876 22.3073 13.9206 22.3252C13.9206 22.8515 13.9206 23.3779 13.928 23.9116H13.0066V19.7672L13.0034 19.7693ZM13.9185 20.3925C13.9185 20.8346 13.9185 21.2736 13.9185 21.7136C14.1868 21.7259 14.4556 21.7171 14.7225 21.6873C15.2885 21.5504 15.2927 20.5756 14.7299 20.4241C14.4633 20.3662 14.1882 20.3925 13.9185 20.3872V20.3925ZM16.688 23.9105C16.688 22.5315 16.688 21.1536 16.688 19.7767H17.601C17.601 20.3262 17.601 20.8767 17.601 21.4262H19.2439C19.2439 20.8767 19.2439 20.3262 19.2439 19.7767H20.1579V23.9105H19.245C19.245 23.2979 19.245 22.6842 19.245 22.0715H17.5947C17.6063 22.6842 17.5999 23.2979 17.601 23.9105H16.688ZM21.0688 19.7693H21.9764C21.9764 20.3104 21.9764 20.8504 21.9849 21.3904C22.6313 21.4157 23.3676 21.2725 23.9208 21.6946C24.6614 22.2483 24.435 23.621 23.5051 23.8368C22.7053 23.9895 21.8791 23.8758 21.0719 23.9105C21.0719 22.5294 21.0719 21.149 21.0719 19.7693H21.0688ZM21.9828 21.9873C21.9828 22.4245 21.9828 22.8614 21.9828 23.2979C22.3139 23.2916 22.6503 23.3273 22.9783 23.2694C23.5072 23.14 23.5654 22.3147 23.0946 22.0789C22.7476 21.9231 22.3541 22.0083 21.9828 21.9873ZM24.8454 19.7693H25.7404C25.7404 21.1504 25.7404 22.5308 25.7404 23.9105H24.8454V19.7672V19.7693ZM26.6312 19.784H27.5272C27.5272 20.7462 27.5272 21.7083 27.5272 22.6715C28.1418 21.7115 28.7374 20.742 29.3404 19.7767C29.6324 19.7767 29.9254 19.7767 30.2195 19.783V23.9105H29.3362C29.3362 22.9631 29.3362 22.0157 29.3362 21.063C28.73 22.0104 28.1471 22.9684 27.5378 23.9105H26.6312V19.784ZM32.9542 19.7693H35.8718C35.8718 19.9798 35.8718 20.1928 35.8718 20.4083H33.8619C33.8619 21.5767 33.8619 22.7421 33.8619 23.9105H32.9542C32.9542 22.5294 32.9542 21.149 32.9542 19.7693ZM36.4759 19.7693C37.0556 19.7756 37.6396 19.7609 38.2161 19.7756C38.6266 19.7851 39.0624 19.9293 39.3153 20.2693C39.713 20.8399 39.5776 21.7431 38.963 22.1189C38.4922 22.4052 37.9146 22.3052 37.3899 22.3294C37.3899 22.8557 37.3899 23.3821 37.3952 23.9158H36.4759V19.7672V19.7693ZM37.391 20.3935C37.391 20.8346 37.391 21.2736 37.391 21.7136C37.7295 21.6915 38.1209 21.7925 38.415 21.5767C38.7324 21.2662 38.6858 20.5683 38.213 20.4325C37.9443 20.3672 37.6639 20.3998 37.391 20.3935ZM39.8061 19.7703C40.1045 19.7703 40.4039 19.7703 40.7043 19.7703C41.0523 20.6125 41.3729 21.4652 41.6945 22.3178C42.0118 21.4694 42.3197 20.6199 42.6413 19.7735H43.5331C43.0627 20.9343 42.5909 22.095 42.1176 23.2558C42.0044 23.5452 41.8309 23.8526 41.5136 23.9484C41.1126 24.0695 40.6895 23.9684 40.2917 23.8884C40.3372 23.6884 40.3838 23.4874 40.4324 23.2873C40.644 23.3116 40.8556 23.3642 41.0672 23.3347C41.2713 23.2768 41.2978 23.0273 41.4004 22.8694L41.156 22.8221C40.7085 21.8041 40.2579 20.7904 39.8104 19.7693L39.8061 19.7703ZM43.7976 7.28769C45.0311 7.28769 46.2653 7.28769 47.5002 7.28769C47.5002 8.27791 47.5002 9.26813 47.5002 10.2583C46.2708 10.4051 45.0287 10.4128 43.7976 10.2815C43.7976 9.28146 43.7976 8.28282 43.7976 7.28559V7.28769Z" fill="#ED1848"/>
</g>
<defs>
<clipPath id="clip0">
<rect width="47" height="24" fill="white" transform="translate(0.5)"/>
</clipPath>
</defs>
</svg>
