<svg width="91" height="18" viewBox="0 0 91 18" fill="none" xmlns="http://www.w3.org/2000/svg">
<g clip-path="url(#clip0)">
<path d="M25.4 6.14003C28.541 6.14003 30.5734 7.92155 30.5734 10.5588C30.5734 13.1961 28.5468 14.9757 25.4 14.9757H23.424V17.893H21.6094V6.14003H25.4ZM25.5186 13.2797C27.2826 13.2797 28.8599 12.4901 28.8599 10.5569C28.8599 8.69173 27.2826 7.85154 25.5186 7.85154H23.4181V13.2778L25.5186 13.2797Z" fill="#50555B"/>
<path d="M32.0928 7.70177C32.0928 7.19805 32.5284 6.81296 33.1002 6.81296C33.672 6.81296 34.0902 7.20194 34.0902 7.70177C34.0657 7.94965 33.9499 8.17956 33.7653 8.3468C33.5807 8.51405 33.3406 8.60667 33.0915 8.60667C32.8424 8.60667 32.6022 8.51405 32.4176 8.3468C32.2331 8.17956 32.1173 7.94965 32.0928 7.70177ZM32.2425 9.5008H33.9229V17.893H32.2425V9.5008Z" fill="#50555B"/>
<path d="M43.2797 10.9439L42.2703 12.037C41.9837 11.7099 41.6296 11.4489 41.2324 11.2719C40.8351 11.095 40.4043 11.0063 39.9695 11.012C39.2694 11.0308 38.6043 11.3222 38.1158 11.824C37.6273 12.3258 37.3539 12.9985 37.3539 13.6989C37.3539 14.3992 37.6273 15.0719 38.1158 15.5737C38.6043 16.0756 39.2694 16.3669 39.9695 16.3857C40.4033 16.3876 40.8326 16.2976 41.2292 16.1216C41.6258 15.9456 41.9806 15.6876 42.2703 15.3647L43.2797 16.4558C42.7136 17.1341 41.9524 17.6217 41.0995 17.8521C40.2466 18.0826 39.3434 18.0447 38.5128 17.7437C37.6821 17.4427 36.9644 16.8931 36.4571 16.1697C35.9499 15.4464 35.6777 14.5843 35.6777 13.7008C35.6777 12.8173 35.9499 11.9553 36.4571 11.2319C36.9644 10.5085 37.6821 9.95897 38.5128 9.65795C39.3434 9.35692 40.2466 9.31906 41.0995 9.5495C41.9524 9.77994 42.7136 10.2675 43.2797 10.9459V10.9439Z" fill="#50555B"/>
<path d="M49.4104 15.7147C48.7725 14.7229 48.4691 14.3883 47.4791 14.3883H46.5378V17.8891H44.8496V6.14003H46.53V12.7527H47.3371C48.3446 12.7527 48.6305 12.4162 49.2684 11.4088L50.5287 9.49497H52.3919L50.6843 12.1206C50.2136 12.8091 49.778 13.3634 49.3229 13.5481C49.8597 13.7154 50.3128 14.2697 50.801 15.0263L52.6856 17.893H50.8204L49.4104 15.7147Z" fill="#50555B"/>
<path d="M57.9427 6.14003C60.7822 6.14003 63.0499 7.56758 63.0499 10.3566C63.0499 13.1455 60.7822 14.5731 57.9427 14.5731H55.1206V17.893H54.3154V6.14003H57.9427ZM57.9757 13.8088C60.2785 13.8088 62.2545 12.8013 62.2545 10.3488C62.2545 7.89627 60.2726 6.88881 57.9757 6.88881H55.1206V13.8088H57.9757Z" fill="#D35A2A"/>
<path d="M72.6403 13.6998C72.6384 14.5511 72.3843 15.3827 71.9101 16.0897C71.4359 16.7967 70.7629 17.3474 69.976 17.6722C69.1891 17.997 68.3236 18.0813 67.4888 17.9146C66.654 17.748 65.8873 17.3377 65.2855 16.7356C64.6837 16.1335 64.2737 15.3666 64.1074 14.5317C63.9411 13.6969 64.0259 12.8314 64.351 12.0447C64.6762 11.2579 65.2271 10.5852 65.9343 10.1113C66.6415 9.63742 67.4733 9.3837 68.3246 9.38216C68.892 9.38036 69.4542 9.49083 69.9787 9.7072C70.5033 9.92357 70.9798 10.2416 71.3809 10.6429C71.7821 11.0442 72.0999 11.5209 72.316 12.0456C72.5321 12.5702 72.6424 13.1324 72.6403 13.6998ZM64.7965 13.6998C64.8046 14.3994 65.0194 15.0809 65.414 15.6586C65.8085 16.2363 66.3651 16.6844 67.0138 16.9464C67.6624 17.2084 68.3741 17.2727 69.0592 17.1312C69.7443 16.9897 70.3722 16.6486 70.8639 16.151C71.3556 15.6533 71.6891 15.0214 71.8224 14.3346C71.9557 13.6479 71.8829 12.937 71.6131 12.2916C71.3433 11.6461 70.8886 11.0949 70.3062 10.7073C69.7238 10.3197 69.0397 10.1131 68.3401 10.1134C67.8706 10.1116 67.4055 10.2034 66.9719 10.3835C66.5383 10.5636 66.145 10.8284 65.8151 11.1623C65.4851 11.4963 65.225 11.8928 65.0501 12.3285C64.8752 12.7642 64.789 13.2304 64.7965 13.6998Z" fill="#D35A2A"/>
<path d="M74.556 7.83793C74.5486 7.73659 74.5719 7.63536 74.6228 7.54744C74.6738 7.45952 74.75 7.38899 74.8417 7.34504C74.9333 7.3011 75.036 7.28577 75.1365 7.30106C75.2369 7.31636 75.3304 7.36156 75.4048 7.43078C75.4792 7.5 75.531 7.59003 75.5535 7.68912C75.576 7.78822 75.5681 7.89179 75.5308 7.98633C75.4936 8.08087 75.4287 8.162 75.3447 8.21913C75.2607 8.27627 75.1614 8.30677 75.0598 8.30665C74.9311 8.31035 74.8061 8.26325 74.7118 8.17554C74.6176 8.08784 74.5616 7.96656 74.556 7.83793ZM74.6902 9.50081H75.4468V17.893H74.6902V9.50081Z" fill="#D35A2A"/>
<path d="M85.7422 13.3303V17.893H84.9642V13.3634C84.9642 11.1462 83.7973 10.1037 81.9924 10.1037C79.9756 10.1037 78.6491 11.5488 78.6491 13.9507V17.893H77.8926V9.50081H78.476L78.5266 11.7005C79.1976 10.0201 80.7769 9.38217 82.0702 9.38217C84.3146 9.38217 85.7422 10.7942 85.7422 13.3303Z" fill="#D35A2A"/>
<path d="M89.5392 17.893H88.7826V10.2224H87.4893V9.50081H88.7826V6.67877H89.5392V9.50081H90.8325V10.2224H89.5392V17.893Z" fill="#D35A2A"/>
<path d="M10.6195 8.94652C10.6195 9.28165 10.5201 9.60924 10.3338 9.88786C10.1476 10.1665 9.88292 10.3836 9.57327 10.5118C9.26361 10.6399 8.92291 10.6734 8.59425 10.6078C8.26559 10.5423 7.96375 10.3808 7.72692 10.1437C7.49009 9.90657 7.3289 9.60454 7.26376 9.27581C7.19862 8.94708 7.23244 8.60641 7.36095 8.29691C7.48947 7.9874 7.70689 7.72297 7.98573 7.53706C8.26456 7.35116 8.59227 7.25213 8.92739 7.25252C9.14976 7.25252 9.36995 7.29635 9.57537 7.3815C9.78078 7.46666 9.9674 7.59147 10.1245 7.7488C10.2817 7.90613 10.4063 8.09289 10.4912 8.2984C10.5761 8.50392 10.6197 8.72415 10.6195 8.94652Z" fill="#D35A2A"/>
<path d="M8.95067 17.8929C7.77249 17.9138 6.60252 17.693 5.51302 17.2441C4.42352 16.7952 3.4376 16.1277 2.61615 15.2828C1.77038 14.4614 1.10192 13.4753 0.652009 12.3855C0.2021 11.2957 -0.0197114 10.1252 0.000261861 8.94638C-0.0125389 7.77372 0.212687 6.61064 0.662314 5.52753C1.11194 4.44441 1.77662 3.46377 2.61615 2.64492C3.43288 1.7915 4.41713 1.11603 5.50718 0.66087C6.59723 0.205707 7.76956 -0.0193314 8.95067 -0.000133894C11.3883 -0.000133894 13.479 0.881552 15.223 2.64492C16.0618 3.46414 16.726 4.44489 17.1753 5.52795C17.6245 6.61102 17.8496 7.7739 17.8369 8.94638V17.8929H8.95067ZM8.95067 4.47312C8.35713 4.46095 7.76756 4.57241 7.21944 4.80043C6.67132 5.02845 6.17664 5.36804 5.76687 5.7976C5.35133 6.20893 5.02284 6.6997 4.80097 7.24067C4.57911 7.78163 4.46841 8.36173 4.47546 8.94638C4.46708 9.53614 4.57706 10.1216 4.7989 10.6681C5.02073 11.2146 5.34992 11.7111 5.76698 12.1281C6.18404 12.5452 6.68051 12.8744 7.22701 13.0962C7.77352 13.318 8.35897 13.428 8.94872 13.4196C9.5337 13.427 10.1142 13.3164 10.6555 13.0945C11.1968 12.8726 11.6879 12.544 12.0995 12.1282C12.5288 11.7187 12.8682 11.2243 13.0962 10.6766C13.3242 10.1288 13.4358 9.53959 13.4239 8.94638C13.4304 8.35872 13.3164 7.77597 13.0889 7.23408C12.8614 6.69219 12.5254 6.20265 12.1014 5.79565C11.6943 5.37178 11.2048 5.03577 10.6629 4.80832C10.121 4.58086 9.53831 4.46679 8.95067 4.47312Z" fill="#50555B"/>
</g>
<defs>
<clipPath id="clip0">
<rect width="90.8305" height="18" fill="white"/>
</clipPath>
</defs>
</svg>
