<svg width="68" height="15" viewBox="0 0 68 15" fill="none" xmlns="http://www.w3.org/2000/svg">
<g clip-path="url(#clip0)">
<path d="M7.46343 0C5.98731 0 4.54433 0.439867 3.31697 1.26398C2.08962 2.08809 1.13301 3.25943 0.568123 4.62987C0.00323376 6.00032 -0.144567 7.50832 0.143411 8.96318C0.431389 10.418 1.14221 11.7544 2.18599 12.8033C3.22977 13.8522 4.55963 14.5665 6.00739 14.8559C7.45515 15.1453 8.9558 14.9968 10.3196 14.4291C11.6833 13.8614 12.849 12.9001 13.669 11.6668C14.4891 10.4334 14.9269 8.98336 14.9269 7.5C14.9269 5.51088 14.1405 3.60322 12.7409 2.1967C11.3412 0.790176 9.44286 0 7.46343 0ZM14.0789 5.59538L13.3489 5.80462C8.89716 7.15336 5.50663 8.81597 3.0506 12.8634C2.95151 13.0248 2.7897 12.9378 2.81729 12.745C2.85367 12.4929 2.88879 12.2408 2.92768 11.9887C5.19305 8.60672 8.58483 6.58613 12.3981 5.30798C12.6653 5.30798 12.9362 5.30798 13.2134 5.30798H14.0438C14.2407 5.30798 14.2997 5.53235 14.0789 5.59538ZM13.3577 4.27689L12.6264 4.48613C8.17591 5.83613 4.65116 7.76471 2.19513 11.8172C2.09604 11.9786 1.92921 11.9433 1.96182 11.7555C2.28168 9.90126 2.62663 8.0042 3.47708 6.30252C2.98412 5.60798 2.39708 4.80252 1.89283 3.67059C1.83638 3.54454 1.79248 3.45252 1.76739 3.37185C1.6959 3.17395 1.83387 3.07941 2.0007 3.16765C2.40147 3.34772 2.81804 3.48993 3.24503 3.59244C4.25563 3.82422 5.28596 3.95844 6.32197 3.99328C8.13702 4.05252 10.1189 4.00084 12.4909 3.99328H13.3213C13.5182 3.9895 13.5747 4.21513 13.3577 4.27689Z" fill="url(#paint0_linear)"/>
<path d="M26.0467 10.6651H23.8327C20.3895 10.6651 22.8844 3.77898 25.7971 3.77898H29.2779C29.8424 3.77898 30.8295 3.8773 31.3137 2.57394L32.0663 0.557129H27.2759C24.6832 0.557129 22.6612 1.42183 21.2011 2.85251C18.6899 5.31931 17.8193 9.17142 18.439 11.0181C19.0009 12.7311 20.5714 13.8491 23.0187 13.8655L24.9265 13.8844H27.2734L27.8504 12.2672C28.2706 11.1 27.3236 10.6651 26.0467 10.6651Z" fill="black"/>
<path d="M52.3854 7.65507L53.0728 5.00171H45.7837C44.577 5.00171 44.0276 5.40003 43.8131 6.23448L43.127 8.8891H50.421C51.6227 8.8891 52.1696 8.48952 52.3854 7.65507Z" fill="black"/>
<path d="M41.5973 11.6119L40.9111 13.8883H48.2052C49.4119 13.8883 49.9613 13.5455 50.1746 12.8308L50.862 10.5619H43.5679C42.3612 10.5556 41.813 10.8971 41.5973 11.6119Z" fill="black"/>
<path d="M54.5643 2.83116L55.2893 0.562256H47.585C46.3118 0.562256 45.7336 0.903853 45.5053 1.61856L44.7803 3.88747H52.4783C53.7527 3.88873 54.3322 3.54713 54.5643 2.83116Z" fill="black"/>
<path d="M43.0762 3.20541C42.7538 1.15961 41.5847 0.55835 38.7537 0.55835H33.5932L30.5903 8.82348H32.4982C33.6346 8.82348 34.2041 8.83734 34.8087 7.31087L36.0631 3.76507H37.981C39.6116 3.76507 39.2441 5.68608 38.4162 7.55793C37.6862 9.20793 36.3955 10.6626 34.8539 10.6626H31.6552C30.3796 10.6626 29.7913 10.9928 29.5429 11.6848L28.7539 13.8869H31.0983L33.3913 13.868C35.4246 13.8529 37.0891 13.7142 39.0359 12.0693C41.088 10.3361 43.4864 5.81843 43.0762 3.20541Z" fill="black"/>
<path d="M67.9997 0.555908H63.6948L59.6482 4.74961C59.1766 5.23868 58.6999 5.71893 58.222 6.29246H58.1819L60.2014 0.555908H56.6967L51.9678 13.8895H55.48L56.9852 9.69456L58.5519 8.40885L59.7874 12.203C60.17 13.374 60.5626 13.8895 61.4181 13.8895H64.1037L61.3378 6.44624L67.9997 0.555908Z" fill="black"/>
</g>
<defs>
<linearGradient id="paint0_linear" x1="7.46343" y1="0" x2="7.46343" y2="15" gradientUnits="userSpaceOnUse">
<stop stop-color="#8EC03B"/>
<stop offset="1" stop-color="#039752"/>
</linearGradient>
<clipPath id="clip0">
<rect width="68" height="15" fill="white"/>
</clipPath>
</defs>
</svg>
