<svg width="36" height="28" viewBox="0 0 36 28" fill="none" xmlns="http://www.w3.org/2000/svg">
<g clip-path="url(#clip0)">
<path d="M17.9992 0.0317872C19.6485 0.0317872 21.3 0.00681157 22.9492 0.0317872C24.5107 0.0613039 26.0722 0.136231 27.6337 0.211158C29.0602 0.279273 30.489 0.365553 31.9087 0.454103C32.7637 0.506325 33.6187 0.57217 34.4737 0.633474C34.9202 0.678319 35.3311 0.899392 35.6168 1.24854C35.9026 1.59769 36.04 2.04663 35.9992 2.49757C35.9655 3.13558 35.925 3.7736 35.9002 4.41161C35.853 5.6604 35.8192 6.90918 35.7697 8.15569C35.6865 10.1992 35.592 12.2426 35.5065 14.2861C35.457 15.5031 35.4187 16.7201 35.3715 17.9371C35.3355 18.9111 35.3017 19.8852 35.2545 20.857C35.2373 21.1971 35.1185 21.524 34.9136 21.7948C34.7088 22.0655 34.4276 22.2673 34.107 22.3737L20.85 27.0736C20.0805 27.3446 19.3132 27.6186 18.5482 27.8956C18.1771 28.0329 17.7696 28.0329 17.3985 27.8956C12.267 26.0791 7.13622 24.2627 2.00623 22.4463C1.10623 22.1262 0.730476 21.5563 0.698976 20.5504C0.638226 18.6932 0.548226 16.8404 0.473976 14.9831C0.389976 12.7611 0.306726 10.5397 0.224226 8.31917C0.173226 6.99016 0.120726 5.66267 0.0667263 4.33669C0.0419763 3.6964 -0.00077371 3.05838 -0.00077371 2.42037C-0.0142737 1.37366 0.647226 0.681155 1.63273 0.631203C3.09748 0.554006 4.55772 0.433668 6.02247 0.340577C6.84147 0.288355 7.66047 0.242945 8.47947 0.215699C10.7655 0.140772 13.0492 0.0681155 15.3375 0.0113526C16.224 -1.09958e-08 17.1105 0 17.9992 0V0.0317872Z" fill="#FFC100"/>
<path d="M34.0375 4.80449C33.9722 6.27351 33.907 7.76978 33.8417 9.26832L33.6527 13.5664C33.619 14.3679 33.5875 15.1694 33.5537 15.9709C33.5065 17.122 33.4637 18.2709 33.4052 19.4198C33.3625 20.2349 32.7302 21.0092 31.8572 21.2907L24.4097 23.7883C22.558 24.4081 20.7062 25.0257 18.8612 25.6592C18.2986 25.8602 17.6846 25.8602 17.122 25.6592C12.8095 24.1939 8.49324 22.74 4.17324 21.2975C3.71696 21.1591 3.31717 20.8757 3.03338 20.4895C2.74959 20.1033 2.59697 19.6349 2.59824 19.1541C2.54199 17.6079 2.47224 16.0617 2.40699 14.5155C2.35899 13.3893 2.31099 12.2639 2.26299 11.1392C2.19849 9.59225 2.13399 8.04603 2.06949 6.50056C2.03799 5.80351 1.98624 5.10874 1.97949 4.41169C1.9799 3.84991 2.1939 3.30971 2.57737 2.90247C2.96084 2.49523 3.48454 2.25199 4.04049 2.22291C5.69199 2.12755 7.34124 2.02083 8.99049 1.93456C10.1447 1.87098 11.3012 1.80968 12.4577 1.79151C15.3017 1.7461 18.1457 1.70069 20.992 1.70296C22.5805 1.70296 24.1712 1.79151 25.7597 1.85509C26.9477 1.90277 28.1335 1.96861 29.3192 2.039C30.2642 2.09349 31.2115 2.14798 32.1542 2.23426C32.6651 2.3018 33.1356 2.55027 33.4818 2.93536C33.8279 3.32045 34.0273 3.81712 34.0442 4.33676C34.0375 4.48434 34.0375 4.62966 34.0375 4.80449ZM18.0152 2.59755V2.57938C17.2682 2.57938 16.5212 2.56349 15.7652 2.57938C13.8377 2.62479 11.9102 2.67928 9.98274 2.74286C9.29424 2.76329 8.60349 2.80189 7.91499 2.84276C6.67974 2.91769 5.43999 3.01305 4.21374 3.06981C3.38349 3.11295 2.82549 3.66242 2.83674 4.49797C2.83674 5.00883 2.87499 5.51743 2.89524 6.02829C2.94024 7.08787 2.98449 8.14744 3.02799 9.20702C3.10899 10.9856 3.18249 12.7604 3.24849 14.5314C3.30924 16.014 3.38349 17.483 3.43524 18.977C3.46449 19.7808 3.77724 20.2349 4.53774 20.4915L17.509 24.8486C17.823 24.9586 18.1647 24.9586 18.4787 24.8486L20.4182 24.1924L31.5895 20.4529C31.8538 20.3748 32.0882 20.2171 32.2611 20.0008C32.4341 19.7844 32.5373 19.5199 32.557 19.2427C32.5952 18.4639 32.6245 17.6874 32.656 16.9109C32.6942 15.9391 32.728 14.9673 32.7685 13.9955C32.8405 12.3608 32.9192 10.726 32.9935 9.09122C33.0362 8.09446 33.0632 7.09771 33.1037 6.10095C33.124 5.59236 33.1577 5.08376 33.187 4.57289C33.1999 4.39026 33.1769 4.20686 33.1196 4.03317C33.0622 3.85947 32.9715 3.69888 32.8526 3.56057C32.7337 3.42226 32.589 3.30894 32.4267 3.22707C32.2644 3.1452 32.0877 3.09639 31.9067 3.08344C31.1845 3.03576 30.4645 2.98126 29.7445 2.94039C28.5407 2.87001 27.3392 2.79962 26.1445 2.7474C24.8305 2.68837 23.5142 2.62706 22.1957 2.60209C20.7962 2.57938 19.4057 2.59755 18.0152 2.59755Z" fill="black"/>
<path d="M18.0154 2.59748C19.4059 2.59748 20.7964 2.57931 22.1846 2.59748C23.5031 2.62245 24.8194 2.68376 26.1334 2.74279C27.3371 2.79501 28.5386 2.8654 29.7334 2.93578C30.4534 2.97665 31.1734 3.03115 31.8956 3.07883C32.0766 3.09178 32.2533 3.14059 32.4156 3.22246C32.5779 3.30433 32.7226 3.41765 32.8415 3.55596C32.9604 3.69427 33.0511 3.85486 33.1084 4.02856C33.1658 4.20225 33.1887 4.38565 33.1759 4.56829C33.1466 5.07915 33.1129 5.58775 33.0926 6.09634C33.0521 7.0931 33.0251 8.08985 32.9824 9.08661C32.9104 10.7214 32.8316 12.3562 32.7574 13.9909C32.7169 14.9627 32.6831 15.9345 32.6449 16.9063C32.6134 17.6828 32.5841 18.4593 32.5459 19.2381C32.5262 19.5153 32.423 19.7798 32.25 19.9962C32.0771 20.2125 31.8427 20.3702 31.5784 20.4483L20.4184 24.1924L18.4789 24.8485C18.1648 24.9586 17.8232 24.9586 17.5091 24.8485L4.53787 20.496C3.77737 20.2394 3.46462 19.7853 3.43537 18.9815C3.38362 17.4989 3.30937 16.0298 3.24862 14.5358C3.18262 12.7633 3.11212 10.9901 3.03712 9.21603C2.99362 8.15646 2.94937 7.09688 2.90437 6.03731C2.88412 5.52644 2.85487 5.01785 2.84587 4.50698C2.83462 3.67143 3.39262 3.12197 4.22287 3.07883C5.45812 3.01752 6.69787 2.92216 7.92412 2.85178C8.61262 2.81091 9.30337 2.77231 9.99187 2.75187C11.9209 2.69133 13.8484 2.63683 15.7744 2.5884C16.5214 2.57023 17.2684 2.5884 18.0244 2.5884L18.0154 2.59748ZM14.5976 12.5401L14.6606 12.5242C14.7146 12.6059 14.7754 12.6831 14.8226 12.7694C15.4781 13.9894 16.1336 15.2079 16.7891 16.4249C16.8464 16.5371 16.9402 16.6261 17.0546 16.6769C17.1335 16.7126 17.2187 16.7315 17.3051 16.7326C17.3914 16.7337 17.4771 16.7169 17.5568 16.6833C17.6365 16.6497 17.7085 16.5999 17.7684 16.5371C17.8283 16.4743 17.8749 16.3998 17.9051 16.3182L19.8266 12.749C19.8694 12.6718 19.9279 12.6036 19.9796 12.5219L20.0404 12.5423C20.0404 12.6422 20.0629 12.7421 20.0651 12.842V17.2559C20.0651 17.6351 20.2204 17.7895 20.5894 17.7895C20.9584 17.7895 21.3611 17.7895 21.7459 17.7895C22.0901 17.7895 22.2566 17.6328 22.2589 17.2923C22.2589 14.1453 22.2589 10.9969 22.2589 7.84691C22.2676 7.77753 22.2602 7.70707 22.2375 7.64101C22.2148 7.57496 22.1772 7.51509 22.1278 7.46609C22.0783 7.41708 22.0184 7.38026 21.9525 7.35849C21.8867 7.33672 21.8167 7.33059 21.7481 7.34058C21.3296 7.34058 20.9111 7.34058 20.4926 7.34058C20.3688 7.32958 20.2447 7.35981 20.1395 7.42664C20.0343 7.49347 19.9536 7.59323 19.9099 7.71068C19.1599 9.28642 18.3971 10.8591 17.6216 12.4288C17.5605 12.5378 17.4921 12.6425 17.4169 12.7421C17.3337 12.6447 17.2584 12.5407 17.1919 12.4311C16.3684 10.8478 15.5516 9.26371 14.7416 7.67889C14.6975 7.56976 14.62 7.47767 14.5205 7.41602C14.421 7.35436 14.3045 7.32634 14.1881 7.33604C13.7854 7.34967 13.3826 7.33604 12.9821 7.33604C12.5321 7.33604 12.3881 7.47 12.3881 7.92411C12.3881 9.76777 12.3881 11.6099 12.3881 13.4505V17.3013C12.3881 17.6147 12.5276 17.7827 12.7999 17.7872C13.2499 17.7872 13.6999 17.7872 14.1499 17.7872C14.2395 17.7916 14.3278 17.7633 14.3984 17.7074C14.4691 17.6516 14.5174 17.5719 14.5346 17.483C14.5613 17.3646 14.5734 17.2433 14.5706 17.122C14.5706 15.6938 14.5706 14.2657 14.5706 12.8375C14.5729 12.7399 14.5886 12.64 14.5976 12.5401ZM23.4851 12.5628V17.2809C23.4851 17.6578 23.6179 17.7895 23.9959 17.7895C25.3699 17.7895 26.7439 17.7895 28.1179 17.7895C28.1856 17.7992 28.2547 17.7932 28.3198 17.7719C28.3849 17.7506 28.4443 17.7147 28.4935 17.6667C28.5428 17.6188 28.5806 17.5601 28.604 17.4952C28.6274 17.4303 28.6358 17.3609 28.6286 17.2923C28.6286 16.9683 28.6286 16.6436 28.6286 16.3182C28.6371 16.2495 28.6298 16.1797 28.6075 16.1142C28.5851 16.0488 28.5482 15.9893 28.4995 15.9405C28.4509 15.8916 28.3918 15.8546 28.3268 15.8323C28.2619 15.81 28.1927 15.803 28.1246 15.8119H26.0996C25.7104 15.8119 25.6856 15.7892 25.6856 15.4032V7.91048C25.6856 7.49271 25.5371 7.34285 25.1186 7.34285H24.0341C23.6224 7.34285 23.4829 7.48363 23.4829 7.89232L23.4851 12.5628ZM11.1574 12.5628V7.91957C11.1596 7.49271 11.0246 7.34058 10.5746 7.34058H9.54187C9.05587 7.34058 8.91862 7.48136 8.91862 7.98087V17.131C8.91862 17.1878 8.91862 17.2446 8.91862 17.3013C8.91309 17.3686 8.9225 17.4363 8.94618 17.4995C8.96985 17.5627 9.00719 17.6197 9.05547 17.6665C9.10375 17.7132 9.16176 17.7486 9.22528 17.7698C9.28879 17.7911 9.35621 17.7978 9.42262 17.7895C9.81712 17.7895 10.2109 17.7895 10.6039 17.7895C11.0111 17.7895 11.1551 17.651 11.1551 17.2378C11.1596 15.6802 11.1574 14.1226 11.1574 12.565V12.5628Z" fill="#FFC100"/>
<path d="M14.5982 12.5401C14.5982 12.64 14.5734 12.7399 14.5734 12.8398C14.5734 14.2679 14.5734 15.6961 14.5734 17.1243C14.5752 17.245 14.5624 17.3654 14.5352 17.483C14.518 17.5719 14.4696 17.6516 14.399 17.7075C14.3283 17.7633 14.2401 17.7916 14.1504 17.7872C13.7004 17.7872 13.2504 17.7872 12.8004 17.7872C12.5282 17.7872 12.3887 17.6147 12.3887 17.3014V13.4551C12.3887 11.6145 12.3887 9.77232 12.3887 7.92866C12.3887 7.47456 12.5259 7.3406 12.9827 7.3406C13.3832 7.3406 13.7859 7.3406 14.1887 7.3406C14.3051 7.3309 14.4215 7.35891 14.521 7.42057C14.6206 7.48223 14.6981 7.57431 14.7422 7.68344C15.5522 9.26826 16.3659 10.8508 17.1834 12.4311C17.25 12.5407 17.3252 12.6448 17.4084 12.7422C17.4836 12.6425 17.552 12.5378 17.6132 12.4288C18.3812 10.8576 19.1439 9.28491 19.9014 7.71069C19.9452 7.59324 20.0258 7.49348 20.1311 7.42665C20.2363 7.35982 20.3603 7.3296 20.4842 7.3406C20.9027 7.35422 21.3212 7.3406 21.7397 7.3406C21.8083 7.33061 21.8782 7.33673 21.9441 7.3585C22.0099 7.38027 22.0699 7.41709 22.1193 7.4661C22.1688 7.5151 22.2063 7.57497 22.229 7.64102C22.2518 7.70708 22.2591 7.77754 22.2504 7.84692C22.2504 10.9954 22.2504 14.1438 22.2504 17.2923C22.2504 17.6328 22.0817 17.7895 21.7374 17.7895C21.3527 17.7895 20.9657 17.7895 20.5809 17.7895C20.1962 17.7895 20.0589 17.6351 20.0567 17.2559V12.8489C20.0567 12.749 20.0409 12.6491 20.0319 12.5492L19.9712 12.5287C19.9194 12.6037 19.8609 12.6718 19.8182 12.7558L17.9057 16.3182C17.8754 16.3999 17.8289 16.4744 17.769 16.5372C17.7091 16.5999 17.637 16.6497 17.5573 16.6833C17.4777 16.7169 17.392 16.7337 17.3056 16.7326C17.2192 16.7315 17.134 16.7126 17.0552 16.677C16.9407 16.6261 16.847 16.5371 16.7897 16.4249C16.1297 15.214 15.4742 13.9955 14.8232 12.7694C14.7759 12.6831 14.7152 12.6059 14.6612 12.5242L14.5982 12.5401Z" fill="black"/>
<path d="M23.4854 12.5628V7.89004C23.4854 7.48135 23.6249 7.34058 24.0366 7.34058H25.1211C25.5396 7.34058 25.6881 7.49043 25.6881 7.90821V15.4009C25.6881 15.7869 25.7129 15.8096 26.1021 15.8096H28.1271C28.195 15.8011 28.2639 15.8084 28.3286 15.8309C28.3933 15.8533 28.4521 15.8904 28.5004 15.9392C28.5488 15.988 28.5855 16.0473 28.6078 16.1126C28.63 16.1779 28.6372 16.2474 28.6289 16.3159C28.6289 16.6399 28.6289 16.9645 28.6289 17.29C28.6362 17.3582 28.6281 17.4272 28.6053 17.4918C28.5824 17.5564 28.5453 17.6149 28.4968 17.663C28.4483 17.711 28.3896 17.7474 28.3252 17.7693C28.2608 17.7912 28.1923 17.7981 28.1249 17.7895C26.7509 17.7895 25.3769 17.7895 24.0029 17.7895C23.6249 17.7895 23.4921 17.6578 23.4921 17.2809L23.4854 12.5628Z" fill="black"/>
<path d="M11.158 12.565C11.158 14.1226 11.158 15.6802 11.158 17.2378C11.158 17.651 11.014 17.7895 10.6067 17.7895C10.1995 17.7895 9.81921 17.7895 9.42546 17.7895C9.35905 17.7978 9.29163 17.7911 9.22812 17.7698C9.1646 17.7485 9.10659 17.7132 9.05831 17.6665C9.01003 17.6197 8.97269 17.5627 8.94902 17.4995C8.92534 17.4363 8.91593 17.3686 8.92146 17.3013C8.92146 17.2446 8.92146 17.1878 8.92146 17.131V7.98086C8.92146 7.48135 9.05871 7.34058 9.54471 7.34058H10.5752C11.0095 7.34058 11.1557 7.48589 11.1557 7.91956V12.565H11.158Z" fill="black"/>
</g>
<defs>
<clipPath id="clip0">
<rect width="36" height="28" fill="white"/>
</clipPath>
</defs>
</svg>
