<svg xmlns="http://www.w3.org/2000/svg" viewBox="0 0 50 50"><path fill="#0084B4" d="M46.1,0h-41C2.3,0,0,2.3,0,5.1v40.8C0,48.7,2.3,51,5.1,51h41c2.8,0,5.1-2.3,5.1-5.1V5.1C51.2,2.3,48.9,0,46.1,0z M38.2,20.7C38,30.8,31.7,37.8,22.1,38.2c-3.3,0.1-6.6-0.8-9.3-2.6c3,0.3,6.1-0.5,8.5-2.4c-2.5-0.1-4.7-1.8-5.4-4.2c0.8,0.1,1.6,0.1,2.4,0c-2.7-0.7-4.6-3.1-4.6-5.9c0.7,0.4,1.5,0.7,2.4,0.7c-2.3-1.9-3.1-5.2-1.7-7.9c3,3.6,7.3,5.8,11.9,6.1c-1.5-6.1,6.7-9.4,10-5.3c1.3-0.3,2.5-0.7,3.7-1.3c-0.4,1.3-1.2,2.5-2.4,3.3c1-0.2,2.1-0.5,3-0.9C40.1,19,39.3,20,38.2,20.7L38.2,20.7z"></path></svg>